<svg width="109" height="125" viewBox="0 0 109 125" fill="none" xmlns="http://www.w3.org/2000/svg">
<path d="M62.7995 14.2016C62.7995 14.2016 64.4336 17.674 62.042 19.5942C62.4673 19.3608 62.9117 19.1229 63.3387 18.9017C63.3387 18.9017 66.3269 17.5279 62.7995 14.2016Z" fill="url(#paint0_linear_1768_2985)"/>
<path d="M30.9656 19.7686L31.3221 18.2996C31.2821 18.3118 31.236 18.3267 31.1847 18.3433L29.7158 21.5796C30.2594 21.1126 30.6664 20.4376 30.9656 19.7686Z" fill="url(#paint1_linear_1768_2985)"/>
<path d="M31.4568 17.7434L31.1846 18.3433C31.2359 18.3266 31.282 18.3118 31.322 18.2995L31.4568 17.7434Z" fill="url(#paint2_linear_1768_2985)"/>
<path d="M62.0422 19.5947C60.789 20.2794 59.7019 20.9169 59.7019 20.9169C59.6315 21.0288 59.5332 21.1408 59.4219 21.251L62.0405 19.5957C62.0405 19.5957 62.0414 19.5947 62.0422 19.5947Z" fill="url(#paint3_linear_1768_2985)"/>
<path d="M61.856 56.9706C60.3775 53.6809 63.3223 49.3909 63.3223 49.3909C65.6895 45.6212 68.189 39.3112 68.189 39.3112C65.9652 42.4007 63.5432 41.326 63.5432 41.326C70.0075 38.0372 70.478 26.4893 70.478 26.4893C72.6365 38.5076 65.4286 48.5113 65.4286 48.5113C61.7899 53.5445 61.856 56.9706 61.856 56.9706ZM59.5026 73.0184C66.3035 75.5691 70.4119 68.9242 70.4119 68.9242C73.241 64.3579 68.6621 57.1062 68.6621 57.1062C66.9767 54.5545 70.7493 50.7936 70.7493 50.7936C75.8709 45.5556 77.0128 41.5953 77.0128 41.5953C80.1167 37.7014 79.4392 30.9865 79.4392 30.9865C82.8101 36.0225 78.7669 41.5953 78.7669 41.5953C78.8365 42.1995 80.5872 42.8711 80.5872 42.8711C81.4612 43.1396 82.7414 45.0887 82.7414 45.0887C83.3458 46.5647 85.5704 47.3701 85.5704 47.3701C89.5449 49.8553 90.0832 46.7667 90.0832 46.7667C92.0374 42.4697 90.0832 40.1184 90.0832 40.1184C88.6004 39.4477 87.929 36.3591 87.929 36.3591C87.4576 34.1424 84.8982 30.5179 84.8982 30.5179C83.0788 28.2338 83.1449 26.2191 83.1449 26.2191C82.9405 19.7753 75.8048 20.1775 75.8048 20.1775C72.0304 19.7753 71.4903 17.9626 71.4903 17.9626L70.6815 16.2163C69.9414 14.2034 71.4903 11.9866 71.4903 11.9866C74.3185 5.27179 66.7758 0.976597 66.7758 0.976597C54.582 -3.05196 52.493 6.68319 52.493 6.68319C52.0225 9.30039 54.3133 8.83078 54.3133 8.83078C54.6333 7.9371 57.0754 8.83078 57.0754 8.83078C57.2763 9.16657 58.6921 9.59592 58.6921 9.59592C60.3071 9.68948 59.9036 10.4424 59.9036 10.4424C59.2304 11.5154 57.3937 10.3751 57.3937 10.3751C56.3701 9.16658 53.9941 9.72452 53.9941 9.72452V11.5652C53.9941 11.5652 54.0402 12.562 54.4402 12.8103C54.4402 12.8103 55.1403 13.1602 54.4402 14.5532L53.6914 16.3947C53.6914 16.3947 53.1818 17.549 54.6603 17.3033L55.6056 17.2106C55.6056 17.2106 56.0161 17.2665 55.9517 17.7492C55.9483 17.7694 55.9204 17.9416 55.9143 17.9617C55.8065 18.5004 55.7743 18.7627 55.7743 18.7627C55.7743 18.7627 55.6665 19.3355 56.177 19.6722C56.177 19.6722 56.6066 20.0429 56.4057 20.6873C56.4057 20.6873 55.8474 22.4109 57.3937 22.5333L59.4218 21.2505C59.5331 21.1403 59.6313 21.0284 59.7018 20.9164C59.7018 20.9164 60.7889 20.279 62.0421 19.5943C64.4337 17.674 62.7996 14.2016 62.7996 14.2016C66.327 17.528 63.3388 18.9017 63.3388 18.9017C62.9118 19.123 62.4674 19.3608 62.0421 19.5943C62.0412 19.5943 62.0404 19.5952 62.0404 19.5952L59.4218 21.2505C58.4651 22.2019 56.2005 23.0641 56.2005 23.0641C51.1442 24.2052 49.7979 28.504 49.7979 28.504C46.4305 28.8381 41.8499 31.7928 41.8499 31.7928C34.7081 36.8943 41.2446 38.6414 41.2446 38.6414C33.8306 39.3786 38.7495 32.3297 38.7495 32.3297C36.7953 25.0115 32.0121 25.6831 32.0121 25.6831C30.8015 28.7716 31.9451 34.5446 31.9451 34.5446C32.4843 36.9633 32.2138 39.2448 32.2138 39.2448C32.2843 45.2889 37.2667 42.8711 37.2667 42.8711C38.7495 42.1331 42.5239 41.9302 42.5239 41.9302C52.8296 40.6552 54.3133 36.6249 54.3133 36.6249C56.0631 42.0666 59.9731 41.73 59.9731 41.73C56.671 44.3489 54.0428 39.2448 54.0428 39.2448C52.5739 40.5844 49.0569 41.73 49.0569 41.73V45.6894C48.7212 48.7115 49.864 49.9217 49.864 49.9217C54.1089 53.8812 51.4825 56.9042 51.4825 56.9042C51.8199 55.0888 51.4164 54.3517 51.4164 54.3517C48.7891 51.062 48.3159 54.8886 48.3159 54.8886C47.0393 56.2326 46.3635 58.382 46.3635 58.382C45.8921 60.0591 43.4666 63.0899 43.4666 63.0899C40.0305 66.5903 34.775 74.2251 34.775 74.2251C30.8015 81.6115 33.8306 81.6797 33.8306 81.6797C36.3222 82.4842 40.4349 76.3072 40.4349 76.3072C35.8526 88.0544 31.3398 81.4768 31.3398 81.4768C27.7002 85.4398 27.2975 88.9306 27.2975 88.9306C26.9627 91.1464 26.2869 93.1585 26.2869 93.1585L24.8737 95.2424C22.5839 98.4638 18.3389 106.722 18.3389 106.722C16.5204 111.155 12.7469 115.787 12.7469 115.787C9.04381 120.42 1.76545 121.627 1.76545 121.627L0.688787 122.435C-0.860983 123.912 0.688787 124.255 0.688787 124.255L15.3751 124.248C17.1249 124.312 17.6641 123.912 17.6641 123.912C18.812 122.368 18.2728 120.62 18.2728 120.62C17.8667 118.606 20.1592 115.383 20.1592 115.383C20.8975 114.176 28.8482 107.463 28.8482 107.463C35.5856 100.479 32.62 97.3899 32.62 97.3899C31.2737 95.4426 26.8957 97.9286 26.8957 97.9286C30.9345 92.354 34.775 96.7866 34.775 96.7866C35.6499 96.3161 37.5397 91.08 37.5397 91.08C38.3442 89.1317 42.7926 85.5736 42.7926 85.5736C48.4525 82.3513 51.8868 75.7055 51.8868 75.7055C44.8129 73.9575 45.486 69.058 45.486 69.058C48.5186 74.964 54.1776 74.0249 54.1776 74.0249C61.589 72.617 61.589 61.5361 61.589 61.5361C63.4745 69.5276 59.5026 73.0184 59.5026 73.0184Z" fill="url(#paint4_linear_1768_2985)"/>
<path d="M107.667 120.754C107.06 120.084 105.779 119.616 105.779 119.616L99.7855 118.003C94.1265 116.591 91.5671 109.543 91.5671 109.543C87.9292 95.9142 83.0094 92.2879 83.0094 92.2879C79.2359 89.669 78.3627 84.9697 78.3627 84.9697C77.6209 73.8896 72.0966 67.8472 72.0966 67.8472C68.1187 76.9117 59.5654 74.4965 59.5654 74.4965C65.7654 90.407 71.5566 89.2658 71.5566 89.2658C76.9477 88.8627 74.7892 80.74 74.7892 80.74C79.5724 91.9827 69.8729 90.7428 69.8729 90.7428C70.1442 91.8175 72.4315 93.9651 72.4315 93.9651C73.3733 94.773 75.0623 97.0545 75.0623 97.0545C75.3301 94.906 76.7416 94.4355 76.7416 94.4355C81.5266 92.4882 84.1704 99.0019 84.1704 99.0019C79.6055 93.1588 76.8808 96.5176 76.8808 96.5176C73.5768 101.888 80.8535 107.327 80.8535 107.327C82.6728 108.469 86.7803 112.899 86.7803 112.899L90.9531 117.532C92.2941 119.21 91.9688 121.83 91.9688 121.83C91.9019 123.912 93.7204 124.255 93.7204 124.255L107.667 122.769C109.552 122.368 107.667 120.754 107.667 120.754Z" fill="url(#paint5_linear_1768_2985)"/>
<path d="M29.7518 24.7761L29.751 24.7823C33.6741 22.8944 36.7571 26.2758 36.7571 26.2758C39.9384 31.6396 41.4125 30.6061 41.4125 30.6061C43.6258 28.266 49.017 27.1643 49.017 27.1643C51.1355 23.1707 55.1882 21.8835 55.1882 21.8835C54.9587 21.6527 55.1882 20.4599 55.1882 20.4599C54.8195 20.139 54.6795 19.2681 54.6795 19.2681C55.0491 18.3499 54.3586 18.3088 54.3586 18.3088L53.4367 18.3035C52.5609 18.3953 52.3322 17.1283 52.3322 17.1283L52.8845 14.5382L48.2308 12.6582C42.4727 10.6819 39.9384 13.0692 39.9384 13.0692C36.0683 15.4573 33.1001 10.9661 33.1001 10.9661L33.0984 10.9739C33.3323 11.5126 33.5376 12.1527 33.6984 12.9266C33.6984 12.9266 35.2143 20.898 29.7518 24.7761Z" fill="url(#paint6_linear_1768_2985)"/>
<path d="M31.8675 16.0493L31.5996 17.1528C31.644 17.1458 31.6848 17.1354 31.7292 17.1293C31.7901 16.7463 31.837 16.3859 31.8675 16.0493Z" fill="url(#paint7_linear_1768_2985)"/>
<path d="M31.3224 18.2995L30.9658 19.7686C31.4807 18.6178 31.6763 17.4906 31.6763 17.4906C31.6981 17.3691 31.7077 17.2659 31.7268 17.1496L31.4572 17.7433L31.3224 18.2995Z" fill="url(#paint8_linear_1768_2985)"/>
<path d="M39.1561 12.4744C40.5311 11.1793 42.1513 10.9659 42.1513 10.9659C42.7949 10.7456 45.9301 10.9659 45.9301 10.9659C47.9077 10.8383 46.1127 9.35002 46.1127 9.35002L43.1627 8.06457L40.2641 7.83631C38.0977 7.65093 37.9125 8.50879 37.9125 8.50879L35.333 11.5064C36.9871 13.2973 39.1561 12.4744 39.1561 12.4744Z" fill="url(#paint9_linear_1768_2985)"/>
<path d="M17.1808 38.7814C18.6575 27.3025 27.3143 22.2063 27.3143 22.2063C19.8072 29.2315 19.1158 34.4651 19.1158 34.4651C17.78 38.826 19.5307 45.804 19.5307 45.804C20.3143 49.1041 20.5934 52.2801 20.5934 52.2801C21.604 65.4099 17.827 68.0734 17.827 68.0734C20.636 61.0945 18.7932 53.4711 18.7932 53.4711C16.5364 45.4839 17.1808 38.7814 17.1808 38.7814ZM25.6541 56.7336C25.6541 56.7336 23.2633 64.5354 23.6338 68.6707C23.6338 68.6707 22.2319 64.5844 24.7748 55.9047C24.7748 55.9047 26.3237 50.2951 23.4921 43.6013C23.4921 43.6013 20.2682 36.806 24.6 28.8188C24.6 28.8188 21.4179 35.6115 24.6 43.0049C24.6 43.0049 27.7222 49.5247 25.6541 56.7336ZM16.7668 107.097C17.5052 105.124 19.5794 101.912 19.5794 101.912C7.36906 88.0448 16.2615 73.6734 16.2615 73.6734C10.5956 91.7629 20.1742 100.762 20.1742 100.762L22.6154 96.401C19.1158 92.4984 18.1948 88.2285 18.1948 88.2285C16.9069 83.2695 19.7611 72.527 19.7611 72.527C19.0715 81.2041 19.2559 85.2903 19.2559 85.2903C19.3915 93.0484 23.446 95.3464 23.446 95.3464C24.7357 93.8301 25.7515 91.0756 25.7515 91.0756C21.19 87.2193 21.9727 79.6886 21.9727 79.6886C22.391 76.0588 22.5711 72.4351 22.5711 72.4351C23.6338 75.0969 23.0807 80.4214 23.0807 80.4214C22.9833 86.7585 26.2576 89.5593 26.2576 89.5593C25.7045 87.7965 27.9605 83.8667 27.9605 83.8667C23.9069 77.6223 26.1655 68.3034 26.1655 68.3034C26.9447 66.098 29.0241 54.7128 29.0241 54.7128C30.5695 47.3999 28.5032 44.474 28.5032 44.474C26.709 41.4869 26.7168 38.5059 26.7168 38.5059C26.9447 35.5206 26.442 32.5824 26.442 32.5824C27.9144 33.7306 27.8466 39.6978 27.8466 39.6978C27.9144 41.73 29.2763 44.0131 29.2763 44.0131C29.7581 45.7139 29.5259 47.6867 29.5259 47.6867C29.5746 49.2948 30.266 48.4203 30.266 48.4203C31.2322 45.9876 30.266 43.8304 30.266 43.8304C29.6659 42.9122 29.7503 39.7913 29.7503 39.7913C30.3373 35.7505 28.7449 31.9397 28.7449 31.9397C27.3143 28.7716 28.0353 25.2808 28.0353 25.2808L28.0501 25.2494C28.1553 23.3291 29.4485 21.7866 29.4485 21.7866C29.5416 21.7245 29.6294 21.6536 29.7155 21.5793L31.1844 18.343L31.4566 17.7431L31.5992 17.1529C15.331 19.5689 13.0829 39.5605 13.0829 39.5605C11.6061 48.7439 14.4639 56.7791 14.4639 56.7791C16.3059 65.5926 13.1733 70.8742 13.1733 70.8742C9.58066 76.796 8.75098 82.3513 8.75098 82.3513C5.8506 97.2745 16.7668 107.097 16.7668 107.097Z" fill="url(#paint10_linear_1768_2985)"/>
<path d="M31.7266 17.1494C31.7275 17.1424 31.7284 17.1363 31.7292 17.1293C31.6849 17.1355 31.644 17.1459 31.5997 17.1529L31.457 17.7432L31.7266 17.1494Z" fill="url(#paint11_linear_1768_2985)"/>
<path d="M36.7634 95.5303C36.7634 95.5303 35.6094 99.6139 34.2266 102.002C34.2266 102.002 37.7166 104.125 36.5164 113.701C36.5164 113.701 39.5708 109.349 36.7634 95.5303Z" fill="url(#paint12_linear_1768_2985)"/>
<path d="M37.9073 111.246C37.8038 111.944 37.4559 113.588 36.3914 114.72C36.3914 114.72 35.6539 120.688 38.8335 121.148C38.8335 121.148 41.0425 120.871 39.2483 118.898C39.2483 118.898 37.1768 116.774 37.9073 111.246Z" fill="url(#paint13_linear_1768_2985)"/>
<path d="M37.9072 111.246C37.9385 111.037 37.949 110.91 37.949 110.91C37.9316 111.026 37.9229 111.132 37.9072 111.246Z" fill="url(#paint14_linear_1768_2985)"/>
<path d="M31.2324 107.466C31.2324 107.466 33.077 109.102 32.4987 113.701C32.4987 113.701 34.6416 115.272 35.1477 118.53C35.1477 118.53 34.9181 115.272 35.5617 112.47C35.5617 112.47 36.6679 106.18 33.7675 103.242L31.2324 107.466Z" fill="url(#paint15_linear_1768_2985)"/>
<path d="M32.3867 114.629C32.5684 116.326 31.737 119.174 31.737 119.174C31.4587 121.744 33.5007 121.697 33.5007 121.697C35.1227 121.468 35.0566 119.494 35.0566 119.494C34.2269 115.815 32.3867 114.629 32.3867 114.629Z" fill="url(#paint16_linear_1768_2985)"/>
<path d="M27.3154 118.161C25.3368 120.366 26.6274 121.697 26.6274 121.697C28.332 122.708 29.4809 120.734 29.4809 120.734C32.6143 115.683 30.221 109.118 30.221 109.118C30.4497 115.271 27.3154 118.161 27.3154 118.161Z" fill="url(#paint17_linear_1768_2985)"/>
<path d="M29.8037 108.888C29.8037 108.888 28.8844 110.266 27.1346 111.139C27.1346 111.139 28.2844 115.315 26.9033 117.519C26.9033 117.519 29.5271 115.552 29.8037 108.888Z" fill="url(#paint18_linear_1768_2985)"/>
<path d="M21.7394 114.857C22.3203 117.519 21.0976 118.943 21.0976 118.943C19.3947 121.515 21.7394 121.697 21.7394 121.697C23.5379 121.697 23.9553 120.228 23.9553 120.228C25.0137 117.107 21.7394 114.857 21.7394 114.857Z" fill="url(#paint19_linear_1768_2985)"/>
<path d="M26.2113 111.413C26.2113 111.413 25.4868 111.887 22.3203 114.443C22.3203 114.443 24.9224 116.005 24.9224 119.035C24.9224 119.035 27.0922 116.556 26.2113 111.413Z" fill="url(#paint20_linear_1768_2985)"/>
<path d="M29.7158 21.5793L28.0504 25.2493C28.0417 25.4146 28.0251 25.579 28.0356 25.7495C28.6748 25.4688 29.2418 25.1391 29.7515 24.7762L30.9655 19.7683C30.6664 20.4372 30.2594 21.1123 29.7158 21.5793Z" fill="url(#paint21_linear_1768_2985)"/>
<path d="M27.1286 9.46323C22.8906 12.5876 23.1194 19.7056 23.1194 19.7056C23.3203 19.3051 25.1396 18.2977 25.1396 18.2977C25.1396 18.2977 25.357 10.7539 29.7333 11.0249C29.7333 11.0249 32.3162 11.1386 31.8675 16.0495L33.0981 10.9742C31.1665 6.53029 27.1286 9.46323 27.1286 9.46323Z" fill="url(#paint22_linear_1768_2985)"/>
<path d="M31.7366 17.1285L31.727 17.1495C31.7079 17.2658 31.6983 17.369 31.6765 17.4905C31.6765 17.4905 31.4809 18.6177 30.966 19.7684L29.752 24.7764C35.2144 20.8982 33.6985 12.9268 33.6985 12.9268C33.5377 12.1529 33.3324 11.5128 33.0985 10.9741L31.8679 16.0494C31.8374 16.3861 31.7905 16.7464 31.7296 17.1294C31.7322 17.1294 31.7339 17.1285 31.7366 17.1285Z" fill="url(#paint23_linear_1768_2985)"/>
<path d="M29.4492 21.7867C29.4492 21.7867 28.156 23.3292 28.0508 25.2495L29.7162 21.5795C29.6301 21.6538 29.5423 21.7246 29.4492 21.7867Z" fill="url(#paint24_linear_1768_2985)"/>
<path d="M31.7292 17.1293C31.7283 17.1363 31.7274 17.1424 31.7266 17.1494L31.7361 17.1285C31.7335 17.1285 31.7318 17.1293 31.7292 17.1293Z" fill="url(#paint25_linear_1768_2985)"/>
<defs>
<linearGradient id="paint0_linear_1768_2985" x1="62.042" y1="16.8979" x2="64.5204" y2="16.8979" gradientUnits="userSpaceOnUse">
<stop stop-color="#0C0098"/>
<stop offset="1" stop-color="#BC87FF"/>
</linearGradient>
<linearGradient id="paint1_linear_1768_2985" x1="29.7158" y1="19.9396" x2="31.3221" y2="19.9396" gradientUnits="userSpaceOnUse">
<stop stop-color="#0C0098"/>
<stop offset="1" stop-color="#BC87FF"/>
</linearGradient>
<linearGradient id="paint2_linear_1768_2985" x1="31.1846" y1="18.0433" x2="31.4568" y2="18.0433" gradientUnits="userSpaceOnUse">
<stop stop-color="#0C0098"/>
<stop offset="1" stop-color="#BC87FF"/>
</linearGradient>
<linearGradient id="paint3_linear_1768_2985" x1="59.4219" y1="20.4229" x2="62.0422" y2="20.4229" gradientUnits="userSpaceOnUse">
<stop stop-color="#0C0098"/>
<stop offset="1" stop-color="#BC87FF"/>
</linearGradient>
<linearGradient id="paint4_linear_1768_2985" x1="0" y1="62.1276" x2="90.9517" y2="62.1276" gradientUnits="userSpaceOnUse">
<stop stop-color="#0C0098"/>
<stop offset="1" stop-color="#BC87FF"/>
</linearGradient>
<linearGradient id="paint5_linear_1768_2985" x1="59.5654" y1="96.0511" x2="108.505" y2="96.0511" gradientUnits="userSpaceOnUse">
<stop stop-color="#0C0098"/>
<stop offset="1" stop-color="#BC87FF"/>
</linearGradient>
<linearGradient id="paint6_linear_1768_2985" x1="29.751" y1="20.826" x2="55.1882" y2="20.826" gradientUnits="userSpaceOnUse">
<stop stop-color="#0C0098"/>
<stop offset="1" stop-color="#BC87FF"/>
</linearGradient>
<linearGradient id="paint7_linear_1768_2985" x1="31.5996" y1="16.6011" x2="31.8675" y2="16.6011" gradientUnits="userSpaceOnUse">
<stop stop-color="#0C0098"/>
<stop offset="1" stop-color="#BC87FF"/>
</linearGradient>
<linearGradient id="paint8_linear_1768_2985" x1="30.9658" y1="18.4591" x2="31.7268" y2="18.4591" gradientUnits="userSpaceOnUse">
<stop stop-color="#0C0098"/>
<stop offset="1" stop-color="#BC87FF"/>
</linearGradient>
<linearGradient id="paint9_linear_1768_2985" x1="35.333" y1="10.2366" x2="46.859" y2="10.2366" gradientUnits="userSpaceOnUse">
<stop stop-color="#0C0098"/>
<stop offset="1" stop-color="#BC87FF"/>
</linearGradient>
<linearGradient id="paint10_linear_1768_2985" x1="8.26074" y1="62.125" x2="31.5992" y2="62.125" gradientUnits="userSpaceOnUse">
<stop stop-color="#0C0098"/>
<stop offset="1" stop-color="#BC87FF"/>
</linearGradient>
<linearGradient id="paint11_linear_1768_2985" x1="31.457" y1="17.4363" x2="31.7292" y2="17.4363" gradientUnits="userSpaceOnUse">
<stop stop-color="#0C0098"/>
<stop offset="1" stop-color="#BC87FF"/>
</linearGradient>
<linearGradient id="paint12_linear_1768_2985" x1="34.2266" y1="104.616" x2="37.9502" y2="104.616" gradientUnits="userSpaceOnUse">
<stop stop-color="#0C0098"/>
<stop offset="1" stop-color="#BC87FF"/>
</linearGradient>
<linearGradient id="paint13_linear_1768_2985" x1="36.3174" y1="116.197" x2="39.9508" y2="116.197" gradientUnits="userSpaceOnUse">
<stop stop-color="#0C0098"/>
<stop offset="1" stop-color="#BC87FF"/>
</linearGradient>
<linearGradient id="paint14_linear_1768_2985" x1="37.9072" y1="111.078" x2="37.949" y2="111.078" gradientUnits="userSpaceOnUse">
<stop stop-color="#0C0098"/>
<stop offset="1" stop-color="#BC87FF"/>
</linearGradient>
<linearGradient id="paint15_linear_1768_2985" x1="31.2324" y1="110.886" x2="35.7688" y2="110.886" gradientUnits="userSpaceOnUse">
<stop stop-color="#0C0098"/>
<stop offset="1" stop-color="#BC87FF"/>
</linearGradient>
<linearGradient id="paint16_linear_1768_2985" x1="31.7109" y1="118.163" x2="35.057" y2="118.163" gradientUnits="userSpaceOnUse">
<stop stop-color="#0C0098"/>
<stop offset="1" stop-color="#BC87FF"/>
</linearGradient>
<linearGradient id="paint17_linear_1768_2985" x1="26.2139" y1="115.551" x2="31.0952" y2="115.551" gradientUnits="userSpaceOnUse">
<stop stop-color="#0C0098"/>
<stop offset="1" stop-color="#BC87FF"/>
</linearGradient>
<linearGradient id="paint18_linear_1768_2985" x1="26.9033" y1="113.204" x2="29.8037" y2="113.204" gradientUnits="userSpaceOnUse">
<stop stop-color="#0C0098"/>
<stop offset="1" stop-color="#BC87FF"/>
</linearGradient>
<linearGradient id="paint19_linear_1768_2985" x1="20.4775" y1="118.277" x2="24.166" y2="118.277" gradientUnits="userSpaceOnUse">
<stop stop-color="#0C0098"/>
<stop offset="1" stop-color="#BC87FF"/>
</linearGradient>
<linearGradient id="paint20_linear_1768_2985" x1="22.3203" y1="115.224" x2="26.4217" y2="115.224" gradientUnits="userSpaceOnUse">
<stop stop-color="#0C0098"/>
<stop offset="1" stop-color="#BC87FF"/>
</linearGradient>
<linearGradient id="paint21_linear_1768_2985" x1="28.0322" y1="22.7589" x2="30.9655" y2="22.7589" gradientUnits="userSpaceOnUse">
<stop stop-color="#0C0098"/>
<stop offset="1" stop-color="#BC87FF"/>
</linearGradient>
<linearGradient id="paint22_linear_1768_2985" x1="23.1172" y1="14.1097" x2="33.0981" y2="14.1097" gradientUnits="userSpaceOnUse">
<stop stop-color="#0C0098"/>
<stop offset="1" stop-color="#BC87FF"/>
</linearGradient>
<linearGradient id="paint23_linear_1768_2985" x1="29.752" y1="17.8753" x2="33.8917" y2="17.8753" gradientUnits="userSpaceOnUse">
<stop stop-color="#0C0098"/>
<stop offset="1" stop-color="#BC87FF"/>
</linearGradient>
<linearGradient id="paint24_linear_1768_2985" x1="28.0508" y1="23.4145" x2="29.7162" y2="23.4145" gradientUnits="userSpaceOnUse">
<stop stop-color="#0C0098"/>
<stop offset="1" stop-color="#BC87FF"/>
</linearGradient>
<linearGradient id="paint25_linear_1768_2985" x1="31.7266" y1="17.139" x2="31.7361" y2="17.139" gradientUnits="userSpaceOnUse">
<stop stop-color="#0C0098"/>
<stop offset="1" stop-color="#BC87FF"/>
</linearGradient>
</defs>
</svg>
