<svg width="107" height="135" viewBox="0 0 107 135" fill="none" xmlns="http://www.w3.org/2000/svg">
<path d="M10.2808 22.5907C5.69198 19.1013 6.60782 12.8554 6.60782 12.8554C3.67531 6.61159 11.5653 1.65352 11.5653 1.65352C13.5861 0.183771 11.5653 -0.000139544 11.5653 -0.000139544C-2.3829 4.59204 0.186186 16.8967 0.186186 16.8967C2.66546 28.3756 10.2808 22.5907 10.2808 22.5907Z" fill="url(#paint0_linear_1768_3009)"/>
<path d="M9.45517 8.17213C5.04909 18.7332 13.2148 22.9585 13.2148 22.9585C14.5954 19.7002 14.8524 16.8965 14.8524 16.8965C14.7625 14.8738 16.2434 12.0231 16.2434 12.0231C18.7216 6.88634 23.2165 6.06154 23.2165 6.06154C14.868 -0.643278 9.45517 8.17213 9.45517 8.17213Z" fill="url(#paint1_linear_1768_3009)"/>
<path d="M27.9871 23.6005C27.9871 23.6005 22.8522 28.3756 19.5458 25.4372C19.5458 25.4372 22.6109 18.218 27.9871 23.6005ZM19.9144 38.0178C19.9144 38.0178 29.6393 38.9378 33.4929 28.6516C33.4929 28.6516 28.7213 25.1612 31.9348 15.3361C31.9348 15.3361 27.5287 11.7547 29.2717 5.05089C29.2717 5.05089 17.8038 6.24572 16.0608 15.796C16.0608 15.796 15.2357 26.815 9.08663 30.8552C9.08663 30.8552 11.8385 33.7027 9.08663 36.6411C9.08663 36.6411 6.33483 38.2019 5.59961 37.1921C5.59961 37.1921 6.70245 42.0591 11.1973 40.3134C11.1973 40.3134 14.6843 37.5589 19.9144 38.0178Z" fill="url(#paint2_linear_1768_3009)"/>
<path d="M9.54193 33.7029C9.54193 32.1297 8.26784 30.8554 6.6961 30.8554C5.12854 30.8554 3.85547 32.1297 3.85547 33.7029C3.85547 35.2741 5.12854 36.5483 6.6961 36.5483C8.26784 36.5483 9.54193 35.2741 9.54193 33.7029Z" fill="url(#paint3_linear_1768_3009)"/>
<path d="M32.9438 13.8667C32.9438 13.8667 33.9516 8.08177 42.9434 4.13247C42.9434 4.13247 37.2559 -0.550652 30.8321 5.05133C30.8321 5.05133 29.179 11.0202 32.9438 13.8667Z" fill="url(#paint4_linear_1768_3009)"/>
<path d="M32.942 17.4479C32.942 17.4479 30.0084 30.5805 42.9415 29.9365C42.9415 29.9365 46.7743 29.4211 49.2713 25.8963C51.8936 22.1989 53.0633 15.3247 47.805 8.08156C47.805 8.08156 42.9415 9.09133 41.0126 14.9693C41.0126 14.9693 44.7775 20.2034 41.2894 22.3149C41.2894 22.3149 36.7036 22.9589 38.8111 16.5175C38.8111 16.5175 41.3813 7.07069 51.6565 5.0511C51.6565 5.0511 53.8068 3.96818 50.8043 3.54587C50.8043 3.54587 36.335 4.04138 32.942 17.4479Z" fill="url(#paint5_linear_1768_3009)"/>
<path d="M35.1455 29.9607C35.1455 29.9607 30.5118 41.0508 18.3546 39.8539C18.3546 39.8539 17.4387 46.0078 13.2164 52.2547C13.2164 52.2547 7.61975 61.7108 14.9636 71.1691C14.9636 71.1691 18.4444 75.3714 21.4719 67.5313C21.4719 67.5313 29.4591 49.1522 41.8429 40.6912C41.8429 40.6912 44.5028 35.9056 43.6736 31.3144C43.6736 31.3144 41.5672 32.7392 35.1455 29.9607Z" fill="url(#paint6_linear_1768_3009)"/>
<path d="M35.3239 55.9258C35.3239 55.9258 42.3012 45.4567 44.6833 42.7023C44.6833 42.7023 43.5315 40.9053 42.5257 41.8744C42.5257 41.8744 28.261 55.1909 23.2158 68.5075C23.2158 68.5075 18.4421 80.4453 12.8486 71.446C12.8486 71.446 11.7939 69.8852 11.1725 66.3949C11.1725 66.3949 8.16684 84.3026 30.2798 89.7217C30.2798 89.7217 21.8394 77.7829 35.3239 55.9258Z" fill="url(#paint7_linear_1768_3009)"/>
<path d="M81.0136 52.3442C81.0136 52.3442 69.4548 56.0166 58.812 48.303C58.812 48.303 48.5429 42.5452 45.9686 43.4359C45.9686 43.4359 29.6382 63.5472 29.727 77.2317C29.727 77.2317 29.1777 85.2202 34.5028 93.9446C34.5028 93.9446 37.0729 97.617 36.7941 106.251L36.7032 119.842C36.7032 119.842 36.7941 125.719 32.9425 128.471C32.9425 128.471 29.9745 130.311 29.7155 133.893C29.7155 133.893 30.2805 135.454 32.9425 133.893C32.9425 133.893 32.7556 131.045 34.3138 130.678C34.3138 130.678 32.8506 132.249 33.5837 134.587C33.5837 134.587 36.0609 135.269 38.536 133.893C38.536 133.893 39.4519 132.7 38.2624 129.024L39.6388 124.8C39.6388 124.8 43.2147 126.178 41.9301 120.667C41.9301 120.667 40.0023 118.28 43.1238 107.352C43.1238 107.352 44.9117 103.586 43.8329 100.463C43.8329 100.463 43.4444 97.4341 43.8329 95.4134C43.8329 95.4134 44.8679 90.4919 44.6841 89.0963C44.6841 89.0963 44.7781 86.3221 45.9686 84.3945C45.9686 84.3945 50.3736 75.4745 41.7474 65.6546C41.7474 65.6546 51.2885 68.7834 48.4479 84.0276C48.4479 84.0276 47.5268 86.2311 46.7947 87.1479C46.7947 87.1479 46.3362 88.6176 46.4302 89.7215C46.4302 89.7215 46.4302 92.2931 46.1503 92.8429C46.1503 92.8429 51.748 95.2294 60.6489 89.7215C60.6489 89.7215 70.5598 84.5774 73.9486 85.0363C73.9486 85.0363 72.0228 71.2367 80.2836 67.531C80.2836 67.531 74.4123 75.3021 75.9695 84.2105C75.9695 84.2105 76.7026 89.4444 81.8428 99.3626C81.8428 99.3626 83.9513 103.495 83.2182 106.892C83.2182 106.892 79.4534 118.189 75.6008 121.955C75.6008 121.955 74.1356 123.79 71.3816 125.351C71.3816 125.351 67.1594 126.821 67.0696 130.678C67.0696 130.678 69.177 131.595 70.3707 130.953C70.3707 130.953 70.4647 127.556 72.8521 127.097C72.8521 127.097 70.8323 129.207 71.1999 131.229C71.1999 131.229 73.5863 132.423 76.0614 131.32C76.0614 131.32 77.3459 129.943 77.4357 126.821L80.0967 123.238C80.0967 123.238 83.0657 125.719 83.3728 119.566C83.3728 119.566 86.3366 109.923 88.7208 106.71C88.7208 106.71 91.7484 104.597 88.7208 98.9027C88.7208 98.9027 87.712 88.9856 93.9499 82.0989C93.9499 82.0989 102.942 72.2727 96.8876 60.0589C96.8876 60.0589 90.8315 50.9675 81.0136 52.3442Z" fill="url(#paint8_linear_1768_3009)"/>
<path d="M103.312 43.8959C103.312 43.8959 101.201 43.3449 102.025 45.2736C102.025 45.2736 104.226 53.2632 95.3301 56.0166C95.3301 56.0166 98.5425 58.2233 99.3205 62.1694C99.3205 62.1694 111.571 56.2016 103.312 43.8959Z" fill="url(#paint9_linear_1768_3009)"/>
<path d="M30.5615 122.621C34.2334 124.258 33.4105 119.072 33.4105 119.072C32.4006 116.25 33.7854 107.967 33.7854 107.967C34.2146 105.526 34.1572 103.328 34.1572 103.328C33.8 102.963 33.6893 100.38 33.6893 100.38C34.3306 98.1042 33.5003 95.5891 33.5003 95.5891C32.5802 94.8595 30.3808 91.1287 30.3808 91.1287C23.6835 90.4921 21.575 88.0345 21.575 88.0345C22.3989 92.3131 26.5836 96.9543 26.5836 96.9543C28.289 98.8641 28.7287 104.964 28.7287 104.964C29.6477 112.609 27.1465 121.074 27.1465 121.074C25.4683 125.169 22.0345 126.809 22.0345 126.809C19.0059 128.262 19.0059 131.45 19.0059 131.45C19.5573 133.059 22.0345 132.086 22.0345 132.086C21.8475 128.535 24.7842 128.355 24.7842 128.355C22.4929 129.447 22.7644 132.542 22.7644 132.542C25.8828 134.272 28.6483 131.119 28.6483 131.119C29.3616 127.859 28.7287 126.809 28.7287 126.809L30.5615 122.621Z" fill="url(#paint10_linear_1768_3009)"/>
<path d="M68.5271 117.41C70.0195 109.312 74.5937 103.89 74.5937 103.89C77.6275 100.598 74.0308 96.4915 74.5937 97.1031C73.401 92.9416 74.1363 86.5168 74.1363 86.5168C67.8023 87.0573 64.8708 89.5034 64.8708 89.5034C64.9617 93.8468 68.4446 98.9135 68.4446 98.9135C69.1777 100.724 68.265 104.978 68.265 104.978L63.5842 116.562C61.1071 120.997 57.2482 122.43 57.2482 122.43C53.0813 124.615 53.3068 127.15 53.3068 127.15C53.9491 128.508 55.8759 128.144 55.8759 128.144C56.7051 124.346 58.8126 124.705 58.8126 124.705C57.1615 125.431 56.8837 128.417 56.8837 128.417C59.2742 130.045 62.0219 128.417 62.0219 128.417C62.942 126.788 62.4835 124.615 62.4835 124.615L64.8708 120.635C68.4446 123.349 68.5271 117.41 68.5271 117.41Z" fill="url(#paint11_linear_1768_3009)"/>
<defs>
<linearGradient id="paint0_linear_1768_3009" x1="0" y1="12.0241" x2="12.4635" y2="12.0241" gradientUnits="userSpaceOnUse">
<stop stop-color="#0C0098"/>
<stop offset="1" stop-color="#BC87FF"/>
</linearGradient>
<linearGradient id="paint1_linear_1768_3009" x1="8.15039" y1="13.2518" x2="23.2165" y2="13.2518" gradientUnits="userSpaceOnUse">
<stop stop-color="#0C0098"/>
<stop offset="1" stop-color="#BC87FF"/>
</linearGradient>
<linearGradient id="paint2_linear_1768_3009" x1="5.59961" y1="22.8711" x2="33.4929" y2="22.8711" gradientUnits="userSpaceOnUse">
<stop stop-color="#0C0098"/>
<stop offset="1" stop-color="#BC87FF"/>
</linearGradient>
<linearGradient id="paint3_linear_1768_3009" x1="3.85547" y1="33.7019" x2="9.54193" y2="33.7019" gradientUnits="userSpaceOnUse">
<stop stop-color="#0C0098"/>
<stop offset="1" stop-color="#BC87FF"/>
</linearGradient>
<linearGradient id="paint4_linear_1768_3009" x1="30.4707" y1="8.08274" x2="42.9434" y2="8.08274" gradientUnits="userSpaceOnUse">
<stop stop-color="#0C0098"/>
<stop offset="1" stop-color="#BC87FF"/>
</linearGradient>
<linearGradient id="paint5_linear_1768_3009" x1="32.6562" y1="16.7527" x2="52.4022" y2="16.7527" gradientUnits="userSpaceOnUse">
<stop stop-color="#0C0098"/>
<stop offset="1" stop-color="#BC87FF"/>
</linearGradient>
<linearGradient id="paint6_linear_1768_3009" x1="11.1758" y1="51.1273" x2="43.8338" y2="51.1273" gradientUnits="userSpaceOnUse">
<stop stop-color="#0C0098"/>
<stop offset="1" stop-color="#BC87FF"/>
</linearGradient>
<linearGradient id="paint7_linear_1768_3009" x1="11.0352" y1="65.6546" x2="44.6833" y2="65.6546" gradientUnits="userSpaceOnUse">
<stop stop-color="#0C0098"/>
<stop offset="1" stop-color="#BC87FF"/>
</linearGradient>
<linearGradient id="paint8_linear_1768_3009" x1="29.7109" y1="89.0491" x2="98.9828" y2="89.0491" gradientUnits="userSpaceOnUse">
<stop stop-color="#0C0098"/>
<stop offset="1" stop-color="#BC87FF"/>
</linearGradient>
<linearGradient id="paint9_linear_1768_3009" x1="95.3301" y1="52.9962" x2="106.173" y2="52.9962" gradientUnits="userSpaceOnUse">
<stop stop-color="#0C0098"/>
<stop offset="1" stop-color="#BC87FF"/>
</linearGradient>
<linearGradient id="paint10_linear_1768_3009" x1="19.0059" y1="110.548" x2="34.1598" y2="110.548" gradientUnits="userSpaceOnUse">
<stop stop-color="#0C0098"/>
<stop offset="1" stop-color="#BC87FF"/>
</linearGradient>
<linearGradient id="paint11_linear_1768_3009" x1="53.3047" y1="107.829" x2="75.8254" y2="107.829" gradientUnits="userSpaceOnUse">
<stop stop-color="#0C0098"/>
<stop offset="1" stop-color="#BC87FF"/>
</linearGradient>
</defs>
</svg>
