<svg width="129" height="76" viewBox="0 0 129 76" fill="none" xmlns="http://www.w3.org/2000/svg">
<path d="M53.8408 0.582008C53.8408 0.582008 50.0781 -0.934098 43.4595 2.21274C43.4595 2.21274 32.238 7.21292 29.8241 8.17076C29.8241 8.17076 26.0109 10.0225 27.5223 13.4518C27.5223 13.4518 29.7669 17.8348 35.1554 14.4628C35.1554 14.4628 38.0694 12.955 42.6176 7.97719C42.6176 7.97719 47.6103 1.65114 52.2671 1.36869C52.2671 1.36869 52.8785 1.3413 53.3264 1.19841C53.859 1.02478 54.2157 0.720741 53.8408 0.582008Z" fill="url(#paint0_linear_1768_3001)"/>
<path d="M46.2376 5.56943C48.4748 6.24731 52.1114 6.37941 57.5877 2.4899C57.5877 2.4899 59.153 1.34347 59.0161 2.99414C59.0161 2.99414 58.8883 7.92873 50.6124 9.74888C50.6124 9.74888 46.4234 10.2199 44.9983 11.3946C44.9983 11.3946 42.0984 12.5144 41.5684 10.4974L46.2376 5.56943Z" fill="url(#paint1_linear_1768_3001)"/>
<path d="M26.0445 10.725C26.0445 10.725 24.1973 15.3132 29.7375 17.1907V17.8627C29.7375 17.8627 24.8426 19.0665 23.3064 23.9653C23.3064 23.9653 20.0646 22.1742 20.8162 16.826C20.8162 16.826 21.7958 11.1703 26.0445 10.725Z" fill="url(#paint2_linear_1768_3001)"/>
<path d="M24.0887 25.2271C24.0887 25.2271 26.856 17.8344 32.2237 19.2924C32.2237 19.2924 32.6708 19.4037 34.7138 20.747C34.7138 20.747 38.0941 22.7349 40.5834 22.3719C40.5834 22.3719 43.967 22.2589 43.6882 25.0601L39.5474 30.0413C39.5474 30.0413 38.0941 31.8357 34.0701 30.1825C34.0701 30.1825 23.893 27.132 24.0887 25.2271Z" fill="url(#paint3_linear_1768_3001)"/>
<path d="M4.31933 16.575C4.31933 16.575 4.57566 15.6745 7.25495 18.6461C7.25495 18.6461 9.49127 20.9713 10.7778 22.0072C10.7778 22.0072 12.9287 23.5466 11.8114 25.1424C11.8114 25.1424 10.5389 26.5397 8.96122 23.9653C8.96122 23.9653 3.73287 17.5005 4.31933 16.575Z" fill="url(#paint4_linear_1768_3001)"/>
<path d="M0.00511766 31.388C0.00511766 31.388 -0.0703947 30.5199 3.41933 32.09C3.41933 32.09 6.28028 33.2663 7.81735 33.6842C7.81735 33.6842 10.3275 34.2183 9.85547 36.0069C9.85547 36.0069 9.16449 37.6833 6.82446 36.0459C6.82446 36.0459 -0.21636 32.404 0.00511766 31.388Z" fill="url(#paint5_linear_1768_3001)"/>
<path d="M11.25 26.2632C11.25 26.2632 12.6593 26.4767 13.1313 24.1656C13.1313 24.1656 17.1453 27.0749 20.3489 27.717C20.3489 27.717 22.3977 28.1881 22.187 29.9409C22.187 29.9409 22.0153 31.3972 19.3667 30.5407C19.3667 30.5407 12.9223 28.2329 11.25 26.5183V26.2632Z" fill="url(#paint6_linear_1768_3001)"/>
<path d="M10.0781 37.2561C10.0781 37.2561 11.3937 37.0775 11.1615 34.7872C11.1615 34.7872 15.567 36.4295 18.603 36.1678C18.603 36.1678 20.568 36.0524 20.8724 37.7545C20.8724 37.7545 21.1321 39.1627 18.5258 39.0763C18.5258 39.0763 12.1237 38.6517 10.1495 37.4987L10.0781 37.2561Z" fill="url(#paint7_linear_1768_3001)"/>
<path d="M22.3984 31.7371C22.3984 31.7371 23.8966 30.9246 23.2122 29.0438C23.2122 29.0438 30.2182 30.6687 29.494 32.891C29.494 32.891 29.022 35.8442 22.3984 31.7371Z" fill="url(#paint8_linear_1768_3001)"/>
<path d="M21.6367 39.5768C21.6367 39.5768 22.8934 38.4304 21.7819 36.764C21.7819 36.764 28.9712 36.6684 28.7986 39.0045C28.7986 39.0045 29.0425 41.9818 21.6367 39.5768Z" fill="url(#paint9_linear_1768_3001)"/>
<path d="M30.0879 34.5604C30.0879 34.5604 31.1547 33.6216 30.8561 32.123C30.8561 32.123 37.6505 32.0798 37.9051 34.1334C37.9051 34.1334 38.5463 37.5552 30.0879 34.5604Z" fill="url(#paint10_linear_1768_3001)"/>
<path d="M29.5664 40.6174C29.5664 40.6174 30.9475 39.7385 30.561 38.3396C30.561 38.3396 39.3521 38.2997 39.6822 40.2203C39.6822 40.2203 40.5125 43.4162 29.5664 40.6174Z" fill="url(#paint11_linear_1768_3001)"/>
<path d="M39.2395 44.7839C39.2395 44.7839 39.1432 43.1249 36.4457 43.4314L30.1738 43.9041C30.1738 43.9041 31.1294 45.1577 31 46.3457C31 46.3457 35.5855 46.6248 38.3452 46.1504C38.3452 46.1504 39.3191 45.907 39.2395 44.7839Z" fill="url(#paint12_linear_1768_3001)"/>
<path d="M39.5645 43.2541C39.5645 43.2541 40.5715 44.3449 40.0041 45.8393C40.0041 45.8393 44.9587 46.2813 46.8458 45.954C46.8458 45.954 48.8922 45.4647 47.0531 43.986C47.0531 43.986 45.5933 42.9343 43.5502 42.9434C43.5502 42.9434 41.099 42.8495 39.5645 43.2541Z" fill="url(#paint13_linear_1768_3001)"/>
<path d="M27.9161 44.5213C27.9161 44.5213 29.1653 43.9323 29.9459 44.9109C29.9459 44.9109 30.6585 46.0532 29.6863 47.1431C29.6863 47.1431 23.0386 53.2781 20.5849 54.6929C20.5849 54.6929 19.9181 53.4733 18.4258 53.5539C18.4258 53.5539 25.1522 45.514 27.9161 44.5213Z" fill="url(#paint14_linear_1768_3001)"/>
<path d="M19.0071 54.5151C19.0071 54.5151 17.2543 54.0432 17.1573 56.9226L16.9922 64.15C16.9922 64.15 17.2203 65.809 17.8076 63.9373L19.7221 57.3305C19.7221 57.3305 20.423 55.0709 19.0071 54.5151Z" fill="url(#paint15_linear_1768_3001)"/>
<path d="M49.0533 45.6629C49.0533 45.6629 50.1217 43.7431 53.7682 46.5859L55.6478 47.9499C55.6478 47.9499 54.7976 49.8291 55.4994 50.5659C55.4994 50.5659 47.5104 49.4602 49.0533 45.6629Z" fill="url(#paint16_linear_1768_3001)"/>
<path d="M46.8848 50.0146C46.8848 50.0146 46.9552 49.1656 49.4612 49.718C49.4612 49.718 50.9692 50.5654 49.866 52.5965C49.866 52.5965 48.4675 53.4787 46.8848 52.8167V50.0146Z" fill="url(#paint17_linear_1768_3001)"/>
<path d="M41.5059 49.6807C41.5059 49.6807 43.1998 47.9918 45.5564 49.5195L45.7769 52.7793C45.7769 52.7793 44.8571 54.3295 42.4988 53.7388C42.4988 53.7388 41.0273 52.3008 41.5059 49.6807Z" fill="url(#paint18_linear_1768_3001)"/>
<path d="M37.7953 52.4432C37.7953 52.4432 39.0114 50.2292 40.5592 52.1823L41.553 53.98C41.553 53.98 42.2896 54.8025 40.9998 56.0926C40.9998 56.0926 39.3432 57.5306 37.7953 56.7929C37.7953 56.7929 35.773 56.2172 37.2819 53.3877L37.7953 52.4432Z" fill="url(#paint19_linear_1768_3001)"/>
<path d="M36.3124 57.2035C36.3124 57.2035 38.4061 59.0843 41.4106 57.5375C41.4106 57.5375 41.5806 62.5493 39.4455 66.2394C39.4455 66.2394 36.3124 67.0511 35.1719 64.7308C35.1719 64.7308 34.0313 59.6758 36.3124 57.2035Z" fill="url(#paint20_linear_1768_3001)"/>
<path d="M34.8889 66.0182C34.8889 66.0182 36.7595 67.938 39.2438 67.3823C39.2438 67.3823 39.9622 67.197 39.9249 69.8878C39.9249 69.8878 40.08 73.6527 37.409 75.0525C37.409 75.0525 34.6957 76.6408 33.6621 70.8863C33.6621 70.8863 33.1578 68.1939 34.8889 66.0182Z" fill="url(#paint21_linear_1768_3001)"/>
<path d="M75.084 0.366062C75.084 0.366062 78.8417 -1.15171 85.462 1.99513C85.462 1.99513 96.6843 6.99616 99.0989 7.95234C99.0989 7.95234 102.912 9.80573 101.398 13.2358C101.398 13.2358 99.1545 17.618 93.7686 14.2468C93.7686 14.2468 90.8487 12.7382 86.3031 7.76044C86.3031 7.76044 81.3094 1.43437 76.6551 1.15275C76.6551 1.15275 76.0454 1.12533 75.5974 0.978285C75.0657 0.807983 74.7066 0.503134 75.084 0.366062Z" fill="url(#paint22_linear_1768_3001)"/>
<path d="M82.6895 5.35172C80.449 6.02794 76.8158 6.16168 71.3386 2.273C71.3386 2.273 69.7725 1.12492 69.911 2.77477C69.911 2.77477 70.0362 7.71016 78.3147 9.53031C78.3147 9.53031 82.502 9.99885 83.9271 11.176C83.9271 11.176 86.8254 12.2967 87.3555 10.2821L82.6895 5.35172Z" fill="url(#paint23_linear_1768_3001)"/>
<path d="M102.88 10.5034C102.88 10.5034 104.724 15.0982 99.1875 16.974V17.6461C99.1875 17.6461 104.083 18.849 105.619 23.7495C105.619 23.7495 108.861 21.9584 108.107 16.6085C108.107 16.6085 107.127 10.9528 102.88 10.5034Z" fill="url(#paint24_linear_1768_3001)"/>
<path d="M104.837 25.0087C104.837 25.0087 102.068 17.6176 96.7016 19.0731C96.7016 19.0731 96.2553 19.1861 94.2123 20.5285C94.2123 20.5285 90.8312 22.5181 88.3418 22.1526C88.3418 22.1526 84.9625 22.0413 85.2387 24.8409L89.3763 29.8245C89.3763 29.8245 90.8312 31.6189 94.8576 29.9657C94.8576 29.9657 105.035 26.9119 104.837 25.0087Z" fill="url(#paint25_linear_1768_3001)"/>
<path d="M124.603 16.3584C124.603 16.3584 124.347 15.4595 121.667 18.4302C121.667 18.4302 119.432 20.7538 118.144 21.7873C118.144 21.7873 115.993 23.3299 117.108 24.9266C117.108 24.9266 118.384 26.3239 119.962 23.7495C119.962 23.7495 125.188 17.2822 124.603 16.3584Z" fill="url(#paint26_linear_1768_3001)"/>
<path d="M128.916 31.1696C128.916 31.1696 128.993 30.3023 125.505 31.8716C125.505 31.8716 122.643 33.0488 121.104 33.4674C121.104 33.4674 118.592 33.9999 119.068 35.7894C119.068 35.7894 119.759 37.4674 122.099 35.8284C122.099 35.8284 129.137 32.1839 128.916 31.1696Z" fill="url(#paint27_linear_1768_3001)"/>
<path d="M117.673 26.0447C117.673 26.0447 116.263 26.259 115.791 23.9487C115.791 23.9487 111.777 26.858 108.574 27.501C108.574 27.501 106.523 27.9695 106.734 29.7224C106.734 29.7224 106.907 31.177 109.554 30.3222C109.554 30.3222 116 28.016 117.673 26.3014V26.0447Z" fill="url(#paint28_linear_1768_3001)"/>
<path d="M118.846 37.0405C118.846 37.0405 117.527 36.8594 117.761 34.5699C117.761 34.5699 113.354 36.2114 110.316 35.948C110.316 35.948 108.356 35.8367 108.05 37.5381C108.05 37.5381 107.793 38.9462 110.399 38.8573C110.399 38.8573 116.799 38.4369 118.774 37.2814L118.846 37.0405Z" fill="url(#paint29_linear_1768_3001)"/>
<path d="M106.523 31.5201C106.523 31.5201 105.026 30.7077 105.712 28.8252C105.712 28.8252 98.7065 30.4502 99.4315 32.6757C99.4315 32.6757 99.9027 35.6273 106.523 31.5201Z" fill="url(#paint30_linear_1768_3001)"/>
<path d="M107.288 39.3583C107.288 39.3583 106.03 38.2102 107.14 36.5488C107.14 36.5488 99.9496 36.4508 100.126 38.786C100.126 38.786 99.8807 41.765 107.288 39.3583Z" fill="url(#paint31_linear_1768_3001)"/>
<path d="M98.8367 34.343C98.8367 34.343 97.7658 33.4018 98.0652 31.9057C98.0652 31.9057 91.2757 31.8633 91.0169 33.9169C91.0169 33.9169 90.3774 37.3387 98.8367 34.343Z" fill="url(#paint32_linear_1768_3001)"/>
<path d="M99.3582 40.4009C99.3582 40.4009 97.9787 39.522 98.3669 38.123C98.3669 38.123 89.5725 38.0823 89.2449 40.0005C89.2449 40.0005 88.4145 43.1996 99.3582 40.4009Z" fill="url(#paint33_linear_1768_3001)"/>
<path d="M89.6843 44.5646C89.6843 44.5646 89.7839 42.9056 92.479 43.2154L98.7492 43.6881C98.7492 43.6881 97.7911 44.9401 97.923 46.1288C97.923 46.1288 93.3383 46.4071 90.5777 45.9328C90.5777 45.9328 89.6047 45.6886 89.6843 44.5646Z" fill="url(#paint34_linear_1768_3001)"/>
<path d="M89.3604 43.035C89.3604 43.035 88.3533 44.1258 88.9199 45.6228C88.9199 45.6228 83.9653 46.0631 82.0798 45.7374C82.0798 45.7374 80.0318 45.2498 81.8683 43.7686C81.8683 43.7686 83.3307 42.7169 85.3746 42.7268C85.3746 42.7268 87.8233 42.6321 89.3604 43.035Z" fill="url(#paint35_linear_1768_3001)"/>
<path d="M101.009 44.3047C101.009 44.3047 99.7593 43.714 98.9804 44.6926C98.9804 44.6926 98.2636 45.8366 99.2391 46.9248C99.2391 46.9248 105.886 53.0623 108.34 54.4771C108.34 54.4771 109.007 53.2542 110.5 53.3373C110.5 53.3373 103.772 45.2991 101.009 44.3047Z" fill="url(#paint36_linear_1768_3001)"/>
<path d="M109.918 54.295C109.918 54.295 111.67 53.8231 111.768 56.7058L111.932 63.929C111.932 63.929 111.703 65.5888 111.118 63.7197L109.199 57.112C109.199 57.112 108.502 54.8532 109.918 54.295Z" fill="url(#paint37_linear_1768_3001)"/>
<path d="M79.8694 45.4444C79.8694 45.4444 78.801 43.5271 75.1562 46.3666L73.2773 47.7315C73.2773 47.7315 74.1242 49.6131 73.4241 50.3491C73.4241 50.3491 81.4147 49.2426 79.8694 45.4444Z" fill="url(#paint38_linear_1768_3001)"/>
<path d="M82.0388 49.7962C82.0388 49.7962 81.9683 48.9456 79.4641 49.4997C79.4641 49.4997 77.9544 50.3487 79.0577 52.3765C79.0577 52.3765 80.4595 53.2621 82.0388 52.6V49.7962Z" fill="url(#paint39_linear_1768_3001)"/>
<path d="M87.4184 49.4642C87.4184 49.4642 85.7254 47.7744 83.368 49.3005L83.1465 52.5628C83.1465 52.5628 84.0664 54.1121 86.4214 53.5215C86.4214 53.5215 87.8987 52.081 87.4184 49.4642Z" fill="url(#paint40_linear_1768_3001)"/>
<path d="M91.1255 52.2236C91.1255 52.2236 89.9112 50.0105 88.3625 51.9644L87.3663 53.7621C87.3663 53.7621 86.6321 54.5821 87.922 55.873C87.922 55.873 89.5793 57.3135 91.1255 56.575C91.1255 56.575 93.1495 56.0001 91.639 53.1715L91.1255 52.2236Z" fill="url(#paint41_linear_1768_3001)"/>
<path d="M92.612 56.9874C92.612 56.9874 90.5175 58.8665 87.513 57.318C87.513 57.318 87.3421 62.3332 89.4781 66.0225C89.4781 66.0225 92.612 66.8341 93.7525 64.5089C93.7525 64.5089 94.8923 59.458 92.612 56.9874Z" fill="url(#paint42_linear_1768_3001)"/>
<path d="M94.0349 65.8012C94.0349 65.8012 92.1643 67.7161 89.68 67.1653C89.68 67.1653 88.9641 66.9809 88.9998 69.6708C88.9998 69.6708 88.8438 73.4357 91.5156 74.8355C91.5156 74.8355 94.229 76.4205 95.2609 70.6693C95.2609 70.6693 95.7652 67.9761 94.0349 65.8012Z" fill="url(#paint43_linear_1768_3001)"/>
<path d="M73.9976 14.1334C73.6144 13.7811 73.2179 14.3261 73.2179 14.3261L70.2143 17.7363C69.2794 18.6393 68.6813 17.7695 68.6813 17.7695C66.9443 15.632 64.0734 16.8341 64.0734 16.8341C61.2382 15.2648 59.2731 17.7695 59.2731 17.7695C58.5058 18.6717 57.9368 17.7695 57.9368 17.7695L55.2002 14.5953C54.3342 13.4929 53.9967 14.0603 53.9967 14.0603C53.9967 14.0603 53.5321 14.5288 54.3002 15.2964L57.0682 18.5055L58.0695 19.573C58.0695 19.573 59.0292 23.5813 64.0054 22.5138C64.0054 22.5138 69.68 24.2858 70.4133 19.308L74.0175 14.9973C74.0175 14.9973 74.3178 14.4283 73.9976 14.1334Z" fill="url(#paint44_linear_1768_3001)"/>
<path d="M57.471 19.7418C57.471 19.7418 58.5569 24.3184 63.9984 23.216C63.9984 23.216 70.0463 25.1192 70.9471 19.7418C70.9471 19.7418 78.7834 20.5028 87.8739 34.5821C87.8739 34.5821 89.8474 37.518 86.8595 39.5533C86.8595 39.5533 76.0386 44.104 67.6847 45.6417C67.6847 45.6417 64.5989 48.0201 60.5377 45.7838C60.5377 45.7838 49.5352 43.5682 40.9224 38.6544C40.9224 38.6544 38.0515 36.6565 40.9224 33.282C40.9224 33.282 50.2685 20.2652 57.471 19.7418Z" fill="url(#paint45_linear_1768_3001)"/>
<path d="M60.3965 47.9864C57.6491 46.8998 56.9382 47.7995 56.9382 47.7995C55.7852 49.6487 56.9382 50.5658 56.9382 50.5658C58.2953 52.1966 64.0828 51.6184 64.0828 51.6184C68.31 52.1625 71.8121 50.6855 71.8121 50.6855C73.2778 49.5324 72.0402 47.9416 72.0402 47.9416C72.0402 47.9416 71.243 46.7428 68.3638 47.7995" fill="url(#paint46_linear_1768_3001)"/>
<path d="M60.3965 47.9861C60.3965 47.9861 65.0409 49.3402 68.3638 47.7992Z" fill="url(#paint47_linear_1768_3001)"/>
<defs>
<linearGradient id="paint0_linear_1768_3001" x1="27.168" y1="7.97735" x2="53.9959" y2="7.97735" gradientUnits="userSpaceOnUse">
<stop stop-color="#0C0098"/>
<stop offset="1" stop-color="#BC87FF"/>
</linearGradient>
<linearGradient id="paint1_linear_1768_3001" x1="41.5684" y1="6.90347" x2="59.0246" y2="6.90347" gradientUnits="userSpaceOnUse">
<stop stop-color="#0C0098"/>
<stop offset="1" stop-color="#BC87FF"/>
</linearGradient>
<linearGradient id="paint2_linear_1768_3001" x1="20.7031" y1="17.3452" x2="29.7375" y2="17.3452" gradientUnits="userSpaceOnUse">
<stop stop-color="#0C0098"/>
<stop offset="1" stop-color="#BC87FF"/>
</linearGradient>
<linearGradient id="paint3_linear_1768_3001" x1="24.0859" y1="24.9921" x2="43.7046" y2="24.9921" gradientUnits="userSpaceOnUse">
<stop stop-color="#0C0098"/>
<stop offset="1" stop-color="#BC87FF"/>
</linearGradient>
<linearGradient id="paint4_linear_1768_3001" x1="4.27344" y1="20.9839" x2="12.1332" y2="20.9839" gradientUnits="userSpaceOnUse">
<stop stop-color="#0C0098"/>
<stop offset="1" stop-color="#BC87FF"/>
</linearGradient>
<linearGradient id="paint5_linear_1768_3001" x1="0" y1="33.9561" x2="9.91457" y2="33.9561" gradientUnits="userSpaceOnUse">
<stop stop-color="#0C0098"/>
<stop offset="1" stop-color="#BC87FF"/>
</linearGradient>
<linearGradient id="paint6_linear_1768_3001" x1="11.25" y1="27.4881" x2="22.2022" y2="27.4881" gradientUnits="userSpaceOnUse">
<stop stop-color="#0C0098"/>
<stop offset="1" stop-color="#BC87FF"/>
</linearGradient>
<linearGradient id="paint7_linear_1768_3001" x1="10.0781" y1="36.9336" x2="20.8796" y2="36.9336" gradientUnits="userSpaceOnUse">
<stop stop-color="#0C0098"/>
<stop offset="1" stop-color="#BC87FF"/>
</linearGradient>
<linearGradient id="paint8_linear_1768_3001" x1="22.3984" y1="31.4811" x2="29.5465" y2="31.4811" gradientUnits="userSpaceOnUse">
<stop stop-color="#0C0098"/>
<stop offset="1" stop-color="#BC87FF"/>
</linearGradient>
<linearGradient id="paint9_linear_1768_3001" x1="21.6367" y1="38.6393" x2="28.8017" y2="38.6393" gradientUnits="userSpaceOnUse">
<stop stop-color="#0C0098"/>
<stop offset="1" stop-color="#BC87FF"/>
</linearGradient>
<linearGradient id="paint10_linear_1768_3001" x1="30.0879" y1="33.956" x2="37.9163" y2="33.956" gradientUnits="userSpaceOnUse">
<stop stop-color="#0C0098"/>
<stop offset="1" stop-color="#BC87FF"/>
</linearGradient>
<linearGradient id="paint11_linear_1768_3001" x1="29.5664" y1="40.0528" x2="39.6966" y2="40.0528" gradientUnits="userSpaceOnUse">
<stop stop-color="#0C0098"/>
<stop offset="1" stop-color="#BC87FF"/>
</linearGradient>
<linearGradient id="paint12_linear_1768_3001" x1="30.1738" y1="44.9104" x2="39.2441" y2="44.9104" gradientUnits="userSpaceOnUse">
<stop stop-color="#0C0098"/>
<stop offset="1" stop-color="#BC87FF"/>
</linearGradient>
<linearGradient id="paint13_linear_1768_3001" x1="39.5645" y1="44.5043" x2="47.82" y2="44.5043" gradientUnits="userSpaceOnUse">
<stop stop-color="#0C0098"/>
<stop offset="1" stop-color="#BC87FF"/>
</linearGradient>
<linearGradient id="paint14_linear_1768_3001" x1="18.4258" y1="49.5192" x2="30.1977" y2="49.5192" gradientUnits="userSpaceOnUse">
<stop stop-color="#0C0098"/>
<stop offset="1" stop-color="#BC87FF"/>
</linearGradient>
<linearGradient id="paint15_linear_1768_3001" x1="16.9922" y1="59.6572" x2="19.8956" y2="59.6572" gradientUnits="userSpaceOnUse">
<stop stop-color="#0C0098"/>
<stop offset="1" stop-color="#BC87FF"/>
</linearGradient>
<linearGradient id="paint16_linear_1768_3001" x1="48.8555" y1="47.7975" x2="55.6478" y2="47.7975" gradientUnits="userSpaceOnUse">
<stop stop-color="#0C0098"/>
<stop offset="1" stop-color="#BC87FF"/>
</linearGradient>
<linearGradient id="paint17_linear_1768_3001" x1="46.8848" y1="51.2971" x2="50.2696" y2="51.2971" gradientUnits="userSpaceOnUse">
<stop stop-color="#0C0098"/>
<stop offset="1" stop-color="#BC87FF"/>
</linearGradient>
<linearGradient id="paint18_linear_1768_3001" x1="41.4102" y1="51.3765" x2="45.7769" y2="51.3765" gradientUnits="userSpaceOnUse">
<stop stop-color="#0C0098"/>
<stop offset="1" stop-color="#BC87FF"/>
</linearGradient>
<linearGradient id="paint19_linear_1768_3001" x1="36.7227" y1="54.1903" x2="41.7624" y2="54.1903" gradientUnits="userSpaceOnUse">
<stop stop-color="#0C0098"/>
<stop offset="1" stop-color="#BC87FF"/>
</linearGradient>
<linearGradient id="paint20_linear_1768_3001" x1="34.8867" y1="61.7902" x2="41.4138" y2="61.7902" gradientUnits="userSpaceOnUse">
<stop stop-color="#0C0098"/>
<stop offset="1" stop-color="#BC87FF"/>
</linearGradient>
<linearGradient id="paint21_linear_1768_3001" x1="33.5938" y1="70.6358" x2="39.9265" y2="70.6358" gradientUnits="userSpaceOnUse">
<stop stop-color="#0C0098"/>
<stop offset="1" stop-color="#BC87FF"/>
</linearGradient>
<linearGradient id="paint22_linear_1768_3001" x1="74.9277" y1="7.76082" x2="101.754" y2="7.76082" gradientUnits="userSpaceOnUse">
<stop stop-color="#0C0098"/>
<stop offset="1" stop-color="#BC87FF"/>
</linearGradient>
<linearGradient id="paint23_linear_1768_3001" x1="69.9023" y1="6.68554" x2="87.3555" y2="6.68554" gradientUnits="userSpaceOnUse">
<stop stop-color="#0C0098"/>
<stop offset="1" stop-color="#BC87FF"/>
</linearGradient>
<linearGradient id="paint24_linear_1768_3001" x1="99.1875" y1="17.1264" x2="108.221" y2="17.1264" gradientUnits="userSpaceOnUse">
<stop stop-color="#0C0098"/>
<stop offset="1" stop-color="#BC87FF"/>
</linearGradient>
<linearGradient id="paint25_linear_1768_3001" x1="85.2227" y1="24.7744" x2="104.84" y2="24.7744" gradientUnits="userSpaceOnUse">
<stop stop-color="#0C0098"/>
<stop offset="1" stop-color="#BC87FF"/>
</linearGradient>
<linearGradient id="paint26_linear_1768_3001" x1="116.787" y1="20.7679" x2="124.649" y2="20.7679" gradientUnits="userSpaceOnUse">
<stop stop-color="#0C0098"/>
<stop offset="1" stop-color="#BC87FF"/>
</linearGradient>
<linearGradient id="paint27_linear_1768_3001" x1="119.008" y1="33.7387" x2="128.921" y2="33.7387" gradientUnits="userSpaceOnUse">
<stop stop-color="#0C0098"/>
<stop offset="1" stop-color="#BC87FF"/>
</linearGradient>
<linearGradient id="paint28_linear_1768_3001" x1="106.719" y1="27.27" x2="117.673" y2="27.27" gradientUnits="userSpaceOnUse">
<stop stop-color="#0C0098"/>
<stop offset="1" stop-color="#BC87FF"/>
</linearGradient>
<linearGradient id="paint29_linear_1768_3001" x1="108.043" y1="36.7156" x2="118.846" y2="36.7156" gradientUnits="userSpaceOnUse">
<stop stop-color="#0C0098"/>
<stop offset="1" stop-color="#BC87FF"/>
</linearGradient>
<linearGradient id="paint30_linear_1768_3001" x1="99.3789" y1="31.2637" x2="106.523" y2="31.2637" gradientUnits="userSpaceOnUse">
<stop stop-color="#0C0098"/>
<stop offset="1" stop-color="#BC87FF"/>
</linearGradient>
<linearGradient id="paint31_linear_1768_3001" x1="100.123" y1="38.4228" x2="107.288" y2="38.4228" gradientUnits="userSpaceOnUse">
<stop stop-color="#0C0098"/>
<stop offset="1" stop-color="#BC87FF"/>
</linearGradient>
<linearGradient id="paint32_linear_1768_3001" x1="91.0059" y1="33.7389" x2="98.8367" y2="33.7389" gradientUnits="userSpaceOnUse">
<stop stop-color="#0C0098"/>
<stop offset="1" stop-color="#BC87FF"/>
</linearGradient>
<linearGradient id="paint33_linear_1768_3001" x1="89.2305" y1="39.8359" x2="99.3582" y2="39.8359" gradientUnits="userSpaceOnUse">
<stop stop-color="#0C0098"/>
<stop offset="1" stop-color="#BC87FF"/>
</linearGradient>
<linearGradient id="paint34_linear_1768_3001" x1="89.6797" y1="44.6934" x2="98.7492" y2="44.6934" gradientUnits="userSpaceOnUse">
<stop stop-color="#0C0098"/>
<stop offset="1" stop-color="#BC87FF"/>
</linearGradient>
<linearGradient id="paint35_linear_1768_3001" x1="81.1035" y1="44.2873" x2="89.3604" y2="44.2873" gradientUnits="userSpaceOnUse">
<stop stop-color="#0C0098"/>
<stop offset="1" stop-color="#BC87FF"/>
</linearGradient>
<linearGradient id="paint36_linear_1768_3001" x1="98.7266" y1="49.3025" x2="110.5" y2="49.3025" gradientUnits="userSpaceOnUse">
<stop stop-color="#0C0098"/>
<stop offset="1" stop-color="#BC87FF"/>
</linearGradient>
<linearGradient id="paint37_linear_1768_3001" x1="109.027" y1="59.4373" x2="111.932" y2="59.4373" gradientUnits="userSpaceOnUse">
<stop stop-color="#0C0098"/>
<stop offset="1" stop-color="#BC87FF"/>
</linearGradient>
<linearGradient id="paint38_linear_1768_3001" x1="73.2773" y1="47.5803" x2="80.0678" y2="47.5803" gradientUnits="userSpaceOnUse">
<stop stop-color="#0C0098"/>
<stop offset="1" stop-color="#BC87FF"/>
</linearGradient>
<linearGradient id="paint39_linear_1768_3001" x1="78.6543" y1="51.079" x2="82.0388" y2="51.079" gradientUnits="userSpaceOnUse">
<stop stop-color="#0C0098"/>
<stop offset="1" stop-color="#BC87FF"/>
</linearGradient>
<linearGradient id="paint40_linear_1768_3001" x1="83.1465" y1="51.159" x2="87.5145" y2="51.159" gradientUnits="userSpaceOnUse">
<stop stop-color="#0C0098"/>
<stop offset="1" stop-color="#BC87FF"/>
</linearGradient>
<linearGradient id="paint41_linear_1768_3001" x1="87.1582" y1="53.972" x2="92.199" y2="53.972" gradientUnits="userSpaceOnUse">
<stop stop-color="#0C0098"/>
<stop offset="1" stop-color="#BC87FF"/>
</linearGradient>
<linearGradient id="paint42_linear_1768_3001" x1="87.5098" y1="61.5735" x2="94.0374" y2="61.5735" gradientUnits="userSpaceOnUse">
<stop stop-color="#0C0098"/>
<stop offset="1" stop-color="#BC87FF"/>
</linearGradient>
<linearGradient id="paint43_linear_1768_3001" x1="88.998" y1="70.4184" x2="95.3293" y2="70.4184" gradientUnits="userSpaceOnUse">
<stop stop-color="#0C0098"/>
<stop offset="1" stop-color="#BC87FF"/>
</linearGradient>
<linearGradient id="paint44_linear_1768_3001" x1="53.8574" y1="18.3673" x2="74.1453" y2="18.3673" gradientUnits="userSpaceOnUse">
<stop stop-color="#0C0098"/>
<stop offset="1" stop-color="#BC87FF"/>
</linearGradient>
<linearGradient id="paint45_linear_1768_3001" x1="39.6465" y1="33.242" x2="88.5132" y2="33.242" gradientUnits="userSpaceOnUse">
<stop stop-color="#0C0098"/>
<stop offset="1" stop-color="#BC87FF"/>
</linearGradient>
<linearGradient id="paint46_linear_1768_3001" x1="56.4258" y1="49.5514" x2="72.5284" y2="49.5514" gradientUnits="userSpaceOnUse">
<stop stop-color="#0C0098"/>
<stop offset="1" stop-color="#BC87FF"/>
</linearGradient>
<linearGradient id="paint47_linear_1768_3001" x1="60.3965" y1="48.1677" x2="68.3638" y2="48.1677" gradientUnits="userSpaceOnUse">
<stop stop-color="#0C0098"/>
<stop offset="1" stop-color="#BC87FF"/>
</linearGradient>
</defs>
</svg>
