<svg width="127" height="117" viewBox="0 0 127 117" fill="none" xmlns="http://www.w3.org/2000/svg">
<path d="M12.5286 16.231C12.7227 12.8049 15.7176 10.2048 15.7176 10.2048C20.2916 2.82124 33.3307 4.89 33.3307 4.89C42.7123 6.17414 56.4231 6.82106 56.4231 6.82106C69.4951 5.79904 74.9636 1.90513 74.9636 1.90513C76.0734 -0.133611 73.8512 0.143519 73.8512 0.143519C65.785 3.11072 56.7939 3.01808 56.7939 3.01808C44.65 3.2043 34.0437 0.598939 34.0437 0.598939C6.82849 -3.56502 7.29544 15.352 7.29544 15.352C8.68453 17.0227 12.5286 16.231 12.5286 16.231Z" fill="url(#paint0_linear_1768_2981)"/>
<path d="M33.6703 15.8181C33.6703 15.8181 34.9843 17.2328 28.3114 20.0659C28.3114 20.0659 29.93 15.8181 33.6703 15.8181ZM15.6864 34.3662C15.6864 34.3662 13.302 35.9813 12.2403 34.8242C12.2403 34.8242 10.4318 32.6999 15.2784 29.8783C15.2784 29.8783 16.8942 29.0125 19.0842 29.2058C19.0842 29.2058 18.459 32.5808 15.6864 34.3662ZM56.3316 9.88104C53.4572 9.32503 30.9317 6.17072 30.9317 6.17072C14.3407 5.24402 12.8558 16.3106 12.8558 16.3106C14.5268 18.6582 21.5709 17.6697 21.5709 17.6697C15.2663 20.7305 12.698 17.3635 12.698 17.3635C10.6592 18.6626 7.2959 17.021 7.2959 17.021C8.40516 19.0615 7.75799 28.2429 7.75799 28.2429C6.45817 32.6937 8.40517 35.3838 8.40517 35.3838C11.2809 38.9079 9.79911 47.347 9.79911 47.347C8.40516 53.8383 11.0945 55.7861 11.0945 55.7861C14.0605 57.4551 16.1937 54.5806 16.1937 54.5806C18.2337 49.85 21.9396 47.6233 21.9396 47.6233C33.8068 40.9475 34.2685 31.1157 34.2685 31.1157C35.1025 22.215 28.8937 23.2352 28.8937 23.2352C26.2978 23.7912 28.5219 22.215 28.5219 22.215C36.4003 18.5064 36.0284 14.7043 36.0284 14.7043C33.1672 12.0116 30.4689 14.9806 30.4689 14.9806C27.3178 18.6909 25.3708 16.9292 25.3708 16.9292C24.6296 14.0547 28.067 12.6876 28.067 12.6876C32.7864 10.8078 51.1411 13.3928 51.1411 13.3928C81.8222 16.3106 93.3154 6.35783 93.3154 6.35783C94.4287 4.31733 91.8333 4.50181 91.8333 4.50181C79.7835 12.6629 56.3316 9.88104 56.3316 9.88104Z" fill="url(#paint1_linear_1768_2981)"/>
<path d="M21.109 59.7353C21.109 59.7353 25.04 55.9015 21.5436 49.5337C21.5436 49.5337 18.6041 51.0288 17.3011 54.8636C17.3011 54.8636 18.4814 56.8644 17.1574 59.3973C17.1574 59.3973 15.3961 63.932 20.1693 64.6548C20.1693 64.6548 18.1936 61.6417 21.109 59.7353Z" fill="url(#paint2_linear_1768_2981)"/>
<path d="M33.6705 15.8181C29.9302 15.8181 28.3115 20.0659 28.3115 20.0659C34.9845 17.2329 33.6705 15.8181 33.6705 15.8181Z" fill="url(#paint3_linear_1768_2981)"/>
<path d="M91.9103 70.3378C91.9103 70.3378 74.3159 63.1589 65.2165 38.1725L63.4979 38.274C63.4979 38.274 64.8119 35.5424 62.5867 32.6079L61.8737 34.5301C61.8737 34.5301 62.1494 32.5452 60.8513 30.4023L59.7583 32.3069C59.7583 32.3069 60.2617 30.1808 58.7458 27.7538L57.9373 30.4023C57.9373 30.4023 57.9581 30.2205 57.9274 29.8604C57.865 29.1102 57.5831 27.5843 56.418 25.3258L55.8149 28.4625C55.8149 28.4625 55.7101 25.5279 54.2966 23.4036L53.3861 26.8421C53.3861 26.8421 53.4871 22.8987 50.8574 20.7753C50.8574 20.7753 51.1414 24.0108 50.4446 25.3258C50.4446 25.3258 50.15 25.9322 49.7467 23.3021C49.7467 23.3021 49.7467 20.1672 46.7132 18.8521C46.7132 18.8521 48.3311 22.0877 46.9134 23.5051C46.9134 23.5051 46.2073 23.5051 46.3103 22.0877C46.3103 22.0877 46.1091 18.6492 42.9704 17.335C42.9704 17.335 44.2861 20.2678 43.9832 21.6843C43.9832 21.6843 43.5797 23.2023 42.9704 20.672C42.9704 20.672 41.7585 17.1206 39.2311 16.4181C39.2311 16.4181 41.0517 19.2573 40.6457 21.3807C40.6457 21.3807 40.1419 22.2924 39.4337 19.5591C39.4337 19.5591 38.8241 17.2194 36.9061 16.4181C36.9061 16.4181 36.9061 19.2573 32.3565 21.8855C32.3565 21.8855 33.4672 22.3922 34.377 23.7072C34.377 23.7072 51.6693 19.7621 63.3959 48.8939C63.3959 48.8939 50.4539 24.1123 35.4908 26.0336C35.4908 26.0336 38.524 35.9475 29.6255 43.2296C29.6255 43.2296 32.5561 54.5592 26.7926 63.4608C26.7926 63.4608 20.3243 73.8795 31.2948 86.1181C31.2948 86.1181 27.1978 57.3031 51.7692 57.0957C51.7692 57.0957 31.4472 60.5271 33.0648 83.5904C33.0648 83.5904 34.0751 86.8259 31.2431 88.6475C31.2431 88.6475 26.6937 91.8848 23.7635 98.1555C23.7635 98.1555 20.6369 103.821 16.8397 105.743C16.8397 105.743 13.2471 107.866 14.6621 111.001C14.6621 111.001 16.28 114.34 21.7393 111.913C21.7393 111.913 23.6615 112.721 34.2788 111.306C34.2788 111.306 41.2543 115.049 47.7253 109.789C47.7253 109.789 45.9041 105.867 42.7702 105.439C42.7702 105.439 38.1194 110.802 37.9168 106.653C37.9168 106.653 36.7027 104.326 34.682 107.058C34.682 107.058 33.5689 107.969 32.4575 107.866L22.9933 107.462C22.9933 107.462 28.3853 101.494 33.0516 99.5711C33.0516 99.5711 38.9288 96.4362 42.3653 91.0746C42.3653 91.0746 49.9493 90.1638 51.7692 80.4546C51.7692 80.4546 52.9985 87.8506 46.3103 91.1761C46.3103 91.1761 56.2749 95.4981 69.0147 91.7551C69.0147 91.7551 76.614 71.2883 95.9013 80.8112C95.9013 80.8112 105.006 86.2425 100.912 98.272C100.912 98.272 97.2387 107.046 87.9766 105.188C84.567 104.506 82.7091 103.214 81.1926 100.685C81.1926 100.685 77.1971 92.1734 85.4421 88.4454C85.4421 88.4454 90.797 86.9283 92.4176 91.681C92.4176 91.681 87.0574 87.1313 83.0108 92.6932C83.0108 92.6932 78.7004 100.445 88.8756 103.316C88.8756 103.316 97.978 104.731 100.1 94.3119C100.1 94.3119 101.916 80.7265 87.2991 80.0425C87.2991 80.0425 75.2281 79.1096 70.6107 92.5388C70.0891 94.0533 69.0988 99.3584 70.2553 103.397C70.2553 103.397 72.8541 116.149 88.2695 116.667C88.2695 116.667 107.482 117.578 109.401 93.5017C109.401 93.5017 110.615 78.2288 91.9103 70.3378Z" fill="url(#paint4_linear_1768_2981)"/>
<path d="M115.468 58.302C115.468 58.302 106.977 56.9861 108.996 51.5239C108.996 51.5239 103.638 58.9075 101.415 63.9672C101.415 63.9672 105.964 53.4461 105.964 50.5125C105.964 50.5125 102.628 55.7726 97.6748 49.9044C97.6748 49.9044 90.4947 43.4325 84.5293 46.6698C84.5293 46.6698 98.7855 54.5591 92.9207 68.8214C92.9207 68.8214 99.0899 71.2476 101.717 73.8794C101.717 73.8794 111.321 59.0108 126.589 67.607C126.589 67.607 125.882 61.3372 115.468 58.302Z" fill="url(#paint5_linear_1768_2981)"/>
<path d="M6.57294 97.5491C9.10094 96.1317 7.29589 94.4142 7.29589 94.4142C6.29619 94.3118 6.3703 92.0877 6.3703 92.0877L5.7645 79.745L8.59403 80.6558C18.4028 87.5345 30.1323 87.2318 30.1323 87.2318C24.9752 82.9823 23.5596 74.9915 23.5596 74.9915C21.6573 74.2537 16.8394 74.6879 16.8394 74.6879C6.68144 75.4981 5.46049 74.5873 5.46049 74.5873C4.75236 74.183 3.23473 73.8794 3.23473 73.8794C-2.02084 73.6782 0.708397 79.3425 0.708397 79.3425C1.21469 80.0504 1.24838 81.669 1.24838 81.669L2.52933 92.2881C2.72852 93.6031 2.12546 94.716 2.12546 94.716C-1.78582 104.219 7.93857 110.361 7.93857 110.361C10.5656 106.314 9.91079 101.898 9.91079 101.898C4.04422 100.382 6.57294 97.5491 6.57294 97.5491Z" fill="url(#paint6_linear_1768_2981)"/>
<defs>
<linearGradient id="paint0_linear_1768_2981" x1="7.29492" y1="8.2093" x2="75.2741" y2="8.2093" gradientUnits="userSpaceOnUse">
<stop stop-color="#0C0098"/>
<stop offset="1" stop-color="#BC87FF"/>
</linearGradient>
<linearGradient id="paint1_linear_1768_2981" x1="7.2959" y1="30.4023" x2="93.593" y2="30.4023" gradientUnits="userSpaceOnUse">
<stop stop-color="#0C0098"/>
<stop offset="1" stop-color="#BC87FF"/>
</linearGradient>
<linearGradient id="paint2_linear_1768_2981" x1="16.8398" y1="57.0942" x2="22.9923" y2="57.0942" gradientUnits="userSpaceOnUse">
<stop stop-color="#0C0098"/>
<stop offset="1" stop-color="#BC87FF"/>
</linearGradient>
<linearGradient id="paint3_linear_1768_2981" x1="28.3115" y1="17.942" x2="33.7754" y2="17.942" gradientUnits="userSpaceOnUse">
<stop stop-color="#0C0098"/>
<stop offset="1" stop-color="#BC87FF"/>
</linearGradient>
<linearGradient id="paint4_linear_1768_2981" x1="14.332" y1="66.545" x2="109.417" y2="66.545" gradientUnits="userSpaceOnUse">
<stop stop-color="#0C0098"/>
<stop offset="1" stop-color="#BC87FF"/>
</linearGradient>
<linearGradient id="paint5_linear_1768_2981" x1="84.5293" y1="59.8212" x2="126.589" y2="59.8212" gradientUnits="userSpaceOnUse">
<stop stop-color="#0C0098"/>
<stop offset="1" stop-color="#BC87FF"/>
</linearGradient>
<linearGradient id="paint6_linear_1768_2981" x1="0" y1="92.1178" x2="30.1323" y2="92.1178" gradientUnits="userSpaceOnUse">
<stop stop-color="#0C0098"/>
<stop offset="1" stop-color="#BC87FF"/>
</linearGradient>
</defs>
</svg>
