<svg width="27" height="26" viewBox="0 0 27 26" fill="none" xmlns="http://www.w3.org/2000/svg">
<path d="M13.5 8.125C10.8137 8.125 8.625 10.3137 8.625 13C8.625 15.6863 10.8137 17.875 13.5 17.875C16.1863 17.875 18.375 15.6863 18.375 13C18.375 10.3137 16.1863 8.125 13.5 8.125ZM26.0125 12.2129L21.2035 9.81094L22.9047 4.7125C23.1332 4.02187 22.4781 3.3668 21.7926 3.60039L16.6941 5.30156L14.2871 0.4875C13.9621 -0.1625 13.0379 -0.1625 12.7129 0.4875L10.3109 5.29648L5.20742 3.59531C4.5168 3.3668 3.86172 4.02187 4.09531 4.70742L5.79648 9.80586L0.9875 12.2129C0.3375 12.5379 0.3375 13.4621 0.9875 13.7871L5.79648 16.1891L4.09531 21.2926C3.8668 21.9832 4.52187 22.6383 5.20742 22.4047L10.3059 20.7035L12.7078 25.5125C13.0328 26.1625 13.957 26.1625 14.282 25.5125L16.684 20.7035L21.7824 22.4047C22.473 22.6332 23.1281 21.9781 22.8945 21.2926L21.1934 16.1941L26.0023 13.7922C26.6625 13.4621 26.6625 12.5379 26.0125 12.2129ZM18.0957 17.5957C15.5617 20.1297 11.4383 20.1297 8.9043 17.5957C6.37031 15.0617 6.37031 10.9383 8.9043 8.4043C11.4383 5.87031 15.5617 5.87031 18.0957 8.4043C20.6297 10.9383 20.6297 15.0617 18.0957 17.5957Z" fill="#828282"/>
</svg>
