<svg width="121" height="139" viewBox="0 0 121 139" fill="none" xmlns="http://www.w3.org/2000/svg">
<path d="M3.47118 74.6949C-3.67693 80.2073 2.43044 83.708 2.43044 83.708C1.68657 81.9973 4.07033 81.4735 4.07033 81.4735C6.37696 80.6561 6.00606 76.7816 6.00606 76.7816C5.26113 73.603 3.47118 74.6949 3.47118 74.6949Z" fill="url(#paint0_linear_1768_3021)"/>
<path d="M104.712 87.2098C101.525 84.6775 98.0111 87.6554 98.0111 87.6554C97.0432 90.1888 99.4988 90.4116 99.4988 90.4116C99.4248 88.9248 100.544 89.2194 100.544 89.2194C102.599 91.2279 99.5759 94.1299 99.5759 94.1299C107.767 92.3484 104.712 87.2098 104.712 87.2098Z" fill="url(#paint1_linear_1768_3021)"/>
<path d="M95.625 96.365C90.6324 99.418 89.2197 95.2499 89.2197 95.2499C88.6195 92.124 86.8348 92.7893 86.8348 92.7893C83.7737 94.876 88.2465 102.101 88.2465 102.101C91.2315 105.302 94.3337 102.471 94.3337 102.471C97.2881 99.3451 99.0506 101.656 99.0506 101.656C99.6507 102.769 100.835 103.068 100.835 103.068C102.552 102.695 101.524 98.8245 101.524 98.8245C99.9043 94.2804 95.625 96.365 95.625 96.365Z" fill="url(#paint2_linear_1768_3021)"/>
<path d="M72.2325 69.4831C70.7501 64.0214 76.7032 63.5324 76.7032 63.5324C81.8437 63.902 80.5778 69.4451 80.5778 69.4451C79.0859 64.7046 76.3809 66.4322 76.3809 66.4322C73.0081 69.3395 77.3741 71.4959 77.3741 71.4959C73.3473 73.0598 72.2325 69.4831 72.2325 69.4831ZM58.377 94.1295C58.377 94.1295 53.9074 104.852 43.9951 99.4138C43.9951 99.4138 38.0421 95.6217 40.6467 89.8907C40.6467 89.8907 43.1794 84.6053 48.619 86.8324C48.619 86.8324 52.1206 88.2507 51.5236 91.8274C51.5236 91.8274 48.1678 86.6846 45.4903 89.294C45.4903 89.294 42.4334 91.971 46.7572 95.6217C46.7572 95.6217 52.2686 98.8246 55.692 92.272C55.692 92.272 62.2949 77.0041 72.5178 79.0179C72.5178 79.0179 63.4424 80.5808 58.377 94.1295ZM56.0862 77.9724C56.0862 77.9724 64.0637 71.9405 70.9815 75.5911C70.9815 75.5911 61.2077 75.815 56.662 80.4329C56.662 80.4329 44.2233 92.272 39.1589 77.9724C39.1589 77.9724 45.0813 86.1671 56.0862 77.9724ZM52.3394 72.3153C52.3394 72.3153 43.2544 77.5289 41.7646 66.9571C41.7646 66.9571 40.8696 57.6494 48.396 58.7635C48.396 58.7635 55.0253 60.3274 50.1817 67.4027C50.1817 67.4027 50.4818 61.5218 46.978 62.8587C46.978 62.8587 44.2234 63.902 45.9404 68.3088C45.9404 68.3088 47.4271 71.5719 53.1139 68.8938C53.1139 68.8938 63.5946 63.0107 70.4447 69.7851C70.4447 69.7851 61.5796 65.4681 52.3394 72.3153ZM89.8149 81.4795C89.8149 81.4795 89.7399 84.6771 90.6327 85.8651C90.6327 85.8651 84.8234 85.0509 83.7741 77.2332C83.7741 77.2332 87.13 81.0296 89.8149 81.4795ZM56.5902 107.61C63.5185 108.127 67.9881 102.548 67.9881 102.548C72.4597 95.4728 76.626 97.0346 76.626 97.0346C73.2754 90.5581 76.7032 85.8651 76.7032 85.8651C74.6142 95.2499 81.0977 100.311 81.0977 100.311C83.5554 102.101 84.7494 105.446 84.7494 105.446C84.9734 107.31 87.2082 108.428 87.2082 108.428C89.7399 109.549 95.4034 108.054 95.4034 108.054C99.202 106.488 98.2331 102.619 98.2331 102.619C97.412 101.206 95.2502 103.625 95.2502 103.625C92.3297 106.237 88.7699 104.109 88.7699 104.109C85.5693 102.101 84.4504 95.7674 84.4504 95.7674C84.3014 91.9013 85.768 90.7809 85.768 90.7809C87.6044 89.4376 89.3648 91.745 89.3648 91.745C90.9328 95.176 92.5706 95.025 92.5706 95.025C94.2834 95.4728 97.7819 94.6544 97.7819 94.6544C100.164 91.9013 99.202 91.6003 99.202 91.6003C96.3713 91.0797 96.7422 88.1007 96.7422 88.1007C98.0101 84.6053 102.776 85.4205 102.776 85.4205L100.836 81.9969C99.4239 79.9841 93.8005 82.8903 93.8005 82.8903C92.4945 83.413 92.2726 81.9969 92.2726 81.9969C93.6864 79.3917 85.768 76.1181 85.768 76.1181C94.6078 77.1582 93.8005 81.2524 93.8005 81.2524C98.9843 77.3779 103.071 81.5523 103.071 81.5523C106.35 80.2819 104.832 74.9237 104.832 74.9237C103.149 72.6881 102.745 69.8717 102.745 69.8717C102.669 65.9285 101.831 65.7691 101.831 65.7691C98.9453 67.5506 94.8804 64.8725 94.8804 64.8725C92.7174 67.1778 89.5898 65.7691 89.5898 65.7691C85.4901 68.9657 84.1482 65.0193 84.1482 65.0193C79.9819 58.7635 72.1575 63.6074 72.1575 63.6074C54.9503 69.1145 50.6255 56.6071 50.6255 56.6071C48.0938 47.2265 54.9503 44.1027 54.9503 44.1027C55.9182 41.4954 59.9407 40.3021 59.9407 40.3021C69.9957 37.699 64.6354 43.4332 64.6354 43.4332C72.6055 37.8448 78.417 44.1725 78.417 44.1725C77.522 37.6991 68.5861 36.6525 68.5861 36.6525C58.2269 34.6419 53.5376 41.4954 53.5376 41.4954C44.4484 44.843 46.2331 53.1085 46.2331 53.1085C35.0592 60.3274 39.9757 71.6469 39.9757 71.6469C44.1483 80.2819 53.9824 73.5836 53.9824 73.5836C65.6032 66.0616 71.2625 73.2858 71.2625 73.2858C64.5593 69.3395 54.5783 75.9639 54.5783 75.9639C43.9962 82.7403 38.7838 74.1053 38.7838 74.1053C34.6894 81.7699 36.922 93.2382 36.922 93.2382C39.6788 106.193 51.5236 103.961 51.5236 103.961C58.8968 101.656 61.8036 94.8022 61.8036 94.8022C65.7543 84.9031 72.7577 84.1554 72.7577 84.1554C68.2849 85.1259 63.6654 95.2499 63.6654 95.2499C61.0576 102.548 52.6394 104.928 52.6394 104.928C46.605 108.503 52.3394 112.37 52.3394 112.37C51.5997 108.127 56.5902 107.61 56.5902 107.61Z" fill="url(#paint3_linear_1768_3021)"/>
<path d="M61.4313 44.62C65.0049 41.1214 63.4421 41.3421 63.4421 41.3421C46.8277 48.6392 55.2458 58.3936 55.2458 58.3936C61.2813 66.2081 77.0769 60.1065 77.0769 60.1065C83.5551 58.6893 86.1618 65.4679 86.1618 65.4679C87.8007 66.3591 88.8478 64.4256 88.8478 64.4256C86.1618 55.1907 76.9987 57.799 76.9987 57.799C67.3897 60.701 62.6063 56.8296 62.6063 56.8296C54.6203 50.4988 61.4313 44.62 61.4313 44.62Z" fill="url(#paint4_linear_1768_3021)"/>
<path d="M94.2109 63.5324C95.1027 58.9155 92.9429 55.4919 92.9429 55.4919C90.406 51.4696 79.9052 51.8434 79.9052 51.8434C71.7892 52.289 70.7494 47.6014 70.7494 47.6014C69.9358 44.2474 73.6468 43.1323 73.6468 43.1323C58.6732 43.8747 62.102 52.1391 62.102 52.1391C63.9247 58.3558 81.3971 55.9376 81.3971 55.9376C89.6631 56.4571 90.0383 64.4258 90.0383 64.4258C92.57 66.0616 94.2109 63.5324 94.2109 63.5324Z" fill="url(#paint5_linear_1768_3021)"/>
<path d="M102.03 64.976C102.03 64.976 106.276 60.4795 104.486 55.7866C104.486 55.7866 102.629 50.874 95.9213 50.1274C95.9213 50.1274 92.9427 49.9816 92.6426 47.896C92.6426 47.896 93.1646 45.7417 95.6244 46.7819C95.6244 46.7819 93.3685 43.3551 88.7236 43.9465C88.7236 43.9465 82.4366 45.7417 79.16 39.4119C79.16 39.4119 78.1921 41.5641 79.831 43.8747C79.831 43.8747 80.7217 46.4809 78.563 45.6636C78.563 45.6636 73.4236 41.8661 72.5286 46.5559C72.5286 46.5559 71.8608 50.3534 79.4622 50.0513C79.4622 50.0513 90.914 48.9393 94.4252 54.4496C94.4252 54.4496 96.8881 58.0211 95.7734 63.5324C95.7734 63.5324 97.7102 66.4946 102.03 64.976Z" fill="url(#paint6_linear_1768_3021)"/>
<path d="M79.0134 100.459C77.9673 99.7179 77.2995 98.1782 77.2995 98.1782C71.711 97.4601 68.6563 104.033 68.6563 104.033C65.479 109.84 58.5243 109.247 58.5243 109.247C51.373 110.214 54.5017 116.042 54.5017 116.042C54.5788 112.416 61.6561 115.65 61.6561 115.65C67.3905 117.956 70.4452 109.395 70.4452 109.395C73.6478 101.723 79.0134 100.459 79.0134 100.459Z" fill="url(#paint7_linear_1768_3021)"/>
<path d="M88.0972 110.29C85.6427 110.29 83.7735 106.787 83.7735 106.787C82.2889 103.068 79.8312 101.502 79.8312 101.502C74.6875 102.993 71.338 110.142 71.338 110.142C66.4934 119.368 72.5172 119.147 72.5172 119.147C74.66 118.554 75.5106 121.006 75.5106 121.006C76.2566 118.251 74.3167 117.433 74.3167 117.433C71.562 114.084 76.8526 109.916 76.8526 109.916C73.7197 114.681 76.8526 116.764 76.8526 116.764C79.5343 118.179 79.3019 120.714 79.3019 120.714C81.2292 118.849 79.8312 116.915 79.8312 116.915C77.9663 113.714 81.6201 111.478 81.6201 111.478C78.8602 116.838 82.29 118.474 82.29 118.474C84.0007 119.368 83.9648 122.125 83.9648 122.125C86.3137 121.679 85.7674 117.063 85.7674 117.063C84.622 113.714 88.0972 110.29 88.0972 110.29Z" fill="url(#paint8_linear_1768_3021)"/>
<path d="M102.927 122.125C98.8991 119.295 98.3073 116.042 98.3073 116.042C97.5614 111.004 96.0715 109.47 96.0715 109.47C94.7307 110.29 89.2922 110.658 89.2922 110.658C83.5547 115.798 89.2922 123.246 89.2922 123.246C88.5483 121.903 89.6662 120.939 89.6662 120.939C91.304 119.669 96.1085 126.738 96.1085 126.738C98.0812 121.082 102.927 122.125 102.927 122.125Z" fill="url(#paint9_linear_1768_3021)"/>
<path d="M101.831 128.38C104.616 127.04 109.705 130.464 109.705 130.464C109.631 128.305 112.388 127.338 112.388 127.338C108.511 126.894 103.674 123.094 103.674 123.094C98.604 122.204 97.018 126.738 97.018 126.738C96.0469 130.914 99.4979 132.473 99.4979 132.473C99.4979 129.495 101.831 128.38 101.831 128.38Z" fill="url(#paint10_linear_1768_3021)"/>
<path d="M109.258 132.473C105.084 127.411 101.831 129.792 101.831 129.792C100.525 130.292 100.316 132.473 100.316 132.473C100.543 136.194 104.616 135.153 104.616 135.153C107.47 133.741 107.395 137.237 107.395 137.237C111.269 135.753 109.258 132.473 109.258 132.473Z" fill="url(#paint11_linear_1768_3021)"/>
<path d="M114.175 128.082C110.674 128.082 110.522 131.209 110.522 131.209C113.169 136.647 109.779 137.615 109.779 137.615C115.515 139.972 116.931 135.078 116.931 135.078C117.976 127.934 114.175 128.082 114.175 128.082Z" fill="url(#paint12_linear_1768_3021)"/>
<path d="M116.633 128.603C116.633 128.603 119.825 131.876 117.108 136.569C117.108 136.569 120.06 137.833 120.73 132.585C120.73 132.585 121.327 128.082 116.633 128.603Z" fill="url(#paint13_linear_1768_3021)"/>
<path d="M34.1663 32.261C37.8191 45.2152 30.6668 56.6793 30.6668 56.6793C26.641 62.2635 28.06 68.7401 28.06 68.7401C28.5883 71.8923 27.37 75.298 27.37 75.298C23.5873 82.9414 29.3269 85.421 29.3269 85.421C35.2071 86.9078 35.6561 77.9729 35.6561 77.9729C36.1052 74.5514 37.9628 71.4213 37.9628 71.4213C34.0141 58.4682 44.3755 52.0635 44.3755 52.0635C44.0014 42.9067 52.3425 40.1537 52.3425 40.1537C58.5237 32.7088 67.6921 35.014 67.6921 35.014C64.4145 34.4934 58.9707 22.6534 58.9707 22.6534C52.6394 11.637 39.6788 13.3488 39.6788 13.3488C24.0364 15.2084 21.7266 28.2397 21.7266 28.2397C30.9615 23.6956 34.1663 32.261 34.1663 32.261Z" fill="url(#paint14_linear_1768_3021)"/>
<path d="M15.2424 55.336C15.2424 55.336 17.7022 51.0211 20.0109 50.6494C20.0109 50.6494 26.1204 49.9809 27.6842 37.0246C27.6842 37.0246 29.471 44.3999 24.0357 49.8299C24.0357 49.8299 29.172 51.6917 29.471 55.9369C29.471 55.9369 38.4133 36.4301 29.471 29.2809C29.471 29.2809 21.7258 24.89 14.3495 40.0016C14.3495 40.0016 12.3388 45.9596 10.1019 48.1192C10.1019 48.1192 7.12214 51.6188 10.5477 55.9369C10.5477 55.9369 13.3827 58.6139 15.2424 55.336Z" fill="url(#paint15_linear_1768_3021)"/>
<path d="M13.7522 73.6027C14.0512 73.1719 13.7522 71.892 13.7522 71.892C11.5925 69.1622 12.3395 66.1377 12.3395 66.1377C14.868 59.4394 14.5742 57.7994 14.5742 57.7994C8.24291 60.0297 7.79282 52.4074 7.79282 52.4074C6.01874 55.8511 8.31902 62.8588 8.31902 62.8588C8.61171 68.2952 6.602 69.4832 6.602 69.4832C4.96527 70.7451 4.07031 73.6027 4.07031 73.6027C5.55699 73.325 6.75203 76.1118 6.75203 76.1118C8.76174 73.5066 11.5925 76.1118 11.5925 76.1118C11.5925 73.3535 13.7522 73.6027 13.7522 73.6027Z" fill="url(#paint16_linear_1768_3021)"/>
<path d="M15.6939 75.3665C12.9361 73.5069 12.4891 76.1121 12.4891 76.1121C12.3169 82.2803 15.5354 81.9181 15.5354 81.9181C16.8731 81.7702 17.2545 83.708 17.2545 83.708C20.9813 80.2073 15.6939 75.3665 15.6939 75.3665Z" fill="url(#paint17_linear_1768_3021)"/>
<path d="M11.0711 77.1562C8.53834 75.2934 7.19854 77.1562 7.19854 77.1562C5.63473 79.9842 7.49226 82.2917 7.49226 82.2917C9.28854 82.9591 9.73126 85.5864 9.73126 85.5864C9.73126 84.2347 11.3701 82.2198 11.3701 82.2198C13.308 79.1109 11.0711 77.1562 11.0711 77.1562Z" fill="url(#paint18_linear_1768_3021)"/>
<path d="M36.069 113.718C33.2024 111.784 32.7374 114.494 32.7374 114.494C32.5578 120.91 35.9063 120.533 35.9063 120.533C37.2947 120.384 37.6983 122.391 37.6983 122.391C41.5677 118.754 36.069 113.718 36.069 113.718Z" fill="url(#paint19_linear_1768_3021)"/>
<path d="M23.3633 113.02C15.9267 118.754 22.2803 122.391 22.2803 122.391C21.5036 120.613 23.9814 120.07 23.9814 120.07C26.3853 119.215 25.9964 115.194 25.9964 115.194C25.2209 111.881 23.3633 113.02 23.3633 113.02Z" fill="url(#paint20_linear_1768_3021)"/>
<path d="M31.2685 115.579C28.6333 113.641 27.2396 115.579 27.2396 115.579C25.6114 118.519 27.5471 120.92 27.5471 120.92C29.4068 121.619 29.8706 124.344 29.8706 124.344C29.8706 122.944 31.5718 120.846 31.5718 120.846C33.591 117.612 31.2685 115.579 31.2685 115.579Z" fill="url(#paint21_linear_1768_3021)"/>
<path d="M32.3981 107.827C31.7451 106.414 32.7341 102.021 32.7341 102.021C36.1396 88.0987 33.8657 85.8653 33.8657 85.8653C32.0821 87.3574 30.1411 87.0227 30.1411 87.0227C26.9395 86.8326 25.2743 83.3477 25.2743 83.3477C21.7758 93.6988 26.0224 101.502 26.0224 101.502C27.5598 105.375 26.0224 107.827 26.0224 107.827C24.653 108.872 23.5879 111.813 23.5879 111.813C25.5965 111.181 27.0145 113.932 27.0145 113.932C29.2493 112.37 31.931 113.932 31.931 113.932C31.8571 112.222 34.3137 111.181 34.3137 111.181C34.3137 110.214 32.3981 107.827 32.3981 107.827Z" fill="url(#paint22_linear_1768_3021)"/>
<path d="M36.6422 12.9209C36.6422 12.9209 33.4437 5.97754 40.6468 2.99956C40.6468 2.99956 47.721 -0.129415 61.7647 8.12443C61.7647 8.12443 74.0955 15.4331 80.7978 23.4018C80.7978 23.4018 89.1303 31.3653 94.4262 30.9936C94.4262 30.9936 100.467 37.1776 108.961 29.7306C108.961 29.7306 117.078 20.1979 107.542 14.8397C107.542 14.8397 109.631 22.3585 101.137 22.3585C101.137 22.3585 95.4786 23.2487 94.8805 28.533C94.8805 28.533 89.441 29.0589 82.2908 21.2423C82.2908 21.2423 74.0955 12.3084 62.8466 6.12856C62.8466 6.12856 42.8816 -6.60492 34.6124 4.63745C34.6124 4.63745 31.8567 7.8393 33.4438 13.7213C33.4438 13.7213 35.8719 12.49 36.6422 12.9209Z" fill="url(#paint23_linear_1768_3021)"/>
<defs>
<linearGradient id="paint0_linear_1768_3021" x1="0" y1="79.1109" x2="6.02802" y2="79.1109" gradientUnits="userSpaceOnUse">
<stop stop-color="#0C0098"/>
<stop offset="1" stop-color="#BC87FF"/>
</linearGradient>
<linearGradient id="paint1_linear_1768_3021" x1="97.7852" y1="90.1596" x2="105.27" y2="90.1596" gradientUnits="userSpaceOnUse">
<stop stop-color="#0C0098"/>
<stop offset="1" stop-color="#BC87FF"/>
</linearGradient>
<linearGradient id="paint2_linear_1768_3021" x1="85.7637" y1="98.1782" x2="101.829" y2="98.1782" gradientUnits="userSpaceOnUse">
<stop stop-color="#0C0098"/>
<stop offset="1" stop-color="#BC87FF"/>
</linearGradient>
<linearGradient id="paint3_linear_1768_3021" x1="36.3145" y1="74.3266" x2="105.183" y2="74.3266" gradientUnits="userSpaceOnUse">
<stop stop-color="#0C0098"/>
<stop offset="1" stop-color="#BC87FF"/>
</linearGradient>
<linearGradient id="paint4_linear_1768_3021" x1="53.1133" y1="53.521" x2="88.8478" y2="53.521" gradientUnits="userSpaceOnUse">
<stop stop-color="#0C0098"/>
<stop offset="1" stop-color="#BC87FF"/>
</linearGradient>
<linearGradient id="paint5_linear_1768_3021" x1="61.7637" y1="54.0544" x2="94.4267" y2="54.0544" gradientUnits="userSpaceOnUse">
<stop stop-color="#0C0098"/>
<stop offset="1" stop-color="#BC87FF"/>
</linearGradient>
<linearGradient id="paint6_linear_1768_3021" x1="72.5137" y1="52.4106" x2="104.927" y2="52.4106" gradientUnits="userSpaceOnUse">
<stop stop-color="#0C0098"/>
<stop offset="1" stop-color="#BC87FF"/>
</linearGradient>
<linearGradient id="paint7_linear_1768_3021" x1="53.8203" y1="107.084" x2="79.0134" y2="107.084" gradientUnits="userSpaceOnUse">
<stop stop-color="#0C0098"/>
<stop offset="1" stop-color="#BC87FF"/>
</linearGradient>
<linearGradient id="paint8_linear_1768_3021" x1="69.4531" y1="111.813" x2="88.0972" y2="111.813" gradientUnits="userSpaceOnUse">
<stop stop-color="#0C0098"/>
<stop offset="1" stop-color="#BC87FF"/>
</linearGradient>
<linearGradient id="paint9_linear_1768_3021" x1="86.7422" y1="118.104" x2="102.927" y2="118.104" gradientUnits="userSpaceOnUse">
<stop stop-color="#0C0098"/>
<stop offset="1" stop-color="#BC87FF"/>
</linearGradient>
<linearGradient id="paint10_linear_1768_3021" x1="96.8457" y1="127.726" x2="112.388" y2="127.726" gradientUnits="userSpaceOnUse">
<stop stop-color="#0C0098"/>
<stop offset="1" stop-color="#BC87FF"/>
</linearGradient>
<linearGradient id="paint11_linear_1768_3021" x1="100.316" y1="133.235" x2="109.78" y2="133.235" gradientUnits="userSpaceOnUse">
<stop stop-color="#0C0098"/>
<stop offset="1" stop-color="#BC87FF"/>
</linearGradient>
<linearGradient id="paint12_linear_1768_3021" x1="109.779" y1="133.169" x2="117.112" y2="133.169" gradientUnits="userSpaceOnUse">
<stop stop-color="#0C0098"/>
<stop offset="1" stop-color="#BC87FF"/>
</linearGradient>
<linearGradient id="paint13_linear_1768_3021" x1="116.633" y1="132.632" x2="120.755" y2="132.632" gradientUnits="userSpaceOnUse">
<stop stop-color="#0C0098"/>
<stop offset="1" stop-color="#BC87FF"/>
</linearGradient>
<linearGradient id="paint14_linear_1768_3021" x1="21.7266" y1="49.4202" x2="67.6921" y2="49.4202" gradientUnits="userSpaceOnUse">
<stop stop-color="#0C0098"/>
<stop offset="1" stop-color="#BC87FF"/>
</linearGradient>
<linearGradient id="paint15_linear_1768_3021" x1="8.90039" y1="42.8273" x2="33.4453" y2="42.8273" gradientUnits="userSpaceOnUse">
<stop stop-color="#0C0098"/>
<stop offset="1" stop-color="#BC87FF"/>
</linearGradient>
<linearGradient id="paint16_linear_1768_3021" x1="4.07031" y1="64.2596" x2="14.5847" y2="64.2596" gradientUnits="userSpaceOnUse">
<stop stop-color="#0C0098"/>
<stop offset="1" stop-color="#BC87FF"/>
</linearGradient>
<linearGradient id="paint17_linear_1768_3021" x1="12.4824" y1="79.2026" x2="18.5847" y2="79.2026" gradientUnits="userSpaceOnUse">
<stop stop-color="#0C0098"/>
<stop offset="1" stop-color="#BC87FF"/>
</linearGradient>
<linearGradient id="paint18_linear_1768_3021" x1="6.57227" y1="80.9574" x2="12.1602" y2="80.9574" gradientUnits="userSpaceOnUse">
<stop stop-color="#0C0098"/>
<stop offset="1" stop-color="#BC87FF"/>
</linearGradient>
<linearGradient id="paint19_linear_1768_3021" x1="32.7305" y1="117.707" x2="39.0779" y2="117.707" gradientUnits="userSpaceOnUse">
<stop stop-color="#0C0098"/>
<stop offset="1" stop-color="#BC87FF"/>
</linearGradient>
<linearGradient id="paint20_linear_1768_3021" x1="19.752" y1="117.611" x2="26.0197" y2="117.611" gradientUnits="userSpaceOnUse">
<stop stop-color="#0C0098"/>
<stop offset="1" stop-color="#BC87FF"/>
</linearGradient>
<linearGradient id="paint21_linear_1768_3021" x1="26.5879" y1="119.531" x2="32.3968" y2="119.531" gradientUnits="userSpaceOnUse">
<stop stop-color="#0C0098"/>
<stop offset="1" stop-color="#BC87FF"/>
</linearGradient>
<linearGradient id="paint22_linear_1768_3021" x1="23.5879" y1="98.6399" x2="34.6092" y2="98.6399" gradientUnits="userSpaceOnUse">
<stop stop-color="#0C0098"/>
<stop offset="1" stop-color="#BC87FF"/>
</linearGradient>
<linearGradient id="paint23_linear_1768_3021" x1="32.9512" y1="16.7015" x2="112.182" y2="16.7015" gradientUnits="userSpaceOnUse">
<stop stop-color="#0C0098"/>
<stop offset="1" stop-color="#BC87FF"/>
</linearGradient>
</defs>
</svg>
