<svg width="121" height="133" viewBox="0 0 121 133" fill="none" xmlns="http://www.w3.org/2000/svg">
<path d="M75.3177 12.876C76.7444 18.2626 71.2398 19.8479 71.1787 19.8647C72.4193 19.875 73.2642 19.9312 73.2642 19.9312C79.1325 16.3619 75.3177 12.876 75.3177 12.876Z" fill="url(#paint0_linear_1768_2997)"/>
<path d="M71.1789 19.8646C70.5004 19.859 69.7043 19.8674 68.8604 19.9058L71.1733 19.8665L71.1789 19.8646Z" fill="url(#paint1_linear_1768_2997)"/>
<path d="M78.1418 52.6501C78.1418 52.6501 81.1728 41.3931 80.8194 38.7887C80.8194 38.7887 78.6945 40.7193 76.3308 40.1737C76.3308 40.1737 82.9106 38.3255 83.2884 29.2545C83.2884 29.2545 83.9631 40.214 78.1418 52.6501ZM119.513 129.607C119.513 129.607 117.189 128.304 112.598 127.308C112.598 127.308 108.403 126.372 105.896 121.984C105.896 121.984 102.4 113.538 101.514 106.947C101.514 106.947 99.7815 99.3007 95.8586 95.8615C95.8586 95.8615 93.1998 92.6237 91.8107 84.7274C91.8107 84.7274 90.5025 75.0293 87.5101 70.0328C87.5101 70.0328 85.527 75.8708 79.3279 74.2732C79.3279 74.2732 88.3916 72.9273 86.7037 64.5744C86.7037 64.5744 84.8917 59.4114 83.9631 57.7316C83.9631 57.7316 83.4622 56.1753 85.1445 53.1901C85.1445 53.1901 92.9902 39.4194 91.0091 30.8099C91.0091 30.8099 93.9573 34.7562 90.3766 43.8693C90.3766 43.8693 89.4894 46.7685 90.5852 49.3729L90.1632 52.6866C90.1632 52.6866 94.6763 53.3632 92.9902 62.2168C92.9902 62.2168 93.1594 55.0851 90.713 54.2419C90.713 54.2419 89.2206 53.1676 89.6886 59.694C89.6933 59.7567 89.6961 59.8091 89.6999 59.8681C90.1961 66.4215 90.8484 68.1399 90.8033 71.3759C90.8033 71.4621 90.7995 71.5433 90.7957 71.6277C90.7957 71.6277 90.5439 73.4317 90.292 73.8137C90.292 73.8137 92.7779 79.9865 92.9038 85.3178C92.9038 85.3178 94.1706 86.6627 95.6894 82.3381L96.3219 79.1479C96.3219 79.1479 96.9545 77.8042 95.6453 76.0784C95.6453 76.0784 94.0006 73.983 95.0973 70.41L96.5343 63.527C96.5343 63.527 97.8426 56.005 96.8266 52.0558C96.8266 52.0558 96.9544 49.1164 97.5888 47.314C97.5888 47.314 98.3858 43.6138 97.3332 37.1922C97.3332 37.1922 99.0869 24.1328 89.1773 22.7478C84.9302 21.8756 83.0478 19.2253 83.0478 19.2253L81.358 17.16C79.1663 14.7671 80.1832 13.5552 80.1832 13.5552C80.9811 11.6714 81.0676 8.35109 81.0676 8.35109C79.2095 -4.53987 65.799 1.33616 65.799 1.33616C64.4908 1.96784 63.1854 3.56061 63.4363 5.20017C63.7098 6.97074 65.7229 5.75792 66.6862 5.65966C67.9372 5.53894 69.4268 5.35926 70.22 6.42703C70.3807 6.64882 70.5104 7.10083 70.4728 7.3797C70.142 7.31794 70.0856 6.88372 69.8375 6.67877C69.5922 6.48131 69.2388 6.4523 68.9183 6.50003C68.3356 6.58425 67.7426 6.49066 67.1496 6.58799C66.4814 6.69187 65.8498 6.83598 65.1656 6.8809C64.9711 6.894 64.2681 7.16259 64.1233 7.27021C63.9307 7.39842 63.9532 7.96927 63.9861 8.18451C64.0293 8.46619 64.1534 8.73477 64.1957 9.02206C64.2333 9.28971 64.1788 9.72113 64.3198 9.94853C64.4842 10.2059 64.7436 10.1151 64.8752 10.3697C65.0086 10.6326 64.8197 11.0247 64.7417 11.2877C64.5867 11.8202 64.4269 12.479 64.2681 13.0863C64.113 13.6778 63.8602 14.3834 63.6891 14.9458C63.4626 15.6767 64.3169 15.7151 65.1656 15.6168C65.409 15.5878 65.8122 15.4502 66.0274 15.6299C66.2154 15.7899 66.0782 17.4014 66.0913 17.6298L67.034 19.9375L68.861 19.9057C69.705 19.8673 70.501 19.8589 71.1796 19.8645C71.2407 19.8477 76.7452 18.2624 75.3186 12.8758C75.3186 12.8758 79.1334 16.3617 73.2651 19.931C73.2651 19.931 72.4202 19.8748 71.1796 19.8645L71.1739 19.8664L68.861 19.9057C66.2304 20.0255 63.1506 20.4391 61.8254 21.6501C61.8254 21.6501 53.0061 21.1063 52.9262 25.5992C52.9262 25.5992 52.6705 26.9889 53.9356 28.2027C53.9356 28.2027 49.5503 26.5669 53.0907 22.5756C53.0907 22.5756 43.0128 20.8995 33.6502 23.0379L31.2471 23.0809C31.2471 23.0809 27.5752 21.607 26.7359 21.607L24.7087 21.8251L22.8121 23.123L27.2434 23.6686L21.4616 23.123C21.4616 23.123 20.0716 25.1818 22.3055 27.95C22.3055 27.95 24.922 29.1263 28.4643 28.2027L30.3176 27.0301C30.3176 27.0301 35.2132 26.6913 37.8701 27.7404C37.8701 27.7404 46.2177 30.0921 51.4027 29.2545C51.4027 29.2545 54.022 30.4561 57.1413 29.437C57.1413 29.437 64.1882 29.6729 67.3075 28.5836C67.3075 28.5836 70.2604 27.9088 70.0471 32.1107C70.0471 32.1107 70.3864 37.443 73.2538 38.3676C73.2538 38.3676 70.0471 39.922 68.7821 34.7534L68.4456 31.815C68.4456 31.815 69.0358 29.8834 66.1684 30.1361L64.6073 30.3476C64.6073 30.3476 63.6393 30.0509 63.9739 33.1616L64.2277 36.7692C64.2277 36.7692 64.3527 38.6577 66.2511 41.0992L66.2943 45.5079C66.2943 45.5079 66.1261 47.563 66.9287 50.8421C66.9287 50.8421 67.4738 53.1901 65.409 55.0374C65.409 55.0374 61.1074 59.8269 61.1074 62.9779C61.1074 62.9779 61.02 67.6794 64.1008 69.9067C64.1008 69.9067 60.7691 70.4503 60.051 64.6584C60.051 64.6584 53.4732 75.6178 52.4591 80.4888C52.4591 80.4888 50.8557 85.4845 56.0032 80.6975C56.0032 80.6975 58.4073 77.3399 58.9543 75.953C58.9543 75.953 57.646 81.875 54.3181 83.7203C54.3181 83.7203 52.0362 84.5187 51.4459 84.3958C51.4459 84.3958 49.6772 84.6441 47.9047 89.1404C47.9047 89.1404 47.2327 90.9459 47.3567 92.3336C47.3567 92.3336 47.4817 93.7983 44.869 97.5387C44.869 97.5387 40.9894 103.169 39.261 110.137C39.261 110.137 37.3184 118.83 32.3852 122.146L22.9362 126.604C22.9362 126.604 20.1561 127.151 19.4391 129.706C19.4391 129.706 19.2248 130.378 20.6608 130.337L36.6878 130.338C36.6878 130.338 39.1332 130.169 39.4274 126.685L39.8061 123.574C39.8061 123.574 40.0176 120.474 46.0062 114.34C46.0062 114.34 52.7147 107.41 52.7542 101.868C52.7542 101.868 52.2927 98.1667 46.6396 106.147C46.6396 106.147 47.4817 99.5982 53.2157 99.093L53.6 98.9687C53.6 98.9687 56.3838 94.1368 57.4806 93.1283C57.4806 93.1283 64.0594 85.7784 65.0688 84.8985C65.0688 84.8985 71.3986 78.3891 73.0404 71.6116C73.0404 71.6116 80.3382 70.4503 76.7528 58.484C76.7528 58.484 83.8795 66.1239 73.8854 73.2252C73.8854 73.2252 74.7726 79.6081 81.5187 87.3346C81.5187 87.3346 87.6764 95.901 89.6999 93.2554C89.6999 93.2554 91.0091 91.5746 90.5467 88.3863C90.5467 88.3863 93.2431 101.653 83.1652 91.4887C83.1652 91.4887 82.5318 93.4667 90.3766 102.159C90.3766 102.159 94.2111 98.3052 96.492 107.41C96.492 107.41 93.8765 100.898 91.1171 103.714C91.1171 103.714 89.026 106.319 93.1594 111.862L99.6142 121.307C99.6142 121.307 101.933 126.014 101.172 127.988C101.172 127.988 100.425 130.337 101.325 131.894C101.325 131.894 101.679 132.651 104.422 132.353L120.067 131.894C120.067 131.894 120.531 131.068 119.513 129.607Z" fill="url(#paint2_linear_1768_2997)"/>
<path d="M26.5943 28.5229V35.3422C26.5943 35.3422 26.8086 39.2306 30.6375 37.6453C30.6375 37.6453 33.8696 36.8882 36.8526 40.3058C36.8526 40.3058 42.5611 44.5498 44.5855 39.4411C44.5855 39.4411 45.1635 46.5646 36.0594 43.4708C36.0594 43.4708 32.2399 40.7064 29.4194 42.5724C29.4194 42.5724 25.6658 45.0074 22.3049 42.1513C22.3049 42.1513 19.7298 40.813 14.9611 43.4708C14.9611 43.4708 7.7338 45.7046 5.49512 38.437C5.49512 38.437 10.9142 43.4708 14.6707 39.6582C14.6707 39.6582 17.055 36.7825 22.4732 37.7894C22.4732 37.7894 24.8284 38.7215 25.0596 35.2711V28.5397" fill="url(#paint3_linear_1768_2997)"/>
<path d="M11.2119 43.7013L19.0445 65.9785Z" fill="url(#paint4_linear_1768_2997)"/>
<path d="M10.5488 43.5759L18.4989 65.9785Z" fill="url(#paint5_linear_1768_2997)"/>
<path d="M10.119 43.4538L2.26953 65.7021Z" fill="url(#paint6_linear_1768_2997)"/>
<path d="M9.54196 43.25L1.4707 65.7246Z" fill="url(#paint7_linear_1768_2997)"/>
<path d="M0 65.7022L20.0203 65.992C20.0203 65.992 18.353 73.0425 9.03367 73.0425C9.03367 73.0425 2.38717 73.0425 0 65.7022Z" fill="url(#paint8_linear_1768_2997)"/>
<mask id="path-10-inside-1_1768_2997" fill="white">
<path d="M40.2895 44.3561L32.4551 66.6333Z"/>
</mask>
<path d="M40.2895 44.3561L32.4551 66.6333Z" fill="url(#paint9_linear_1768_2997)"/>
<path d="M40.8398 44.5496L33.0054 66.8268L31.9048 66.4398L39.7392 44.1625L40.8398 44.5496Z" fill="url(#paint10_linear_1768_2997)" mask="url(#path-10-inside-1_1768_2997)"/>
<mask id="path-12-inside-2_1768_2997" fill="white">
<path d="M40.9556 44.2269L32.9971 66.6333Z"/>
</mask>
<path d="M40.9556 44.2269L32.9971 66.6333Z" fill="url(#paint11_linear_1768_2997)"/>
<path d="M41.5053 44.4222L33.5468 66.8286L32.4474 66.438L40.4058 44.0317L41.5053 44.4222Z" fill="url(#paint12_linear_1768_2997)" mask="url(#path-12-inside-2_1768_2997)"/>
<path d="M41.3818 44.1125L49.2285 66.3618Z" fill="url(#paint13_linear_1768_2997)"/>
<path d="M41.958 43.9076L50.0302 66.3794Z" fill="url(#paint14_linear_1768_2997)"/>
<path d="M51.4943 66.362L31.4834 66.6483C31.4834 66.6483 33.1441 73.7017 42.4682 73.7017C42.4682 73.7017 49.1128 73.7017 51.4943 66.362Z" fill="url(#paint15_linear_1768_2997)"/>
<defs>
<linearGradient id="paint0_linear_1768_2997" x1="71.1787" y1="16.4036" x2="76.5365" y2="16.4036" gradientUnits="userSpaceOnUse">
<stop stop-color="#0C0098"/>
<stop offset="1" stop-color="#BC87FF"/>
</linearGradient>
<linearGradient id="paint1_linear_1768_2997" x1="68.8604" y1="19.8844" x2="71.1789" y2="19.8844" gradientUnits="userSpaceOnUse">
<stop stop-color="#0C0098"/>
<stop offset="1" stop-color="#BC87FF"/>
</linearGradient>
<linearGradient id="paint2_linear_1768_2997" x1="19.4277" y1="66.2111" x2="120.172" y2="66.2111" gradientUnits="userSpaceOnUse">
<stop stop-color="#0C0098"/>
<stop offset="1" stop-color="#BC87FF"/>
</linearGradient>
<linearGradient id="paint3_linear_1768_2997" x1="5.49512" y1="36.3862" x2="44.5928" y2="36.3862" gradientUnits="userSpaceOnUse">
<stop stop-color="#0C0098"/>
<stop offset="1" stop-color="#BC87FF"/>
</linearGradient>
<linearGradient id="paint4_linear_1768_2997" x1="11.2119" y1="54.8399" x2="19.0445" y2="54.8399" gradientUnits="userSpaceOnUse">
<stop stop-color="#0C0098"/>
<stop offset="1" stop-color="#BC87FF"/>
</linearGradient>
<linearGradient id="paint5_linear_1768_2997" x1="10.5488" y1="54.7772" x2="18.4989" y2="54.7772" gradientUnits="userSpaceOnUse">
<stop stop-color="#0C0098"/>
<stop offset="1" stop-color="#BC87FF"/>
</linearGradient>
<linearGradient id="paint6_linear_1768_2997" x1="2.26953" y1="54.578" x2="10.119" y2="54.578" gradientUnits="userSpaceOnUse">
<stop stop-color="#0C0098"/>
<stop offset="1" stop-color="#BC87FF"/>
</linearGradient>
<linearGradient id="paint7_linear_1768_2997" x1="1.4707" y1="54.4873" x2="9.54196" y2="54.4873" gradientUnits="userSpaceOnUse">
<stop stop-color="#0C0098"/>
<stop offset="1" stop-color="#BC87FF"/>
</linearGradient>
<linearGradient id="paint8_linear_1768_2997" x1="0" y1="69.3723" x2="20.0203" y2="69.3723" gradientUnits="userSpaceOnUse">
<stop stop-color="#0C0098"/>
<stop offset="1" stop-color="#BC87FF"/>
</linearGradient>
<linearGradient id="paint9_linear_1768_2997" x1="32.4551" y1="55.4947" x2="40.2895" y2="55.4947" gradientUnits="userSpaceOnUse">
<stop stop-color="#0C0098"/>
<stop offset="1" stop-color="#BC87FF"/>
</linearGradient>
<linearGradient id="paint10_linear_1768_2997" x1="32.4551" y1="55.4947" x2="40.2895" y2="55.4947" gradientUnits="userSpaceOnUse">
<stop stop-color="#0C0098"/>
<stop offset="1" stop-color="#BC87FF"/>
</linearGradient>
<linearGradient id="paint11_linear_1768_2997" x1="32.9971" y1="55.4301" x2="40.9556" y2="55.4301" gradientUnits="userSpaceOnUse">
<stop stop-color="#0C0098"/>
<stop offset="1" stop-color="#BC87FF"/>
</linearGradient>
<linearGradient id="paint12_linear_1768_2997" x1="32.9971" y1="55.4301" x2="40.9556" y2="55.4301" gradientUnits="userSpaceOnUse">
<stop stop-color="#0C0098"/>
<stop offset="1" stop-color="#BC87FF"/>
</linearGradient>
<linearGradient id="paint13_linear_1768_2997" x1="41.3818" y1="55.2372" x2="49.2285" y2="55.2372" gradientUnits="userSpaceOnUse">
<stop stop-color="#0C0098"/>
<stop offset="1" stop-color="#BC87FF"/>
</linearGradient>
<linearGradient id="paint14_linear_1768_2997" x1="41.958" y1="55.1435" x2="50.0302" y2="55.1435" gradientUnits="userSpaceOnUse">
<stop stop-color="#0C0098"/>
<stop offset="1" stop-color="#BC87FF"/>
</linearGradient>
<linearGradient id="paint15_linear_1768_2997" x1="31.4834" y1="70.0318" x2="51.4943" y2="70.0318" gradientUnits="userSpaceOnUse">
<stop stop-color="#0C0098"/>
<stop offset="1" stop-color="#BC87FF"/>
</linearGradient>
</defs>
</svg>
