<svg width="19" height="22" viewBox="0 0 19 22" fill="none" xmlns="http://www.w3.org/2000/svg">
<path fill-rule="evenodd" clip-rule="evenodd" d="M9.50095 0.166992C11.4064 0.167119 13.265 0.758373 14.8203 1.85923C16.3756 2.96009 17.5511 4.51634 18.1847 6.3134C18.8183 8.11046 18.8788 10.0598 18.3579 11.8927C17.8369 13.7256 16.7602 15.3518 15.2762 16.547L15.0314 16.7387L15.8005 19.8154C15.8573 20.0433 15.8641 20.2807 15.8203 20.5114C15.7765 20.7421 15.6832 20.9606 15.5469 21.1518C15.4106 21.343 15.2344 21.5024 15.0306 21.619C14.8268 21.7355 14.6001 21.8066 14.3662 21.8272L14.2243 21.8337H4.77761C4.54273 21.8336 4.31065 21.7826 4.09737 21.6842C3.88409 21.5858 3.69467 21.4423 3.54218 21.2637C3.38968 21.085 3.27773 20.8754 3.21403 20.6493C3.15033 20.4233 3.1364 20.1861 3.1732 19.9541L3.20136 19.8143L3.97053 16.7377C2.42582 15.5772 1.28524 13.9603 0.710237 12.1159C0.135237 10.2714 0.154954 8.29279 0.766596 6.46014C1.37824 4.62749 2.55082 3.03365 4.11834 1.90424C5.68587 0.774827 7.56892 0.167067 9.50095 0.166992ZM12.9893 17.5003H6.01261L5.47095 19.667H13.5309L12.9893 17.5003ZM13.9534 8.35699C13.9433 8.3338 13.9267 8.31406 13.9055 8.30019C13.8843 8.28633 13.8596 8.27895 13.8343 8.27895C13.809 8.27895 13.7842 8.28633 13.7631 8.30019C13.7419 8.31406 13.7252 8.3338 13.7151 8.35699C13.5084 8.82397 13.1908 9.23341 12.7899 9.54974L12.5982 9.68949L12.4064 9.80541C12.3909 9.81423 12.3774 9.82622 12.3667 9.8406C12.3561 9.85497 12.3486 9.87143 12.3447 9.88889C12.3408 9.90635 12.3406 9.92442 12.3442 9.94196C12.3477 9.95949 12.3549 9.97608 12.3653 9.99066L12.4064 10.0286L12.5982 10.1445C13.091 10.4716 13.4785 10.9344 13.714 11.477C13.7223 11.4963 13.735 11.5133 13.7513 11.5266C13.7675 11.5399 13.7867 11.5491 13.8072 11.5533C13.8278 11.5576 13.8491 11.5568 13.8692 11.5511C13.8894 11.5453 13.9079 11.5348 13.9231 11.5203L13.9534 11.477L14.0325 11.3091C14.2739 10.839 14.6311 10.4382 15.0704 10.1445C15.1325 10.1035 15.1961 10.0649 15.261 10.0286C15.2809 10.0175 15.2974 10.0013 15.3089 9.98167C15.3204 9.96206 15.3265 9.93973 15.3265 9.91699C15.3265 9.89425 15.3204 9.87192 15.3089 9.85231C15.2974 9.83269 15.2809 9.8165 15.261 9.80541C14.7978 9.546 14.4105 9.1699 14.1376 8.71449L14.0325 8.52491L13.9534 8.35699ZM10.7836 4.06699C10.7666 4.0283 10.7387 3.99539 10.7033 3.97229C10.6679 3.94919 10.6265 3.93689 10.5843 3.93689C10.542 3.93689 10.5007 3.94919 10.4653 3.97229C10.4299 3.99539 10.402 4.0283 10.3849 4.06699C10.1496 4.60431 9.82466 5.09775 9.42403 5.52624C9.0687 5.90483 8.65773 6.22704 8.20528 6.48174C8.17235 6.50019 8.14494 6.52707 8.12585 6.55963C8.10677 6.59219 8.09671 6.62925 8.09671 6.66699C8.09671 6.70473 8.10677 6.74179 8.12585 6.77435C8.14494 6.80691 8.17235 6.8338 8.20528 6.85224C9.17545 7.39777 9.94083 8.24532 10.3849 9.26591C10.4608 9.43924 10.7067 9.43924 10.7836 9.26591C11.019 8.72858 11.3439 8.23514 11.7445 7.80666C12.0996 7.42889 12.5102 7.10742 12.9622 6.85332C12.9954 6.83496 13.023 6.80805 13.0423 6.77537C13.0616 6.7427 13.0717 6.70546 13.0717 6.66753C13.0717 6.6296 13.0616 6.59237 13.0423 6.55969C13.023 6.52702 12.9954 6.5001 12.9622 6.48174C11.9921 5.93594 11.227 5.08795 10.7836 4.06699Z" fill="#828282"/>
</svg>
