<svg width="19" height="24" viewBox="0 0 19 24" fill="none" xmlns="http://www.w3.org/2000/svg">
<path d="M5.42188 0.9375V3.84375H13.5781V0.9375H5.42188ZM6.2375 4.78125L6.12031 5.01562C6.0125 5.24062 5.59531 5.61094 5.02344 5.97187C4.44688 6.33281 3.725 6.70313 3.02188 7.08281C2.31406 7.45781 1.62172 7.8375 1.08031 8.24063C0.538437 8.64375 0.078125 9.08438 0.078125 9.70312V20.3906C0.078125 21.3516 0.785469 22.0312 1.50969 22.4437C2.23438 22.8562 2.98438 23.0625 3.5 23.0625H15.5C16.0156 23.0625 16.7656 22.8562 17.4922 22.4437C18.2141 22.0312 18.9219 21.3516 18.9219 20.3906V9.70312C18.9219 9.08438 18.4625 8.64375 17.9188 8.24063C17.3797 7.8375 16.6859 7.45781 15.9781 7.08281C15.275 6.70313 14.5531 6.33281 13.9766 5.97187C13.4047 5.61094 12.9875 5.24062 12.8797 5.01562L12.7625 4.78125H6.2375ZM6.73438 5.625H12.2656C12.5516 6.03281 13.0063 6.35625 13.5312 6.68438C14.15 7.07344 14.8812 7.45312 15.5844 7.82344C16.2828 8.19844 16.9484 8.56875 17.4172 8.91562C17.8813 9.2625 18.0781 9.57187 18.0781 9.70312H0.921875C0.921875 9.57187 1.11781 9.2625 1.58375 8.91562C2.05016 8.56875 2.71719 8.19844 3.41562 7.82344C4.11875 7.45312 4.85 7.07344 5.46875 6.68438C5.99375 6.35625 6.44844 6.03281 6.73438 5.625ZM8 12.7031H11V14.9531H13.25V17.9531H11V20.2031H8V17.9531H5.75V14.9531H8V12.7031Z" fill="#828282"/>
</svg>
