<svg width="22" height="20" viewBox="0 0 22 20" fill="none" xmlns="http://www.w3.org/2000/svg">
<path d="M11 0C12.3567 0 13.4444 1.1125 13.4444 2.5C13.4444 3.8875 12.3567 5 11 5C9.64333 5 8.55556 3.8875 8.55556 2.5C8.55556 1.1125 9.65556 0 11 0ZM22 15V12.5C19.2622 12.5 16.9156 11.3 15.1556 9.15L13.5178 7.15C13.2904 6.86809 13.0048 6.64118 12.6814 6.48557C12.3581 6.32996 12.0051 6.24951 11.6478 6.25H10.3889C9.64333 6.25 8.95889 6.575 8.49444 7.15L6.85667 9.15C5.08444 11.3 2.73778 12.5 0 12.5V15C3.38556 15 6.34333 13.5375 8.55556 10.9375V13.75L3.81333 15.6875C2.99444 16.025 2.44444 16.875 2.44444 17.7625C2.44444 19 3.42222 20 4.63222 20H7.33333V19.375C7.33333 18.5462 7.65526 17.7513 8.22828 17.1653C8.80131 16.5792 9.57851 16.25 10.3889 16.25H14.0556C14.3978 16.25 14.6667 16.525 14.6667 16.875C14.6667 17.225 14.3978 17.5 14.0556 17.5H10.3889C9.37444 17.5 8.55556 18.3375 8.55556 19.375V20H17.3678C18.5778 20 19.5556 19 19.5556 17.7625C19.5556 16.875 19.0056 16.025 18.1867 15.6875L13.4444 13.75V10.9375C15.6567 13.5375 18.6144 15 22 15Z" fill="#828282"/>
</svg>
