<svg width="121" height="129" viewBox="0 0 121 129" fill="none" xmlns="http://www.w3.org/2000/svg">
<path d="M81.0813 99.3738C86.2458 95.6304 91.7191 87.5683 91.7191 87.5683C91.7191 87.5683 80.5658 100.445 61.7094 107.568C61.7094 107.568 54.0887 108.777 53.155 113.15L53.1318 113.606C54.0794 112.396 56.6403 111.064 57.9152 111.759C59.2894 112.505 60.7627 112.293 60.7627 112.293C62.6579 115.466 66.0273 113.448 66.0273 113.448C67.1242 113.082 68.1237 114.108 69.0991 114.744C71.1965 115.932 72.5112 113.362 73.9595 112.202C74.9887 111.221 76.475 109.762 77.5079 108.787C76.6947 109.762 75.431 111.213 74.6197 112.189C73.7741 113.209 71.9373 114.798 72.7523 116.235C73.0694 116.795 73.5348 116.926 74.0467 117.224C74.832 117.68 76.2478 118.449 75.8834 119.264C74.8042 121.686 78.3832 122.842 78.3832 122.842C78.2339 123.881 79.2084 124.522 79.9937 124.919C80.946 125.669 81.1611 127.201 81.1676 128.339C82.5992 127.503 83.1369 125.643 83.4197 124.12C83.7062 122.594 83.7341 121.058 83.7081 119.514C83.6617 117.015 84.1865 114.491 84.9913 112.138C86.4897 107.762 89.0404 103.448 92.0037 99.9212C93.4112 98.2458 95.2415 96.8464 96.9003 95.4146L96.7927 95.5044C90.2198 101.149 84.5194 103.255 84.5194 103.255C80.5658 104.999 79.6766 103.056 79.6766 103.056C79.6646 103.035 79.659 103.014 79.6479 102.994C79.5255 102.817 79.4133 102.552 79.4235 102.192C79.3493 100.688 81.0813 99.3738 81.0813 99.3738Z" fill="url(#paint0_linear_1768_2993)"/>
<path d="M120.126 50.1416L115 51.3428C116.759 55.7549 117.126 58.9844 117.126 58.9844C117.678 55.6558 119.478 53.3442 119.478 53.3442C120.173 51.9069 120.242 50.8548 120.126 50.1416Z" fill="url(#paint1_linear_1768_2993)"/>
<path d="M111.212 28.9035L99.4835 32.9952C104.428 28.195 111.212 28.9035 111.212 28.9035ZM119.641 48.9766C118.572 47.593 119.052 45.0462 119.052 45.0462C119.356 44.0478 119.293 43.2531 119.089 42.6391L111.892 45.1814C113.999 43.5032 119.073 42.6419 119.089 42.6391C118.72 41.5259 117.883 41.0137 117.883 41.0137C115.602 39.418 115.854 36.7016 115.854 36.7016C116.123 35.2503 115.861 34.2723 115.434 33.6156L106.241 38.1602C106.332 38.0158 106.45 37.8741 106.58 37.7334C108.769 35.381 115.42 33.6194 115.434 33.6156C114.742 32.5487 113.616 32.3321 113.616 32.3321C109.603 29.8658 111.49 24.4099 111.49 24.4099C100.023 21.6555 91.9277 29.4953 91.9277 29.4953C105.902 34.3501 112.207 44.3367 114.998 51.3374C116.732 50.3427 120.092 50.1418 120.127 50.1408C119.998 49.3499 119.641 48.9766 119.641 48.9766Z" fill="url(#paint2_linear_1768_2993)"/>
<path d="M99.4834 32.9956L111.212 28.9039C111.212 28.9039 104.428 28.1954 99.4834 32.9956Z" fill="url(#paint3_linear_1768_2993)"/>
<path d="M119.09 42.6394C119.074 42.6421 113.999 43.5035 111.893 45.1816L119.09 42.6394Z" fill="url(#paint4_linear_1768_2993)"/>
<path d="M106.241 38.1606L115.434 33.616C115.42 33.6198 108.77 35.3814 106.581 37.7338C106.45 37.8745 106.332 38.0162 106.241 38.1606Z" fill="url(#paint5_linear_1768_2993)"/>
<path d="M114.981 51.3462L115 51.3425C114.999 51.3406 114.999 51.3397 114.998 51.3379C114.993 51.3416 114.987 51.3434 114.981 51.3462Z" fill="url(#paint6_linear_1768_2993)"/>
<path d="M120.126 50.1411C120.092 50.142 116.732 50.343 114.998 51.3377C114.999 51.3395 114.999 51.3404 115 51.3423L120.126 50.1411Z" fill="url(#paint7_linear_1768_2993)"/>
<path d="M97.5746 55.9757C97.5329 55.9766 97.493 55.9702 97.4513 55.9683C95.4856 55.9044 94.0809 53.339 94.0809 53.339C94.0234 53.3149 93.9743 53.2853 93.9187 53.2593C93.6387 53.1325 93.3818 52.987 93.1482 52.8249L96.2144 59.056C96.2144 59.056 94.0411 59.3293 92.7522 56.4545C92.7522 56.4545 89.4236 55.2033 89.2475 51.0005C89.2475 51.0005 89.024 48.8083 89.4134 47.3793L92.4009 55.4996C92.3842 55.4459 92.3665 55.3987 92.3499 55.3432C92.3499 55.3432 91.8371 52.9537 91.6684 51.2367C90.7597 49.7447 90.6781 48.1489 90.6781 48.1489C90.6197 48.1202 90.5724 48.0776 90.5168 48.0452C87.903 46.4911 88.7811 40.8593 88.7811 40.8593C95.4096 41.1982 99.1555 46.3846 99.1555 46.3846C97.6692 55.0866 103.526 58.6875 103.526 58.6875C99.4364 58.9199 97.5746 55.9757 97.5746 55.9757ZM60.2539 32.9009C75.3561 34.0845 79.6583 42.0002 79.6583 42.0002C84.8154 52.1776 73.8782 57.088 73.8782 57.088C89.2604 55.5932 95.4643 68.3554 95.4643 68.3554C101.014 84.7361 81.2151 99.4524 81.2151 99.4524C79.8327 100.676 79.4423 101.573 79.4238 102.192C79.4367 102.456 79.5044 102.724 79.6482 102.994C79.777 103.179 79.9124 103.272 79.9124 103.272C83.0825 107.404 102.716 90.0271 102.716 90.0271C130.169 65.8085 106.262 41.8604 106.262 41.8604C85.8789 21.0769 60.2539 32.9009 60.2539 32.9009Z" fill="url(#paint8_linear_1768_2993)"/>
<path d="M79.6479 102.994C79.5042 102.725 79.4365 102.456 79.4235 102.192C79.4133 102.552 79.5255 102.817 79.6479 102.994Z" fill="url(#paint9_linear_1768_2993)"/>
<path d="M83.8829 89.0255C85.2237 85.4793 88.6144 84.5236 88.6144 84.5236C89.8189 84.3235 91.7864 83.3714 91.7864 83.3714L84.073 89.0218C84.8037 89.0033 85.499 89.0996 86.0832 89.2302C86.9649 86.8185 90.0952 86.5472 90.0952 86.5472L86.2019 89.2552C87.0697 89.4599 87.6576 89.7192 87.6576 89.7192C91.6186 87.6539 94.3278 78.7935 94.3278 78.7935C91.2801 81.697 87.6418 82.2026 87.6418 82.2026C80.3828 84.3837 79.7764 91.6475 79.7764 91.6475C80.7546 89.722 82.3688 89.107 83.8829 89.0255Z" fill="url(#paint10_linear_1768_2993)"/>
<path d="M83.8066 89.2173L84.0737 89.0218C84.0097 89.0228 83.9476 89.0218 83.8836 89.0255C83.8586 89.0904 83.8298 89.1497 83.8066 89.2173Z" fill="url(#paint11_linear_1768_2993)"/>
<path d="M88.6153 84.5235C88.6153 84.5235 85.2245 85.4792 83.8838 89.0254C83.9478 89.0217 84.0099 89.0226 84.0739 89.0217L91.7872 83.3713C91.7872 83.3713 89.8197 84.3234 88.6153 84.5235Z" fill="url(#paint12_linear_1768_2993)"/>
<path d="M86.0254 89.3779L86.2025 89.2547C86.1645 89.2464 86.1227 89.238 86.0838 89.2297C86.0652 89.2797 86.0412 89.3261 86.0254 89.3779Z" fill="url(#paint13_linear_1768_2993)"/>
<path d="M86.084 89.2298C86.1229 89.2382 86.1647 89.2465 86.2027 89.2549L90.096 86.5468C90.096 86.5468 86.9658 86.8182 86.084 89.2298Z" fill="url(#paint14_linear_1768_2993)"/>
<path d="M88.7665 64.6827C84.0906 63.5667 83.4991 59.462 83.4991 59.462C82.8018 58.9184 80.5589 58.661 80.5589 58.661C80.2789 71.0361 89.5936 71.9658 89.5936 71.9658C87.9895 70.9554 88.4021 68.5697 88.4652 68.252C87.347 67.9538 83.4527 66.5544 82.4476 61.3189L88.5301 68.0539C89.5648 65.406 88.7665 64.6827 88.7665 64.6827Z" fill="url(#paint15_linear_1768_2993)"/>
<path d="M88.4658 68.2521C88.6568 68.303 88.7764 68.3262 88.7764 68.3262L88.5307 68.0539C88.5085 68.1114 88.4974 68.1557 88.4732 68.215C88.4732 68.215 88.4705 68.2299 88.4658 68.2521Z" fill="url(#paint16_linear_1768_2993)"/>
<path d="M88.4658 68.252C88.4704 68.2297 88.4732 68.2149 88.4732 68.2149C88.4973 68.1556 88.5084 68.1112 88.5307 68.0538L82.4482 61.3188C83.4533 66.5543 87.3476 67.9537 88.4658 68.252Z" fill="url(#paint17_linear_1768_2993)"/>
<path d="M78.5197 44.4799C76.2193 37.4385 63.2061 34.5369 63.2061 34.5369C72.593 39.5917 74.3992 44.3188 74.3992 44.3188C76.974 49.9664 72.0543 57.4644 72.0543 57.4644C81.2197 50.9073 78.5197 44.4799 78.5197 44.4799Z" fill="url(#paint18_linear_1768_2993)"/>
<path d="M60.9923 39.2794C61.7211 40.5297 61.2945 42.1329 60.0456 42.859C58.792 43.5879 57.1852 43.1618 56.4592 41.9115C55.7304 40.6603 56.1541 39.059 57.4086 38.3329C58.6594 37.605 60.2635 38.0273 60.9923 39.2794ZM42.8377 47.6481C41.8521 49.7837 44.2201 49.5392 44.2201 49.5392C50.1477 48.8919 56.2496 53.1086 56.2496 53.1086C54.3887 54.7117 50.0096 55.9787 50.0096 55.9787C48.1969 56.9363 49.8686 57.856 49.8686 57.856C56.1727 61.7652 70.319 57.9041 70.319 57.9041C74.5488 51.8971 73.0199 46.9164 73.0199 46.9164C70.4618 37.717 57.811 34.2199 57.811 34.2199C47.7954 38.9942 42.8377 47.6481 42.8377 47.6481Z" fill="url(#paint19_linear_1768_2993)"/>
<path d="M91.668 51.2366C91.8367 52.9537 92.3495 55.3431 92.3495 55.3431C92.3662 55.3987 92.3838 55.4459 92.4005 55.4996L92.7519 56.4545C94.0407 59.3292 96.2141 59.056 96.2141 59.056L93.1478 52.8249C92.4997 52.3767 92.0203 51.8164 91.668 51.2366Z" fill="url(#paint20_linear_1768_2993)"/>
<path d="M89.4134 47.3793C89.0239 48.8083 89.2474 51.0006 89.2474 51.0006C89.4236 55.2034 92.7522 56.4546 92.7522 56.4546C92.6243 56.1703 92.5093 55.8498 92.4008 55.4997L89.4134 47.3793Z" fill="url(#paint21_linear_1768_2993)"/>
<path d="M92.7528 56.4546L92.4014 55.4997C92.5098 55.8498 92.6248 56.1703 92.7528 56.4546Z" fill="url(#paint22_linear_1768_2993)"/>
<path d="M99.1559 46.3847C99.1559 46.3847 95.41 41.1984 88.7815 40.8594C88.7815 40.8594 87.9034 46.4912 90.5172 48.0453C90.5728 48.0777 90.6201 48.1203 90.6785 48.1491C90.6785 48.1491 90.7601 49.7448 91.6687 51.2368C91.6075 50.6237 91.5899 50.0949 91.6567 49.793L93.1486 52.8251C93.3822 52.9871 93.639 53.1326 93.9191 53.2595C93.9747 53.2854 94.0238 53.3151 94.0813 53.3391C94.0813 53.3391 95.486 55.9045 97.4517 55.9684C97.4934 55.9703 97.5333 55.9768 97.575 55.9758C97.575 55.9758 99.4368 58.9201 103.527 58.6876C103.527 58.6876 97.6696 55.0867 99.1559 46.3847Z" fill="url(#paint23_linear_1768_2993)"/>
<path d="M91.6679 51.2369C92.0203 51.8167 92.4996 52.3769 93.1477 52.8252L91.6559 49.7931C91.5891 50.095 91.6067 50.6238 91.6679 51.2369Z" fill="url(#paint24_linear_1768_2993)"/>
<path d="M23.2676 32.9263C23.3093 32.8911 23.3529 32.8549 23.3937 32.8197C23.3881 32.8244 23.3825 32.829 23.3761 32.8346L23.2676 32.9263Z" fill="url(#paint25_linear_1768_2993)"/>
<path d="M39.0901 28.9631C33.921 32.7065 28.4505 40.7686 28.4505 40.7686C28.4505 40.7686 39.6056 27.8924 58.4584 20.7694C58.4584 20.7694 66.079 19.5599 67.0164 15.1876L67.0368 14.732C66.0911 15.9424 63.5283 17.2742 62.2543 16.5814C60.8821 15.8331 59.4078 16.0461 59.4078 16.0461C57.5136 12.8732 54.1404 14.8894 54.1404 14.8894C53.0454 15.2562 52.0486 14.23 51.0732 13.5937C48.974 12.4037 47.6584 14.9718 46.211 16.1378C45.1799 17.1158 43.6955 18.5755 42.6663 19.5516C43.4748 18.5773 44.7395 17.1261 45.549 16.1508C46.3964 15.1293 48.2295 13.5419 47.4164 12.1027C47.1002 11.5433 46.6357 11.4117 46.1238 11.1135C45.3385 10.6579 43.9227 9.89102 44.288 9.07139C45.3654 6.65416 41.7873 5.49372 41.7873 5.49372C41.9385 4.45551 40.9603 3.81556 40.1749 3.41732C39.2227 2.669 39.0085 1.13435 39.0029 -0.000176831C37.5686 0.832424 37.0317 2.6949 36.7517 4.21747C36.4661 5.74375 36.4328 7.27839 36.4643 8.82412C36.5069 11.3219 35.9849 13.8447 35.1782 16.1999C33.6808 20.5759 31.131 24.8871 28.1649 28.4157C26.7936 30.0503 25.0199 31.4247 23.3936 32.8195C29.96 27.1876 35.6521 25.0853 35.6521 25.0853C39.6047 23.3386 40.4939 25.2817 40.4939 25.2817C40.5078 25.3048 40.5143 25.328 40.5263 25.3511C40.6432 25.5225 40.7489 25.7752 40.7452 26.1142C40.8462 27.6303 39.0901 28.9631 39.0901 28.9631Z" fill="url(#paint26_linear_1768_2993)"/>
<path d="M3.04178 69.3563C2.49195 72.6848 0.695029 74.9928 0.695029 74.9928C0.0005565 76.4302 -0.0708388 77.4822 0.0450612 78.1963L5.16877 76.996C3.40894 72.5848 3.04178 69.3563 3.04178 69.3563Z" fill="url(#paint27_linear_1768_2993)"/>
<path d="M8.95623 99.4331L20.6853 95.3424C15.7415 100.143 8.95623 99.4331 8.95623 99.4331ZM5.17048 77.0002C3.4394 77.9939 0.0783011 78.194 0.0449219 78.1958C0.172875 78.9877 0.530774 79.3627 0.530774 79.3627C1.59891 80.7464 1.11677 83.2896 1.11677 83.2896C0.813576 84.2898 0.876613 85.0853 1.0806 85.6994L8.27567 83.1562C6.17186 84.8325 1.10841 85.6957 1.0806 85.7004C1.44962 86.8117 2.2841 87.3211 2.2841 87.3211C4.56872 88.9178 4.31747 91.6387 4.31747 91.6387C4.04858 93.089 4.31003 94.0662 4.73561 94.7228L13.9316 90.1764C13.8361 90.3209 13.7202 90.4635 13.5895 90.6033C11.3994 92.9594 4.7421 94.721 4.73654 94.7228C5.42823 95.7888 6.55572 96.0064 6.55572 96.0064C10.5677 98.4718 8.67807 103.928 8.67807 103.928C20.1485 106.682 28.241 98.8404 28.241 98.8404C14.2691 93.9856 7.96321 83.9999 5.17048 77.0002Z" fill="url(#paint28_linear_1768_2993)"/>
<path d="M20.6861 95.342L8.95703 99.4328C8.95703 99.4328 15.7423 100.142 20.6861 95.342Z" fill="url(#paint29_linear_1768_2993)"/>
<path d="M1.07812 85.7002H1.08091V85.6992L1.07812 85.7002Z" fill="url(#paint30_linear_1768_2993)"/>
<path d="M1.08105 85.6992V85.7002C1.10887 85.6956 6.17232 84.8323 8.27613 83.156L1.08105 85.6992Z" fill="url(#paint31_linear_1768_2993)"/>
<path d="M13.9313 90.1767L4.73535 94.7231C4.73628 94.7231 4.73535 94.7231 4.73628 94.7231C4.74184 94.7213 11.3992 92.9597 13.5892 90.6036C13.7199 90.4638 13.8358 90.3212 13.9313 90.1767Z" fill="url(#paint32_linear_1768_2993)"/>
<path d="M5.18656 76.9908L5.16895 76.9954C5.16895 76.9972 5.16987 76.9981 5.1708 77C5.17544 76.9963 5.18192 76.9945 5.18656 76.9908Z" fill="url(#paint33_linear_1768_2993)"/>
<path d="M5.16863 76.996L0.0449219 78.1963C0.0783011 78.1944 3.4394 77.9944 5.17048 77.0006C5.16956 76.9988 5.16863 76.9979 5.16863 76.996Z" fill="url(#paint34_linear_1768_2993)"/>
<path d="M31.3887 87.4806C24.7601 87.1407 21.0124 81.9534 21.0124 81.9534C22.5033 73.2505 16.6434 69.6496 16.6434 69.6496C20.737 69.419 22.5951 72.3614 22.5951 72.3614C22.6359 72.3604 22.6758 72.3669 22.7166 72.3688C24.6822 72.4317 26.0879 75.0018 26.0879 75.0018C26.1463 75.0258 26.1973 75.0564 26.2538 75.0823C26.5329 75.2092 26.7898 75.3546 27.0234 75.5157L23.9553 69.281C23.9553 69.281 26.1296 69.0097 27.4184 71.8825C27.4184 71.8825 30.7498 73.1365 30.926 77.3366C30.926 77.3366 31.143 79.5315 30.7535 80.9587L27.754 72.7957C27.7744 72.8633 27.7976 72.9245 27.8171 72.9939C27.8171 72.9939 28.3326 75.3842 28.5023 77.1013C29.4119 78.5924 29.4935 80.1881 29.4935 80.1881C29.5519 80.2169 29.5982 80.2585 29.6539 80.2919C32.2667 81.8441 31.3887 87.4806 31.3887 87.4806ZM40.5132 86.3368C35.3534 76.1622 46.2934 71.2472 46.2934 71.2472C30.9084 72.7429 24.7073 59.9844 24.7073 59.9844C19.158 43.6038 38.9537 28.8846 38.9537 28.8846C40.3612 27.6408 40.7395 26.7341 40.745 26.1145C40.7283 25.8635 40.6616 25.6079 40.5262 25.3514C40.3955 25.1597 40.2564 25.0661 40.2564 25.0661C37.0863 20.9328 17.4556 38.3128 17.4556 38.3128C-10.0024 62.5313 13.91 86.4748 13.91 86.4748C34.2908 107.261 59.9167 95.4361 59.9167 95.4361C44.8136 94.2534 40.5132 86.3368 40.5132 86.3368Z" fill="url(#paint35_linear_1768_2993)"/>
<path d="M40.5264 25.3512C40.6617 25.6077 40.7285 25.8633 40.7452 26.1143C40.7489 25.7753 40.6432 25.5225 40.5264 25.3512Z" fill="url(#paint36_linear_1768_2993)"/>
<path d="M36.2858 39.3139C34.9451 42.8592 31.5571 43.8131 31.5571 43.8131C30.349 44.0169 28.3833 44.9643 28.3833 44.9643L36.0939 39.3177C35.3642 39.3362 34.6706 39.2389 34.0874 39.1093C33.2019 41.52 30.0726 41.7905 30.0726 41.7905L33.9669 39.0833C33.099 38.8786 32.5112 38.6193 32.5112 38.6193C28.5493 40.6856 25.8428 49.5459 25.8428 49.5459C28.8886 46.6406 32.5288 46.135 32.5288 46.135C39.7878 43.9521 40.3942 36.6921 40.3942 36.6921C39.4151 38.6175 37.7999 39.2324 36.2858 39.3139Z" fill="url(#paint37_linear_1768_2993)"/>
<path d="M36.3626 39.1201L36.0938 39.3174C36.1577 39.3155 36.2208 39.3174 36.2857 39.3137C36.3098 39.2479 36.3394 39.1877 36.3626 39.1201Z" fill="url(#paint38_linear_1768_2993)"/>
<path d="M31.5566 43.8132C31.5566 43.8132 34.9446 42.8593 36.2853 39.314C36.2204 39.3177 36.1574 39.3158 36.0934 39.3177L28.3828 44.9644C28.3828 44.9644 30.3485 44.0169 31.5566 43.8132Z" fill="url(#paint39_linear_1768_2993)"/>
<path d="M34.1476 38.9575L33.9668 39.0834C34.0048 39.0927 34.0475 39.1001 34.0873 39.1094C34.1068 39.0575 34.13 39.0112 34.1476 38.9575Z" fill="url(#paint40_linear_1768_2993)"/>
<path d="M34.087 39.1088C34.0472 39.0996 34.0045 39.0921 33.9665 39.0829L30.0723 41.79C30.0723 41.79 33.2016 41.5196 34.087 39.1088Z" fill="url(#paint41_linear_1768_2993)"/>
<path d="M31.4013 63.6536C36.0809 64.7696 36.6706 68.8761 36.6706 68.8761C37.3641 69.4188 39.6098 69.6763 39.6098 69.6763C39.8935 57.3012 30.5752 56.3732 30.5752 56.3732C32.183 57.3827 31.7666 59.773 31.7045 60.087C32.8255 60.3861 36.7179 61.7865 37.723 67.0182L31.6387 60.2862C30.6039 62.9331 31.4013 63.6536 31.4013 63.6536Z" fill="url(#paint42_linear_1768_2993)"/>
<path d="M31.7051 60.087C31.5131 60.036 31.3926 60.0129 31.3926 60.0129L31.6392 60.2861C31.6624 60.2278 31.6735 60.1824 31.6976 60.1232C31.6976 60.1232 31.7004 60.1092 31.7051 60.087Z" fill="url(#paint43_linear_1768_2993)"/>
<path d="M31.7055 60.0868C31.7008 60.1091 31.6981 60.123 31.6981 60.123C31.6739 60.1823 31.6628 60.2277 31.6396 60.286L37.7239 67.0181C36.7188 61.7863 32.8265 60.386 31.7055 60.0868Z" fill="url(#paint44_linear_1768_2993)"/>
<path d="M41.6514 83.8582C43.9527 90.9015 56.9651 93.8013 56.9651 93.8013C47.579 88.7464 45.7747 84.0194 45.7747 84.0194C43.1952 78.3699 48.1159 70.8737 48.1159 70.8737C38.9514 77.428 41.6514 83.8582 41.6514 83.8582Z" fill="url(#paint45_linear_1768_2993)"/>
<path d="M59.18 89.0587C58.4485 87.8102 58.8741 86.207 60.1276 85.4791C61.3803 84.7521 62.9853 85.1762 63.7103 86.4247C64.4391 87.6768 64.0163 89.28 62.7637 90.0071C61.5119 90.7341 59.906 90.309 59.18 89.0587ZM77.3346 80.69C78.3202 78.5553 75.9494 78.798 75.9494 78.798C70.0264 79.4453 63.9199 75.2295 63.9199 75.2295C65.7826 73.6264 70.1627 72.3613 70.1627 72.3613C71.9735 71.4018 70.3009 70.4821 70.3009 70.4821C63.9996 66.571 49.8487 70.433 49.8487 70.433C45.6262 76.44 47.1478 81.4217 47.1478 81.4217C49.7078 90.6174 62.3613 94.1182 62.3613 94.1182C72.3759 89.343 77.3346 80.69 77.3346 80.69Z" fill="url(#paint46_linear_1768_2993)"/>
<path d="M28.503 77.1011C28.3334 75.384 27.8179 72.9937 27.8179 72.9937C27.7984 72.9242 27.7752 72.863 27.7548 72.7954L27.4192 71.8823C26.1303 69.0094 23.9561 69.2808 23.9561 69.2808L27.0242 75.5155C27.6714 75.9638 28.1507 76.5222 28.503 77.1011Z" fill="url(#paint47_linear_1768_2993)"/>
<path d="M30.7541 80.9585C31.1435 79.5313 30.9265 77.3363 30.9265 77.3363C30.7504 73.1363 27.4189 71.8823 27.4189 71.8823C27.5395 72.1546 27.6507 72.463 27.7546 72.7954L30.7541 80.9585Z" fill="url(#paint48_linear_1768_2993)"/>
<path d="M27.4189 71.8823L27.7546 72.7954C27.6507 72.4629 27.5395 72.1546 27.4189 71.8823Z" fill="url(#paint49_linear_1768_2993)"/>
<path d="M29.654 80.2918C29.5984 80.2584 29.552 80.2167 29.4936 80.188C29.4936 80.188 29.412 78.5923 28.5024 77.1012C28.5627 77.7134 28.5803 78.2422 28.5126 78.5441L27.0235 75.5156C26.7899 75.3545 26.5331 75.2091 26.254 75.0822C26.1974 75.0563 26.1464 75.0257 26.088 75.0016C26.088 75.0016 24.6824 72.4316 22.7167 72.3686C22.6759 72.3668 22.636 72.3603 22.5952 72.3612C22.5952 72.3612 20.7371 69.4188 16.6436 69.6495C16.6436 69.6495 22.5034 73.2503 21.0125 81.9533C21.0125 81.9533 24.7603 87.1406 31.3888 87.4805C31.3888 87.4805 32.2669 81.844 29.654 80.2918Z" fill="url(#paint50_linear_1768_2993)"/>
<path d="M28.5023 77.101C28.15 76.5222 27.6706 75.9637 27.0234 75.5155L28.5125 78.5439C28.5802 78.242 28.5626 77.7132 28.5023 77.101Z" fill="url(#paint51_linear_1768_2993)"/>
<defs>
<linearGradient id="paint0_linear_1768_2993" x1="53.1318" y1="107.954" x2="96.9003" y2="107.954" gradientUnits="userSpaceOnUse">
<stop stop-color="#0C0098"/>
<stop offset="1" stop-color="#BC87FF"/>
</linearGradient>
<linearGradient id="paint1_linear_1768_2993" x1="115" y1="54.563" x2="120.172" y2="54.563" gradientUnits="userSpaceOnUse">
<stop stop-color="#0C0098"/>
<stop offset="1" stop-color="#BC87FF"/>
</linearGradient>
<linearGradient id="paint2_linear_1768_2993" x1="91.9277" y1="37.5803" x2="120.127" y2="37.5803" gradientUnits="userSpaceOnUse">
<stop stop-color="#0C0098"/>
<stop offset="1" stop-color="#BC87FF"/>
</linearGradient>
<linearGradient id="paint3_linear_1768_2993" x1="99.4834" y1="30.9313" x2="111.212" y2="30.9313" gradientUnits="userSpaceOnUse">
<stop stop-color="#0C0098"/>
<stop offset="1" stop-color="#BC87FF"/>
</linearGradient>
<linearGradient id="paint4_linear_1768_2993" x1="111.893" y1="43.9105" x2="119.09" y2="43.9105" gradientUnits="userSpaceOnUse">
<stop stop-color="#0C0098"/>
<stop offset="1" stop-color="#BC87FF"/>
</linearGradient>
<linearGradient id="paint5_linear_1768_2993" x1="106.241" y1="35.8883" x2="115.434" y2="35.8883" gradientUnits="userSpaceOnUse">
<stop stop-color="#0C0098"/>
<stop offset="1" stop-color="#BC87FF"/>
</linearGradient>
<linearGradient id="paint6_linear_1768_2993" x1="114.981" y1="51.342" x2="115" y2="51.342" gradientUnits="userSpaceOnUse">
<stop stop-color="#0C0098"/>
<stop offset="1" stop-color="#BC87FF"/>
</linearGradient>
<linearGradient id="paint7_linear_1768_2993" x1="114.998" y1="50.7417" x2="120.126" y2="50.7417" gradientUnits="userSpaceOnUse">
<stop stop-color="#0C0098"/>
<stop offset="1" stop-color="#BC87FF"/>
</linearGradient>
<linearGradient id="paint8_linear_1768_2993" x1="60.2539" y1="66.7293" x2="115.91" y2="66.7293" gradientUnits="userSpaceOnUse">
<stop stop-color="#0C0098"/>
<stop offset="1" stop-color="#BC87FF"/>
</linearGradient>
<linearGradient id="paint9_linear_1768_2993" x1="79.4229" y1="102.593" x2="79.6479" y2="102.593" gradientUnits="userSpaceOnUse">
<stop stop-color="#0C0098"/>
<stop offset="1" stop-color="#BC87FF"/>
</linearGradient>
<linearGradient id="paint10_linear_1768_2993" x1="79.7764" y1="85.2205" x2="94.3278" y2="85.2205" gradientUnits="userSpaceOnUse">
<stop stop-color="#0C0098"/>
<stop offset="1" stop-color="#BC87FF"/>
</linearGradient>
<linearGradient id="paint11_linear_1768_2993" x1="83.8066" y1="89.1196" x2="84.0737" y2="89.1196" gradientUnits="userSpaceOnUse">
<stop stop-color="#0C0098"/>
<stop offset="1" stop-color="#BC87FF"/>
</linearGradient>
<linearGradient id="paint12_linear_1768_2993" x1="83.8838" y1="86.1984" x2="91.7872" y2="86.1984" gradientUnits="userSpaceOnUse">
<stop stop-color="#0C0098"/>
<stop offset="1" stop-color="#BC87FF"/>
</linearGradient>
<linearGradient id="paint13_linear_1768_2993" x1="86.0254" y1="89.3038" x2="86.2025" y2="89.3038" gradientUnits="userSpaceOnUse">
<stop stop-color="#0C0098"/>
<stop offset="1" stop-color="#BC87FF"/>
</linearGradient>
<linearGradient id="paint14_linear_1768_2993" x1="86.084" y1="87.9009" x2="90.096" y2="87.9009" gradientUnits="userSpaceOnUse">
<stop stop-color="#0C0098"/>
<stop offset="1" stop-color="#BC87FF"/>
</linearGradient>
<linearGradient id="paint15_linear_1768_2993" x1="80.5527" y1="65.3134" x2="89.5936" y2="65.3134" gradientUnits="userSpaceOnUse">
<stop stop-color="#0C0098"/>
<stop offset="1" stop-color="#BC87FF"/>
</linearGradient>
<linearGradient id="paint16_linear_1768_2993" x1="88.4658" y1="68.1901" x2="88.7764" y2="68.1901" gradientUnits="userSpaceOnUse">
<stop stop-color="#0C0098"/>
<stop offset="1" stop-color="#BC87FF"/>
</linearGradient>
<linearGradient id="paint17_linear_1768_2993" x1="82.4482" y1="64.7854" x2="88.5307" y2="64.7854" gradientUnits="userSpaceOnUse">
<stop stop-color="#0C0098"/>
<stop offset="1" stop-color="#BC87FF"/>
</linearGradient>
<linearGradient id="paint18_linear_1768_2993" x1="63.2061" y1="46.0006" x2="78.8908" y2="46.0006" gradientUnits="userSpaceOnUse">
<stop stop-color="#0C0098"/>
<stop offset="1" stop-color="#BC87FF"/>
</linearGradient>
<linearGradient id="paint19_linear_1768_2993" x1="42.5977" y1="46.9129" x2="73.2891" y2="46.9129" gradientUnits="userSpaceOnUse">
<stop stop-color="#0C0098"/>
<stop offset="1" stop-color="#BC87FF"/>
</linearGradient>
<linearGradient id="paint20_linear_1768_2993" x1="91.668" y1="55.1498" x2="96.2141" y2="55.1498" gradientUnits="userSpaceOnUse">
<stop stop-color="#0C0098"/>
<stop offset="1" stop-color="#BC87FF"/>
</linearGradient>
<linearGradient id="paint21_linear_1768_2993" x1="89.1836" y1="51.917" x2="92.7522" y2="51.917" gradientUnits="userSpaceOnUse">
<stop stop-color="#0C0098"/>
<stop offset="1" stop-color="#BC87FF"/>
</linearGradient>
<linearGradient id="paint22_linear_1768_2993" x1="92.4014" y1="55.9771" x2="92.7528" y2="55.9771" gradientUnits="userSpaceOnUse">
<stop stop-color="#0C0098"/>
<stop offset="1" stop-color="#BC87FF"/>
</linearGradient>
<linearGradient id="paint23_linear_1768_2993" x1="88.6396" y1="49.78" x2="103.527" y2="49.78" gradientUnits="userSpaceOnUse">
<stop stop-color="#0C0098"/>
<stop offset="1" stop-color="#BC87FF"/>
</linearGradient>
<linearGradient id="paint24_linear_1768_2993" x1="91.6133" y1="51.3091" x2="93.1477" y2="51.3091" gradientUnits="userSpaceOnUse">
<stop stop-color="#0C0098"/>
<stop offset="1" stop-color="#BC87FF"/>
</linearGradient>
<linearGradient id="paint25_linear_1768_2993" x1="23.2676" y1="32.873" x2="23.3937" y2="32.873" gradientUnits="userSpaceOnUse">
<stop stop-color="#0C0098"/>
<stop offset="1" stop-color="#BC87FF"/>
</linearGradient>
<linearGradient id="paint26_linear_1768_2993" x1="23.3936" y1="20.3842" x2="67.0368" y2="20.3842" gradientUnits="userSpaceOnUse">
<stop stop-color="#0C0098"/>
<stop offset="1" stop-color="#BC87FF"/>
</linearGradient>
<linearGradient id="paint27_linear_1768_2993" x1="0" y1="73.7763" x2="5.16877" y2="73.7763" gradientUnits="userSpaceOnUse">
<stop stop-color="#0C0098"/>
<stop offset="1" stop-color="#BC87FF"/>
</linearGradient>
<linearGradient id="paint28_linear_1768_2993" x1="0.0449219" y1="90.7572" x2="28.241" y2="90.7572" gradientUnits="userSpaceOnUse">
<stop stop-color="#0C0098"/>
<stop offset="1" stop-color="#BC87FF"/>
</linearGradient>
<linearGradient id="paint29_linear_1768_2993" x1="8.95703" y1="97.4059" x2="20.6861" y2="97.4059" gradientUnits="userSpaceOnUse">
<stop stop-color="#0C0098"/>
<stop offset="1" stop-color="#BC87FF"/>
</linearGradient>
<linearGradient id="paint30_linear_1768_2993" x1="1.07812" y1="85.6997" x2="1.08091" y2="85.6997" gradientUnits="userSpaceOnUse">
<stop stop-color="#0C0098"/>
<stop offset="1" stop-color="#BC87FF"/>
</linearGradient>
<linearGradient id="paint31_linear_1768_2993" x1="1.08105" y1="84.4281" x2="8.27613" y2="84.4281" gradientUnits="userSpaceOnUse">
<stop stop-color="#0C0098"/>
<stop offset="1" stop-color="#BC87FF"/>
</linearGradient>
<linearGradient id="paint32_linear_1768_2993" x1="4.73535" y1="92.4499" x2="13.9313" y2="92.4499" gradientUnits="userSpaceOnUse">
<stop stop-color="#0C0098"/>
<stop offset="1" stop-color="#BC87FF"/>
</linearGradient>
<linearGradient id="paint33_linear_1768_2993" x1="5.16895" y1="76.9954" x2="5.18656" y2="76.9954" gradientUnits="userSpaceOnUse">
<stop stop-color="#0C0098"/>
<stop offset="1" stop-color="#BC87FF"/>
</linearGradient>
<linearGradient id="paint34_linear_1768_2993" x1="0.0449219" y1="77.5962" x2="5.17048" y2="77.5962" gradientUnits="userSpaceOnUse">
<stop stop-color="#0C0098"/>
<stop offset="1" stop-color="#BC87FF"/>
</linearGradient>
<linearGradient id="paint35_linear_1768_2993" x1="4.25977" y1="61.6081" x2="59.9167" y2="61.6081" gradientUnits="userSpaceOnUse">
<stop stop-color="#0C0098"/>
<stop offset="1" stop-color="#BC87FF"/>
</linearGradient>
<linearGradient id="paint36_linear_1768_2993" x1="40.5264" y1="25.7327" x2="40.7453" y2="25.7327" gradientUnits="userSpaceOnUse">
<stop stop-color="#0C0098"/>
<stop offset="1" stop-color="#BC87FF"/>
</linearGradient>
<linearGradient id="paint37_linear_1768_2993" x1="25.8428" y1="43.119" x2="40.3942" y2="43.119" gradientUnits="userSpaceOnUse">
<stop stop-color="#0C0098"/>
<stop offset="1" stop-color="#BC87FF"/>
</linearGradient>
<linearGradient id="paint38_linear_1768_2993" x1="36.0938" y1="39.2188" x2="36.3626" y2="39.2188" gradientUnits="userSpaceOnUse">
<stop stop-color="#0C0098"/>
<stop offset="1" stop-color="#BC87FF"/>
</linearGradient>
<linearGradient id="paint39_linear_1768_2993" x1="28.3828" y1="42.1392" x2="36.2853" y2="42.1392" gradientUnits="userSpaceOnUse">
<stop stop-color="#0C0098"/>
<stop offset="1" stop-color="#BC87FF"/>
</linearGradient>
<linearGradient id="paint40_linear_1768_2993" x1="33.9668" y1="39.0334" x2="34.1476" y2="39.0334" gradientUnits="userSpaceOnUse">
<stop stop-color="#0C0098"/>
<stop offset="1" stop-color="#BC87FF"/>
</linearGradient>
<linearGradient id="paint41_linear_1768_2993" x1="30.0723" y1="40.4365" x2="34.087" y2="40.4365" gradientUnits="userSpaceOnUse">
<stop stop-color="#0C0098"/>
<stop offset="1" stop-color="#BC87FF"/>
</linearGradient>
<linearGradient id="paint42_linear_1768_2993" x1="30.5752" y1="63.0247" x2="39.6162" y2="63.0247" gradientUnits="userSpaceOnUse">
<stop stop-color="#0C0098"/>
<stop offset="1" stop-color="#BC87FF"/>
</linearGradient>
<linearGradient id="paint43_linear_1768_2993" x1="31.3926" y1="60.1495" x2="31.7051" y2="60.1495" gradientUnits="userSpaceOnUse">
<stop stop-color="#0C0098"/>
<stop offset="1" stop-color="#BC87FF"/>
</linearGradient>
<linearGradient id="paint44_linear_1768_2993" x1="31.6396" y1="63.5525" x2="37.7239" y2="63.5525" gradientUnits="userSpaceOnUse">
<stop stop-color="#0C0098"/>
<stop offset="1" stop-color="#BC87FF"/>
</linearGradient>
<linearGradient id="paint45_linear_1768_2993" x1="41.2803" y1="82.3375" x2="56.9651" y2="82.3375" gradientUnits="userSpaceOnUse">
<stop stop-color="#0C0098"/>
<stop offset="1" stop-color="#BC87FF"/>
</linearGradient>
<linearGradient id="paint46_linear_1768_2993" x1="46.8809" y1="81.4246" x2="77.5744" y2="81.4246" gradientUnits="userSpaceOnUse">
<stop stop-color="#0C0098"/>
<stop offset="1" stop-color="#BC87FF"/>
</linearGradient>
<linearGradient id="paint47_linear_1768_2993" x1="23.9561" y1="73.1875" x2="28.503" y2="73.1875" gradientUnits="userSpaceOnUse">
<stop stop-color="#0C0098"/>
<stop offset="1" stop-color="#BC87FF"/>
</linearGradient>
<linearGradient id="paint48_linear_1768_2993" x1="27.4189" y1="76.4204" x2="30.9868" y2="76.4204" gradientUnits="userSpaceOnUse">
<stop stop-color="#0C0098"/>
<stop offset="1" stop-color="#BC87FF"/>
</linearGradient>
<linearGradient id="paint49_linear_1768_2993" x1="27.4189" y1="72.3389" x2="27.7546" y2="72.3389" gradientUnits="userSpaceOnUse">
<stop stop-color="#0C0098"/>
<stop offset="1" stop-color="#BC87FF"/>
</linearGradient>
<linearGradient id="paint50_linear_1768_2993" x1="16.6436" y1="78.5585" x2="31.5307" y2="78.5585" gradientUnits="userSpaceOnUse">
<stop stop-color="#0C0098"/>
<stop offset="1" stop-color="#BC87FF"/>
</linearGradient>
<linearGradient id="paint51_linear_1768_2993" x1="27.0234" y1="77.0297" x2="28.556" y2="77.0297" gradientUnits="userSpaceOnUse">
<stop stop-color="#0C0098"/>
<stop offset="1" stop-color="#BC87FF"/>
</linearGradient>
</defs>
</svg>
