<svg width="125" height="115" viewBox="0 0 125 115" fill="none" xmlns="http://www.w3.org/2000/svg">
<path d="M72.0892 16.3034C72.0892 16.3034 74.9026 16.1966 75.5394 15.6109C75.5394 15.6109 75.5394 16.6775 76.0709 16.9958C76.0709 16.9958 73.3618 18.1143 72.0892 16.3034ZM76.9183 12.1986C76.9183 12.1986 70.8156 12.5198 69.542 15.4512C69.542 15.4512 69.6483 22.5403 73.2321 24.1397C73.2321 24.1397 75.2215 25.0996 78.0359 24.7793C78.0359 24.7793 77.8243 23.0193 78.937 22.7009V21.8469C78.937 21.8469 78.3528 20.463 78.5664 20.1417C78.5664 20.1417 78.5371 19.7754 79.0481 19.6785C79.0481 19.6785 81.2179 19.5022 79.5728 17.797L77.2928 15.7706L77.6624 14.4904C77.6624 14.4904 77.8243 13.3729 76.9183 12.1986Z" fill="url(#paint0_linear_1764_2915)"/>
<path d="M76.0706 25.4187C71.5067 25.6851 69.5417 21.2601 69.5417 21.2601C69.648 22.0064 69.0112 23.6068 69.0112 23.6068C67.7688 27.2336 72.6731 27.979 72.6731 27.979C73.5205 28.3521 76.6548 27.9251 76.6548 27.9251C78.6198 28.1376 79.5725 29.4158 79.5725 29.4158C81.0597 29.8438 81.0597 27.8712 81.0597 27.8712C80.5292 24.885 76.0706 25.4187 76.0706 25.4187Z" fill="url(#paint1_linear_1764_2915)"/>
<path d="M68.1103 25.0995C67.101 25.3679 65.9854 27.0192 65.9854 27.0192L66.4632 28.1916C67.6832 28.5109 70.6019 28.1916 70.6019 28.1916C68.7442 27.5501 68.1103 25.0995 68.1103 25.0995Z" fill="url(#paint2_linear_1764_2915)"/>
<path d="M60.4663 26.7177C61.6882 31.4797 65.5616 28.3338 65.5616 28.3338C64.7639 27.036 67.2087 24.8441 67.2087 24.8441C69.2518 22.9215 69.2274 19.8295 69.2274 19.8295C68.1859 14.0352 68.967 14.7218 68.967 14.7218C70.9232 11.5592 76.6008 11.2399 76.6008 11.2399C79.0017 9.87456 75.7533 7.50826 75.7533 7.50826C72.3012 5.42992 67.0732 6.92256 67.0732 6.92256C58.9245 9.10766 60.9978 19.7687 60.9978 19.7687C60.9978 23.6071 57.6002 23.3397 57.6002 23.3397C57.0697 28.0311 60.4663 26.7177 60.4663 26.7177Z" fill="url(#paint3_linear_1764_2915)"/>
<path d="M81.0602 39.3327C81.9086 39.5991 83.6093 38.6392 83.6093 38.6392C83.816 38.5148 83.9867 38.3934 84.1301 38.2749L80.7812 38.4708C80.948 38.9801 81.0602 39.3327 81.0602 39.3327Z" fill="url(#paint4_linear_1764_2915)"/>
<path d="M71.5586 28.9918C73.311 31.4952 72.5689 34.032 72.5689 34.032C74.7445 35.7704 76.496 34.8547 76.496 34.8547C78.0299 33.458 79.2148 34.6255 79.4303 34.8645L81.685 31.8214C77.4634 27.7842 71.5586 28.9918 71.5586 28.9918Z" fill="url(#paint5_linear_1764_2915)"/>
<path d="M84.7731 36.8804C84.0856 34.8402 83.1192 33.3123 82.0211 32.1615L79.6689 35.3368C79.9332 35.9685 80.297 37.0185 80.5866 37.8862L84.6775 37.659C84.9389 37.1918 84.7731 36.8804 84.7731 36.8804Z" fill="url(#paint6_linear_1764_2915)"/>
<path d="M47.6759 48.2886C47.6759 48.2886 49.2675 48.554 50.3813 49.3013C50.3813 49.3013 56.007 51.0055 66.2504 44.983C66.2504 44.983 70.9225 42.9556 71.5584 42.8508C71.5584 42.8508 74.0802 42.9321 75.698 43.2779C75.698 43.2779 77.4836 44.5021 80.1898 40.8244C80.1898 40.8244 80.5798 37.5198 78.1935 35.0673C78.1935 35.0673 77.1316 34.749 76.6001 35.8685C76.6001 35.8685 75.0095 36.56 73.8403 35.5483C73.8403 35.5483 72.5687 33.7892 70.0722 38.2133C70.0722 38.2133 65.6136 39.7578 62.2707 39.7578C62.2707 39.7578 53.8855 39.5463 52.1332 41.7852C52.1332 41.7852 54.5209 38.5002 62.7504 39.0761C62.7504 39.0761 68.5216 38.9919 67.5133 36.5071C67.5133 36.5071 67.5259 35.3866 64.0201 33.0938C64.0201 33.0938 68.9575 33.9489 68.5323 37.6276C68.5323 37.6276 73.2571 35.8685 71.5584 31.0703C71.5584 31.0703 70.6056 27.085 64.4463 29.4778C64.4463 29.4778 60.7308 30.8568 59.033 33.6815C59.033 33.6815 52.1873 34.8548 50.8056 38.9606C50.8056 38.9606 47.4085 40.6109 46.8245 43.1701C46.8245 43.1701 46.4535 44.1838 45.8714 45.1427C45.8714 45.1427 44.9141 46.9017 47.6759 48.2886Z" fill="url(#paint7_linear_1764_2915)"/>
<path d="M86.7944 44.5578C86.7944 44.5578 87.7482 44.6078 85.7832 39.1181C85.7832 39.1181 85.4653 38.1063 83.709 39.3767C83.709 39.3767 81.7127 40.122 81.5928 40.1318C81.5928 40.1318 81.113 40.3992 81.0603 40.7714C81.0603 40.7714 80.5971 41.7645 79.5264 42.739L82.0326 46.3276C83.8728 45.8252 85.6349 45.2268 86.7944 44.5578Z" fill="url(#paint8_linear_1764_2915)"/>
<path d="M76.9718 44.2368C76.9718 44.2368 71.9837 43.4914 71.5585 43.8117C71.5585 43.8117 70.7111 43.9704 71.2426 45.037L71.9301 46.7431C71.9301 46.7431 72.7814 48.5541 74.2666 47.9645C74.2666 47.9645 77.8865 47.4091 81.4313 46.4885L79.0665 43.1212C78.5028 43.5561 77.8114 43.9616 76.9718 44.2368Z" fill="url(#paint9_linear_1764_2915)"/>
<path d="M87.8012 50.4727C87.8012 50.4727 88.2644 45.6764 87.025 45.6216C87.025 45.6216 85.0473 46.3336 82.5674 47.0946L86.2078 52.3081C87.1186 51.9065 87.8324 51.3218 87.8012 50.4727Z" fill="url(#paint10_linear_1764_2915)"/>
<path d="M73.6285 48.8744C73.6285 48.8744 72.9381 49.9949 75.7525 52.3935C75.7525 52.3935 77.4834 54.1525 82.5437 53.1388C82.5437 53.1388 84.2113 53.0223 85.6672 52.5189L81.982 47.2731C78.8916 48.2016 75.2307 49.1281 73.6285 48.8744Z" fill="url(#paint11_linear_1764_2915)"/>
<path d="M83.1829 31.9765C84.2449 33.0969 85.2532 35.6013 85.2532 35.6013C85.7827 37.3614 87.3226 36.9804 87.3226 36.9804L88.3826 36.5602C90.0824 36.0812 89.4972 34.6944 89.4972 34.6944C88.9677 31.5495 86.7384 30.1117 86.7384 30.1117C85.3117 29.6631 84.3902 29.6337 83.7856 29.7796L82.6875 31.2625C82.8279 31.5769 83.1829 31.9765 83.1829 31.9765Z" fill="url(#paint12_linear_1764_2915)"/>
<path d="M89.1816 37.0147L87.7949 37.4858L90.6532 37.3272C90.3012 37.051 89.7219 36.7268 89.1816 37.0147Z" fill="url(#paint13_linear_1764_2915)"/>
<path d="M87.0249 39.3777C87.0249 39.3777 88.0664 41.6225 88.0664 43.41C88.0664 43.41 88.5959 44.8762 89.8188 44.3434L91.9418 43.41C91.9418 43.41 92.7366 43.0202 92.3104 41.0437C92.3104 41.0437 91.7575 39.0457 91.1207 37.8674L86.787 38.1201C86.6573 38.3904 86.6524 38.792 87.0249 39.3777Z" fill="url(#paint14_linear_1764_2915)"/>
<path d="M91.9923 51.5923C91.9923 51.5923 93.692 51.13 93.3731 48.083C93.3731 48.083 93.0328 43.9351 91.9923 44.4591C91.9923 44.4591 90.5607 45.3553 89.2871 45.4092C89.2871 45.4092 88.3314 45.463 88.703 46.6893C88.703 46.6893 89.1808 50.0477 89.1282 50.7402C89.1282 50.7402 89.3388 52.8724 91.9923 51.5923Z" fill="url(#paint15_linear_1764_2915)"/>
<path d="M93.9575 62.6286C96.8762 59.0576 95.7606 57.2437 95.7606 57.2437C95.1784 56.7099 94.2217 54.0459 94.2217 54.0459C93.5859 51.2731 93.0028 52.0028 93.0028 52.0028C92.7911 52.5699 91.0143 52.9793 91.0143 52.9793C89.9329 52.9254 89.5711 54.0459 89.5711 54.0459C89.2814 54.848 89.4072 56.279 89.5018 57.0263L93.7244 63.0723C93.8687 62.7922 93.9575 62.6286 93.9575 62.6286Z" fill="url(#paint16_linear_1764_2915)"/>
<path d="M88.2785 54.4858C88.1205 52.7923 87.0254 53.4544 87.0254 53.4544C87.0205 53.4554 87.0156 53.4564 87.0107 53.4584L88.6764 55.8423C88.3975 55.0989 88.2785 54.4858 88.2785 54.4858Z" fill="url(#paint17_linear_1764_2915)"/>
<path d="M79.0437 54.4719C71.9872 53.9391 69.8086 44.8236 69.8086 44.8236C68.3732 44.61 63.5977 47.3818 63.5977 47.3818C65.3501 50.6345 67.9509 52.3935 67.9509 52.3935C69.754 53.6198 69.3298 55.5384 69.3298 55.5384C67.1103 62.0134 51.7079 55.2182 51.7079 55.2182C36.7963 48.1291 29.205 53.4542 29.205 53.4542C20.6611 58.4571 21.6153 70.3043 21.6153 70.3043C20.4481 78.2993 18.9599 79.5785 18.9599 79.5785C16.3615 82.884 17.8482 84.0025 17.8482 84.0025C20.2878 86.5637 26.988 82.121 26.988 82.121C37.1776 73.8047 37.6454 63.4277 37.6454 63.4277C40.3503 69.1299 31.3851 79.7067 31.3851 79.7067C41.0429 77.5755 45.8712 84.1641 45.8712 84.1641C51.6569 92.4794 65.5637 90.0808 65.5637 90.0808C62.5357 83.2053 67.2078 79.9007 67.2078 79.9007C64.3944 84.3786 66.3058 89.3355 66.3058 89.3355C69.3298 95.9985 74.5305 96.5303 74.5305 96.5303C77.1313 96.7977 81.6943 99.5685 81.6943 99.5685C83.6085 100.849 81.5372 102.395 81.5372 102.395C82.3857 100.955 81.4846 100.582 81.4846 100.582C78.1397 101.703 73.4695 105.913 73.4695 105.913C69.6477 108.739 69.1709 108.153 69.1709 108.153L66.6744 106.871C66.5701 105.593 64.7123 104.422 64.7123 104.422L59.1372 107.832C61.2094 111.137 65.0839 109.538 65.0839 109.538L67.4721 110.764C68.536 113.003 70.6054 111.83 70.6054 111.83C71.5065 110.551 72.9926 109.91 72.9926 109.91L84.1927 103.194C87.3221 102.874 87.641 101.062 87.641 101.062C88.544 98.2904 85.1991 97.117 85.1991 97.117C81.1677 95.2512 80.5289 91.6273 80.5289 91.6273C80.4246 88.4295 78.8828 86.882 78.8828 86.882C80.4762 86.8301 81.0594 89.0152 81.0594 89.0152C88.0115 84.5382 88.9126 76.3826 88.9126 76.3826C90.8796 64.7607 79.0437 57.8832 79.0437 57.8832C88.1227 59.9635 89.9239 69.2916 89.9239 69.2916C91.1448 66.0918 90.0311 60.0693 90.0311 60.0693C91.9415 63.4806 91.0141 69.6118 91.0141 69.6118C91.413 67.796 92.7227 65.0497 93.4531 63.6021L86.4385 53.6168C82.5466 54.654 79.0437 54.4719 79.0437 54.4719Z" fill="url(#paint18_linear_1764_2915)"/>
<path d="M16.3597 83.2051C15.5659 84.4314 14.1331 84.9632 14.1331 84.9632C12.382 85.8692 12.9644 88.1091 12.9644 88.1091C13.5465 89.4412 13.07 93.1199 13.07 93.1199C11.0544 105.646 10.0983 105.059 10.0983 105.059C8.82409 106.181 9.93834 107.619 9.93834 107.619C10.5238 107.939 11.32 107.725 11.32 107.725L12.1691 110.39C11.32 112.79 11.8483 114.922 11.8483 114.922H18.1649C18.2712 112.468 15.0874 109.858 15.0874 109.858L14.1331 107.138C13.708 106.288 15.2991 97.9171 15.2991 97.9171C16.4138 91.1483 17.7413 89.8682 17.7413 89.8682C20.9778 86.9897 21.6154 85.3903 21.6154 85.3903C16.5209 87.0964 16.3597 83.2051 16.3597 83.2051Z" fill="url(#paint19_linear_1764_2915)"/>
<path d="M32.9102 80.8046C32.4867 84.9103 29.1954 88.5362 29.1954 88.5362C27.7089 89.7605 28.293 91.733 28.293 91.733C29.0883 93.1737 28.293 97.7055 28.293 97.7055C27.6549 104.157 26.4363 105.379 26.4363 105.379C25.6916 106.074 26.0031 107.245 26.0031 107.245C26.3041 108.711 27.5501 108.098 27.5501 108.098L28.8781 110.551C27.6549 112.097 28.2396 114.922 28.2396 114.922H34.8222C34.9257 111.671 31.2642 109.91 31.2642 109.91L29.9916 107.405C29.6719 106.764 29.9916 105.432 29.9916 105.432C30.468 99.7819 32.0082 93.8672 32.0082 93.8672C32.2741 91.8927 34.5029 90.1346 34.5029 90.1346C40.8725 87.6292 43.2084 83.2052 43.2084 83.2052C37.9512 79.2081 32.9102 80.8046 32.9102 80.8046Z" fill="url(#paint20_linear_1764_2915)"/>
<path d="M102.503 93.3332C102.503 93.3332 96.8248 91.4145 95.0197 89.0688C95.0197 89.0688 91.1433 86.6065 90.2939 86.4478C90.2939 86.4478 84.672 90.774 81.8566 90.5634C81.8566 90.5634 81.8566 93.8131 92.6851 94.8787C92.6851 94.8787 102.344 95.8386 100.486 99.3028C100.486 99.3028 100.486 97.9179 99.4783 97.7592C99.4783 97.7592 96.8765 98.8767 93.5862 104.102L89.7127 108.632C89.7127 108.632 89.3919 108.472 88.9706 108.525L87.3225 108.312C87.3225 108.312 85.4151 106.979 84.3521 107.193L81.2734 113.536C81.2734 113.536 83.768 114.922 86.8993 111.723L88.9706 111.243C88.9706 111.243 90.4548 112.469 92.1517 110.125C92.1517 110.125 93.2146 108.632 94.6472 107.407L102.132 100.369C102.132 100.369 104.414 98.4507 104.891 98.1833C104.891 98.1833 106.697 96.4252 105.266 94.3998C105.266 94.3998 104.044 93.2264 102.503 93.3332Z" fill="url(#paint21_linear_1764_2915)"/>
<path d="M91.4628 71.692C91.4628 71.692 89.5534 86.351 81.6982 89.5488C81.6982 89.5488 90.0897 89.016 96.644 76.5763C96.644 76.5763 97.9176 74.0622 98.3447 70.5646L94.1417 64.5813C93.1294 66.5353 92.043 69.0446 91.4628 71.692Z" fill="url(#paint22_linear_1764_2915)"/>
<path d="M96.4512 60.7088C96.4512 60.7088 95.5111 62.0192 94.415 64.0604L98.4231 69.8008C98.6464 67.0506 98.2973 63.7998 96.4512 60.7088Z" fill="url(#paint23_linear_1764_2915)"/>
<path d="M91.3564 36.9009C91.3564 36.9009 94.9636 32.4034 89.0208 27.8197C89.0208 27.8197 87.638 26.8461 86.0036 26.7854L84.3887 28.9656C86.4619 28.6257 89.3456 29.7276 91.3564 36.9009Z" fill="url(#paint24_linear_1764_2915)"/>
<path d="M81.8037 30.2202C81.8037 30.2202 82.5507 29.5219 83.6692 29.1448L85.4012 26.8079C84.0935 26.9548 82.7175 27.7942 81.8037 30.2202Z" fill="url(#paint25_linear_1764_2915)"/>
<path d="M93.4123 34.3152C93.4123 34.3152 93.0115 36.2917 92.1865 37.2407L95.9585 37.0311C95.3744 35.6913 94.5553 34.5688 93.4123 34.3152Z" fill="url(#paint26_linear_1764_2915)"/>
<path d="M93.9257 49.0789C94.033 52.7694 95.9707 52.0828 95.9707 52.0828C97.6802 51.6519 99.101 51.3835 99.101 51.3835C102.912 50.4041 110.323 44.7871 110.323 44.7871C112.606 43.2406 114.109 43.7665 114.109 43.7665C115.006 44.1485 116.704 44.0633 116.704 44.0633C118.996 43.5334 119.124 42.2866 119.124 42.2866L119.074 38.1064C118.987 36.3464 115.87 36.6481 115.87 36.6481C113.505 36.9703 112.496 38.4806 112.496 38.4806C111.398 40.1054 106.716 41.2298 106.716 41.2298C98.8943 41.9585 97.3272 44.6578 97.3272 44.6578C97.3272 44.6578 95.7327 46.7244 97.0502 48.4913C97.0502 48.4913 94.3314 46.9213 97.295 42.603C97.295 42.603 97.056 39.9007 96.1784 37.5717L91.7812 37.8283C92.1899 38.5756 93.7102 41.8184 93.9257 49.0789Z" fill="url(#paint27_linear_1764_2915)"/>
<path d="M104.379 1.98656L103.883 2.65551C104.396 3.72113 105.462 2.75446 105.462 2.75446C106.892 0.941546 104.821 0.0884458 104.821 0.0884458C102.416 -0.551119 102.434 2.4988 102.434 2.4988C102.448 2.91603 102.472 3.32743 102.501 3.73389L104.006 1.70349L104.379 1.98656Z" fill="url(#paint28_linear_1764_2915)"/>
<path d="M110.477 22.8777C115.333 27.9159 113.974 35.6494 113.974 35.6494C115.437 35.7101 117.135 35.5848 117.135 35.5848C116.235 34.3526 116.713 31.859 116.713 31.859C117.827 25.8884 114.003 21.4654 114.003 21.4654C105.945 14.0119 104.091 4.22357 103.846 2.70644L102.563 4.43809C103.647 15.8405 110.477 22.8777 110.477 22.8777Z" fill="url(#paint29_linear_1764_2915)"/>
<path d="M114.605 44.3727C114.605 44.3727 116.021 52.833 111.163 57.8712C111.163 57.8712 104.191 65.0582 103.223 76.6742L105.045 79.2844L104.66 79.5556L103.168 77.4322C103.152 77.7035 103.135 77.9739 103.126 78.2491C103.126 78.2491 103.107 81.302 105.513 80.6604C105.513 80.6604 107.584 79.8064 106.148 77.9964C106.148 77.9964 104.982 76.9298 104.505 78.2491C104.505 78.2491 105.936 67.3843 114.695 59.2835C114.695 59.2835 118.517 54.8614 117.4 48.8908C117.4 48.8908 116.925 45.6078 117.826 44.3727C117.826 44.3727 115.923 44.7567 114.605 44.3727Z" fill="url(#paint30_linear_1764_2915)"/>
<path d="M79.2846 42.3944L78.8672 42.839L79.0661 43.1211C79.229 42.9957 79.384 42.8674 79.5254 42.7391L79.2846 42.3944Z" fill="url(#paint31_linear_1764_2915)"/>
<path d="M82.0314 46.3278C81.8315 46.3826 81.6316 46.4355 81.4307 46.4884L81.9816 47.2729C82.1796 47.2132 82.3746 47.1544 82.5668 47.0947L82.0314 46.3278Z" fill="url(#paint32_linear_1764_2915)"/>
<path d="M89.5018 57.0264L88.6758 55.8423C88.8815 56.3917 89.1741 57.0127 89.571 57.5112C89.571 57.5112 89.5388 57.3202 89.5018 57.0264Z" fill="url(#paint33_linear_1764_2915)"/>
<path d="M86.2073 52.3082C86.0327 52.3846 85.8523 52.4551 85.667 52.5188L86.4384 53.6167C86.6285 53.5658 86.8187 53.5148 87.0098 53.458L86.2073 52.3082Z" fill="url(#paint34_linear_1764_2915)"/>
<path d="M93.7252 63.0723C93.6491 63.2172 93.5565 63.3994 93.4541 63.6021L94.1426 64.5815C94.2333 64.4052 94.3259 64.228 94.4156 64.0605L93.7252 63.0723Z" fill="url(#paint35_linear_1764_2915)"/>
<path d="M98.4227 69.8009C98.4013 70.0605 98.375 70.3152 98.3447 70.5649L103.168 77.4326C103.184 77.178 103.202 76.9253 103.223 76.6745L98.4227 69.8009Z" fill="url(#paint36_linear_1764_2915)"/>
<path d="M79.5257 42.739C79.3843 42.8673 79.2293 42.9956 79.0664 43.121L81.4312 46.4883C81.6321 46.4354 81.8321 46.3825 82.032 46.3276L79.5257 42.739Z" fill="url(#paint37_linear_1764_2915)"/>
<path d="M82.5675 47.095C82.3754 47.1547 82.1804 47.2135 81.9824 47.2732L85.6677 52.519C85.8529 52.4554 86.0334 52.3848 86.2079 52.3085L82.5675 47.095Z" fill="url(#paint38_linear_1764_2915)"/>
<path d="M89.5025 57.0262C89.5396 57.32 89.5718 57.511 89.5718 57.511C89.1749 57.0125 88.8823 56.3915 88.6765 55.8421L87.0109 53.4581C86.8198 53.5149 86.6296 53.5659 86.4395 53.6168L93.454 63.6021C93.5564 63.3993 93.649 63.2171 93.7251 63.0722L89.5025 57.0262Z" fill="url(#paint39_linear_1764_2915)"/>
<path d="M94.4147 64.0601C94.3249 64.2276 94.2323 64.4048 94.1416 64.5811L98.3447 70.5645C98.3749 70.3147 98.4012 70.06 98.4227 69.8005L94.4147 64.0601Z" fill="url(#paint40_linear_1764_2915)"/>
<path d="M105.046 79.2844L103.224 76.6742C103.203 76.9249 103.185 77.1776 103.169 77.4323L104.661 79.5557L105.046 79.2844Z" fill="url(#paint41_linear_1764_2915)"/>
<path d="M80.0303 37.9177L80.1873 38.5063L80.7812 38.4711C80.7226 38.2928 80.6573 38.094 80.5871 37.8864L80.0303 37.9177Z" fill="url(#paint42_linear_1764_2915)"/>
<path d="M92.1863 37.2409L90.6523 37.327C90.8542 37.4847 90.9829 37.6277 90.9829 37.6277C91.0288 37.7022 91.0746 37.7834 91.1204 37.8677L91.7806 37.8285C91.7172 37.712 91.6782 37.6512 91.6782 37.6512C91.8635 37.565 92.0313 37.4191 92.1863 37.2409Z" fill="url(#paint43_linear_1764_2915)"/>
<path d="M122.567 34.9832L122.538 35.5532L95.959 37.0311C96.036 37.2084 96.1092 37.3886 96.1784 37.5718L122.564 36.0321L122.656 36.5483L124.839 35.6355L122.567 34.9832Z" fill="url(#paint44_linear_1764_2915)"/>
<path d="M87.3773 37.6275L87.7946 37.4855L84.6779 37.6589C84.5746 37.843 84.4029 38.0516 84.1299 38.2749L86.7873 38.1202C86.9648 37.749 87.3773 37.6275 87.3773 37.6275Z" fill="url(#paint45_linear_1764_2915)"/>
<path d="M84.6778 37.6593L80.5869 37.8865C80.6571 38.0941 80.7225 38.2929 80.781 38.4712L84.1298 38.2753C84.4028 38.052 84.5745 37.8434 84.6778 37.6593Z" fill="url(#paint46_linear_1764_2915)"/>
<path d="M90.6528 37.3268L87.7945 37.4855L87.3771 37.6275C87.3771 37.6275 86.9646 37.7489 86.7871 38.1201L91.1209 37.8674C91.075 37.7832 91.0292 37.7019 90.9833 37.6275C90.9833 37.6275 90.8546 37.4845 90.6528 37.3268Z" fill="url(#paint47_linear_1764_2915)"/>
<path d="M92.1868 37.2405C92.0317 37.4187 91.864 37.5647 91.6787 37.6508C91.6787 37.6508 91.7177 37.7116 91.7811 37.8281L96.1782 37.5715C96.109 37.3884 96.0359 37.2081 95.9588 37.0309L92.1868 37.2405Z" fill="url(#paint48_linear_1764_2915)"/>
<path d="M103.845 2.70605L103.882 2.65512C103.858 2.60615 103.834 2.55717 103.812 2.4984C103.812 2.4984 103.823 2.57481 103.845 2.70605Z" fill="url(#paint49_linear_1764_2915)"/>
<path d="M86.004 26.7856L102.563 4.43805C102.54 4.20397 102.518 3.97087 102.5 3.73385L85.4014 26.8081C85.6042 26.7846 85.8061 26.7787 86.004 26.7856Z" fill="url(#paint50_linear_1764_2915)"/>
<path d="M82.022 32.1616L82.688 31.2625C82.6344 31.1411 82.6091 31.0314 82.652 30.9638C82.652 30.9638 82.65 30.0549 83.7861 29.7797L84.3897 28.9658C84.1372 29.0069 83.8953 29.0686 83.6701 29.145L81.6855 31.8218C81.7996 31.9305 81.9108 32.0451 82.022 32.1616Z" fill="url(#paint51_linear_1764_2915)"/>
<path d="M79.4301 34.8648L79.0439 35.3868L79.2848 35.855L79.669 35.3369C79.592 35.1547 79.5237 35.0058 79.4691 34.9089C79.4691 34.9089 79.4535 34.8903 79.4301 34.8648Z" fill="url(#paint52_linear_1764_2915)"/>
<path d="M81.6853 31.8218L79.4307 34.8648C79.4541 34.8903 79.4697 34.9089 79.4697 34.9089C79.5243 35.0059 79.5926 35.1547 79.6696 35.3369L82.0217 32.1616C81.9106 32.0451 81.7994 31.9305 81.6853 31.8218Z" fill="url(#paint53_linear_1764_2915)"/>
<path d="M82.6516 30.9635C82.6087 31.0311 82.634 31.1408 82.6876 31.2622L83.7857 29.7793C82.6496 30.0546 82.6516 30.9635 82.6516 30.9635Z" fill="url(#paint54_linear_1764_2915)"/>
<path d="M86.0036 26.7851C85.8056 26.7783 85.6037 26.7841 85.4009 26.8076L83.6689 29.1445C83.8942 29.0681 84.1361 29.0064 84.3886 28.9653L86.0036 26.7851Z" fill="url(#paint55_linear_1764_2915)"/>
<path d="M103.845 2.70635C103.823 2.5751 103.813 2.4987 103.813 2.4987C103.834 2.55746 103.858 2.60644 103.882 2.65542L104.378 1.98646L104.005 1.70339L102.5 3.73379C102.518 3.97081 102.54 4.20391 102.562 4.43799L103.845 2.70635Z" fill="url(#paint56_linear_1764_2915)"/>
<path d="M16.539 61.4905C20.5708 47.803 26.4365 54.6767 26.4365 54.6767C27.2311 53.3877 28.757 52.5307 28.757 52.5307C28.0866 51.0567 28.757 48.7257 28.757 48.7257C30.1638 38.1068 20.0817 39.949 20.0817 39.949C12.7507 40.8687 8.77716 60.1379 8.77716 60.1379C5.53992 70.3259 0.0396592 62.3475 0.0396592 62.3475C-0.571784 70.1427 6.08925 72.3514 6.08925 72.3514C14.3784 74.9282 16.539 61.4905 16.539 61.4905Z" fill="url(#paint57_linear_1764_2915)"/>
<defs>
<linearGradient id="paint0_linear_1764_2915" x1="69.542" y1="18.5217" x2="80.189" y2="18.5217" gradientUnits="userSpaceOnUse">
<stop stop-color="#0C0098"/>
<stop offset="1" stop-color="#BC87FF"/>
</linearGradient>
<linearGradient id="paint1_linear_1764_2915" x1="68.8096" y1="25.3683" x2="81.0597" y2="25.3683" gradientUnits="userSpaceOnUse">
<stop stop-color="#0C0098"/>
<stop offset="1" stop-color="#BC87FF"/>
</linearGradient>
<linearGradient id="paint2_linear_1764_2915" x1="65.9854" y1="26.7165" x2="70.6019" y2="26.7165" gradientUnits="userSpaceOnUse">
<stop stop-color="#0C0098"/>
<stop offset="1" stop-color="#BC87FF"/>
</linearGradient>
<linearGradient id="paint3_linear_1764_2915" x1="57.5439" y1="17.8784" x2="77.4852" y2="17.8784" gradientUnits="userSpaceOnUse">
<stop stop-color="#0C0098"/>
<stop offset="1" stop-color="#BC87FF"/>
</linearGradient>
<linearGradient id="paint4_linear_1764_2915" x1="80.7812" y1="38.8271" x2="84.1301" y2="38.8271" gradientUnits="userSpaceOnUse">
<stop stop-color="#0C0098"/>
<stop offset="1" stop-color="#BC87FF"/>
</linearGradient>
<linearGradient id="paint5_linear_1764_2915" x1="71.5586" y1="31.9592" x2="81.685" y2="31.9592" gradientUnits="userSpaceOnUse">
<stop stop-color="#0C0098"/>
<stop offset="1" stop-color="#BC87FF"/>
</linearGradient>
<linearGradient id="paint6_linear_1764_2915" x1="79.6689" y1="35.0239" x2="84.8249" y2="35.0239" gradientUnits="userSpaceOnUse">
<stop stop-color="#0C0098"/>
<stop offset="1" stop-color="#BC87FF"/>
</linearGradient>
<linearGradient id="paint7_linear_1764_2915" x1="45.7109" y1="39.1184" x2="80.2134" y2="39.1184" gradientUnits="userSpaceOnUse">
<stop stop-color="#0C0098"/>
<stop offset="1" stop-color="#BC87FF"/>
</linearGradient>
<linearGradient id="paint8_linear_1764_2915" x1="79.5264" y1="42.5319" x2="87.0258" y2="42.5319" gradientUnits="userSpaceOnUse">
<stop stop-color="#0C0098"/>
<stop offset="1" stop-color="#BC87FF"/>
</linearGradient>
<linearGradient id="paint9_linear_1764_2915" x1="71.0674" y1="45.6019" x2="81.4313" y2="45.6019" gradientUnits="userSpaceOnUse">
<stop stop-color="#0C0098"/>
<stop offset="1" stop-color="#BC87FF"/>
</linearGradient>
<linearGradient id="paint10_linear_1764_2915" x1="82.5674" y1="48.9648" x2="87.886" y2="48.9648" gradientUnits="userSpaceOnUse">
<stop stop-color="#0C0098"/>
<stop offset="1" stop-color="#BC87FF"/>
</linearGradient>
<linearGradient id="paint11_linear_1764_2915" x1="73.5537" y1="50.3633" x2="85.6672" y2="50.3633" gradientUnits="userSpaceOnUse">
<stop stop-color="#0C0098"/>
<stop offset="1" stop-color="#BC87FF"/>
</linearGradient>
<linearGradient id="paint12_linear_1764_2915" x1="82.6875" y1="33.3581" x2="89.5945" y2="33.3581" gradientUnits="userSpaceOnUse">
<stop stop-color="#0C0098"/>
<stop offset="1" stop-color="#BC87FF"/>
</linearGradient>
<linearGradient id="paint13_linear_1764_2915" x1="87.7949" y1="37.1941" x2="90.6532" y2="37.1941" gradientUnits="userSpaceOnUse">
<stop stop-color="#0C0098"/>
<stop offset="1" stop-color="#BC87FF"/>
</linearGradient>
<linearGradient id="paint14_linear_1764_2915" x1="86.707" y1="41.1637" x2="92.4361" y2="41.1637" gradientUnits="userSpaceOnUse">
<stop stop-color="#0C0098"/>
<stop offset="1" stop-color="#BC87FF"/>
</linearGradient>
<linearGradient id="paint15_linear_1764_2915" x1="88.6172" y1="48.2074" x2="93.413" y2="48.2074" gradientUnits="userSpaceOnUse">
<stop stop-color="#0C0098"/>
<stop offset="1" stop-color="#BC87FF"/>
</linearGradient>
<linearGradient id="paint16_linear_1764_2915" x1="89.3916" y1="57.4942" x2="95.97" y2="57.4942" gradientUnits="userSpaceOnUse">
<stop stop-color="#0C0098"/>
<stop offset="1" stop-color="#BC87FF"/>
</linearGradient>
<linearGradient id="paint17_linear_1764_2915" x1="87.0107" y1="54.5846" x2="88.6764" y2="54.5846" gradientUnits="userSpaceOnUse">
<stop stop-color="#0C0098"/>
<stop offset="1" stop-color="#BC87FF"/>
</linearGradient>
<linearGradient id="paint18_linear_1764_2915" x1="17.4248" y1="78.4745" x2="93.4531" y2="78.4745" gradientUnits="userSpaceOnUse">
<stop stop-color="#0C0098"/>
<stop offset="1" stop-color="#BC87FF"/>
</linearGradient>
<linearGradient id="paint19_linear_1764_2915" x1="9.4873" y1="99.0635" x2="21.6154" y2="99.0635" gradientUnits="userSpaceOnUse">
<stop stop-color="#0C0098"/>
<stop offset="1" stop-color="#BC87FF"/>
</linearGradient>
<linearGradient id="paint20_linear_1764_2915" x1="25.9385" y1="97.7058" x2="43.2084" y2="97.7058" gradientUnits="userSpaceOnUse">
<stop stop-color="#0C0098"/>
<stop offset="1" stop-color="#BC87FF"/>
</linearGradient>
<linearGradient id="paint21_linear_1764_2915" x1="81.2734" y1="100.141" x2="105.817" y2="100.141" gradientUnits="userSpaceOnUse">
<stop stop-color="#0C0098"/>
<stop offset="1" stop-color="#BC87FF"/>
</linearGradient>
<linearGradient id="paint22_linear_1764_2915" x1="81.6982" y1="77.0651" x2="98.3447" y2="77.0651" gradientUnits="userSpaceOnUse">
<stop stop-color="#0C0098"/>
<stop offset="1" stop-color="#BC87FF"/>
</linearGradient>
<linearGradient id="paint23_linear_1764_2915" x1="94.415" y1="65.2548" x2="98.4828" y2="65.2548" gradientUnits="userSpaceOnUse">
<stop stop-color="#0C0098"/>
<stop offset="1" stop-color="#BC87FF"/>
</linearGradient>
<linearGradient id="paint24_linear_1764_2915" x1="84.3887" y1="31.8431" x2="92.4409" y2="31.8431" gradientUnits="userSpaceOnUse">
<stop stop-color="#0C0098"/>
<stop offset="1" stop-color="#BC87FF"/>
</linearGradient>
<linearGradient id="paint25_linear_1764_2915" x1="81.8037" y1="28.5141" x2="85.4012" y2="28.5141" gradientUnits="userSpaceOnUse">
<stop stop-color="#0C0098"/>
<stop offset="1" stop-color="#BC87FF"/>
</linearGradient>
<linearGradient id="paint26_linear_1764_2915" x1="92.1865" y1="35.7779" x2="95.9585" y2="35.7779" gradientUnits="userSpaceOnUse">
<stop stop-color="#0C0098"/>
<stop offset="1" stop-color="#BC87FF"/>
</linearGradient>
<linearGradient id="paint27_linear_1764_2915" x1="91.7812" y1="44.3809" x2="119.124" y2="44.3809" gradientUnits="userSpaceOnUse">
<stop stop-color="#0C0098"/>
<stop offset="1" stop-color="#BC87FF"/>
</linearGradient>
<linearGradient id="paint28_linear_1764_2915" x1="102.434" y1="1.86709" x2="105.965" y2="1.86709" gradientUnits="userSpaceOnUse">
<stop stop-color="#0C0098"/>
<stop offset="1" stop-color="#BC87FF"/>
</linearGradient>
<linearGradient id="paint29_linear_1764_2915" x1="102.563" y1="19.1862" x2="117.135" y2="19.1862" gradientUnits="userSpaceOnUse">
<stop stop-color="#0C0098"/>
<stop offset="1" stop-color="#BC87FF"/>
</linearGradient>
<linearGradient id="paint30_linear_1764_2915" x1="103.126" y1="62.5609" x2="117.826" y2="62.5609" gradientUnits="userSpaceOnUse">
<stop stop-color="#0C0098"/>
<stop offset="1" stop-color="#BC87FF"/>
</linearGradient>
<linearGradient id="paint31_linear_1764_2915" x1="78.8672" y1="42.7577" x2="79.5254" y2="42.7577" gradientUnits="userSpaceOnUse">
<stop stop-color="#0C0098"/>
<stop offset="1" stop-color="#BC87FF"/>
</linearGradient>
<linearGradient id="paint32_linear_1764_2915" x1="81.4307" y1="46.8004" x2="82.5668" y2="46.8004" gradientUnits="userSpaceOnUse">
<stop stop-color="#0C0098"/>
<stop offset="1" stop-color="#BC87FF"/>
</linearGradient>
<linearGradient id="paint33_linear_1764_2915" x1="88.6758" y1="56.6768" x2="89.571" y2="56.6768" gradientUnits="userSpaceOnUse">
<stop stop-color="#0C0098"/>
<stop offset="1" stop-color="#BC87FF"/>
</linearGradient>
<linearGradient id="paint34_linear_1764_2915" x1="85.667" y1="52.9624" x2="87.0098" y2="52.9624" gradientUnits="userSpaceOnUse">
<stop stop-color="#0C0098"/>
<stop offset="1" stop-color="#BC87FF"/>
</linearGradient>
<linearGradient id="paint35_linear_1764_2915" x1="93.4541" y1="63.8269" x2="94.4156" y2="63.8269" gradientUnits="userSpaceOnUse">
<stop stop-color="#0C0098"/>
<stop offset="1" stop-color="#BC87FF"/>
</linearGradient>
<linearGradient id="paint36_linear_1764_2915" x1="98.3447" y1="73.6168" x2="103.223" y2="73.6168" gradientUnits="userSpaceOnUse">
<stop stop-color="#0C0098"/>
<stop offset="1" stop-color="#BC87FF"/>
</linearGradient>
<linearGradient id="paint37_linear_1764_2915" x1="79.0664" y1="44.6137" x2="82.032" y2="44.6137" gradientUnits="userSpaceOnUse">
<stop stop-color="#0C0098"/>
<stop offset="1" stop-color="#BC87FF"/>
</linearGradient>
<linearGradient id="paint38_linear_1764_2915" x1="81.9824" y1="49.807" x2="86.2079" y2="49.807" gradientUnits="userSpaceOnUse">
<stop stop-color="#0C0098"/>
<stop offset="1" stop-color="#BC87FF"/>
</linearGradient>
<linearGradient id="paint39_linear_1764_2915" x1="86.4395" y1="58.5301" x2="93.7251" y2="58.5301" gradientUnits="userSpaceOnUse">
<stop stop-color="#0C0098"/>
<stop offset="1" stop-color="#BC87FF"/>
</linearGradient>
<linearGradient id="paint40_linear_1764_2915" x1="94.1416" y1="67.3123" x2="98.4227" y2="67.3123" gradientUnits="userSpaceOnUse">
<stop stop-color="#0C0098"/>
<stop offset="1" stop-color="#BC87FF"/>
</linearGradient>
<linearGradient id="paint41_linear_1764_2915" x1="103.169" y1="78.1149" x2="105.046" y2="78.1149" gradientUnits="userSpaceOnUse">
<stop stop-color="#0C0098"/>
<stop offset="1" stop-color="#BC87FF"/>
</linearGradient>
<linearGradient id="paint42_linear_1764_2915" x1="80.0303" y1="38.1964" x2="80.7812" y2="38.1964" gradientUnits="userSpaceOnUse">
<stop stop-color="#0C0098"/>
<stop offset="1" stop-color="#BC87FF"/>
</linearGradient>
<linearGradient id="paint43_linear_1764_2915" x1="90.6523" y1="37.5543" x2="92.1863" y2="37.5543" gradientUnits="userSpaceOnUse">
<stop stop-color="#0C0098"/>
<stop offset="1" stop-color="#BC87FF"/>
</linearGradient>
<linearGradient id="paint44_linear_1764_2915" x1="95.959" y1="36.2775" x2="124.839" y2="36.2775" gradientUnits="userSpaceOnUse">
<stop stop-color="#0C0098"/>
<stop offset="1" stop-color="#BC87FF"/>
</linearGradient>
<linearGradient id="paint45_linear_1764_2915" x1="84.1299" y1="37.8802" x2="87.7946" y2="37.8802" gradientUnits="userSpaceOnUse">
<stop stop-color="#0C0098"/>
<stop offset="1" stop-color="#BC87FF"/>
</linearGradient>
<linearGradient id="paint46_linear_1764_2915" x1="80.5869" y1="38.0652" x2="84.6778" y2="38.0652" gradientUnits="userSpaceOnUse">
<stop stop-color="#0C0098"/>
<stop offset="1" stop-color="#BC87FF"/>
</linearGradient>
<linearGradient id="paint47_linear_1764_2915" x1="86.7871" y1="37.7234" x2="91.1209" y2="37.7234" gradientUnits="userSpaceOnUse">
<stop stop-color="#0C0098"/>
<stop offset="1" stop-color="#BC87FF"/>
</linearGradient>
<linearGradient id="paint48_linear_1764_2915" x1="91.6787" y1="37.4295" x2="96.1782" y2="37.4295" gradientUnits="userSpaceOnUse">
<stop stop-color="#0C0098"/>
<stop offset="1" stop-color="#BC87FF"/>
</linearGradient>
<linearGradient id="paint49_linear_1764_2915" x1="103.812" y1="2.60223" x2="103.882" y2="2.60223" gradientUnits="userSpaceOnUse">
<stop stop-color="#0C0098"/>
<stop offset="1" stop-color="#BC87FF"/>
</linearGradient>
<linearGradient id="paint50_linear_1764_2915" x1="85.4014" y1="15.271" x2="102.563" y2="15.271" gradientUnits="userSpaceOnUse">
<stop stop-color="#0C0098"/>
<stop offset="1" stop-color="#BC87FF"/>
</linearGradient>
<linearGradient id="paint51_linear_1764_2915" x1="81.6855" y1="30.5637" x2="84.3897" y2="30.5637" gradientUnits="userSpaceOnUse">
<stop stop-color="#0C0098"/>
<stop offset="1" stop-color="#BC87FF"/>
</linearGradient>
<linearGradient id="paint52_linear_1764_2915" x1="79.0439" y1="35.3599" x2="79.669" y2="35.3599" gradientUnits="userSpaceOnUse">
<stop stop-color="#0C0098"/>
<stop offset="1" stop-color="#BC87FF"/>
</linearGradient>
<linearGradient id="paint53_linear_1764_2915" x1="79.4307" y1="33.5793" x2="82.0217" y2="33.5793" gradientUnits="userSpaceOnUse">
<stop stop-color="#0C0098"/>
<stop offset="1" stop-color="#BC87FF"/>
</linearGradient>
<linearGradient id="paint54_linear_1764_2915" x1="82.6299" y1="30.5208" x2="83.7857" y2="30.5208" gradientUnits="userSpaceOnUse">
<stop stop-color="#0C0098"/>
<stop offset="1" stop-color="#BC87FF"/>
</linearGradient>
<linearGradient id="paint55_linear_1764_2915" x1="83.6689" y1="27.9635" x2="86.0036" y2="27.9635" gradientUnits="userSpaceOnUse">
<stop stop-color="#0C0098"/>
<stop offset="1" stop-color="#BC87FF"/>
</linearGradient>
<linearGradient id="paint56_linear_1764_2915" x1="102.5" y1="3.07069" x2="104.378" y2="3.07069" gradientUnits="userSpaceOnUse">
<stop stop-color="#0C0098"/>
<stop offset="1" stop-color="#BC87FF"/>
</linearGradient>
<linearGradient id="paint57_linear_1764_2915" x1="0" y1="56.2532" x2="28.8917" y2="56.2532" gradientUnits="userSpaceOnUse">
<stop stop-color="#0C0098"/>
<stop offset="1" stop-color="#BC87FF"/>
</linearGradient>
</defs>
</svg>
