<svg width="160" height="30" viewBox="0 0 160 30" fill="none" xmlns="http://www.w3.org/2000/svg">
<path d="M10.3067 29.28C8.46672 29.28 6.81339 28.96 5.34672 28.32C3.90672 27.6533 2.77339 26.7467 1.94672 25.6C1.12005 24.4267 0.693386 23.08 0.666719 21.56H4.54672C4.68005 22.8667 5.21339 23.9733 6.14672 24.88C7.10672 25.76 8.49339 26.2 10.3067 26.2C12.0401 26.2 13.4001 25.7733 14.3867 24.92C15.4001 24.04 15.9067 22.92 15.9067 21.56C15.9067 20.4933 15.6134 19.6267 15.0267 18.96C14.4401 18.2933 13.7067 17.7867 12.8267 17.44C11.9467 17.0933 10.7601 16.72 9.26672 16.32C7.42672 15.84 5.94672 15.36 4.82672 14.88C3.73339 14.4 2.78672 13.6533 1.98672 12.64C1.21339 11.6 0.826719 10.2133 0.826719 8.48C0.826719 6.96 1.21339 5.61333 1.98672 4.44C2.76005 3.26666 3.84005 2.36 5.22672 1.72C6.64005 1.08 8.25339 0.759999 10.0667 0.759999C12.6801 0.759999 14.8134 1.41333 16.4667 2.72C18.1467 4.02667 19.0934 5.76 19.3067 7.92H15.3067C15.1734 6.85333 14.6134 5.92 13.6267 5.12C12.6401 4.29333 11.3334 3.88 9.70672 3.88C8.18672 3.88 6.94672 4.28 5.98672 5.08C5.02672 5.85333 4.54672 6.94667 4.54672 8.36C4.54672 9.37333 4.82672 10.2 5.38672 10.84C5.97339 11.48 6.68005 11.9733 7.50672 12.32C8.36005 12.64 9.54672 13.0133 11.0667 13.44C12.9067 13.9467 14.3867 14.4533 15.5067 14.96C16.6267 15.44 17.5867 16.2 18.3867 17.24C19.1867 18.2533 19.5867 19.64 19.5867 21.4C19.5867 22.76 19.2267 24.04 18.5067 25.24C17.7867 26.44 16.7201 27.4133 15.3067 28.16C13.8934 28.9067 12.2267 29.28 10.3067 29.28ZM38.4233 22.8H26.2633L24.0233 29H20.1833L30.2633 1.28H34.4633L44.5033 29H40.6633L38.4233 22.8ZM37.3833 19.84L32.3433 5.76L27.3033 19.84H37.3833ZM67.8164 29H64.1764L49.5364 6.8V29H45.8964V1.08H49.5364L64.1764 23.24V1.08H67.8164V29ZM87.5014 22.8H75.3414L73.1014 29H69.2614L79.3414 1.28H83.5414L93.5814 29H89.7414L87.5014 22.8ZM86.4614 19.84L81.4214 5.76L76.3814 19.84H86.4614ZM112.135 1.12V4.08H104.535V29H100.895V4.08H93.2545V1.12H112.135ZM130.095 22.8H117.935L115.695 29H111.855L121.935 1.28H126.135L136.175 29H132.335L130.095 22.8ZM129.055 19.84L124.015 5.76L118.975 19.84H129.055ZM159.488 29H155.848L141.208 6.8V29H137.568V1.08H141.208L155.848 23.24V1.08H159.488V29Z" fill="url(#paint0_linear_1638_3138)"/>
<defs>
<linearGradient id="paint0_linear_1638_3138" x1="80.5" y1="-4" x2="80.5" y2="55.5" gradientUnits="userSpaceOnUse">
<stop stop-color="white"/>
<stop offset="1" stop-color="white" stop-opacity="0"/>
</linearGradient>
</defs>
</svg>
