<svg width="105" height="135" viewBox="0 0 105 135" fill="none" xmlns="http://www.w3.org/2000/svg">
<path d="M99.6592 116.224C99.6592 116.224 102.885 116.791 104.234 113.933C104.234 113.933 104.691 121.265 100.567 124.994C100.567 124.994 98.4268 126.848 96.984 124.527C96.984 124.527 95.6164 122.803 98.1276 120.728C98.1276 120.728 100.341 119.401 99.6592 116.224Z" fill="url(#paint0_linear_1768_2989)"/>
<path d="M48.2667 53.0601C48.2667 53.0601 50.6549 53.7915 51.497 51.7011C51.497 51.7011 53.4887 52.3729 54.4668 49.9554C54.4668 49.9554 64.1734 54.7699 65.049 60.1178C65.049 60.1178 60.2484 69.4884 49.2706 67.9796C49.2706 67.9796 45.6759 64.6617 48.2667 53.0601Z" fill="url(#paint1_linear_1768_2989)"/>
<path d="M46.8052 46.449C46.8052 46.449 44.5029 50.3012 47.8091 52.9519L47.2297 55.877C47.2297 55.877 41.322 51.2322 46.8052 46.449Z" fill="url(#paint2_linear_1768_2989)"/>
<path d="M50.6892 50.6545C51.024 51.3317 50.7499 52.1487 50.0817 52.4827C49.4142 52.8175 48.6025 52.5439 48.2676 51.8667C47.9366 51.1964 48.2099 50.3801 48.8774 50.0453C49.5456 49.7113 50.3581 49.9842 50.6892 50.6545Z" fill="url(#paint3_linear_1768_2989)"/>
<path d="M53.434 49.2803C53.7689 49.9575 53.4955 50.7738 52.8273 51.1086C52.1583 51.4434 51.3466 51.1705 51.0117 50.4925C50.6807 49.8222 50.954 49.0059 51.623 48.6712C52.2912 48.3364 53.1029 48.61 53.434 49.2803Z" fill="url(#paint4_linear_1768_2989)"/>
<path d="M50.0713 44.8143C50.0713 44.8143 54.5119 45.2905 54.6182 49.5432L57.2843 50.8433C57.2843 50.8433 57.1628 43.3017 50.0713 44.8143Z" fill="url(#paint5_linear_1768_2989)"/>
<path d="M49.5847 69.4467C49.5847 69.4467 60.9801 70.717 65.8817 61.2884C65.8817 61.2884 68.9844 62.9255 69.2858 66.8908C69.2858 66.8908 65.5293 76.1835 51.6964 75.6958C51.6964 75.6958 48.8261 72.9794 49.5847 69.4467Z" fill="url(#paint6_linear_1768_2989)"/>
<path d="M52.378 76.8842C52.378 76.8842 65.1889 77.4399 70.0927 68.0165C70.0927 68.0165 72.7831 69.8822 73.0845 73.8445C73.0845 73.8445 69 83.2816 55.1671 82.7916C55.1671 82.7916 51.6187 80.4146 52.378 76.8842Z" fill="url(#paint7_linear_1768_2989)"/>
<path d="M55.6832 84.17C55.6832 84.17 68.7811 84.5866 73.6835 75.1587C73.6835 75.1587 76.3753 77.0313 76.676 80.9912C76.676 80.9912 72.5923 90.4237 58.7631 89.9353C58.7631 89.9353 54.9247 87.7058 55.6832 84.17Z" fill="url(#paint8_linear_1768_2989)"/>
<path d="M59.3027 91.1225C59.3027 91.1225 72.1182 91.8662 77.047 82.2396C77.047 82.2396 80.7154 92.94 71.4575 96.942C71.4575 96.942 62.7061 101.361 59.3027 91.1225Z" fill="url(#paint9_linear_1768_2989)"/>
<path d="M65.4355 99.3599C65.4355 99.3599 76.0519 100.573 78.5782 90.931C78.5782 90.931 79.8304 91.9682 80.649 96.3057C80.649 96.3057 81.482 98.591 82.5731 99.3852C82.5731 99.3852 85.1921 102 82.4114 104.727C82.4114 104.727 78.6147 108.519 74.6243 105.508C74.6243 105.508 71.814 103.546 69.9703 103.096C69.9703 103.096 66.7135 101.946 65.4355 99.3599Z" fill="url(#paint10_linear_1768_2989)"/>
<path d="M79.25 107.496C79.25 107.496 84.4029 106.514 84.5988 101.998C84.5988 101.998 87.6172 105.418 90.9955 103.912C90.9955 103.912 94.9411 102.947 94.673 107.928C94.673 107.928 93.531 112.841 88.4806 109.253C88.4806 109.253 85.2792 107.625 82.8622 107.727C82.8622 107.727 80.2751 108.455 79.25 107.496Z" fill="url(#paint11_linear_1768_2989)"/>
<path d="M94.1982 110.762C94.1982 110.762 96.6335 109.136 95.6083 105.863C95.6083 105.863 98.8181 108.484 101.175 109.087C101.175 109.087 105.083 110.43 103.081 113.99C103.081 113.99 99.8614 117.604 97.6419 113.191C97.6419 113.191 96.2037 110.646 94.1982 110.762Z" fill="url(#paint12_linear_1768_2989)"/>
<path d="M95.4816 123.575C95.4816 123.575 95.5317 125.99 97.3564 126.694C97.3564 126.694 94.928 128.34 93.0935 130.519C93.0935 130.519 88.6209 134.205 86.9306 130.34C86.9306 130.34 85.3322 126.878 90.5193 126.804C90.5193 126.804 93.9583 126.639 95.4816 123.575Z" fill="url(#paint13_linear_1768_2989)"/>
<path d="M85.5303 129.076C85.5303 129.076 85.4202 131.015 86.7263 132.015C86.7263 132.015 76.7994 137.12 76.0742 131.626C76.0742 131.626 76.0666 128.478 80.6918 129.869C80.6918 129.869 83.7011 130.736 85.5303 129.076Z" fill="url(#paint14_linear_1768_2989)"/>
<path d="M75.529 130.302C75.529 130.302 74.9048 131.799 75.6596 132.572C75.6596 132.572 66.7054 132.793 66.0873 125.056C66.0873 125.056 65.9529 119.418 70.4414 116.498C70.4414 116.498 67.1557 122.148 71.0481 123.24C71.0481 123.24 74.1591 124.541 72.0277 127.682C72.0277 127.682 69.8894 130.957 75.529 130.302Z" fill="url(#paint15_linear_1768_2989)"/>
<path d="M10.8241 44.9855C10.8241 44.9855 6.05314 48.9623 8.02895 52.9604C8.02895 52.9604 -3.89955 42.8592 1.32244 32.5737C1.32244 32.5737 1.94738 42.3693 10.8241 44.9855Z" fill="url(#paint16_linear_1768_2989)"/>
<path d="M8.12988 29.1665C8.12988 29.1665 14.8151 36.17 12.1498 45.3013C12.1498 45.3013 7.16475 49.2559 9.22485 53.5048C9.22485 53.5048 11.171 55.975 15.7172 53.4994C15.7172 53.4994 23.2833 49.1405 15.8159 35.9124C15.8159 35.9124 12.4726 29.8743 8.12988 29.1665Z" fill="url(#paint17_linear_1768_2989)"/>
<path d="M11.5947 56.0919C11.5947 56.0919 17.3589 56.4954 19.8245 50.7936C19.8245 50.7936 21.1154 51.4478 22.8656 56.1316C22.8656 56.1316 23.4746 58.021 26.2356 59.4419C26.2356 59.4419 23.8748 61.5147 23.8034 63.7404C23.8034 63.7404 21.1267 64.4329 18.829 61.9045C18.829 61.9045 15.9981 59.3685 14.1696 58.942C14.1696 58.942 12.2166 58.339 11.5947 56.0919Z" fill="url(#paint18_linear_1768_2989)"/>
<path d="M27.5132 65.2133C27.5132 65.2133 23.2836 64.9771 25.5571 61.9076C25.5571 61.9076 27.0097 59.2118 29.8155 60.7305C29.8155 60.7305 33.2849 62.2813 35.7923 61.0683C35.7923 61.0683 34.282 63.0816 35.8614 64.7279C35.8614 64.7279 31.8232 65.9363 27.5132 65.2133Z" fill="url(#paint19_linear_1768_2989)"/>
<path d="M46.1664 58.1472C46.1664 58.1472 45.871 60.0809 46.1884 61.874C46.1884 61.874 36.2646 67.41 35.9092 62.795C35.9092 62.795 35.768 61.1005 37.8797 60.4845C37.8797 60.4845 39.409 60.1535 40.4106 60.3018C40.4106 60.3018 43.4495 60.0771 46.1664 58.1472Z" fill="url(#paint20_linear_1768_2989)"/>
<path d="M14.8174 71.7324C14.8174 71.7324 22.6781 74.4175 27.6525 74.0353C27.6525 74.0353 26.5659 75.9193 28.6154 77.0467C28.6154 77.0467 18.9528 77.9807 14.8174 71.7324Z" fill="url(#paint21_linear_1768_2989)"/>
<path d="M28.2964 75.3365C28.2964 75.3365 27.8431 73.8996 29.6313 73.694C29.6313 73.694 33.889 73.5923 38.398 71.051C38.398 71.051 38.262 73.1444 39.846 73.9814C39.846 73.9814 32.6323 77.6715 29.5205 76.593C29.5205 76.593 28.6009 76.4448 28.2964 75.3365Z" fill="url(#paint22_linear_1768_2989)"/>
<path d="M46.1967 63.3624C46.1967 63.3624 45.7593 65.1356 47.7685 68.1416C47.7685 68.1416 41.0696 75.7229 39.4932 72.4509C39.4932 72.4509 38.7232 71.3885 39.6755 70.3765C39.6755 70.3765 43.1054 67.5195 43.9954 65.5651C43.9954 65.5651 45.0941 63.7468 46.1967 63.3624Z" fill="url(#paint23_linear_1768_2989)"/>
<path d="M17.0869 79.7975C17.0869 79.7975 24.9461 82.4765 29.9228 82.0958C29.9228 82.0958 28.8317 83.9814 30.8849 85.105C30.8849 85.105 21.2223 86.0451 17.0869 79.7975Z" fill="url(#paint24_linear_1768_2989)"/>
<path d="M30.5645 83.397C30.5645 83.397 30.1096 81.9608 31.8964 81.7583C31.8964 81.7583 36.154 81.6574 40.666 79.1137C40.666 79.1137 40.5293 81.2095 42.1125 82.0411C42.1125 82.0411 34.9041 85.7374 31.7862 84.6528C31.7862 84.6528 30.8652 84.5053 30.5645 83.397Z" fill="url(#paint25_linear_1768_2989)"/>
<path d="M48.4673 71.431C48.4673 71.431 48.0254 73.195 50.0391 76.2057C50.0391 76.2057 43.3357 83.7854 41.7615 80.5149C41.7615 80.5149 40.9931 79.4479 41.9461 78.4398C41.9461 78.4398 45.3715 75.5789 46.2644 73.6322C46.2644 73.6322 47.3655 71.8124 48.4673 71.431Z" fill="url(#paint26_linear_1768_2989)"/>
<path d="M20.748 89.7496C20.748 89.7496 28.8085 91.733 33.7328 90.9174C33.7328 90.9174 32.8132 92.8902 34.9538 93.8318C34.9538 93.8318 25.4104 95.6119 20.748 89.7496Z" fill="url(#paint27_linear_1768_2989)"/>
<path d="M34.4859 92.1611C34.4859 92.1611 33.9118 90.7677 35.6728 90.4031C35.6728 90.4031 39.9053 89.9316 44.1804 87.0073C44.1804 87.0073 44.229 89.1076 45.876 89.797C45.876 89.797 39.0085 94.1032 35.8163 93.3007C35.8163 93.3007 34.8861 93.2365 34.4859 92.1611Z" fill="url(#paint28_linear_1768_2989)"/>
<path d="M51.2869 78.6658C51.2869 78.6658 51.0029 80.4657 53.2703 83.2884C53.2703 83.2884 47.2434 91.4253 45.3921 88.3016C45.3921 88.3016 44.5371 87.3087 45.3974 86.2211C45.3974 86.2211 48.5669 83.0721 49.283 81.0512C49.283 81.0512 50.2238 79.1442 51.2869 78.6658Z" fill="url(#paint29_linear_1768_2989)"/>
<path d="M25.3027 99.8852C25.3027 99.8852 33.5143 101.123 38.3414 99.8531C38.3414 99.8531 37.6041 101.9 39.8198 102.643C39.8198 102.643 30.4777 105.297 25.3027 99.8852Z" fill="url(#paint30_linear_1768_2989)"/>
<path d="M39.2044 101.022C39.2044 101.022 38.5066 99.684 40.2273 99.1635C40.2273 99.1635 44.3991 98.2998 48.3871 94.9941C48.3871 94.9941 48.6279 97.08 50.3295 97.6134C50.3295 97.6134 43.8896 102.54 40.632 102.033C40.632 102.033 39.6995 102.056 39.2044 101.022Z" fill="url(#paint31_linear_1768_2989)"/>
<path d="M54.7017 86.0313C54.7017 86.0313 54.584 87.8488 57.0951 90.4544C57.0951 90.4544 51.8428 99.1103 49.712 96.1738C49.712 96.1738 48.7697 95.265 49.5268 94.0987C49.5268 94.0987 52.3956 90.6738 52.9263 88.591C52.9263 88.591 53.688 86.6053 54.7017 86.0313Z" fill="url(#paint32_linear_1768_2989)"/>
<path d="M70.4918 15.1149C70.4918 15.1149 76.5187 13.6864 78.4945 17.6846C78.4945 17.6846 77.6904 2.01369 66.3906 -0.000292124C66.3906 -0.000292124 73.7737 6.41159 70.4918 15.1149Z" fill="url(#paint33_linear_1768_2989)"/>
<path d="M59.5838 3.40826C59.5838 3.40826 61.0972 13.0005 69.9405 16.3704C69.9405 16.3704 76.0821 14.7546 78.2045 18.9721C78.2045 18.9721 78.9873 22.0256 74.2847 24.1794C74.2847 24.1794 66.2653 27.6227 60.2885 13.6486C60.2885 13.6486 57.5245 7.32082 59.5838 3.40826Z" fill="url(#paint34_linear_1768_2989)"/>
<path d="M78.8274 22.4343C78.8274 22.4343 75.667 27.3053 69.6614 25.8439C69.6614 25.8439 69.4001 27.2755 72.0555 31.506C72.0555 31.506 73.1824 33.1363 72.6448 36.2081C72.6448 36.2081 75.7133 35.563 77.5213 36.8486C77.5213 36.8486 79.6816 35.1197 79.0643 31.7498C79.0643 31.7498 78.7674 27.9451 79.5267 26.223C79.5267 26.223 80.2284 24.2916 78.8274 22.4343Z" fill="url(#paint35_linear_1768_2989)"/>
<path d="M76.4463 40.7169C76.4463 40.7169 78.8132 37.1781 75.0066 37.1528C75.0066 37.1528 71.9958 36.6912 71.506 39.8601C71.506 39.8601 70.6404 43.5815 68.168 44.861C68.168 44.861 70.6715 44.8648 71.0216 47.1265C71.0216 47.1265 74.4204 44.6118 76.4463 40.7169Z" fill="url(#paint36_linear_1768_2989)"/>
<path d="M59.5947 51.4249C59.5947 51.4249 61.3048 52.3543 62.5296 53.6934C62.5296 53.6934 72.9075 49.0662 69.4647 45.9959C69.4647 45.9959 68.2087 44.8601 66.4425 46.1847C66.4425 46.1847 65.2571 47.2135 64.7712 48.1054C64.7712 48.1054 62.7635 50.4075 59.5947 51.4249Z" fill="url(#paint37_linear_1768_2989)"/>
<path d="M89.4391 35.446C89.4391 35.446 86.8247 43.3728 83.5186 47.1363C83.5186 47.1363 85.669 47.403 85.325 49.7266C85.325 49.7266 91.8956 42.5397 89.4391 35.446Z" fill="url(#paint38_linear_1768_2989)"/>
<path d="M84.1642 48.4425C84.1642 48.4425 83.3001 47.2081 82.0563 48.5181C82.0563 48.5181 79.41 51.8758 74.6709 53.9616C74.6709 53.9616 76.4121 55.1188 76.119 56.8936C76.119 56.8936 83.3942 53.3334 84.4201 50.1798C84.4201 50.1798 84.8575 49.352 84.1642 48.4425Z" fill="url(#paint39_linear_1768_2989)"/>
<path d="M63.8779 55.5888C63.8779 55.5888 65.5432 56.3004 66.7126 59.7314C66.7126 59.7314 76.7602 58.9274 75.1215 55.6867C75.1215 55.6867 74.7426 54.4278 73.3644 54.5837C73.3644 54.5837 69.0316 55.6102 66.9517 55.1509C66.9517 55.1509 64.8469 54.9369 63.8779 55.5888Z" fill="url(#paint40_linear_1768_2989)"/>
<path d="M94.264 42.2361C94.264 42.2361 91.2828 50.0367 87.8096 53.639C87.8096 53.639 89.9441 54.0043 89.493 56.311C89.493 56.311 96.3886 49.439 94.264 42.2361Z" fill="url(#paint41_linear_1768_2989)"/>
<path d="M88.3921 54.9714C88.3921 54.9714 87.5857 53.7019 86.2826 54.9516C86.2826 54.9516 83.4814 58.1785 78.6543 60.0397C78.6543 60.0397 80.3416 61.2801 79.9649 63.0381C79.9649 63.0381 87.3974 59.8203 88.5645 56.7187C88.5645 56.7187 89.0429 55.9154 88.3921 54.9714Z" fill="url(#paint42_linear_1768_2989)"/>
<path d="M67.7959 61.155C67.7959 61.155 69.4254 61.9468 70.4377 65.4321C70.4377 65.4321 80.5081 65.0996 79.0205 61.7855C79.0205 61.7855 78.7016 60.5107 77.3188 60.6008C77.3188 60.6008 72.9435 61.4194 70.8826 60.8623C70.8826 60.8623 68.7914 60.5527 67.7959 61.155Z" fill="url(#paint43_linear_1768_2989)"/>
<path d="M99.5042 51.3144C99.5042 51.3144 95.9733 58.8697 92.251 62.2143C92.251 62.2143 94.3543 62.7364 93.7393 65.0049C93.7393 65.0049 101.109 58.6465 99.5042 51.3144Z" fill="url(#paint44_linear_1768_2989)"/>
<path d="M92.739 63.5868C92.739 63.5868 92.0214 62.2615 90.6356 63.4125C90.6356 63.4125 87.6127 66.4354 82.6641 67.9404C82.6641 67.9404 84.2564 69.2947 83.7552 71.019C83.7552 71.019 91.4003 68.3516 92.7853 65.3478C92.7853 65.3478 93.3199 64.572 92.739 63.5868Z" fill="url(#paint45_linear_1768_2989)"/>
<path d="M71.752 68.2689C71.752 68.2689 73.3238 69.1769 74.0862 72.7264C74.0862 72.7264 84.1558 73.1146 82.9075 69.7065C82.9075 69.7065 82.6766 68.4126 81.2939 68.4003C81.2939 68.4003 76.8714 68.9025 74.8584 68.1993C74.8584 68.1993 72.7923 67.7377 71.752 68.2689Z" fill="url(#paint46_linear_1768_2989)"/>
<path d="M104.302 60.2636C104.302 60.2636 100.325 67.5949 96.4072 70.7073C96.4072 70.7073 98.4749 71.35 97.727 73.5742C97.727 73.5742 105.465 67.6836 104.302 60.2636Z" fill="url(#paint47_linear_1768_2989)"/>
<path d="M96.813 72.1047C96.813 72.1047 96.1775 70.7373 94.7271 71.8051C94.7271 71.8051 91.5242 74.6331 86.4951 75.8384C86.4951 75.8384 88.0047 77.2883 87.4002 78.979C87.4002 78.979 95.1873 76.777 96.7553 73.8619C96.7553 73.8619 97.3324 73.122 96.813 72.1047Z" fill="url(#paint48_linear_1768_2989)"/>
<path d="M75.583 75.4988C75.583 75.4988 77.1002 76.4993 77.6439 80.0909C77.6439 80.0909 87.6733 81.0944 86.6314 77.6137C86.6314 77.6137 86.4788 76.3098 85.0991 76.2127C85.0991 76.2127 80.6531 76.4458 78.6849 75.6211C78.6849 75.6211 76.6544 75.0349 75.583 75.4988Z" fill="url(#paint49_linear_1768_2989)"/>
<defs>
<linearGradient id="paint0_linear_1768_2989" x1="96.6123" y1="119.814" x2="104.249" y2="119.814" gradientUnits="userSpaceOnUse">
<stop stop-color="#0C0098"/>
<stop offset="1" stop-color="#BC87FF"/>
</linearGradient>
<linearGradient id="paint1_linear_1768_2989" x1="47.3281" y1="59.0497" x2="65.049" y2="59.0497" gradientUnits="userSpaceOnUse">
<stop stop-color="#0C0098"/>
<stop offset="1" stop-color="#BC87FF"/>
</linearGradient>
<linearGradient id="paint2_linear_1768_2989" x1="44.4736" y1="51.163" x2="47.8091" y2="51.163" gradientUnits="userSpaceOnUse">
<stop stop-color="#0C0098"/>
<stop offset="1" stop-color="#BC87FF"/>
</linearGradient>
<linearGradient id="paint3_linear_1768_2989" x1="48.127" y1="51.2641" x2="50.8321" y2="51.2641" gradientUnits="userSpaceOnUse">
<stop stop-color="#0C0098"/>
<stop offset="1" stop-color="#BC87FF"/>
</linearGradient>
<linearGradient id="paint4_linear_1768_2989" x1="50.8711" y1="49.8899" x2="53.5771" y2="49.8899" gradientUnits="userSpaceOnUse">
<stop stop-color="#0C0098"/>
<stop offset="1" stop-color="#BC87FF"/>
</linearGradient>
<linearGradient id="paint5_linear_1768_2989" x1="50.0713" y1="47.7285" x2="57.2843" y2="47.7285" gradientUnits="userSpaceOnUse">
<stop stop-color="#0C0098"/>
<stop offset="1" stop-color="#BC87FF"/>
</linearGradient>
<linearGradient id="paint6_linear_1768_2989" x1="49.457" y1="68.5014" x2="69.2858" y2="68.5014" gradientUnits="userSpaceOnUse">
<stop stop-color="#0C0098"/>
<stop offset="1" stop-color="#BC87FF"/>
</linearGradient>
<linearGradient id="paint7_linear_1768_2989" x1="52.2715" y1="75.4133" x2="73.0845" y2="75.4133" gradientUnits="userSpaceOnUse">
<stop stop-color="#0C0098"/>
<stop offset="1" stop-color="#BC87FF"/>
</linearGradient>
<linearGradient id="paint8_linear_1768_2989" x1="55.584" y1="82.5561" x2="76.676" y2="82.5561" gradientUnits="userSpaceOnUse">
<stop stop-color="#0C0098"/>
<stop offset="1" stop-color="#BC87FF"/>
</linearGradient>
<linearGradient id="paint9_linear_1768_2989" x1="59.3027" y1="90.0651" x2="77.7641" y2="90.0651" gradientUnits="userSpaceOnUse">
<stop stop-color="#0C0098"/>
<stop offset="1" stop-color="#BC87FF"/>
</linearGradient>
<linearGradient id="paint10_linear_1768_2989" x1="65.4355" y1="98.8005" x2="83.6906" y2="98.8005" gradientUnits="userSpaceOnUse">
<stop stop-color="#0C0098"/>
<stop offset="1" stop-color="#BC87FF"/>
</linearGradient>
<linearGradient id="paint11_linear_1768_2989" x1="79.25" y1="106.281" x2="94.6861" y2="106.281" gradientUnits="userSpaceOnUse">
<stop stop-color="#0C0098"/>
<stop offset="1" stop-color="#BC87FF"/>
</linearGradient>
<linearGradient id="paint12_linear_1768_2989" x1="94.1982" y1="110.623" x2="103.652" y2="110.623" gradientUnits="userSpaceOnUse">
<stop stop-color="#0C0098"/>
<stop offset="1" stop-color="#BC87FF"/>
</linearGradient>
<linearGradient id="paint13_linear_1768_2989" x1="86.6982" y1="127.84" x2="97.3564" y2="127.84" gradientUnits="userSpaceOnUse">
<stop stop-color="#0C0098"/>
<stop offset="1" stop-color="#BC87FF"/>
</linearGradient>
<linearGradient id="paint14_linear_1768_2989" x1="76.0742" y1="131.625" x2="86.7263" y2="131.625" gradientUnits="userSpaceOnUse">
<stop stop-color="#0C0098"/>
<stop offset="1" stop-color="#BC87FF"/>
</linearGradient>
<linearGradient id="paint15_linear_1768_2989" x1="66.0869" y1="124.535" x2="75.6596" y2="124.535" gradientUnits="userSpaceOnUse">
<stop stop-color="#0C0098"/>
<stop offset="1" stop-color="#BC87FF"/>
</linearGradient>
<linearGradient id="paint16_linear_1768_2989" x1="0" y1="42.7671" x2="10.8241" y2="42.7671" gradientUnits="userSpaceOnUse">
<stop stop-color="#0C0098"/>
<stop offset="1" stop-color="#BC87FF"/>
</linearGradient>
<linearGradient id="paint17_linear_1768_2989" x1="8.12988" y1="41.8838" x2="19.1094" y2="41.8838" gradientUnits="userSpaceOnUse">
<stop stop-color="#0C0098"/>
<stop offset="1" stop-color="#BC87FF"/>
</linearGradient>
<linearGradient id="paint18_linear_1768_2989" x1="11.5947" y1="57.3104" x2="26.2356" y2="57.3104" gradientUnits="userSpaceOnUse">
<stop stop-color="#0C0098"/>
<stop offset="1" stop-color="#BC87FF"/>
</linearGradient>
<linearGradient id="paint19_linear_1768_2989" x1="24.8857" y1="62.8552" x2="35.8614" y2="62.8552" gradientUnits="userSpaceOnUse">
<stop stop-color="#0C0098"/>
<stop offset="1" stop-color="#BC87FF"/>
</linearGradient>
<linearGradient id="paint20_linear_1768_2989" x1="35.9072" y1="61.3895" x2="46.1884" y2="61.3895" gradientUnits="userSpaceOnUse">
<stop stop-color="#0C0098"/>
<stop offset="1" stop-color="#BC87FF"/>
</linearGradient>
<linearGradient id="paint21_linear_1768_2989" x1="14.8174" y1="74.4143" x2="28.6154" y2="74.4143" gradientUnits="userSpaceOnUse">
<stop stop-color="#0C0098"/>
<stop offset="1" stop-color="#BC87FF"/>
</linearGradient>
<linearGradient id="paint22_linear_1768_2989" x1="28.2451" y1="73.9207" x2="39.846" y2="73.9207" gradientUnits="userSpaceOnUse">
<stop stop-color="#0C0098"/>
<stop offset="1" stop-color="#BC87FF"/>
</linearGradient>
<linearGradient id="paint23_linear_1768_2989" x1="39.1992" y1="68.3164" x2="47.7685" y2="68.3164" gradientUnits="userSpaceOnUse">
<stop stop-color="#0C0098"/>
<stop offset="1" stop-color="#BC87FF"/>
</linearGradient>
<linearGradient id="paint24_linear_1768_2989" x1="17.0869" y1="82.4764" x2="30.8849" y2="82.4764" gradientUnits="userSpaceOnUse">
<stop stop-color="#0C0098"/>
<stop offset="1" stop-color="#BC87FF"/>
</linearGradient>
<linearGradient id="paint25_linear_1768_2989" x1="30.5127" y1="81.9829" x2="42.1125" y2="81.9829" gradientUnits="userSpaceOnUse">
<stop stop-color="#0C0098"/>
<stop offset="1" stop-color="#BC87FF"/>
</linearGradient>
<linearGradient id="paint26_linear_1768_2989" x1="41.4688" y1="76.3825" x2="50.0391" y2="76.3825" gradientUnits="userSpaceOnUse">
<stop stop-color="#0C0098"/>
<stop offset="1" stop-color="#BC87FF"/>
</linearGradient>
<linearGradient id="paint27_linear_1768_2989" x1="20.748" y1="91.9177" x2="34.9538" y2="91.9177" gradientUnits="userSpaceOnUse">
<stop stop-color="#0C0098"/>
<stop offset="1" stop-color="#BC87FF"/>
</linearGradient>
<linearGradient id="paint28_linear_1768_2989" x1="34.3965" y1="90.2038" x2="45.876" y2="90.2038" gradientUnits="userSpaceOnUse">
<stop stop-color="#0C0098"/>
<stop offset="1" stop-color="#BC87FF"/>
</linearGradient>
<linearGradient id="paint29_linear_1768_2989" x1="45.0137" y1="83.8407" x2="53.2703" y2="83.8407" gradientUnits="userSpaceOnUse">
<stop stop-color="#0C0098"/>
<stop offset="1" stop-color="#BC87FF"/>
</linearGradient>
<linearGradient id="paint30_linear_1768_2989" x1="25.3027" y1="101.573" x2="39.8198" y2="101.573" gradientUnits="userSpaceOnUse">
<stop stop-color="#0C0098"/>
<stop offset="1" stop-color="#BC87FF"/>
</linearGradient>
<linearGradient id="paint31_linear_1768_2989" x1="39.0645" y1="98.5317" x2="50.3295" y2="98.5317" gradientUnits="userSpaceOnUse">
<stop stop-color="#0C0098"/>
<stop offset="1" stop-color="#BC87FF"/>
</linearGradient>
<linearGradient id="paint32_linear_1768_2989" x1="49.2324" y1="91.4065" x2="57.0951" y2="91.4065" gradientUnits="userSpaceOnUse">
<stop stop-color="#0C0098"/>
<stop offset="1" stop-color="#BC87FF"/>
</linearGradient>
<linearGradient id="paint33_linear_1768_2989" x1="66.3906" y1="8.84214" x2="78.4945" y2="8.84214" gradientUnits="userSpaceOnUse">
<stop stop-color="#0C0098"/>
<stop offset="1" stop-color="#BC87FF"/>
</linearGradient>
<linearGradient id="paint34_linear_1768_2989" x1="58.8213" y1="13.9815" x2="78.2533" y2="13.9815" gradientUnits="userSpaceOnUse">
<stop stop-color="#0C0098"/>
<stop offset="1" stop-color="#BC87FF"/>
</linearGradient>
<linearGradient id="paint35_linear_1768_2989" x1="69.6543" y1="29.6415" x2="79.7024" y2="29.6415" gradientUnits="userSpaceOnUse">
<stop stop-color="#0C0098"/>
<stop offset="1" stop-color="#BC87FF"/>
</linearGradient>
<linearGradient id="paint36_linear_1768_2989" x1="68.168" y1="42.1279" x2="77.1735" y2="42.1279" gradientUnits="userSpaceOnUse">
<stop stop-color="#0C0098"/>
<stop offset="1" stop-color="#BC87FF"/>
</linearGradient>
<linearGradient id="paint37_linear_1768_2989" x1="59.5947" y1="49.618" x2="70.1646" y2="49.618" gradientUnits="userSpaceOnUse">
<stop stop-color="#0C0098"/>
<stop offset="1" stop-color="#BC87FF"/>
</linearGradient>
<linearGradient id="paint38_linear_1768_2989" x1="83.5186" y1="42.5863" x2="89.989" y2="42.5863" gradientUnits="userSpaceOnUse">
<stop stop-color="#0C0098"/>
<stop offset="1" stop-color="#BC87FF"/>
</linearGradient>
<linearGradient id="paint39_linear_1768_2989" x1="74.6709" y1="52.4046" x2="84.5562" y2="52.4046" gradientUnits="userSpaceOnUse">
<stop stop-color="#0C0098"/>
<stop offset="1" stop-color="#BC87FF"/>
</linearGradient>
<linearGradient id="paint40_linear_1768_2989" x1="63.8779" y1="57.1509" x2="75.3022" y2="57.1509" gradientUnits="userSpaceOnUse">
<stop stop-color="#0C0098"/>
<stop offset="1" stop-color="#BC87FF"/>
</linearGradient>
<linearGradient id="paint41_linear_1768_2989" x1="87.8096" y1="49.2736" x2="94.6705" y2="49.2736" gradientUnits="userSpaceOnUse">
<stop stop-color="#0C0098"/>
<stop offset="1" stop-color="#BC87FF"/>
</linearGradient>
<linearGradient id="paint42_linear_1768_2989" x1="78.6543" y1="58.7197" x2="88.7339" y2="58.7197" gradientUnits="userSpaceOnUse">
<stop stop-color="#0C0098"/>
<stop offset="1" stop-color="#BC87FF"/>
</linearGradient>
<linearGradient id="paint43_linear_1768_2989" x1="67.7959" y1="63.0142" x2="79.1704" y2="63.0142" gradientUnits="userSpaceOnUse">
<stop stop-color="#0C0098"/>
<stop offset="1" stop-color="#BC87FF"/>
</linearGradient>
<linearGradient id="paint44_linear_1768_2989" x1="92.251" y1="58.1596" x2="99.7329" y2="58.1596" gradientUnits="userSpaceOnUse">
<stop stop-color="#0C0098"/>
<stop offset="1" stop-color="#BC87FF"/>
</linearGradient>
<linearGradient id="paint45_linear_1768_2989" x1="82.6641" y1="66.9808" x2="93.0098" y2="66.9808" gradientUnits="userSpaceOnUse">
<stop stop-color="#0C0098"/>
<stop offset="1" stop-color="#BC87FF"/>
</linearGradient>
<linearGradient id="paint46_linear_1768_2989" x1="71.752" y1="70.3765" x2="83.0146" y2="70.3765" gradientUnits="userSpaceOnUse">
<stop stop-color="#0C0098"/>
<stop offset="1" stop-color="#BC87FF"/>
</linearGradient>
<linearGradient id="paint47_linear_1768_2989" x1="96.4072" y1="66.9189" x2="104.421" y2="66.9189" gradientUnits="userSpaceOnUse">
<stop stop-color="#0C0098"/>
<stop offset="1" stop-color="#BC87FF"/>
</linearGradient>
<linearGradient id="paint48_linear_1768_2989" x1="86.4951" y1="75.1882" x2="97.0298" y2="75.1882" gradientUnits="userSpaceOnUse">
<stop stop-color="#0C0098"/>
<stop offset="1" stop-color="#BC87FF"/>
</linearGradient>
<linearGradient id="paint49_linear_1768_2989" x1="75.583" y1="77.7726" x2="86.7073" y2="77.7726" gradientUnits="userSpaceOnUse">
<stop stop-color="#0C0098"/>
<stop offset="1" stop-color="#BC87FF"/>
</linearGradient>
</defs>
</svg>
