<svg width="966" height="785" viewBox="0 0 966 785" fill="none" xmlns="http://www.w3.org/2000/svg">
<g filter="url(#filter0_dddddd_1652_12753)">
<path d="M616.572 302.998C616.611 302.779 616.791 302.586 617.072 302.636C617.331 302.682 617.589 302.729 617.849 302.775C618.129 302.826 618.231 303.069 618.192 303.288C618.153 303.506 617.973 303.699 617.692 303.649C617.433 303.602 617.174 303.556 616.915 303.51C616.634 303.459 616.533 303.216 616.572 302.998Z" fill="white"/>
<path d="M618.795 302.562L618.52 304.099L616.167 303.677L616.442 302.14L618.795 302.562Z" fill="#482D97"/>
<path d="M683.774 397.444C683.945 396.897 684.792 397.164 684.621 397.709C684.45 398.254 683.604 397.988 683.774 397.444Z" fill="white"/>
<path d="M685.043 396.898L684.505 398.614L683.015 398.147L683.553 396.431L685.043 396.898Z" fill="#482D97"/>
<path d="M619.551 393.736C619.652 393.172 620.526 393.33 620.425 393.892C620.324 394.455 619.451 394.297 619.551 393.736Z" fill="white"/>
<path d="M620.973 393.076L620.656 394.846L619.118 394.571L619.436 392.8L620.973 393.076Z" fill="#482D97"/>
<path d="M656.233 380.643C656.334 380.079 657.207 380.237 657.106 380.8C657.006 381.362 656.132 381.204 656.233 380.643Z" fill="white"/>
<path d="M657.559 379.846L657.221 381.733L655.683 381.457L656.022 379.57L657.559 379.846Z" fill="#482D97"/>
<path d="M607.461 345.069C607.5 344.85 607.68 344.657 607.961 344.707C608.349 344.777 608.736 344.846 609.125 344.916C609.407 344.967 609.508 345.209 609.469 345.427C609.43 345.646 609.249 345.84 608.969 345.79C608.58 345.72 608.192 345.65 607.804 345.581C607.522 345.53 607.422 345.286 607.461 345.069Z" fill="white"/>
<path d="M610.012 344.731L609.736 346.269L607.151 345.806L607.426 344.268L610.012 344.731Z" fill="#482D97"/>
<path d="M597.897 365.753C597.998 365.189 598.871 365.347 598.77 365.909C598.67 366.472 597.796 366.314 597.897 365.753Z" fill="white"/>
<path d="M599.34 364.977L599.023 366.747L597.486 366.471L597.803 364.701L599.34 364.977Z" fill="#482D97"/>
<path d="M613.719 440.43C613.758 440.211 613.938 440.019 614.219 440.069C614.607 440.139 614.995 440.208 615.383 440.278C615.665 440.328 615.766 440.571 615.727 440.789C615.687 441.008 615.507 441.202 615.227 441.151C614.839 441.082 614.451 441.012 614.062 440.943C613.78 440.892 613.68 440.648 613.719 440.43Z" fill="white"/>
<path d="M616.152 440.072L615.877 441.61L613.175 441.125L613.45 439.588L616.152 440.072Z" fill="#482D97"/>
<path d="M658.401 464.162C658.502 463.598 659.375 463.756 659.274 464.318C659.174 464.881 658.3 464.723 658.401 464.162Z" fill="white"/>
<path d="M661.827 479.95C661.928 479.386 662.801 479.544 662.7 480.106C662.599 480.669 661.726 480.511 661.827 479.95Z" fill="#482D97"/>
<path d="M663.248 479.29L662.91 481.176L661.373 480.901L661.711 479.014L663.248 479.29Z" fill="#482D97"/>
<path d="M669.776 444.781C669.877 444.217 670.75 444.375 670.649 444.937C670.549 445.5 669.675 445.342 669.776 444.781Z" fill="white"/>
<path d="M627.428 503.567C627.529 503.004 628.403 503.161 628.302 503.724C628.201 504.286 627.328 504.129 627.428 503.567Z" fill="white"/>
<path d="M642.417 486.823C642.518 486.259 643.391 486.417 643.29 486.979C643.189 487.542 642.316 487.384 642.417 486.823Z" fill="white"/>
<path d="M662.764 510.53C662.865 509.966 663.738 510.124 663.638 510.686C663.537 511.249 662.664 511.091 662.764 510.53Z" fill="white"/>
<path d="M629.44 479.568C629.541 479.005 630.414 479.162 630.313 479.725C630.213 480.287 629.339 480.13 629.44 479.568Z" fill="white"/>
<path d="M631.952 452.611C632.053 452.047 632.926 452.205 632.825 452.767C632.724 453.33 631.851 453.172 631.952 452.611Z" fill="white"/>
<path d="M571.036 404.836C571.137 404.273 572.01 404.43 571.909 404.993C571.808 405.555 570.935 405.398 571.036 404.836Z" fill="white"/>
<path d="M572.342 404.156L572.004 406.042L570.466 405.767L570.804 403.88L572.342 404.156Z" fill="#482D97"/>
<path d="M541.449 399.871C541.488 399.652 541.668 399.46 541.949 399.51C542.189 399.553 542.43 399.596 542.67 399.639C542.952 399.69 543.052 399.933 543.013 400.15C542.974 400.369 542.794 400.563 542.513 400.513C542.273 400.47 542.032 400.427 541.792 400.384C541.511 400.333 541.41 400.089 541.449 399.871Z" fill="white"/>
<path d="M543.555 399.454L543.279 400.991L540.927 400.57L541.202 399.033L543.555 399.454Z" fill="#482D97"/>
<path d="M557.29 366.016C557.391 365.452 558.264 365.61 558.163 366.173C558.062 366.735 557.189 366.577 557.29 366.016Z" fill="white"/>
<path d="M558.615 365.219L558.256 367.222L556.719 366.946L557.078 364.943L558.615 365.219Z" fill="#482D97"/>
<path d="M572.549 383.796C572.65 383.233 573.524 383.39 573.423 383.953C573.322 384.515 572.449 384.358 572.549 383.796Z" fill="white"/>
<path d="M573.951 383.253L573.634 385.023L572.097 384.748L572.414 382.978L573.951 383.253Z" fill="#482D97"/>
<path d="M576.719 346.977C576.82 346.413 577.694 346.571 577.593 347.134C577.492 347.696 576.619 347.538 576.719 346.977Z" fill="white"/>
<path d="M578.279 346.222L577.962 347.992L576.075 347.654L576.392 345.884L578.279 346.222Z" fill="#482D97"/>
<path d="M583.426 367.374C583.527 366.81 584.401 366.968 584.3 367.53C584.199 368.093 583.326 367.935 583.426 367.374Z" fill="white"/>
<path d="M584.87 366.597L584.531 368.484L582.994 368.208L583.332 366.322L584.87 366.597Z" fill="#482D97"/>
<path d="M599.428 332.546C599.529 331.983 600.402 332.141 600.302 332.703C600.201 333.266 599.328 333.108 599.428 332.546Z" fill="white"/>
<path d="M600.735 331.866L600.417 333.636L598.88 333.361L599.197 331.59L600.735 331.866Z" fill="#482D97"/>
<path d="M586.969 310.183C587.008 309.964 587.188 309.771 587.469 309.822C587.856 309.891 588.245 309.961 588.633 310.03C588.915 310.081 589.016 310.324 588.977 310.542C588.937 310.761 588.757 310.954 588.477 310.904C588.089 310.834 587.7 310.765 587.312 310.695C587.03 310.645 586.93 310.401 586.969 310.183Z" fill="white"/>
<path d="M589.381 309.941L589.105 311.479L586.403 310.995L586.679 309.457L589.381 309.941Z" fill="#482D97"/>
<path d="M443.475 295.14C443.576 294.576 444.449 294.734 444.349 295.296C444.248 295.859 443.375 295.702 443.475 295.14Z" fill="white"/>
<path d="M444.994 294.617L444.677 296.388L442.79 296.05L443.107 294.279L444.994 294.617Z" fill="#482D97"/>
<path d="M469.944 294.525C470.045 293.962 470.918 294.12 470.817 294.682C470.717 295.245 469.843 295.087 469.944 294.525Z" fill="white"/>
<path d="M471.25 293.845L470.933 295.615L469.396 295.34L469.713 293.569L471.25 293.845Z" fill="#482D97"/>
<path d="M500.339 306.74C500.44 306.177 501.313 306.334 501.212 306.896C501.111 307.459 500.238 307.302 500.339 306.74Z" fill="white"/>
<path d="M501.76 306.08L501.422 307.967L499.885 307.691L500.223 305.805L501.76 306.08Z" fill="#482D97"/>
<path d="M481.885 332.028C481.986 331.464 482.86 331.622 482.759 332.184C482.658 332.747 481.785 332.589 481.885 332.028Z" fill="white"/>
<path d="M483.17 331.463L482.853 333.234L481.316 332.958L481.633 331.188L483.17 331.463Z" fill="#482D97"/>
<path d="M465.961 318.193C466.062 317.629 466.936 317.787 466.835 318.349C466.734 318.912 465.861 318.754 465.961 318.193Z" fill="#482D97"/>
<path d="M467.287 317.396L466.949 319.282L465.412 319.007L465.75 317.12L467.287 317.396Z" fill="#482D97"/>
<path d="M516.137 297.231C516.238 296.667 517.111 296.825 517.011 297.387C516.91 297.95 516.037 297.792 516.137 297.231Z" fill="white"/>
<path d="M517.559 296.571L517.242 298.341L515.704 298.066L516.021 296.295L517.559 296.571Z" fill="#482D97"/>
<path d="M527.139 304.153C527.24 303.59 528.113 303.748 528.013 304.309C527.912 304.872 527.039 304.714 527.139 304.153Z" fill="white"/>
<path d="M528.561 303.493L528.223 305.38L526.685 305.105L527.023 303.218L528.561 303.493Z" fill="#482D97"/>
<path d="M523.819 323.875C523.92 323.312 524.793 323.47 524.692 324.032C524.592 324.594 523.718 324.437 523.819 323.875Z" fill="white"/>
<path d="M525.221 323.332L524.904 325.102L523.366 324.826L523.683 323.056L525.221 323.332Z" fill="#482D97"/>
<path d="M518.86 341.294C518.961 340.73 519.834 340.888 519.733 341.45C519.633 342.013 518.759 341.855 518.86 341.294Z" fill="white"/>
<path d="M520.07 340.476L519.732 342.363L518.195 342.087L518.533 340.2L520.07 340.476Z" fill="#482D97"/>
<path d="M511.426 361.353C511.465 361.134 511.645 360.941 511.926 360.992C512.313 361.061 512.702 361.131 513.09 361.2C513.372 361.251 513.473 361.494 513.434 361.711C513.394 361.93 513.214 362.124 512.934 362.074C512.546 362.004 512.157 361.935 511.769 361.865C511.487 361.815 511.387 361.571 511.426 361.353Z" fill="white"/>
<path d="M513.84 361.111L513.564 362.648L510.979 362.185L511.254 360.648L513.84 361.111Z" fill="#482D97"/>
<path d="M503.352 349.01C503.422 348.621 503.492 348.233 503.561 347.845C503.662 347.282 504.535 347.439 504.435 348.002C504.365 348.39 504.296 348.777 504.226 349.166C504.125 349.729 503.252 349.571 503.352 349.01Z" fill="white"/>
<path d="M504.887 347.048L504.319 350.216L502.782 349.94L503.35 346.773L504.887 347.048Z" fill="#482D97"/>
<path d="M506.049 333.053C506.15 332.49 507.024 332.647 506.923 333.21C506.822 333.772 505.949 333.615 506.049 333.053Z" fill="white"/>
<path d="M507.375 332.256L507.058 334.026L505.521 333.751L505.838 331.98L507.375 332.256Z" fill="#482D97"/>
<path d="M481.534 346.166C481.635 345.602 482.508 345.76 482.407 346.322C482.306 346.885 481.433 346.727 481.534 346.166Z" fill="white"/>
<path d="M482.819 345.601L482.501 347.371L480.964 347.096L481.281 345.326L482.819 345.601Z" fill="#482D97"/>
<path d="M453.903 353.683C454.004 353.119 454.877 353.277 454.776 353.84C454.676 354.402 453.802 354.244 453.903 353.683Z" fill="white"/>
<path d="M455.463 352.928L455.146 354.698L453.259 354.36L453.576 352.59L455.463 352.928Z" fill="#482D97"/>
<path d="M398.952 378.912C399.053 378.348 399.926 378.506 399.825 379.068C399.724 379.631 398.851 379.473 398.952 378.912Z" fill="white"/>
<path d="M400.512 378.156L400.194 379.926L398.308 379.588L398.625 377.818L400.512 378.156Z" fill="#482D97"/>
<path d="M427.891 375.67C427.992 375.107 428.865 375.264 428.765 375.827C428.664 376.389 427.791 376.232 427.891 375.67Z" fill="white"/>
<path d="M429.451 374.915L429.113 376.802L427.226 376.463L427.564 374.577L429.451 374.915Z" fill="#482D97"/>
<path d="M412.797 356.905C412.898 356.341 413.772 356.499 413.671 357.061C413.57 357.624 412.697 357.466 412.797 356.905Z" fill="white"/>
<path d="M414.104 356.224L413.786 357.994L412.249 357.719L412.566 355.949L414.104 356.224Z" fill="#482D97"/>
<path d="M409.077 318.758C409.178 318.195 410.051 318.352 409.95 318.915C409.849 319.477 408.976 319.32 409.077 318.758Z" fill="white"/>
<path d="M410.362 318.194L410.044 319.964L408.507 319.689L408.824 317.918L410.362 318.194Z" fill="#482D97"/>
<path d="M386.512 344.382C386.551 344.163 386.731 343.971 387.011 344.021C387.399 344.09 387.788 344.16 388.176 344.23C388.458 344.28 388.559 344.523 388.52 344.741C388.48 344.96 388.3 345.153 388.02 345.103C387.632 345.034 387.243 344.964 386.855 344.894C386.573 344.844 386.473 344.6 386.512 344.382Z" fill="white"/>
<path d="M388.967 343.907L388.691 345.444L385.989 344.96L386.265 343.423L388.967 343.907Z" fill="#482D97"/>
<path d="M373.059 327.906C373.16 327.342 374.033 327.5 373.933 328.062C373.832 328.625 372.959 328.467 373.059 327.906Z" fill="white"/>
<path d="M374.481 327.246L374.143 329.132L372.605 328.857L372.943 326.97L374.481 327.246Z" fill="#482D97"/>
<path d="M393.133 317.088C393.234 316.525 394.108 316.682 394.007 317.245C393.906 317.807 393.033 317.65 393.133 317.088Z" fill="white"/>
<path d="M394.44 316.408L394.102 318.295L392.564 318.019L392.902 316.132L394.44 316.408Z" fill="#482D97"/>
<path d="M424.006 338.51C424.107 337.947 424.981 338.104 424.88 338.667C424.779 339.229 423.906 339.072 424.006 338.51Z" fill="white"/>
<path d="M425.313 337.83L424.995 339.6L423.458 339.324L423.775 337.554L425.313 337.83Z" fill="#482D97"/>
<path d="M422.258 300.695C422.359 300.132 423.233 300.29 423.132 300.852C423.031 301.415 422.158 301.257 422.258 300.695Z" fill="white"/>
<path d="M423.68 300.036L423.363 301.806L421.825 301.53L422.142 299.76L423.68 300.036Z" fill="#482D97"/>
<path d="M444.413 325.72C444.514 325.157 445.387 325.314 445.286 325.877C445.185 326.439 444.312 326.282 444.413 325.72Z" fill="white"/>
<path d="M445.951 325.081L445.613 326.968L443.726 326.63L444.064 324.743L445.951 325.081Z" fill="#482D97"/>
<path d="M411.088 294.759C411.189 294.196 412.063 294.354 411.962 294.915C411.861 295.478 410.988 295.321 411.088 294.759Z" fill="white"/>
<path d="M412.414 293.962L412.097 295.732L410.56 295.457L410.877 293.687L412.414 293.962Z" fill="#482D97"/>
<path d="M331.29 335.072C331.391 334.508 332.264 334.666 332.163 335.228C332.062 335.791 331.189 335.633 331.29 335.072Z" fill="white"/>
<path d="M332.711 334.412L332.394 336.182L330.857 335.907L331.174 334.136L332.711 334.412Z" fill="#482D97"/>
<path d="M525.476 314.029C525.516 313.81 525.696 313.617 525.976 313.667C526.365 313.737 526.753 313.807 527.141 313.876C527.423 313.927 527.524 314.169 527.484 314.388C527.445 314.606 527.265 314.8 526.984 314.75C526.597 314.68 526.209 314.611 525.82 314.541C525.538 314.49 525.437 314.247 525.476 314.029Z" fill="white"/>
<path d="M528.008 313.808L527.732 315.345L524.798 314.819L525.073 313.282L528.008 313.808Z" fill="#482D97"/>
<path d="M524.942 341.304C525.043 340.741 525.916 340.898 525.815 341.461C525.715 342.023 524.841 341.866 524.942 341.304Z" fill="white"/>
<path d="M526.248 340.624L525.931 342.394L524.394 342.118L524.711 340.348L526.248 340.624Z" fill="#482D97"/>
<path d="M540.555 344.946C540.656 344.382 541.529 344.54 541.429 345.102C541.328 345.665 540.455 345.507 540.555 344.946Z" fill="white"/>
<path d="M542.094 344.307L541.776 346.077L539.89 345.739L540.207 343.969L542.094 344.307Z" fill="#482D97"/>
<path d="M531.524 338.355C531.625 337.792 532.498 337.949 532.397 338.512C532.297 339.074 531.423 338.917 531.524 338.355Z" fill="white"/>
<path d="M532.852 337.558L532.535 339.328L530.997 339.053L531.314 337.283L532.852 337.558Z" fill="#482D97"/>
<path d="M548.61 345.288C548.711 344.724 549.584 344.882 549.483 345.444C549.383 346.007 548.509 345.849 548.61 345.288Z" fill="white"/>
<path d="M550.148 344.649L549.831 346.419L547.945 346.081L548.262 344.311L550.148 344.649Z" fill="#482D97"/>
<path d="M552.989 355.337C553.059 354.948 553.128 354.561 553.198 354.173C553.299 353.609 554.172 353.767 554.071 354.329C554.002 354.717 553.932 355.105 553.863 355.494C553.762 356.056 552.889 355.899 552.989 355.337Z" fill="white"/>
<path d="M554.504 353.492L553.978 356.427L552.441 356.152L552.967 353.217L554.504 353.492Z" fill="#482D97"/>
<path d="M545.124 365.997C545.225 365.433 546.098 365.591 545.997 366.153C545.896 366.716 545.023 366.558 545.124 365.997Z" fill="white"/>
<path d="M546.662 365.358L546.324 367.244L544.437 366.906L544.775 365.02L546.662 365.358Z" fill="#482D97"/>
<path d="M537.879 372.889C537.98 372.325 538.854 372.483 538.753 373.046C538.652 373.608 537.779 373.45 537.879 372.889Z" fill="white"/>
<path d="M539.323 372.113L538.984 373.999L537.447 373.724L537.785 371.837L539.323 372.113Z" fill="#482D97"/>
<path d="M525.86 384.049C525.961 383.486 526.834 383.643 526.733 384.206C526.633 384.768 525.759 384.611 525.86 384.049Z" fill="white"/>
<path d="M527.166 383.369L526.828 385.255L525.291 384.98L525.629 383.093L527.166 383.369Z" fill="#482D97"/>
<path d="M517.141 387.652C517.242 387.088 518.115 387.246 518.015 387.808C517.914 388.371 517.041 388.213 517.141 387.652Z" fill="white"/>
<path d="M518.426 387.088L518.109 388.858L516.571 388.582L516.889 386.812L518.426 387.088Z" fill="#482D97"/>
<path d="M505.971 381.715C506.072 381.152 506.945 381.309 506.845 381.872C506.744 382.434 505.871 382.277 505.971 381.715Z" fill="white"/>
<path d="M507.51 381.076L507.193 382.847L505.306 382.509L505.623 380.738L507.51 381.076Z" fill="#482D97"/>
<path d="M497.601 371.195C497.641 370.976 497.821 370.783 498.101 370.833C498.489 370.903 498.878 370.973 499.266 371.042C499.548 371.093 499.649 371.335 499.609 371.553C499.57 371.772 499.39 371.966 499.109 371.916C498.722 371.846 498.333 371.776 497.945 371.707C497.663 371.656 497.562 371.412 497.601 371.195Z" fill="white"/>
<path d="M500.057 370.72L499.781 372.257L497.079 371.773L497.355 370.236L500.057 370.72Z" fill="#482D97"/>
<path d="M500.905 363.624C501.006 363.06 501.879 363.218 501.778 363.78C501.678 364.343 500.804 364.185 500.905 363.624Z" fill="white"/>
<path d="M502.19 363.059L501.872 364.829L500.335 364.554L500.652 362.784L502.19 363.059Z" fill="#482D97"/>
<path d="M506.508 354.426C506.609 353.863 507.483 354.02 507.382 354.583C507.281 355.145 506.408 354.988 506.508 354.426Z" fill="white"/>
<path d="M507.952 353.65L507.634 355.42L506.097 355.145L506.414 353.374L507.952 353.65Z" fill="#482D97"/>
<path d="M513.752 347.533C513.853 346.969 514.727 347.127 514.626 347.689C514.525 348.252 513.652 348.094 513.752 347.533Z" fill="white"/>
<path d="M515.195 346.756L514.857 348.643L513.32 348.368L513.658 346.481L515.195 346.756Z" fill="#482D97"/>
<path d="M559.944 350.238C560.045 349.674 560.918 349.832 560.817 350.394C560.717 350.957 559.843 350.799 559.944 350.238Z" fill="white"/>
<path d="M561.27 349.44L560.952 351.211L559.415 350.935L559.732 349.165L561.27 349.44Z" fill="#482D97"/>
<path d="M571.11 356.208C571.17 355.872 571.663 355.652 571.915 356.014C572.234 356.473 572.553 356.93 572.871 357.389C572.945 357.494 572.966 357.604 572.948 357.702C572.888 358.037 572.395 358.258 572.143 357.895C571.824 357.437 571.505 356.979 571.187 356.522C571.112 356.415 571.092 356.307 571.11 356.208Z" fill="white"/>
<path d="M573.584 355.718L573.058 358.653L570.356 358.169L570.882 355.234L573.584 355.718Z" fill="#482D97"/>
<path d="M582.948 358.166C583.049 357.603 583.922 357.76 583.821 358.323C583.72 358.886 582.847 358.728 582.948 358.166Z" fill="white"/>
<path d="M584.369 357.506L584.031 359.393L582.494 359.118L582.832 357.231L584.369 357.506Z" fill="#482D97"/>
<path d="M597.416 356.56C597.455 356.341 597.635 356.149 597.916 356.199C598.305 356.269 598.693 356.338 599.08 356.408C599.362 356.458 599.463 356.701 599.424 356.919C599.385 357.138 599.205 357.332 598.924 357.281C598.536 357.212 598.148 357.142 597.759 357.073C597.477 357.022 597.377 356.778 597.416 356.56Z" fill="white"/>
<path d="M599.967 356.223L599.691 357.76L597.106 357.297L597.381 355.76L599.967 356.223Z" fill="#482D97"/>
<path d="M607.444 357.22C607.545 356.656 608.418 356.814 608.317 357.376C608.217 357.939 607.343 357.781 607.444 357.22Z" fill="white"/>
<path d="M608.77 356.422L608.432 358.309L606.894 358.034L607.232 356.147L608.77 356.422Z" fill="#482D97"/>
<path d="M619.444 358.226C619.545 357.662 620.418 357.82 620.317 358.382C620.217 358.945 619.343 358.787 619.444 358.226Z" fill="white"/>
<path d="M620.865 357.566L620.548 359.336L619.011 359.061L619.328 357.29L620.865 357.566Z" fill="#482D97"/>
<path d="M511.204 398.821C511.305 398.258 512.178 398.415 512.077 398.978C511.976 399.54 511.103 399.383 511.204 398.821Z" fill="white"/>
<path d="M512.647 398.045L512.33 399.815L510.792 399.54L511.11 397.77L512.647 398.045Z" fill="#482D97"/>
<path d="M393.172 292.757C393.273 292.194 394.147 292.352 394.046 292.913C393.945 293.476 393.072 293.318 393.172 292.757Z" fill="white"/>
<path d="M394.574 292.213L394.257 293.984L392.72 293.708L393.037 291.938L394.574 292.213Z" fill="#482D97"/>
<path d="M421.633 280.309C421.734 279.745 422.608 279.903 422.507 280.465C422.406 281.028 421.533 280.87 421.633 280.309Z" fill="white"/>
<path d="M422.94 279.628L422.622 281.398L421.085 281.123L421.402 279.353L422.94 279.628Z" fill="#482D97"/>
<path d="M399.13 269.422C399.23 268.859 400.104 269.017 400.003 269.578C399.902 270.141 399.029 269.984 399.13 269.422Z" fill="white"/>
<path d="M400.551 268.762L400.234 270.532L398.697 270.257L399.014 268.487L400.551 268.762Z" fill="#482D97"/>
<path d="M458.61 289.575C458.711 289.012 459.584 289.169 459.483 289.731C459.383 290.294 458.509 290.137 458.61 289.575Z" fill="white"/>
<path d="M460.17 288.819L459.853 290.59L457.966 290.252L458.283 288.481L460.17 288.819Z" fill="#482D97"/>
<path d="M453.649 306.993C453.75 306.43 454.623 306.588 454.523 307.15C454.422 307.712 453.548 307.555 453.649 306.993Z" fill="white"/>
<path d="M454.955 306.313L454.638 308.083L453.101 307.807L453.418 306.037L454.955 306.313Z" fill="#482D97"/>
<path d="M383.258 423.946C383.297 423.727 383.477 423.535 383.758 423.585C384.145 423.654 384.534 423.724 384.922 423.794C385.204 423.844 385.305 424.087 385.266 424.305C385.226 424.524 385.046 424.717 384.766 424.667C384.378 424.598 383.989 424.528 383.601 424.458C383.319 424.408 383.219 424.164 383.258 423.946Z" fill="white"/>
<path d="M385.83 423.492L385.555 425.03L382.62 424.504L382.895 422.966L385.83 423.492Z" fill="#482D97"/>
<path d="M382.245 442.014C382.346 441.45 383.219 441.608 383.118 442.171C383.017 442.733 382.144 442.575 382.245 442.014Z" fill="white"/>
<path d="M383.647 441.471L383.33 443.241L381.792 442.966L382.109 441.195L383.647 441.471Z" fill="#482D97"/>
<path d="M378.073 454.68C378.143 454.291 378.212 453.903 378.282 453.516C378.383 452.952 379.256 453.11 379.155 453.672C379.086 454.06 379.016 454.448 378.947 454.837C378.846 455.399 377.973 455.242 378.073 454.68Z" fill="white"/>
<path d="M379.492 452.697L378.966 455.632L377.429 455.357L377.955 452.422L379.492 452.697Z" fill="#482D97"/>
<path d="M375.958 467.322C376.059 466.758 376.932 466.916 376.831 467.478C376.73 468.041 375.857 467.883 375.958 467.322Z" fill="white"/>
<path d="M377.401 466.545L377.063 468.432L375.525 468.157L375.863 466.27L377.401 466.545Z" fill="#482D97"/>
<path d="M384.918 414.085C384.957 413.866 385.137 413.673 385.418 413.724C385.806 413.793 386.195 413.863 386.583 413.932C386.864 413.983 386.965 414.226 386.926 414.443C386.887 414.662 386.707 414.856 386.426 414.806C386.038 414.736 385.649 414.666 385.261 414.597C384.98 414.546 384.879 414.303 384.918 414.085Z" fill="white"/>
<path d="M387.469 413.747L387.194 415.284L384.259 414.759L384.534 413.221L387.469 413.747Z" fill="#482D97"/>
<path d="M453.198 381.958C453.299 381.395 454.172 381.552 454.071 382.115C453.97 382.678 453.097 382.52 453.198 381.958Z" fill="white"/>
<path d="M454.526 381.161L454.167 383.164L452.629 382.889L452.988 380.886L454.526 381.161Z" fill="#482D97"/>
<path d="M479.502 382.33C479.603 381.766 480.477 381.924 480.376 382.487C480.275 383.049 479.402 382.891 479.502 382.33Z" fill="white"/>
<path d="M480.924 381.67L480.586 383.557L479.049 383.281L479.387 381.395L480.924 381.67Z" fill="#482D97"/>
<path d="M691.329 400.744C691.5 400.198 692.346 400.464 692.176 401.01C692.005 401.555 691.158 401.289 691.329 400.744Z" fill="white"/>
<path d="M692.858 400.156L692.285 401.985L690.794 401.518L691.367 399.689L692.858 400.156Z" fill="#482D97"/>
<path d="M312.543 338.001C312.644 337.437 313.518 337.595 313.417 338.157C313.316 338.72 312.443 338.562 312.543 338.001Z" fill="white"/>
<path d="M313.85 337.32L313.512 339.207L311.974 338.932L312.312 337.045L313.85 337.32Z" fill="#482D97"/>
<path d="M564.758 321.64C564.859 321.077 565.733 321.235 565.632 321.797C565.531 322.359 564.658 322.202 564.758 321.64Z" fill="white"/>
<path d="M566.064 320.96L565.747 322.73L564.21 322.454L564.527 320.684L566.064 320.96Z" fill="#482D97"/>
<path d="M547.839 313.722C547.939 313.159 548.813 313.316 548.712 313.878C548.611 314.441 547.738 314.284 547.839 313.722Z" fill="white"/>
<path d="M549.357 313.199L549.04 314.97L547.153 314.632L547.471 312.861L549.357 313.199Z" fill="#482D97"/>
<path d="M596.049 388.766C596.15 388.202 597.024 388.36 596.923 388.923C596.822 389.485 595.949 389.327 596.049 388.766Z" fill="white"/>
<path d="M597.356 388.086L597.018 389.972L595.48 389.697L595.818 387.81L597.356 388.086Z" fill="#482D97"/>
<path d="M610.481 411.476C610.582 410.912 611.455 411.07 611.354 411.633C611.254 412.195 610.38 412.037 610.481 411.476Z" fill="white"/>
<path d="M611.924 410.7L611.565 412.703L610.028 412.427L610.387 410.424L611.924 410.7Z" fill="#482D97"/>
<path d="M358.657 389.368C358.758 388.804 359.631 388.962 359.53 389.525C359.43 390.087 358.556 389.929 358.657 389.368Z" fill="white"/>
<path d="M359.846 388.667L359.508 390.553L358.087 390.299L358.425 388.412L359.846 388.667Z" fill="#482D97"/>
<path d="M337.46 382.758C337.561 382.194 338.434 382.352 338.333 382.914C338.232 383.477 337.359 383.319 337.46 382.758Z" fill="white"/>
<path d="M338.862 382.214L338.544 383.985L337.007 383.709L337.324 381.939L338.862 382.214Z" fill="#482D97"/>
<path d="M352.614 365.027C352.715 364.464 353.588 364.621 353.487 365.184C353.386 365.746 352.513 365.589 352.614 365.027Z" fill="white"/>
<path d="M354.057 364.251L353.698 366.254L352.161 365.979L352.52 363.975L354.057 364.251Z" fill="#482D97"/>
<path d="M344.225 366.672C344.264 366.453 344.444 366.261 344.724 366.311C345.112 366.38 345.501 366.45 345.889 366.52C346.171 366.57 346.272 366.813 346.233 367.031C346.193 367.25 346.013 367.443 345.732 367.393C345.345 367.324 344.956 367.254 344.568 367.184C344.286 367.134 344.185 366.89 344.225 366.672Z" fill="white"/>
<path d="M346.797 366.218L346.48 367.989L343.894 367.525L344.211 365.755L346.797 366.218Z" fill="#482D97"/>
<path d="M333.699 368.956C333.738 368.737 333.918 368.545 334.199 368.595C334.587 368.665 334.976 368.734 335.364 368.804C335.645 368.854 335.746 369.097 335.707 369.315C335.668 369.534 335.488 369.728 335.207 369.677C334.819 369.608 334.43 369.538 334.042 369.469C333.761 369.418 333.66 369.174 333.699 368.956Z" fill="white"/>
<path d="M336.133 368.598L335.857 370.135L333.155 369.651L333.431 368.114L336.133 368.598Z" fill="#482D97"/>
<path d="M327.288 370.905C327.389 370.341 328.262 370.499 328.161 371.061C328.06 371.624 327.187 371.466 327.288 370.905Z" fill="white"/>
<path d="M328.594 370.224L328.277 371.994L326.739 371.719L327.056 369.949L328.594 370.224Z" fill="#482D97"/>
<path d="M314.458 374.83C314.559 374.266 315.432 374.424 315.331 374.986C315.23 375.549 314.357 375.391 314.458 374.83Z" fill="white"/>
<path d="M315.996 374.191L315.658 376.077L313.771 375.739L314.109 373.853L315.996 374.191Z" fill="#482D97"/>
<path d="M297.288 392.406C297.358 392.017 297.427 391.63 297.497 391.242C297.598 390.678 298.471 390.836 298.37 391.398C298.301 391.786 298.231 392.174 298.161 392.563C298.061 393.125 297.187 392.968 297.288 392.406Z" fill="white"/>
<path d="M299.014 390.719L298.488 393.654L296.601 393.316L297.127 390.381L299.014 390.719Z" fill="#482D97"/>
<path d="M296.647 408.338C296.748 407.775 297.621 407.932 297.52 408.495C297.42 409.057 296.546 408.9 296.647 408.338Z" fill="white"/>
<path d="M297.953 407.658L297.636 409.428L296.099 409.153L296.416 407.382L297.953 407.658Z" fill="#482D97"/>
<path d="M296.627 420.503C296.728 419.94 297.602 420.097 297.501 420.66C297.4 421.222 296.527 421.065 296.627 420.503Z" fill="white"/>
<path d="M297.912 419.939L297.595 421.709L296.058 421.434L296.375 419.664L297.912 419.939Z" fill="#482D97"/>
<path d="M296.605 432.683C296.645 432.464 296.825 432.272 297.105 432.322C297.493 432.392 297.882 432.461 298.27 432.531C298.552 432.581 298.653 432.824 298.614 433.042C298.574 433.261 298.394 433.455 298.113 433.404C297.726 433.335 297.337 433.265 296.949 433.196C296.667 433.145 296.566 432.901 296.605 432.683Z" fill="white"/>
<path d="M299.156 432.346L298.881 433.884L296.295 433.42L296.571 431.883L299.156 432.346Z" fill="#482D97"/>
<path d="M304.497 433.997C304.598 433.433 305.471 433.591 305.37 434.154C305.269 434.716 304.396 434.558 304.497 433.997Z" fill="white"/>
<path d="M305.94 433.221L305.622 434.991L304.085 434.716L304.402 432.945L305.94 433.221Z" fill="#482D97"/>
<path d="M316.328 436.003C316.367 435.784 316.547 435.592 316.828 435.642C317.216 435.711 317.605 435.781 317.992 435.851C318.274 435.901 318.375 436.144 318.336 436.362C318.297 436.581 318.117 436.774 317.836 436.724C317.448 436.655 317.059 436.585 316.671 436.515C316.39 436.465 316.289 436.221 316.328 436.003Z" fill="white"/>
<path d="M318.879 435.666L318.603 437.203L316.018 436.74L316.293 435.203L318.879 435.666Z" fill="#482D97"/>
<path d="M330.463 436.374C330.523 436.038 331.017 435.818 331.27 436.182C331.588 436.639 331.906 437.096 332.226 437.554C332.299 437.661 332.319 437.769 332.302 437.868C332.241 438.203 331.749 438.424 331.495 438.061C331.177 437.603 330.859 437.145 330.539 436.688C330.466 436.581 330.446 436.473 330.463 436.374Z" fill="white"/>
<path d="M333.172 435.926L332.646 438.861L329.711 438.335L330.237 435.4L333.172 435.926Z" fill="#482D97"/>
<path d="M331.963 427.465C332.064 426.902 332.938 427.059 332.837 427.622C332.736 428.184 331.863 428.027 331.963 427.465Z" fill="white"/>
<path d="M333.48 426.943L333.163 428.713L331.626 428.438L331.943 426.667L333.48 426.943Z" fill="#482D97"/>
<path d="M332.481 412.342C332.582 411.778 333.455 411.936 333.354 412.498C333.254 413.061 332.38 412.903 332.481 412.342Z" fill="white"/>
<path d="M333.766 411.777L333.448 413.548L331.911 413.272L332.228 411.502L333.766 411.777Z" fill="#482D97"/>
<path d="M330.694 398.858C330.795 398.294 331.668 398.452 331.567 399.014C331.467 399.577 330.593 399.419 330.694 398.858Z" fill="white"/>
<path d="M332 398.177L331.662 400.064L330.125 399.789L330.463 397.902L332 398.177Z" fill="#482D97"/>
<path d="M320.667 398.184C320.768 397.62 321.641 397.778 321.54 398.341C321.439 398.903 320.566 398.745 320.667 398.184Z" fill="white"/>
<path d="M321.973 397.503L321.655 399.274L320.118 398.998L320.435 397.228L321.973 397.503Z" fill="#482D97"/>
<path d="M309.975 401.455C310.076 400.891 310.949 401.049 310.849 401.611C310.748 402.174 309.875 402.016 309.975 401.455Z" fill="white"/>
<path d="M311.377 400.911L311.06 402.681L309.523 402.406L309.84 400.636L311.377 400.911Z" fill="#482D97"/>
<path d="M321.406 345.592C321.445 345.373 321.625 345.181 321.906 345.231C322.294 345.3 322.683 345.37 323.071 345.44C323.352 345.49 323.453 345.733 323.414 345.951C323.375 346.17 323.195 346.363 322.914 346.313C322.526 346.243 322.137 346.174 321.749 346.104C321.468 346.054 321.367 345.81 321.406 345.592Z" fill="white"/>
<path d="M323.84 345.234L323.564 346.771L320.862 346.287L321.138 344.75L323.84 345.234Z" fill="#482D97"/>
<path d="M363.491 348.605C363.592 348.041 364.465 348.199 364.364 348.761C364.263 349.324 363.39 349.166 363.491 348.605Z" fill="white"/>
<path d="M364.934 347.829L364.596 349.715L363.058 349.44L363.396 347.553L364.934 347.829Z" fill="#482D97"/>
<path d="M368.557 366.697C368.658 366.133 369.531 366.291 369.431 366.853C369.33 367.416 368.457 367.258 368.557 366.697Z" fill="white"/>
<path d="M370 365.92L369.683 367.69L368.146 367.415L368.463 365.645L370 365.92Z" fill="#482D97"/>
<path d="M361.918 406.142C362.019 405.578 362.893 405.736 362.792 406.299C362.691 406.861 361.818 406.703 361.918 406.142Z" fill="white"/>
<path d="M363.225 405.461L362.907 407.232L361.37 406.956L361.687 405.186L363.225 405.461Z" fill="#482D97"/>
<path d="M615.245 515.712C615.346 515.15 616.219 515.308 616.118 515.869C616.017 516.433 615.144 516.275 615.245 515.712Z" fill="white"/>
<path d="M656.038 502.297C656.139 501.735 657.012 501.893 656.911 502.454C656.81 503.018 655.937 502.86 656.038 502.297Z" fill="white"/>
<path d="M669.53 494.429C669.631 493.866 670.504 494.023 670.403 494.585C670.302 495.149 669.429 494.991 669.53 494.429Z" fill="#482D97"/>
<path d="M629.589 490.748C629.689 490.185 630.563 490.342 630.462 490.904C630.361 491.468 629.488 491.31 629.589 490.748Z" fill="white"/>
<path d="M648.335 487.818C648.435 487.256 649.309 487.412 649.208 487.975C649.107 488.539 648.234 488.381 648.335 487.818Z" fill="white"/>
<path d="M605.11 479.528C605.211 478.966 606.084 479.122 605.983 479.685C605.882 480.249 605.009 480.091 605.11 479.528Z" fill="white"/>
<path d="M340.915 482.717C341.016 482.155 341.889 482.313 341.788 482.874C341.687 483.438 340.814 483.28 340.915 482.717Z" fill="white"/>
<path d="M342.291 481.941L341.974 483.711L340.437 483.436L340.754 481.666L342.291 481.941Z" fill="#482D97"/>
<path d="M311.682 463.6C311.783 463.037 312.656 463.194 312.556 463.756C312.455 464.32 311.581 464.162 311.682 463.6Z" fill="white"/>
<path d="M313.133 463.077L312.816 464.847L311.045 464.53L311.363 462.76L313.133 463.077Z" fill="#482D97"/>
<path d="M288.348 457.644C288.449 457.082 289.323 457.238 289.222 457.801C289.121 458.364 288.248 458.207 288.348 457.644Z" fill="white"/>
<path d="M289.725 456.868L289.387 458.754L287.85 458.479L288.188 456.592L289.725 456.868Z" fill="#482D97"/>
<path d="M353.452 456.434C353.553 455.872 354.426 456.028 354.325 456.591C354.224 457.154 353.351 456.997 353.452 456.434Z" fill="white"/>
<path d="M354.829 455.658L354.511 457.428L352.974 457.153L353.291 455.382L354.829 455.658Z" fill="#482D97"/>
<path d="M357.876 466.305C357.976 465.743 358.85 465.899 358.749 466.462C358.648 467.025 357.775 466.868 357.876 466.305Z" fill="white"/>
<path d="M359.232 465.646L358.894 467.532L357.357 467.257L357.695 465.37L359.232 465.646Z" fill="#482D97"/>
<path d="M325.88 427.455C325.981 426.893 326.854 427.049 326.753 427.612C326.652 428.175 325.779 428.018 325.88 427.455Z" fill="white"/>
<path d="M327.373 426.7L327.035 428.587L325.265 428.27L325.603 426.383L327.373 426.7Z" fill="#482D97"/>
<path d="M358.579 438.029C358.68 437.467 359.553 437.623 359.452 438.186C359.351 438.75 358.478 438.592 358.579 438.029Z" fill="white"/>
<path d="M359.819 437.349L359.48 439.236L357.943 438.96L358.281 437.073L359.819 437.349Z" fill="#482D97"/>
<path d="M369.414 445.953C369.453 445.736 369.633 445.542 369.915 445.592C370.303 445.662 370.691 445.731 371.08 445.801C371.36 445.851 371.462 446.096 371.423 446.313C371.384 446.532 371.204 446.725 370.923 446.675C370.534 446.605 370.146 446.535 369.758 446.466C369.477 446.415 369.375 446.172 369.414 445.953Z" fill="white"/>
<path d="M371.805 445.479L371.529 447.016L368.944 446.553L369.219 445.016L371.805 445.479Z" fill="#482D97"/>
<path d="M381.268 435.765C381.369 435.202 382.242 435.359 382.142 435.921C382.041 436.485 381.167 436.327 381.268 435.765Z" fill="white"/>
<path d="M382.508 435.084L382.191 436.854L380.653 436.579L380.971 434.809L382.508 435.084Z" fill="#482D97"/>
<path d="M373.839 455.81C373.94 455.247 374.813 455.404 374.712 455.966C374.611 456.53 373.738 456.372 373.839 455.81Z" fill="white"/>
<path d="M375.196 455.15L374.879 456.92L373.341 456.645L373.658 454.875L375.196 455.15Z" fill="#482D97"/>
<path d="M269.082 451.542C269.099 451.443 269.156 451.348 269.262 451.274C269.721 450.955 270.178 450.637 270.635 450.318C270.999 450.065 271.385 450.443 271.325 450.779C271.307 450.878 271.25 450.972 271.144 451.047C270.686 451.365 270.228 451.685 269.771 452.003C269.407 452.255 269.022 451.877 269.082 451.542Z" fill="white"/>
<path d="M271.762 449.898L271.236 452.833L268.534 452.349L269.06 449.414L271.762 449.898Z" fill="#482D97"/>
<path d="M302.962 443.05C303.031 442.662 303.101 442.274 303.171 441.885C303.271 441.323 304.145 441.481 304.044 442.042C303.974 442.431 303.905 442.819 303.835 443.206C303.734 443.77 302.861 443.612 302.962 443.05Z" fill="white"/>
<path d="M304.577 441.317L304.051 444.252L302.513 443.977L303.039 441.042L304.577 441.317Z" fill="#482D97"/>
<path d="M320.755 445.859C320.855 445.296 321.729 445.454 321.628 446.015C321.527 446.579 320.654 446.421 320.755 445.859Z" fill="white"/>
<path d="M322.064 445.154L321.726 447.041L320.189 446.765L320.527 444.878L322.064 445.154Z" fill="#482D97"/>
<path d="M324.161 473.813C324.262 473.25 325.135 473.408 325.035 473.969C324.934 474.533 324.06 474.375 324.161 473.813Z" fill="white"/>
<path d="M325.45 473.224L325.133 474.994L323.595 474.719L323.912 472.948L325.45 473.224Z" fill="#482D97"/>
<path d="M294.89 479.026C294.99 478.463 295.864 478.621 295.763 479.182C295.662 479.746 294.789 479.588 294.89 479.026Z" fill="white"/>
<path d="M296.2 478.321L295.882 480.091L294.345 479.816L294.662 478.045L296.2 478.321Z" fill="#482D97"/>
<path d="M555.841 301.881L561.637 301.842L560.577 299.497L562.409 301.304L564.457 295.882L564.496 301.678L566.842 300.62L565.034 302.451L570.456 304.5L564.66 304.538L565.72 306.884L563.887 305.076L561.839 310.498L561.8 304.702L559.455 305.761L561.263 303.93L555.841 301.881Z" fill="white"/>
<path d="M679.425 476.978C672.158 489.525 655.094 489.97 646.871 478.14C645.566 476.262 642.652 478.29 643.957 480.168C653.797 494.325 674.035 493.346 682.626 478.509C683.773 476.529 680.562 475.013 679.425 476.978Z" fill="#E8BCFF"/>
<path d="M683.644 505.839C673.8 491.686 653.563 492.668 644.974 507.507C643.829 509.487 647.04 511.005 648.177 509.041C655.439 496.491 672.505 496.039 680.73 507.868C682.035 509.745 684.95 507.718 683.644 505.839Z" fill="#E8BCFF"/>
<path d="M658.625 477.977C663.839 485.08 663.654 496.697 660.413 504.595C659.547 506.704 662.748 508.244 663.616 506.129C667.333 497.069 667.529 484.113 661.539 475.95C660.188 474.108 657.271 476.131 658.625 477.977Z" fill="#E8BCFF"/>
<path d="M296.689 507.477C285.476 492.685 303.881 494.067 313.218 493.931C319.656 493.838 326.665 492.245 325.266 484.266C324.877 482.033 321.337 482.334 321.732 484.591C323.323 493.681 304.621 489.846 299.191 490.724C295.853 491.263 292.467 492.459 290.58 495.443C287.333 500.579 290.61 505.327 293.776 509.505C295.153 511.322 298.072 509.301 296.689 507.477Z" fill="#E8BCFF"/>
<path d="M295.419 490.491C292.886 489.946 296.874 484.479 299.396 484.199C300.892 484.03 302.407 484.677 303.735 485.284C306.596 486.591 309.096 488.817 311.374 490.934C315.057 494.359 318.229 498.259 321.723 501.865C323.315 503.507 325.604 500.791 324.028 499.163C317.772 492.708 310.783 481.973 301.09 480.76C297.2 480.275 293.191 482.117 291.772 485.959C290.588 489.162 291.125 493.193 294.793 493.985C297.026 494.466 297.65 490.972 295.419 490.491Z" fill="#E8BCFF"/>
<path d="M318.704 439.443C321.146 434.99 323.588 430.536 326.029 426.083C326.645 424.961 325.581 423.298 324.267 423.548C318.806 424.589 313.038 420.001 315.75 414.196C318.466 408.386 326.14 408.837 328.676 414.805C329.288 416.243 331.199 416.318 331.943 414.96C334.434 410.42 336.922 405.881 339.411 401.342C340.513 399.335 337.303 397.814 336.208 399.811C333.719 404.349 331.231 408.888 328.742 413.427C329.831 413.479 330.921 413.53 332.01 413.582C328.602 405.567 317.475 403.398 312.781 411.686C308.072 419.996 315.877 428.745 324.593 427.084C324.004 426.239 323.416 425.394 322.828 424.55C320.386 429.003 317.944 433.457 315.501 437.911C314.399 439.918 317.609 441.439 318.704 439.443Z" fill="#E8BCFF"/>
<path d="M340.743 401.51C333.571 414.589 326.398 427.668 319.227 440.747C318.125 442.754 321.335 444.275 322.429 442.28C329.602 429.2 336.774 416.122 343.946 403.042C345.048 401.035 341.839 399.514 340.743 401.51Z" fill="#E8BCFF"/>
<path d="M363.968 344.261C363.618 341.311 365.424 344.769 366.155 345.867C368.19 348.915 370.223 351.964 372.258 355.011C375.689 360.155 379.12 365.298 382.551 370.44C383.821 372.344 386.732 370.313 385.463 368.413C380.504 360.978 375.543 353.543 370.584 346.107C369.085 343.863 367.275 340.047 364.423 339.258C360.979 338.303 360.113 341.894 360.431 344.586C360.699 346.848 364.235 346.538 363.968 344.261Z" fill="#E8BCFF"/>
<path d="M368.658 341.175C368.773 336.515 370.099 336.178 373.014 339.1C375.208 341.299 376.995 344.024 378.737 346.581C382.116 351.545 385.147 356.781 388.929 361.456C390.359 363.225 393.282 361.209 391.842 359.429C385.93 352.12 382.015 343.067 375.318 336.399C373.672 334.762 371.338 332.693 368.791 333.107C364.899 333.739 365.195 338.552 365.122 341.5C365.066 343.776 368.602 343.439 368.658 341.175Z" fill="#E8BCFF"/>
<path d="M375.332 337.321C375.521 329.537 380.714 335.393 382.895 338.374C384.647 340.766 386.074 343.366 387.626 345.886C390.066 349.847 393.399 353.831 397.461 356.206C400.121 357.762 404.071 358.522 405.981 355.385C408.189 351.757 405.169 346.126 404.158 342.625C403.523 340.431 400.192 341.658 400.825 343.848C401.341 345.634 403.76 350.159 403.092 351.851C401.104 356.897 394.992 349.745 393.431 347.937C390.246 344.248 388.303 339.658 385.39 335.76C383.357 333.039 380.238 329.09 376.415 329.208C371.792 329.35 371.884 334.073 371.797 337.646C371.74 339.923 375.277 339.586 375.332 337.321Z" fill="#E8BCFF"/>
<path d="M408.481 346.004C406.376 343.924 404.271 341.845 402.166 339.767C401.201 338.813 399.469 339.54 399.268 340.803C398.885 343.212 398.503 345.621 398.12 348.028C397.762 350.282 401.254 350.915 401.614 348.654C401.997 346.247 402.379 343.838 402.762 341.429C401.795 341.777 400.83 342.122 399.863 342.468C401.967 344.547 404.072 346.625 406.176 348.704C407.806 350.314 410.098 347.6 408.481 346.004Z" fill="#E8BCFF"/>
<path d="M464.13 305.993C467.31 317.442 470.491 328.893 473.671 340.341C474.281 342.541 477.612 341.311 477.003 339.118C473.823 327.67 470.643 316.22 467.462 304.771C466.85 302.57 463.521 303.8 464.13 305.993Z" fill="#E8BCFF"/>
<path d="M477.447 309.805C472.93 306.001 468.414 302.197 463.899 298.392C462.949 297.593 461.109 298.042 461 299.43C460.617 304.281 460.236 309.134 459.856 313.986C459.679 316.242 463.171 316.891 463.35 314.612C463.73 309.76 464.111 304.907 464.494 300.056C463.527 300.401 462.561 300.747 461.594 301.092C466.111 304.897 470.628 308.702 475.144 312.506C476.894 313.981 479.196 311.278 477.447 309.805Z" fill="#E8BCFF"/>
<path d="M460.69 330.315C466.058 325.822 473.856 325.437 480.38 323.706C482.587 323.12 481.355 319.79 479.158 320.373C472.31 322.19 464.309 322.676 458.662 327.403C456.922 328.859 458.936 331.784 460.69 330.315Z" fill="#E8BCFF"/>
<path d="M544.687 343.937C553.048 342.796 559.772 345.873 566.328 350.806C567.096 349.907 567.864 349.007 568.632 348.106C561.369 343.212 556.631 336.317 554.655 327.791C553.545 328.198 552.433 328.606 551.323 329.014C553.548 334.176 562.926 338.062 567.704 340.282C574.795 343.576 586.081 343.665 587.62 333.799C588.726 326.706 580.187 320.627 574.734 326.715C571.978 329.792 573.416 333.713 575.494 336.7C577.306 339.301 579.924 341.566 580.781 344.75C581.766 348.415 579.491 351.807 577.976 354.966C576.985 357.027 580.189 358.557 581.178 356.498C583.068 352.558 585.409 348.661 584.272 344.171C583.623 341.605 582.076 339.331 580.493 337.255C579.512 335.968 577.334 333.94 577.009 332.378C577.299 327.84 578.787 326.996 581.471 329.847C584.385 330.482 585.125 332.142 583.692 334.826C580.537 342.04 571.433 338.321 566.507 335.662C563.412 333.99 556.118 331.184 554.655 327.791C553.73 325.643 550.815 326.828 551.323 329.014C553.417 338.049 558.639 345.627 566.328 350.806C568.181 352.056 570.489 349.502 568.632 348.106C561.28 342.574 553.724 339.123 544.362 340.401C542.109 340.709 542.415 344.247 544.687 343.937Z" fill="#E8BCFF"/>
<path d="M635.159 395.491C640.8 396.398 638.587 407.858 637.929 411.155C637.683 412.386 638.726 413.218 639.838 413.236C643.922 413.302 648.006 413.367 652.091 413.433C651.503 412.587 650.915 411.744 650.327 410.898C648.748 414.137 647.169 417.376 645.591 420.615C645.13 421.558 645.709 423.052 646.879 423.128C651.123 423.405 655.366 423.682 659.612 423.958C659.182 423.122 658.752 422.282 658.323 421.446C656.461 424.31 654.598 427.174 652.736 430.039C651.903 431.319 653.346 432.535 654.499 432.573C659.26 432.732 664.021 432.892 668.781 433.051C671.055 433.127 670.716 429.591 668.457 429.516C663.695 429.356 658.935 429.197 654.175 429.037C654.763 429.882 655.35 430.728 655.939 431.571C657.8 428.707 659.662 425.842 661.526 422.978C662.118 422.067 661.3 420.534 660.238 420.464C655.992 420.188 651.749 419.911 647.505 419.634C647.934 420.472 648.363 421.309 648.792 422.147C650.372 418.908 651.951 415.67 653.529 412.431C654.172 411.113 653.065 409.918 651.765 409.897C647.681 409.832 643.598 409.766 639.513 409.7C640.15 410.395 640.786 411.088 641.423 411.781C642.507 406.348 644.199 393.351 635.785 391.997C633.532 391.634 632.898 395.127 635.159 395.491Z" fill="#E8BCFF"/>
<path d="M614.625 384.936C620.268 385.845 618.053 397.305 617.395 400.602C617.151 401.832 618.193 402.664 619.305 402.682C623.389 402.748 627.473 402.813 631.557 402.878C630.97 402.035 630.381 401.189 629.793 400.345C628.215 403.584 626.636 406.822 625.057 410.061C624.597 411.004 625.176 412.498 626.346 412.574C630.59 412.851 634.834 413.127 639.078 413.405C638.649 412.567 638.219 411.729 637.79 410.892C635.927 413.756 634.065 416.621 632.203 419.485C631.37 420.765 632.814 421.981 633.967 422.02C638.727 422.179 643.488 422.339 648.249 422.498C650.523 422.574 650.184 419.038 647.923 418.962C643.163 418.803 638.402 418.643 633.641 418.484C634.229 419.328 634.817 420.173 635.406 421.018C637.268 418.153 639.13 415.289 640.992 412.424C641.584 411.513 640.767 409.98 639.704 409.911C635.46 409.634 631.216 409.358 626.972 409.08C627.401 409.918 627.83 410.756 628.26 411.594C629.839 408.355 631.418 405.117 632.996 401.878C633.64 400.559 632.532 399.364 631.232 399.344C627.148 399.278 623.064 399.212 618.981 399.147C619.617 399.84 620.254 400.535 620.889 401.228C621.973 395.794 623.666 382.796 615.251 381.442C612.998 381.081 612.365 384.573 614.625 384.936Z" fill="#E8BCFF"/>
<path d="M269.512 461.137L269.405 461.734L349.324 476.054L349.431 475.456L269.512 461.137Z" fill="#E8BCFF"/>
<path d="M524.287 284.984L509.971 364.882L510.57 364.989L524.886 285.092L524.287 284.984Z" fill="#E8BCFF"/>
<path d="M381.06 409.532L319.966 356.058L319.566 356.515L380.66 409.989" fill="#E8BCFF"/>
<path d="M629.361 334.555L575.902 395.634L576.359 396.034L629.818 334.955" fill="#E8BCFF"/>
<path d="M438.663 371.009L411.684 294.43L411.111 294.632L438.089 371.21" fill="#E8BCFF"/>
<path d="M697.04 437.992L618.259 457.536L618.405 458.125L697.186 438.58" fill="#E8BCFF"/>
</g>
<defs>
<filter id="filter0_dddddd_1652_12753" x="0.530762" y="0.483398" width="964.659" height="783.741" filterUnits="userSpaceOnUse" color-interpolation-filters="sRGB">
<feFlood flood-opacity="0" result="BackgroundImageFix"/>
<feColorMatrix in="SourceAlpha" type="matrix" values="0 0 0 0 0 0 0 0 0 0 0 0 0 0 0 0 0 0 127 0" result="hardAlpha"/>
<feOffset/>
<feGaussianBlur stdDeviation="3.19052"/>
<feColorMatrix type="matrix" values="0 0 0 0 0.908064 0 0 0 0 0.738688 0 0 0 0 1 0 0 0 1 0"/>
<feBlend mode="normal" in2="BackgroundImageFix" result="effect1_dropShadow_1652_12753"/>
<feColorMatrix in="SourceAlpha" type="matrix" values="0 0 0 0 0 0 0 0 0 0 0 0 0 0 0 0 0 0 127 0" result="hardAlpha"/>
<feOffset/>
<feGaussianBlur stdDeviation="6.38103"/>
<feColorMatrix type="matrix" values="0 0 0 0 0.908064 0 0 0 0 0.738688 0 0 0 0 1 0 0 0 1 0"/>
<feBlend mode="normal" in2="effect1_dropShadow_1652_12753" result="effect2_dropShadow_1652_12753"/>
<feColorMatrix in="SourceAlpha" type="matrix" values="0 0 0 0 0 0 0 0 0 0 0 0 0 0 0 0 0 0 127 0" result="hardAlpha"/>
<feOffset/>
<feGaussianBlur stdDeviation="22.3336"/>
<feColorMatrix type="matrix" values="0 0 0 0 0.908064 0 0 0 0 0.738688 0 0 0 0 1 0 0 0 1 0"/>
<feBlend mode="normal" in2="effect2_dropShadow_1652_12753" result="effect3_dropShadow_1652_12753"/>
<feColorMatrix in="SourceAlpha" type="matrix" values="0 0 0 0 0 0 0 0 0 0 0 0 0 0 0 0 0 0 127 0" result="hardAlpha"/>
<feOffset/>
<feGaussianBlur stdDeviation="44.6672"/>
<feColorMatrix type="matrix" values="0 0 0 0 0.282353 0 0 0 0 0.176471 0 0 0 0 0.592157 0 0 0 1 0"/>
<feBlend mode="normal" in2="effect3_dropShadow_1652_12753" result="effect4_dropShadow_1652_12753"/>
<feColorMatrix in="SourceAlpha" type="matrix" values="0 0 0 0 0 0 0 0 0 0 0 0 0 0 0 0 0 0 127 0" result="hardAlpha"/>
<feOffset/>
<feGaussianBlur stdDeviation="76.5724"/>
<feColorMatrix type="matrix" values="0 0 0 0 0.282353 0 0 0 0 0.176471 0 0 0 0 0.592157 0 0 0 1 0"/>
<feBlend mode="normal" in2="effect4_dropShadow_1652_12753" result="effect5_dropShadow_1652_12753"/>
<feColorMatrix in="SourceAlpha" type="matrix" values="0 0 0 0 0 0 0 0 0 0 0 0 0 0 0 0 0 0 127 0" result="hardAlpha"/>
<feOffset/>
<feGaussianBlur stdDeviation="134.002"/>
<feColorMatrix type="matrix" values="0 0 0 0 0.282353 0 0 0 0 0.176471 0 0 0 0 0.592157 0 0 0 1 0"/>
<feBlend mode="normal" in2="effect5_dropShadow_1652_12753" result="effect6_dropShadow_1652_12753"/>
<feBlend mode="normal" in="SourceGraphic" in2="effect6_dropShadow_1652_12753" result="shape"/>
</filter>
</defs>
</svg>
