<svg width="428" height="731" viewBox="0 0 428 731" fill="none" xmlns="http://www.w3.org/2000/svg">
<g opacity="0.7">
<path d="M7.6201 531.179C8.02824 530.914 8.1444 530.368 7.87953 529.96C7.61465 529.552 7.06904 529.436 6.66089 529.701C6.25274 529.965 6.13662 530.511 6.40149 530.919C6.66637 531.327 7.21195 531.444 7.6201 531.179Z" fill="white"/>
<path d="M2.34439 568.903C2.61633 568.727 2.69374 568.363 2.51726 568.091C2.34077 567.819 1.97723 567.742 1.70528 567.918C1.43334 568.095 1.35598 568.458 1.53246 568.73C1.70894 569.002 2.07244 569.08 2.34439 568.903Z" fill="white"/>
<path d="M109.743 499.21C110.015 499.034 110.092 498.67 109.916 498.398C109.739 498.126 109.376 498.049 109.104 498.225C108.832 498.402 108.754 498.765 108.931 499.037C109.107 499.309 109.471 499.387 109.743 499.21Z" fill="white"/>
<path d="M146.173 437.76C146.444 437.584 146.522 437.22 146.345 436.949C146.169 436.677 145.805 436.599 145.533 436.776C145.261 436.952 145.184 437.316 145.361 437.588C145.537 437.86 145.901 437.937 146.173 437.76Z" fill="white"/>
<path d="M188.727 461.254C188.999 461.077 189.077 460.714 188.9 460.442C188.724 460.17 188.36 460.092 188.088 460.269C187.816 460.445 187.739 460.809 187.915 461.081C188.092 461.353 188.455 461.43 188.727 461.254Z" fill="white"/>
<path opacity="0.11" d="M12.8756 587.278C13.1476 587.101 13.225 586.738 13.0485 586.466C12.872 586.194 12.5085 586.116 12.2365 586.293C11.9646 586.469 11.8872 586.833 12.0637 587.105C12.2402 587.377 12.6037 587.454 12.8756 587.278Z" fill="white"/>
<path opacity="0.11" d="M104.257 520.969C104.528 520.793 104.606 520.429 104.429 520.157C104.253 519.886 103.889 519.808 103.617 519.985C103.345 520.161 103.268 520.525 103.445 520.797C103.621 521.069 103.985 521.146 104.257 520.969Z" fill="white"/>
<path d="M16.2428 485.675C16.5148 485.499 16.5922 485.135 16.4157 484.863C16.2392 484.591 15.8757 484.514 15.6037 484.69C15.3318 484.867 15.2544 485.23 15.4309 485.502C15.6074 485.774 15.9709 485.852 16.2428 485.675Z" fill="white"/>
<path opacity="0.3" d="M164.719 426.426C164.991 426.25 165.069 425.886 164.892 425.615C164.716 425.343 164.352 425.265 164.08 425.442C163.808 425.618 163.731 425.982 163.907 426.254C164.084 426.526 164.447 426.603 164.719 426.426Z" fill="white"/>
<path opacity="0.11" d="M72.2956 457.697C72.5675 457.521 72.6449 457.157 72.4684 456.886C72.2919 456.614 71.9284 456.536 71.6565 456.713C71.3845 456.889 71.3071 457.253 71.4836 457.525C71.6601 457.797 72.0236 457.874 72.2956 457.697Z" fill="white"/>
<path opacity="0.11" d="M165.165 456.239C165.437 456.062 165.514 455.698 165.338 455.427C165.161 455.155 164.798 455.077 164.526 455.254C164.254 455.43 164.176 455.794 164.353 456.066C164.529 456.338 164.893 456.415 165.165 456.239Z" fill="white"/>
<path opacity="0.3" d="M43.4056 541.558C43.9499 541.205 44.1048 540.477 43.7516 539.933C43.3983 539.389 42.6706 539.234 42.1263 539.587C41.5819 539.94 41.427 540.668 41.7803 541.212C42.1336 541.757 42.8612 541.911 43.4056 541.558Z" fill="white"/>
<path opacity="0.11" d="M62.8821 507.917C63.4265 507.563 63.5814 506.836 63.2281 506.291C62.8748 505.747 62.1472 505.592 61.6028 505.945C61.0585 506.299 60.9036 507.026 61.2568 507.571C61.6101 508.115 62.3378 508.27 62.8821 507.917Z" fill="white"/>
<path d="M51.4482 490.834C51.8564 490.57 51.9725 490.024 51.7076 489.616C51.4428 489.208 50.8972 489.091 50.489 489.356C50.0809 489.621 49.9647 490.167 50.2296 490.575C50.4945 490.983 51.0401 491.099 51.4482 490.834Z" fill="white"/>
<path d="M51.0263 564.62C51.4345 564.355 51.5506 563.809 51.2858 563.401C51.0209 562.993 50.4753 562.877 50.0672 563.141C49.659 563.406 49.5428 563.952 49.8077 564.36C50.0726 564.768 50.6182 564.884 51.0263 564.62Z" fill="white"/>
<path d="M220.972 468.333C221.38 468.068 221.496 467.522 221.231 467.114C220.966 466.706 220.421 466.59 220.012 466.855C219.604 467.12 219.488 467.665 219.753 468.073C220.018 468.482 220.564 468.598 220.972 468.333Z" fill="white"/>
<path d="M34.1982 516.032C34.6064 515.767 34.7225 515.222 34.4577 514.814C34.1928 514.405 33.6472 514.289 33.239 514.554C32.8309 514.819 32.7147 515.365 32.9796 515.773C33.2445 516.181 33.7901 516.297 34.1982 516.032Z" fill="white"/>
<path d="M110.028 548.735C110.436 548.47 110.553 547.924 110.288 547.516C110.023 547.108 109.477 546.992 109.069 547.257C108.661 547.522 108.545 548.067 108.81 548.475C109.075 548.883 109.62 549 110.028 548.735Z" fill="white"/>
<path d="M218.831 430.515C219.239 430.25 219.355 429.705 219.09 429.296C218.826 428.888 218.28 428.772 217.872 429.037C217.464 429.302 217.348 429.847 217.612 430.256C217.877 430.664 218.423 430.78 218.831 430.515Z" fill="white"/>
<path d="M213.073 395.747C213.481 395.483 213.598 394.937 213.333 394.529C213.068 394.121 212.522 394.005 212.114 394.269C211.706 394.534 211.59 395.08 211.855 395.488C212.119 395.896 212.665 396.012 213.073 395.747Z" fill="white"/>
<path opacity="0.3" d="M92.4134 464.951C92.9577 464.598 93.1126 463.87 92.7594 463.325C92.4061 462.781 91.6784 462.626 91.1341 462.979C90.5897 463.333 90.4348 464.06 90.7881 464.605C91.1413 465.149 91.869 465.304 92.4134 464.951Z" fill="white"/>
<path d="M69.7103 429.976C70.2546 429.622 70.4095 428.895 70.0562 428.35C69.703 427.806 68.9753 427.651 68.431 428.004C67.8866 428.358 67.7317 429.085 68.0849 429.63C68.4382 430.174 69.1659 430.329 69.7103 429.976Z" fill="white"/>
<path d="M124.815 459.325C125.224 459.06 125.34 458.514 125.075 458.106C124.81 457.698 124.264 457.582 123.856 457.847C123.448 458.111 123.332 458.657 123.597 459.065C123.862 459.473 124.407 459.59 124.815 459.325Z" fill="white"/>
<path opacity="0.3" d="M136.241 424.607C136.786 424.254 136.941 423.526 136.587 422.982C136.234 422.437 135.507 422.282 134.962 422.636C134.418 422.989 134.263 423.717 134.616 424.261C134.969 424.805 135.697 424.96 136.241 424.607Z" fill="white"/>
<path opacity="0.3" d="M207.71 427.934C208.255 427.58 208.409 426.853 208.056 426.308C207.703 425.764 206.975 425.609 206.431 425.962C205.887 426.316 205.732 427.043 206.085 427.588C206.438 428.132 207.166 428.287 207.71 427.934Z" fill="white"/>
<path opacity="0.3" d="M150.71 466.322C151.255 465.969 151.41 465.241 151.056 464.697C150.703 464.153 149.975 463.998 149.431 464.351C148.887 464.704 148.732 465.432 149.085 465.976C149.438 466.521 150.166 466.676 150.71 466.322Z" fill="white"/>
<path opacity="0.11" d="M177.921 426.262C178.466 425.909 178.62 425.181 178.267 424.637C177.914 424.093 177.186 423.938 176.642 424.291C176.098 424.644 175.943 425.372 176.296 425.916C176.649 426.461 177.377 426.616 177.921 426.262Z" fill="white"/>
<path opacity="0.11" d="M64.093 287.733C64.6374 287.38 64.7923 286.652 64.439 286.108C64.0858 285.563 63.3581 285.408 62.8138 285.762C62.2694 286.115 62.1145 286.843 62.4678 287.387C62.821 287.931 63.5487 288.086 64.093 287.733Z" fill="white"/>
<path d="M70.8096 291.075C71.2177 290.81 71.3339 290.265 71.069 289.856C70.8041 289.448 70.2585 289.332 69.8504 289.597C69.4422 289.862 69.3261 290.408 69.5909 290.816C69.8558 291.224 70.4014 291.34 70.8096 291.075Z" fill="white"/>
<path d="M80.3545 270.181C80.7626 269.916 80.8788 269.37 80.6139 268.962C80.349 268.554 79.8034 268.438 79.3953 268.703C78.9871 268.967 78.871 269.513 79.1359 269.921C79.4007 270.329 79.9463 270.445 80.3545 270.181Z" fill="white"/>
<path d="M37.8389 296.368C38.247 296.103 38.3631 295.557 38.0983 295.149C37.8334 294.741 37.2878 294.625 36.8797 294.89C36.4715 295.154 36.3554 295.7 36.6202 296.108C36.8851 296.516 37.4307 296.632 37.8389 296.368Z" fill="white"/>
<path opacity="0.11" d="M21.1243 324.017C21.6687 323.663 21.8236 322.936 21.4703 322.391C21.117 321.847 20.3894 321.692 19.845 322.045C19.3007 322.399 19.1458 323.126 19.499 323.671C19.8523 324.215 20.58 324.37 21.1243 324.017Z" fill="white"/>
<path d="M4.73501 319.253C5.00695 319.076 5.08436 318.713 4.90788 318.441C4.7314 318.169 4.36787 318.091 4.09592 318.268C3.82398 318.444 3.74659 318.808 3.92307 319.08C4.09955 319.352 4.46306 319.429 4.73501 319.253Z" fill="white"/>
<path d="M75.0788 307.906C75.3507 307.729 75.4281 307.366 75.2516 307.094C75.0751 306.822 74.7116 306.745 74.4397 306.921C74.1677 307.098 74.0903 307.461 74.2668 307.733C74.4433 308.005 74.8068 308.082 75.0788 307.906Z" fill="white"/>
<path d="M182.477 238.214C182.749 238.037 182.827 237.674 182.65 237.402C182.474 237.13 182.11 237.052 181.838 237.229C181.566 237.405 181.489 237.769 181.665 238.041C181.842 238.313 182.205 238.39 182.477 238.214Z" fill="white"/>
<path d="M218.907 176.763C219.179 176.586 219.256 176.223 219.08 175.951C218.903 175.679 218.54 175.602 218.268 175.778C217.996 175.955 217.918 176.318 218.095 176.59C218.271 176.862 218.635 176.939 218.907 176.763Z" fill="white"/>
<path d="M261.46 200.258C261.732 200.082 261.809 199.718 261.632 199.446C261.456 199.174 261.092 199.097 260.821 199.273C260.549 199.45 260.471 199.813 260.648 200.085C260.824 200.357 261.188 200.435 261.46 200.258Z" fill="white"/>
<path opacity="0.11" d="M4.45374 328.533C4.72569 328.356 4.80308 327.993 4.6266 327.721C4.45012 327.449 4.0866 327.372 3.81466 327.548C3.54271 327.725 3.46532 328.088 3.6418 328.36C3.81828 328.632 4.1818 328.709 4.45374 328.533Z" fill="white"/>
<path opacity="0.11" d="M85.61 326.28C85.882 326.103 85.9593 325.74 85.7829 325.468C85.6064 325.196 85.2429 325.119 84.9709 325.295C84.699 325.472 84.6216 325.835 84.7981 326.107C84.9745 326.379 85.3381 326.456 85.61 326.28Z" fill="white"/>
<path opacity="0.11" d="M176.993 259.971C177.265 259.795 177.342 259.431 177.166 259.159C176.989 258.888 176.626 258.81 176.354 258.987C176.082 259.163 176.004 259.527 176.181 259.799C176.357 260.071 176.721 260.148 176.993 259.971Z" fill="white"/>
<path d="M13.7506 274.894C14.0226 274.717 14.1 274.354 13.9235 274.082C13.747 273.81 13.3835 273.732 13.1115 273.909C12.8396 274.085 12.7622 274.449 12.9387 274.721C13.1152 274.993 13.4787 275.07 13.7506 274.894Z" fill="white"/>
<path d="M88.9753 224.676C89.2472 224.5 89.3246 224.136 89.1481 223.864C88.9716 223.592 88.6081 223.515 88.3362 223.691C88.0642 223.868 87.9868 224.231 88.1633 224.503C88.3398 224.775 88.7033 224.852 88.9753 224.676Z" fill="white"/>
<path d="M9.66468 341.956C9.93663 341.78 10.014 341.416 9.83754 341.144C9.66105 340.872 9.29754 340.795 9.0256 340.971C8.75365 341.148 8.67626 341.511 8.85274 341.783C9.02922 342.055 9.39274 342.133 9.66468 341.956Z" fill="white"/>
<path opacity="0.3" d="M30.2956 280.962C30.5675 280.785 30.6449 280.422 30.4684 280.15C30.2919 279.878 29.9284 279.8 29.6565 279.977C29.3845 280.153 29.3071 280.517 29.4836 280.789C29.6601 281.061 30.0236 281.138 30.2956 280.962Z" fill="white"/>
<path opacity="0.3" d="M24.1178 345.881C24.3898 345.705 24.4672 345.341 24.2907 345.069C24.1142 344.797 23.7507 344.72 23.4787 344.896C23.2068 345.073 23.1294 345.436 23.3059 345.708C23.4824 345.98 23.8459 346.058 24.1178 345.881Z" fill="white"/>
<path opacity="0.3" d="M237.454 165.428C237.726 165.252 237.803 164.888 237.627 164.616C237.45 164.345 237.087 164.267 236.815 164.444C236.543 164.62 236.465 164.984 236.642 165.256C236.818 165.528 237.182 165.605 237.454 165.428Z" fill="white"/>
<path opacity="0.11" d="M145.032 196.701C145.304 196.524 145.381 196.161 145.205 195.889C145.028 195.617 144.665 195.54 144.393 195.716C144.121 195.893 144.043 196.256 144.22 196.528C144.396 196.8 144.76 196.877 145.032 196.701Z" fill="white"/>
<path opacity="0.11" d="M237.899 195.241C238.171 195.065 238.248 194.701 238.072 194.429C237.895 194.158 237.532 194.08 237.26 194.257C236.988 194.433 236.911 194.797 237.087 195.069C237.264 195.341 237.627 195.418 237.899 195.241Z" fill="white"/>
<path opacity="0.3" d="M116.14 280.561C116.684 280.207 116.839 279.48 116.486 278.935C116.133 278.391 115.405 278.236 114.861 278.589C114.316 278.943 114.161 279.67 114.515 280.215C114.868 280.759 115.596 280.914 116.14 280.561Z" fill="white"/>
<path opacity="0.11" d="M135.617 246.919C136.161 246.566 136.316 245.838 135.962 245.294C135.609 244.749 134.882 244.594 134.337 244.948C133.793 245.301 133.638 246.029 133.991 246.573C134.344 247.117 135.072 247.272 135.617 246.919Z" fill="white"/>
<path d="M124.183 229.836C124.591 229.571 124.707 229.026 124.442 228.618C124.177 228.21 123.632 228.093 123.223 228.358C122.815 228.623 122.699 229.169 122.964 229.577C123.229 229.985 123.774 230.101 124.183 229.836Z" fill="white"/>
<path d="M123.761 303.621C124.169 303.356 124.285 302.811 124.02 302.402C123.755 301.994 123.21 301.878 122.802 302.143C122.393 302.408 122.277 302.953 122.542 303.362C122.807 303.77 123.353 303.886 123.761 303.621Z" fill="white"/>
<path d="M293.706 207.335C294.114 207.07 294.23 206.525 293.965 206.117C293.701 205.709 293.155 205.592 292.747 205.857C292.339 206.122 292.223 206.668 292.487 207.076C292.752 207.484 293.298 207.6 293.706 207.335Z" fill="white"/>
<path d="M106.933 255.035C107.341 254.77 107.457 254.224 107.192 253.816C106.927 253.408 106.382 253.292 105.973 253.557C105.565 253.821 105.449 254.367 105.714 254.775C105.979 255.183 106.524 255.299 106.933 255.035Z" fill="white"/>
<path d="M44.8701 347.115C45.2782 346.85 45.3944 346.305 45.1295 345.897C44.8646 345.488 44.3191 345.372 43.9109 345.637C43.5028 345.902 43.3866 346.448 43.6515 346.856C43.9163 347.264 44.4619 347.38 44.8701 347.115Z" fill="white"/>
<path d="M182.761 287.736C183.169 287.471 183.285 286.925 183.02 286.517C182.755 286.109 182.21 285.993 181.802 286.258C181.393 286.523 181.277 287.068 181.542 287.476C181.807 287.884 182.353 288.001 182.761 287.736Z" fill="white"/>
<path d="M291.565 169.517C291.974 169.252 292.09 168.707 291.825 168.298C291.56 167.89 291.014 167.774 290.606 168.039C290.198 168.304 290.082 168.849 290.347 169.258C290.612 169.666 291.157 169.782 291.565 169.517Z" fill="white"/>
<path d="M285.808 134.751C286.216 134.487 286.332 133.941 286.067 133.533C285.802 133.125 285.257 133.008 284.848 133.273C284.44 133.538 284.324 134.084 284.589 134.492C284.854 134.9 285.399 135.016 285.808 134.751Z" fill="white"/>
<path opacity="0.3" d="M165.148 203.952C165.692 203.599 165.847 202.871 165.494 202.327C165.14 201.783 164.413 201.628 163.868 201.981C163.324 202.334 163.169 203.062 163.522 203.606C163.876 204.151 164.603 204.306 165.148 203.952Z" fill="white"/>
<path d="M142.445 168.978C142.989 168.624 143.144 167.897 142.791 167.352C142.437 166.808 141.71 166.653 141.165 167.006C140.621 167.36 140.466 168.087 140.819 168.632C141.173 169.176 141.9 169.331 142.445 168.978Z" fill="white"/>
<path d="M197.55 198.327C197.958 198.062 198.074 197.517 197.809 197.108C197.544 196.7 196.999 196.584 196.591 196.849C196.182 197.114 196.066 197.659 196.331 198.068C196.596 198.476 197.142 198.592 197.55 198.327Z" fill="white"/>
<path opacity="0.3" d="M208.976 163.609C209.52 163.255 209.675 162.528 209.322 161.983C208.969 161.439 208.241 161.284 207.697 161.637C207.152 161.99 206.997 162.718 207.351 163.262C207.704 163.807 208.431 163.962 208.976 163.609Z" fill="white"/>
<path opacity="0.3" d="M280.445 166.936C280.989 166.583 281.144 165.855 280.791 165.311C280.437 164.767 279.71 164.612 279.165 164.965C278.621 165.318 278.466 166.046 278.819 166.59C279.173 167.134 279.9 167.289 280.445 166.936Z" fill="white"/>
<path opacity="0.3" d="M223.445 205.325C223.989 204.972 224.144 204.244 223.791 203.7C223.437 203.155 222.71 203 222.165 203.354C221.621 203.707 221.466 204.434 221.819 204.979C222.173 205.523 222.9 205.678 223.445 205.325Z" fill="white"/>
<path opacity="0.11" d="M250.656 165.265C251.2 164.911 251.355 164.184 251.002 163.639C250.648 163.095 249.921 162.94 249.376 163.293C248.832 163.647 248.677 164.374 249.03 164.919C249.384 165.463 250.111 165.618 250.656 165.265Z" fill="white"/>
<path opacity="0.11" d="M373.226 196.814C373.77 196.46 373.925 195.733 373.572 195.188C373.219 194.644 372.491 194.489 371.947 194.842C371.402 195.196 371.247 195.923 371.601 196.468C371.954 197.012 372.681 197.167 373.226 196.814Z" fill="white"/>
<path d="M379.94 200.155C380.349 199.89 380.465 199.345 380.2 198.937C379.935 198.528 379.389 198.412 378.981 198.677C378.573 198.942 378.457 199.488 378.722 199.896C378.987 200.304 379.532 200.42 379.94 200.155Z" fill="white"/>
<path d="M389.489 179.261C389.897 178.996 390.013 178.451 389.749 178.043C389.484 177.634 388.938 177.518 388.53 177.783C388.122 178.048 388.006 178.594 388.271 179.002C388.535 179.41 389.081 179.526 389.489 179.261Z" fill="white"/>
<path d="M346.972 205.448C347.38 205.183 347.496 204.637 347.231 204.229C346.966 203.821 346.421 203.705 346.012 203.97C345.604 204.235 345.488 204.78 345.753 205.188C346.018 205.596 346.563 205.713 346.972 205.448Z" fill="white"/>
<path opacity="0.11" d="M330.257 233.097C330.801 232.744 330.956 232.016 330.603 231.471C330.25 230.927 329.522 230.772 328.978 231.126C328.433 231.479 328.279 232.206 328.632 232.751C328.985 233.295 329.713 233.45 330.257 233.097Z" fill="white"/>
<path d="M313.868 228.333C314.14 228.156 314.217 227.793 314.041 227.521C313.864 227.249 313.501 227.171 313.229 227.348C312.957 227.524 312.879 227.888 313.056 228.16C313.232 228.432 313.596 228.509 313.868 228.333Z" fill="white"/>
<path d="M384.21 216.986C384.482 216.81 384.559 216.446 384.382 216.174C384.206 215.902 383.843 215.825 383.571 216.001C383.299 216.178 383.221 216.541 383.398 216.813C383.574 217.085 383.938 217.163 384.21 216.986Z" fill="white"/>
<path d="M212.171 311.129C212.443 310.953 212.52 310.589 212.343 310.317C212.167 310.045 211.803 309.968 211.531 310.144C211.26 310.321 211.182 310.684 211.359 310.956C211.535 311.228 211.899 311.306 212.171 311.129Z" fill="white"/>
<path opacity="0.11" d="M187.524 289.321C187.796 289.145 187.873 288.781 187.697 288.51C187.52 288.238 187.157 288.16 186.885 288.337C186.613 288.513 186.536 288.877 186.712 289.149C186.889 289.421 187.252 289.498 187.524 289.321Z" fill="white"/>
<path opacity="0.11" d="M173.696 314.399C173.968 314.222 174.045 313.859 173.869 313.587C173.692 313.315 173.329 313.237 173.057 313.414C172.785 313.59 172.708 313.954 172.884 314.226C173.06 314.498 173.424 314.575 173.696 314.399Z" fill="white"/>
<path opacity="0.11" d="M209.133 333.407C209.405 333.231 209.483 332.867 209.306 332.596C209.13 332.324 208.766 332.246 208.494 332.423C208.222 332.599 208.145 332.963 208.322 333.235C208.498 333.507 208.862 333.584 209.133 333.407Z" fill="white"/>
<path opacity="0.11" d="M313.585 237.613C313.857 237.437 313.934 237.073 313.757 236.802C313.581 236.53 313.218 236.452 312.946 236.629C312.674 236.805 312.596 237.169 312.773 237.441C312.949 237.713 313.313 237.79 313.585 237.613Z" fill="white"/>
<path opacity="0.11" d="M394.735 235.36C395.007 235.184 395.084 234.82 394.908 234.548C394.731 234.276 394.368 234.199 394.096 234.375C393.824 234.552 393.747 234.915 393.923 235.187C394.1 235.459 394.463 235.537 394.735 235.36Z" fill="white"/>
<path opacity="0.3" d="M226.842 284.106C227.114 283.93 227.192 283.566 227.015 283.294C226.839 283.022 226.475 282.945 226.203 283.121C225.931 283.298 225.854 283.661 226.03 283.933C226.207 284.205 226.57 284.283 226.842 284.106Z" fill="white"/>
<path d="M322.882 183.975C323.153 183.798 323.231 183.435 323.054 183.163C322.878 182.891 322.514 182.814 322.242 182.99C321.97 183.166 321.893 183.53 322.07 183.802C322.246 184.074 322.61 184.151 322.882 183.975Z" fill="white"/>
<path d="M398.11 133.757C398.382 133.581 398.459 133.217 398.283 132.945C398.106 132.673 397.743 132.596 397.471 132.772C397.199 132.949 397.122 133.312 397.298 133.584C397.475 133.856 397.838 133.934 398.11 133.757Z" fill="white"/>
<path d="M318.796 251.037C319.068 250.861 319.145 250.497 318.968 250.225C318.792 249.953 318.428 249.876 318.156 250.053C317.885 250.229 317.807 250.593 317.984 250.864C318.16 251.136 318.524 251.214 318.796 251.037Z" fill="white"/>
<path opacity="0.3" d="M284.313 273.416C284.585 273.24 284.662 272.876 284.486 272.604C284.309 272.332 283.946 272.255 283.674 272.431C283.402 272.608 283.325 272.971 283.501 273.243C283.678 273.515 284.041 273.593 284.313 273.416Z" fill="white"/>
<path opacity="0.11" d="M224.102 269.086C224.374 268.909 224.452 268.546 224.275 268.274C224.099 268.002 223.735 267.924 223.463 268.101C223.191 268.277 223.114 268.641 223.29 268.913C223.467 269.185 223.83 269.262 224.102 269.086Z" fill="white"/>
<path opacity="0.3" d="M339.428 190.042C339.7 189.866 339.778 189.502 339.601 189.23C339.425 188.958 339.061 188.881 338.789 189.057C338.517 189.234 338.44 189.597 338.616 189.869C338.793 190.141 339.156 190.219 339.428 190.042Z" fill="white"/>
<path opacity="0.3" d="M333.251 254.962C333.523 254.785 333.6 254.422 333.423 254.15C333.247 253.878 332.883 253.8 332.612 253.977C332.34 254.153 332.262 254.517 332.439 254.789C332.615 255.061 332.979 255.138 333.251 254.962Z" fill="white"/>
<path opacity="0.3" d="M276.835 298.571C277.107 298.394 277.184 298.031 277.007 297.759C276.831 297.487 276.468 297.409 276.196 297.586C275.924 297.762 275.846 298.126 276.023 298.398C276.199 298.67 276.563 298.747 276.835 298.571Z" fill="white"/>
<path opacity="0.3" d="M241.132 274.837C241.403 274.661 241.481 274.297 241.304 274.025C241.128 273.753 240.764 273.676 240.492 273.852C240.22 274.029 240.143 274.392 240.32 274.664C240.496 274.936 240.86 275.014 241.132 274.837Z" fill="white"/>
<path opacity="0.3" d="M425.273 189.641C425.817 189.288 425.972 188.56 425.619 188.016C425.266 187.472 424.538 187.317 423.993 187.67C423.449 188.023 423.294 188.751 423.647 189.295C424.001 189.84 424.728 189.994 425.273 189.641Z" fill="white"/>
<path d="M277.683 315.523C278.091 315.258 278.207 314.713 277.942 314.305C277.677 313.897 277.132 313.78 276.723 314.045C276.315 314.31 276.199 314.856 276.464 315.264C276.729 315.672 277.274 315.788 277.683 315.523Z" fill="white"/>
<path d="M204.815 346.711C205.224 346.446 205.34 345.901 205.075 345.493C204.81 345.085 204.264 344.968 203.856 345.233C203.448 345.498 203.332 346.044 203.597 346.452C203.862 346.86 204.407 346.976 204.815 346.711Z" fill="white"/>
<path d="M183.653 332.441C184.061 332.176 184.178 331.631 183.913 331.223C183.648 330.815 183.102 330.698 182.694 330.963C182.286 331.228 182.17 331.774 182.435 332.182C182.7 332.59 183.245 332.706 183.653 332.441Z" fill="white"/>
<path d="M416.065 164.115C416.474 163.85 416.59 163.304 416.325 162.896C416.06 162.488 415.514 162.372 415.106 162.637C414.698 162.901 414.582 163.447 414.847 163.855C415.112 164.263 415.657 164.38 416.065 164.115Z" fill="white"/>
<path d="M354.003 256.196C354.411 255.931 354.527 255.385 354.262 254.977C353.997 254.569 353.452 254.453 353.044 254.718C352.636 254.983 352.519 255.528 352.784 255.936C353.049 256.344 353.595 256.461 354.003 256.196Z" fill="white"/>
<path opacity="0.3" d="M255.242 306.285C255.786 305.931 255.941 305.204 255.587 304.659C255.234 304.115 254.507 303.96 253.962 304.313C253.418 304.667 253.263 305.394 253.616 305.939C253.969 306.483 254.697 306.638 255.242 306.285Z" fill="white"/>
<path opacity="0.3" d="M197.749 305.088C198.294 304.735 198.449 304.007 198.095 303.463C197.742 302.918 197.014 302.763 196.47 303.117C195.926 303.47 195.771 304.198 196.124 304.742C196.477 305.286 197.205 305.441 197.749 305.088Z" fill="white"/>
<path opacity="0.3" d="M257.327 242.622C257.872 242.268 258.027 241.541 257.673 240.996C257.32 240.452 256.593 240.297 256.048 240.65C255.504 241.004 255.349 241.731 255.702 242.276C256.055 242.82 256.783 242.975 257.327 242.622Z" fill="white"/>
<path opacity="0.11" d="M237.632 241.401C238.176 241.048 238.331 240.32 237.978 239.776C237.625 239.231 236.897 239.076 236.353 239.43C235.808 239.783 235.654 240.511 236.007 241.055C236.36 241.599 237.088 241.754 237.632 241.401Z" fill="white"/>
<path opacity="0.3" d="M254.156 275.485C254.7 275.132 254.855 274.405 254.502 273.86C254.148 273.316 253.421 273.161 252.876 273.514C252.332 273.867 252.177 274.595 252.53 275.139C252.884 275.684 253.611 275.839 254.156 275.485Z" fill="white"/>
<path d="M284.62 255.013C285.028 254.748 285.144 254.202 284.88 253.794C284.615 253.386 284.069 253.27 283.661 253.535C283.253 253.799 283.137 254.345 283.401 254.753C283.666 255.161 284.212 255.277 284.62 255.013Z" fill="white"/>
</g>
</svg>
