<svg width="428" height="253" viewBox="0 0 428 253" fill="none" xmlns="http://www.w3.org/2000/svg">
<mask id="mask0_1638_3139" style="mask-type:luminance" maskUnits="userSpaceOnUse" x="-2" y="42" width="2" height="2">
<path d="M-0.603137 43.3599C-1.2474 43.3599 -1.24634 42.3599 -0.603137 42.3599C0.0411291 42.3599 0.0400625 43.3599 -0.603137 43.3599Z" fill="white"/>
</mask>
<g mask="url(#mask0_1638_3139)">
</g>
<mask id="mask1_1638_3139" style="mask-type:luminance" maskUnits="userSpaceOnUse" x="34" y="12" width="2" height="2">
<path d="M34.9542 13.1387C34.3089 13.1387 34.3102 12.1387 34.9542 12.1387C35.5982 12.1387 35.5969 13.1387 34.9542 13.1387Z" fill="white"/>
</mask>
<g mask="url(#mask1_1638_3139)">
<rect x="33.7617" y="11.7197" width="2.02667" height="1.76003" fill="#FCFCFC"/>
</g>
<mask id="mask2_1638_3139" style="mask-type:luminance" maskUnits="userSpaceOnUse" x="6" y="18" width="1" height="2">
<path d="M6.50789 19.3599C5.86389 19.3599 5.86522 18.3599 6.50789 18.3599C7.15322 18.3599 7.15189 19.3599 6.50789 19.3599Z" fill="white"/>
</mask>
<g mask="url(#mask2_1638_3139)">
<rect x="5.62695" y="18.1196" width="2.02667" height="1.76003" fill="#FCFCFC"/>
</g>
<mask id="mask3_1638_3139" style="mask-type:luminance" maskUnits="userSpaceOnUse" x="54" y="66" width="2" height="3">
<path d="M55.1758 68.4829C54.9251 68.4829 54.6758 68.3216 54.6758 68.0002C54.6758 67.5549 54.6758 67.1122 54.6758 66.6669C54.6758 66.3442 54.9251 66.1842 55.1744 66.1842C55.4251 66.1842 55.6758 66.3456 55.6758 66.6669C55.6758 67.1122 55.6758 67.5549 55.6758 68.0002C55.6758 68.3216 55.4251 68.4829 55.1758 68.4829Z" fill="white"/>
</mask>
<g mask="url(#mask3_1638_3139)">
<rect x="54.2949" y="65.7202" width="1.76" height="3.09336" fill="#FCFCFC"/>
</g>
<mask id="mask4_1638_3139" style="mask-type:luminance" maskUnits="userSpaceOnUse" x="25" y="86" width="2" height="2">
<path d="M25.8429 87.1665C25.1975 87.1665 25.1989 86.1665 25.8429 86.1665C26.4869 86.1665 26.4855 87.1665 25.8429 87.1665Z" fill="white"/>
</mask>
<g mask="url(#mask4_1638_3139)">
<rect x="24.8281" y="85.9863" width="2.02667" height="1.76003" fill="#FCFCFC"/>
</g>
<mask id="mask5_1638_3139" style="mask-type:luminance" maskUnits="userSpaceOnUse" x="74" y="56" width="2" height="2">
<path d="M75.1769 57.8335C74.5315 57.8335 74.5329 56.8335 75.1769 56.8335C75.8209 56.8335 75.8195 57.8335 75.1769 57.8335Z" fill="white"/>
</mask>
<g mask="url(#mask5_1638_3139)">
<rect x="74.0293" y="56.52" width="2.16" height="1.76003" fill="#FCFCFC"/>
</g>
<mask id="mask6_1638_3139" style="mask-type:luminance" maskUnits="userSpaceOnUse" x="57" y="139" width="2" height="2">
<path d="M57.8429 140.5C57.1975 140.5 57.1989 139.5 57.8429 139.5C58.4869 139.5 58.4855 140.5 57.8429 140.5Z" fill="white"/>
</mask>
<g mask="url(#mask6_1638_3139)">
<rect x="56.8281" y="139.053" width="2.02667" height="1.76003" fill="#FCFCFC"/>
</g>
<mask id="mask7_1638_3139" style="mask-type:luminance" maskUnits="userSpaceOnUse" x="18" y="118" width="2" height="2">
<path d="M19.1769 119.167C18.5315 119.167 18.5329 118.167 19.1769 118.167C19.8209 118.167 19.8195 119.167 19.1769 119.167Z" fill="white"/>
</mask>
<g mask="url(#mask7_1638_3139)">
<rect x="18.0293" y="117.853" width="2.16" height="1.76003" fill="#FCFCFC"/>
</g>
<mask id="mask8_1638_3139" style="mask-type:luminance" maskUnits="userSpaceOnUse" x="5" y="163" width="2" height="3">
<path d="M5.84375 165.816C5.59308 165.816 5.34375 165.655 5.34375 165.333C5.34375 164.889 5.34375 164.445 5.34375 164C5.34375 163.677 5.59308 163.517 5.84242 163.517C6.09308 163.517 6.34375 163.679 6.34375 164C6.34375 164.445 6.34375 164.889 6.34375 165.333C6.34375 165.656 6.09308 165.816 5.84375 165.816Z" fill="white"/>
</mask>
<g mask="url(#mask8_1638_3139)">
<rect x="4.96289" y="163.053" width="1.76" height="2.96003" fill="#FCFCFC"/>
</g>
<mask id="mask9_1638_3139" style="mask-type:luminance" maskUnits="userSpaceOnUse" x="29" y="170" width="2" height="2">
<path d="M29.8429 171.167C29.1975 171.167 29.1989 170.167 29.8429 170.167C30.4869 170.167 30.4855 171.167 29.8429 171.167Z" fill="white"/>
</mask>
<g mask="url(#mask9_1638_3139)">
<rect x="28.6953" y="169.72" width="2.02667" height="1.76003" fill="#FCFCFC"/>
</g>
<mask id="mask10_1638_3139" style="mask-type:luminance" maskUnits="userSpaceOnUse" x="109" y="135" width="2" height="3">
<path d="M109.844 137.816C109.593 137.816 109.344 137.655 109.344 137.333C109.344 136.888 109.344 136.444 109.344 136C109.344 135.677 109.593 135.517 109.842 135.517C110.093 135.517 110.344 135.679 110.344 136C110.344 136.444 110.344 136.888 110.344 137.333C110.344 137.656 110.093 137.816 109.844 137.816Z" fill="white"/>
</mask>
<g mask="url(#mask10_1638_3139)">
<rect x="108.963" y="135.187" width="1.76" height="3.09336" fill="#FCFCFC"/>
</g>
<mask id="mask11_1638_3139" style="mask-type:luminance" maskUnits="userSpaceOnUse" x="126" y="83" width="2" height="2">
<path d="M127.177 84.5C126.532 84.5 126.533 83.5 127.177 83.5C127.821 83.5 127.82 84.5 127.177 84.5Z" fill="white"/>
</mask>
<g mask="url(#mask11_1638_3139)">
<rect x="126.295" y="83.0532" width="2.02667" height="1.76003" fill="#FCFCFC"/>
</g>
<mask id="mask12_1638_3139" style="mask-type:luminance" maskUnits="userSpaceOnUse" x="100" y="43" width="1" height="2">
<path d="M100.509 44.5C99.8636 44.5 99.8649 43.5 100.509 43.5C101.153 43.5 101.152 44.5 100.509 44.5Z" fill="white"/>
</mask>
<g mask="url(#mask12_1638_3139)">
<rect x="99.3613" y="43.0532" width="2.02667" height="1.76003" fill="#FCFCFC"/>
</g>
<mask id="mask13_1638_3139" style="mask-type:luminance" maskUnits="userSpaceOnUse" x="58" y="36" width="4" height="4">
<path d="M59.1963 39.1665C58.8123 39.1665 58.471 38.6652 58.823 38.3132C59.267 37.8692 59.711 37.4239 60.155 36.9799C60.259 36.8759 60.3763 36.8332 60.4883 36.8332C60.8723 36.8332 61.215 37.3345 60.863 37.6865C60.4177 38.1305 59.9737 38.5758 59.5297 39.0198C59.4257 39.1238 59.3097 39.1665 59.1963 39.1665Z" fill="white"/>
</mask>
<g mask="url(#mask13_1638_3139)">
<rect x="58.0293" y="36.3867" width="3.75999" height="3.36003" fill="#FCFCFC"/>
</g>
<mask id="mask14_1638_3139" style="mask-type:luminance" maskUnits="userSpaceOnUse" x="30" y="48" width="2" height="2">
<path d="M31.1769 49.8335C30.5315 49.8335 30.5329 48.8335 31.1769 48.8335C31.8209 48.8335 31.8195 49.8335 31.1769 49.8335Z" fill="white"/>
</mask>
<g mask="url(#mask14_1638_3139)">
<rect x="30.2949" y="48.52" width="2.02667" height="1.76003" fill="#FCFCFC"/>
</g>
<mask id="mask15_1638_3139" style="mask-type:luminance" maskUnits="userSpaceOnUse" x="12" y="80" width="1" height="2">
<path d="M12.5089 81.8335C11.8636 81.8335 11.8649 80.8335 12.5089 80.8335C13.1529 80.8335 13.1516 81.8335 12.5089 81.8335Z" fill="white"/>
</mask>
<g mask="url(#mask15_1638_3139)">
<rect x="11.3613" y="80.52" width="2.02667" height="1.76003" fill="#FCFCFC"/>
</g>
<mask id="mask16_1638_3139" style="mask-type:luminance" maskUnits="userSpaceOnUse" x="144" y="76" width="1" height="2">
<path d="M144.509 77.8335C143.864 77.8335 143.865 76.8335 144.509 76.8335C145.153 76.8335 145.152 77.8335 144.509 77.8335Z" fill="white"/>
</mask>
<g mask="url(#mask16_1638_3139)">
<rect x="143.494" y="76.3867" width="2.16003" height="1.76003" fill="#FCFCFC"/>
</g>
<mask id="mask17_1638_3139" style="mask-type:luminance" maskUnits="userSpaceOnUse" x="102" y="74" width="2" height="2">
<path d="M103.177 75.1665C102.532 75.1665 102.533 74.1665 103.177 74.1665C103.821 74.1665 103.82 75.1665 103.177 75.1665Z" fill="white"/>
</mask>
<g mask="url(#mask17_1638_3139)">
<rect x="102.295" y="73.7197" width="2.02667" height="1.76003" fill="#FCFCFC"/>
</g>
<mask id="mask18_1638_3139" style="mask-type:luminance" maskUnits="userSpaceOnUse" x="138" y="46" width="2" height="2">
<path d="M139.177 47.1665C138.532 47.1665 138.533 46.1665 139.177 46.1665C139.821 46.1665 139.82 47.1665 139.177 47.1665Z" fill="white"/>
</mask>
<g mask="url(#mask18_1638_3139)">
<rect x="138.029" y="45.5864" width="2.16" height="2.16003" fill="#FCFCFC"/>
</g>
<mask id="mask19_1638_3139" style="mask-type:luminance" maskUnits="userSpaceOnUse" x="145" y="10" width="2" height="2">
<path d="M145.843 11.1665C145.198 11.1665 145.199 10.1665 145.843 10.1665C146.487 10.1665 146.486 11.1665 145.843 11.1665Z" fill="white"/>
</mask>
<g mask="url(#mask19_1638_3139)">
<rect x="144.828" y="9.71973" width="2.02669" height="1.76003" fill="#FCFCFC"/>
</g>
<mask id="mask20_1638_3139" style="mask-type:luminance" maskUnits="userSpaceOnUse" x="176" y="24" width="1" height="2">
<path d="M176.509 25.8335C175.864 25.8335 175.865 24.8335 176.509 24.8335C177.153 24.8335 177.152 25.8335 176.509 25.8335Z" fill="white"/>
</mask>
<g mask="url(#mask20_1638_3139)">
<rect x="175.494" y="24.52" width="2.02669" height="1.76003" fill="#FCFCFC"/>
</g>
<mask id="mask21_1638_3139" style="mask-type:luminance" maskUnits="userSpaceOnUse" x="164" y="47" width="1" height="2">
<path d="M164.509 48.5C163.864 48.5 163.865 47.5 164.509 47.5C165.153 47.5 165.152 48.5 164.509 48.5Z" fill="white"/>
</mask>
<g mask="url(#mask21_1638_3139)">
<rect x="163.361" y="47.1865" width="2.02669" height="1.76003" fill="#FCFCFC"/>
</g>
<mask id="mask22_1638_3139" style="mask-type:luminance" maskUnits="userSpaceOnUse" x="104" y="14" width="1" height="2">
<path d="M104.509 15.1665C103.864 15.1665 103.865 14.1665 104.509 14.1665C105.153 14.1665 105.152 15.1665 104.509 15.1665Z" fill="white"/>
</mask>
<g mask="url(#mask22_1638_3139)">
<rect x="103.494" y="13.5864" width="2.16" height="2.16003" fill="#FCFCFC"/>
</g>
<mask id="mask23_1638_3139" style="mask-type:luminance" maskUnits="userSpaceOnUse" x="84" y="10" width="1" height="2">
<path d="M84.5089 11.1665C83.8636 11.1665 83.8649 10.1665 84.5089 10.1665C85.1529 10.1665 85.1516 11.1665 84.5089 11.1665Z" fill="white"/>
</mask>
<g mask="url(#mask23_1638_3139)">
<rect x="83.3613" y="9.71973" width="2.02667" height="1.76003" fill="#FCFCFC"/>
</g>
<mask id="mask24_1638_3139" style="mask-type:luminance" maskUnits="userSpaceOnUse" x="192" y="22" width="1" height="2">
<path d="M192.509 23.1665C191.864 23.1665 191.865 22.1665 192.509 22.1665C193.153 22.1665 193.152 23.1665 192.509 23.1665Z" fill="white"/>
</mask>
<g mask="url(#mask24_1638_3139)">
<rect x="191.494" y="21.5864" width="2.02669" height="2.16003" fill="#FCFCFC"/>
</g>
<mask id="mask25_1638_3139" style="mask-type:luminance" maskUnits="userSpaceOnUse" x="205" y="52" width="2" height="2">
<path d="M205.842 53.8335C205.198 53.8335 205.199 52.8335 205.842 52.8335C206.487 52.8335 206.487 53.8335 205.842 53.8335Z" fill="white"/>
</mask>
<g mask="url(#mask25_1638_3139)">
<rect x="204.961" y="52.3867" width="2.02669" height="1.76003" fill="#FCFCFC"/>
</g>
<mask id="mask26_1638_3139" style="mask-type:luminance" maskUnits="userSpaceOnUse" x="245" y="108" width="2" height="2">
<path d="M245.842 109.833C245.198 109.833 245.199 108.833 245.842 108.833C246.486 108.833 246.486 109.833 245.842 109.833Z" fill="white"/>
</mask>
<g mask="url(#mask26_1638_3139)">
<rect x="244.961" y="108.387" width="2.02669" height="1.62669" fill="#FCFCFC"/>
</g>
<mask id="mask27_1638_3139" style="mask-type:luminance" maskUnits="userSpaceOnUse" x="236" y="76" width="1" height="2">
<path d="M236.508 77.8335C235.864 77.8335 235.865 76.8335 236.508 76.8335C237.153 76.8335 237.153 77.8335 236.508 77.8335Z" fill="white"/>
</mask>
<g mask="url(#mask27_1638_3139)">
<rect x="235.361" y="76.3867" width="2.02669" height="1.76003" fill="#FCFCFC"/>
</g>
<mask id="mask28_1638_3139" style="mask-type:luminance" maskUnits="userSpaceOnUse" x="218" y="96" width="2" height="2">
<path d="M219.174 97.8335C218.53 97.8335 218.531 96.8335 219.174 96.8335C219.818 96.8335 219.818 97.8335 219.174 97.8335Z" fill="white"/>
</mask>
<g mask="url(#mask28_1638_3139)">
<rect x="218.027" y="96.52" width="2.16003" height="1.76003" fill="#FCFCFC"/>
</g>
<mask id="mask29_1638_3139" style="mask-type:luminance" maskUnits="userSpaceOnUse" x="157" y="148" width="3" height="4">
<path d="M159.155 151.167C159.043 151.167 158.926 151.124 158.822 151.02C158.378 150.576 157.934 150.132 157.489 149.686C157.137 149.334 157.479 148.833 157.863 148.833C157.977 148.833 158.093 148.876 158.197 148.98C158.641 149.424 159.085 149.868 159.53 150.313C159.882 150.665 159.539 151.167 159.155 151.167Z" fill="white"/>
</mask>
<g mask="url(#mask29_1638_3139)">
<rect x="156.562" y="148.253" width="3.76003" height="3.36003" fill="#FCFCFC"/>
</g>
<mask id="mask30_1638_3139" style="mask-type:luminance" maskUnits="userSpaceOnUse" x="176" y="110" width="1" height="2">
<path d="M176.509 111.167C175.864 111.167 175.865 110.167 176.509 110.167C177.153 110.167 177.152 111.167 176.509 111.167Z" fill="white"/>
</mask>
<g mask="url(#mask30_1638_3139)">
<rect x="175.494" y="109.853" width="2.02669" height="1.76003" fill="#FCFCFC"/>
</g>
<mask id="mask31_1638_3139" style="mask-type:luminance" maskUnits="userSpaceOnUse" x="209" y="127" width="2" height="3">
<path d="M209.842 129.816C209.592 129.816 209.342 129.655 209.342 129.333C209.342 128.889 209.342 128.445 209.342 128C209.342 127.677 209.591 127.517 209.842 127.517C210.091 127.517 210.342 127.679 210.342 128C210.342 128.445 210.342 128.889 210.342 129.333C210.342 129.656 210.092 129.816 209.842 129.816Z" fill="white"/>
</mask>
<g mask="url(#mask31_1638_3139)">
<rect x="209.096" y="127.187" width="1.76003" height="3.09336" fill="#FCFCFC"/>
</g>
<mask id="mask32_1638_3139" style="mask-type:luminance" maskUnits="userSpaceOnUse" x="193" y="147" width="2" height="2">
<path d="M193.843 148.5C193.198 148.5 193.199 147.5 193.843 147.5C194.487 147.5 194.486 148.5 193.843 148.5Z" fill="white"/>
</mask>
<g mask="url(#mask32_1638_3139)">
<rect x="192.828" y="147.053" width="2.02669" height="1.76003" fill="#FCFCFC"/>
</g>
<mask id="mask33_1638_3139" style="mask-type:luminance" maskUnits="userSpaceOnUse" x="177" y="127" width="2" height="2">
<path d="M178.029 128.467C178.102 128.181 177.946 127.828 177.564 127.828C177.494 127.828 177.432 127.839 177.377 127.86C177.426 127.664 177.582 127.5 177.844 127.5C178.418 127.5 178.48 128.295 178.029 128.467Z" fill="white"/>
</mask>
<g mask="url(#mask33_1638_3139)">
<rect x="177.096" y="127.187" width="1.76003" height="1.76003" fill="#FCFCFC"/>
</g>
<mask id="mask34_1638_3139" style="mask-type:luminance" maskUnits="userSpaceOnUse" x="194" y="87" width="2" height="2">
<path d="M195.177 88.5C194.532 88.5 194.533 87.5 195.177 87.5C195.821 87.5 195.82 88.5 195.177 88.5Z" fill="white"/>
</mask>
<g mask="url(#mask34_1638_3139)">
<rect x="194.029" y="87.1865" width="2.16003" height="1.76003" fill="#FCFCFC"/>
</g>
<mask id="mask35_1638_3139" style="mask-type:luminance" maskUnits="userSpaceOnUse" x="154" y="98" width="2" height="2">
<path d="M155.177 99.1665C154.532 99.1665 154.533 98.1665 155.177 98.1665C155.821 98.1665 155.82 99.1665 155.177 99.1665Z" fill="white"/>
</mask>
<g mask="url(#mask35_1638_3139)">
<rect x="154.029" y="97.7197" width="2.16003" height="1.76003" fill="#FCFCFC"/>
</g>
<mask id="mask36_1638_3139" style="mask-type:luminance" maskUnits="userSpaceOnUse" x="177" y="68" width="2" height="2">
<path d="M177.843 69.8335C177.198 69.8335 177.199 68.8335 177.843 68.8335C178.487 68.8335 178.486 69.8335 177.843 69.8335Z" fill="white"/>
</mask>
<g mask="url(#mask36_1638_3139)">
<rect x="176.828" y="68.3867" width="2.02669" height="1.76003" fill="#FCFCFC"/>
</g>
<mask id="mask37_1638_3139" style="mask-type:luminance" maskUnits="userSpaceOnUse" x="149" y="111" width="2" height="2">
<path d="M149.843 112.5C149.198 112.5 149.199 111.5 149.843 111.5C150.487 111.5 150.486 112.5 149.843 112.5Z" fill="white"/>
</mask>
<g mask="url(#mask37_1638_3139)">
<rect x="148.961" y="111.187" width="2.02669" height="1.76003" fill="#FCFCFC"/>
</g>
<mask id="mask38_1638_3139" style="mask-type:luminance" maskUnits="userSpaceOnUse" x="120" y="115" width="1" height="2">
<path d="M120.509 116.5C119.864 116.5 119.865 115.5 120.509 115.5C121.153 115.5 121.152 116.5 120.509 116.5Z" fill="white"/>
</mask>
<g mask="url(#mask38_1638_3139)">
<rect x="119.494" y="115.053" width="2.16" height="1.76003" fill="#FCFCFC"/>
</g>
<mask id="mask39_1638_3139" style="mask-type:luminance" maskUnits="userSpaceOnUse" x="133" y="170" width="2" height="2">
<path d="M133.843 171.167C133.198 171.167 133.199 170.167 133.843 170.167C134.487 170.167 134.486 171.167 133.843 171.167Z" fill="white"/>
</mask>
<g mask="url(#mask39_1638_3139)">
<rect x="132.961" y="169.72" width="2.02667" height="1.76003" fill="#FCFCFC"/>
</g>
<mask id="mask40_1638_3139" style="mask-type:luminance" maskUnits="userSpaceOnUse" x="110" y="190" width="2" height="2">
<path d="M111.177 191.167C110.532 191.167 110.533 190.167 111.177 190.167C111.821 190.167 111.82 191.167 111.177 191.167Z" fill="white"/>
</mask>
<g mask="url(#mask40_1638_3139)">
<rect x="110.295" y="189.853" width="2.02667" height="1.76003" fill="#FCFCFC"/>
</g>
<mask id="mask41_1638_3139" style="mask-type:luminance" maskUnits="userSpaceOnUse" x="97" y="162" width="2" height="2">
<path d="M97.8429 163.167C97.1975 163.167 97.1989 162.167 97.8429 162.167C98.4869 162.167 98.4855 163.167 97.8429 163.167Z" fill="white"/>
</mask>
<g mask="url(#mask41_1638_3139)">
<rect x="96.8281" y="161.72" width="2.02667" height="1.76003" fill="#FCFCFC"/>
</g>
<mask id="mask42_1638_3139" style="mask-type:luminance" maskUnits="userSpaceOnUse" x="117" y="191" width="2" height="2">
<path d="M117.843 192.5C117.198 192.5 117.199 191.5 117.843 191.5C118.487 191.5 118.486 192.5 117.843 192.5Z" fill="white"/>
</mask>
<g mask="url(#mask42_1638_3139)">
<rect x="116.961" y="191.187" width="2.02667" height="1.76003" fill="#FCFCFC"/>
</g>
<mask id="mask43_1638_3139" style="mask-type:luminance" maskUnits="userSpaceOnUse" x="124" y="202" width="1" height="2">
<path d="M124.509 203.167C123.864 203.167 123.865 202.167 124.509 202.167C125.153 202.167 125.152 203.167 124.509 203.167Z" fill="white"/>
</mask>
<g mask="url(#mask43_1638_3139)">
<rect x="123.361" y="201.72" width="2.02667" height="1.76003" fill="#FCFCFC"/>
</g>
<mask id="mask44_1638_3139" style="mask-type:luminance" maskUnits="userSpaceOnUse" x="124" y="194" width="1" height="2">
<path d="M124.509 195.167C123.864 195.167 123.865 194.167 124.509 194.167C125.153 194.167 125.152 195.167 124.509 195.167Z" fill="white"/>
</mask>
<g mask="url(#mask44_1638_3139)">
<rect x="123.361" y="193.72" width="2.02667" height="1.76003" fill="#FCFCFC"/>
</g>
<mask id="mask45_1638_3139" style="mask-type:luminance" maskUnits="userSpaceOnUse" x="136" y="203" width="1" height="2">
<path d="M136.509 204.5C135.864 204.5 135.865 203.5 136.509 203.5C137.153 203.5 137.152 204.5 136.509 204.5Z" fill="white"/>
</mask>
<g mask="url(#mask45_1638_3139)">
<rect x="135.494" y="203.053" width="2.16" height="1.76003" fill="#FCFCFC"/>
</g>
<mask id="mask46_1638_3139" style="mask-type:luminance" maskUnits="userSpaceOnUse" x="150" y="216" width="4" height="4">
<path d="M152.49 219.167C152.377 219.167 152.26 219.124 152.157 219.02C151.712 218.576 151.268 218.132 150.824 217.686C150.47 217.334 150.813 216.833 151.197 216.833C151.31 216.833 151.426 216.876 151.53 216.98C151.974 217.424 152.418 217.868 152.864 218.313C153.216 218.665 152.873 219.168 152.49 219.167Z" fill="white"/>
</mask>
<g mask="url(#mask46_1638_3139)">
<rect x="150.295" y="216.52" width="3.22669" height="2.96003" fill="#FCFCFC"/>
</g>
<mask id="mask47_1638_3139" style="mask-type:luminance" maskUnits="userSpaceOnUse" x="168" y="226" width="1" height="2">
<path d="M168.509 227.167C167.864 227.167 167.865 226.167 168.509 226.167C169.153 226.167 169.152 227.167 168.509 227.167Z" fill="white"/>
</mask>
<g mask="url(#mask47_1638_3139)">
<rect x="167.494" y="225.72" width="2.02669" height="1.76003" fill="#FCFCFC"/>
</g>
<mask id="mask48_1638_3139" style="mask-type:luminance" maskUnits="userSpaceOnUse" x="182" y="208" width="2" height="2">
<path d="M183.177 209.833C182.532 209.833 182.533 208.833 183.177 208.833C183.821 208.833 183.82 209.833 183.177 209.833Z" fill="white"/>
</mask>
<g mask="url(#mask48_1638_3139)">
<rect x="182.162" y="208.52" width="2.16003" height="1.76003" fill="#FCFCFC"/>
</g>
<mask id="mask49_1638_3139" style="mask-type:luminance" maskUnits="userSpaceOnUse" x="210" y="192" width="2" height="2">
<path d="M211.174 193.833C210.53 193.833 210.531 192.833 211.174 192.833C211.819 192.833 211.819 193.833 211.174 193.833Z" fill="white"/>
</mask>
<g mask="url(#mask49_1638_3139)">
<rect x="210.027" y="192.52" width="2.16003" height="1.76003" fill="#FCFCFC"/>
</g>
<mask id="mask50_1638_3139" style="mask-type:luminance" maskUnits="userSpaceOnUse" x="173" y="186" width="2" height="2">
<path d="M173.843 187.167C173.198 187.167 173.199 186.167 173.843 186.167C174.487 186.167 174.486 187.167 173.843 187.167Z" fill="white"/>
</mask>
<g mask="url(#mask50_1638_3139)">
<rect x="172.961" y="185.72" width="2.02669" height="1.76003" fill="#FCFCFC"/>
</g>
<mask id="mask51_1638_3139" style="mask-type:luminance" maskUnits="userSpaceOnUse" x="173" y="168" width="2" height="2">
<path d="M173.843 169.833C173.198 169.833 173.199 168.833 173.843 168.833C174.487 168.833 174.486 169.833 173.843 169.833Z" fill="white"/>
</mask>
<g mask="url(#mask51_1638_3139)">
<rect x="172.961" y="168.52" width="2.02669" height="1.76003" fill="#FCFCFC"/>
</g>
<mask id="mask52_1638_3139" style="mask-type:luminance" maskUnits="userSpaceOnUse" x="193" y="171" width="2" height="3">
<path d="M193.844 173.816C193.593 173.816 193.344 173.655 193.344 173.333C193.344 172.888 193.344 172.444 193.344 172C193.344 171.677 193.593 171.517 193.842 171.517C194.093 171.517 194.344 171.679 194.344 172C194.344 172.444 194.344 172.888 194.344 173.333C194.344 173.656 194.093 173.816 193.844 173.816Z" fill="white"/>
</mask>
<g mask="url(#mask52_1638_3139)">
<rect x="193.096" y="171.053" width="1.76003" height="2.96003" fill="#FCFCFC"/>
</g>
<mask id="mask53_1638_3139" style="mask-type:luminance" maskUnits="userSpaceOnUse" x="156" y="182" width="2" height="3">
<path d="M156.51 184.483C156.259 184.483 156.01 184.322 156.01 184C156.01 183.555 156.01 183.111 156.01 182.667C156.01 182.344 156.259 182.184 156.508 182.184C156.759 182.184 157.01 182.346 157.01 182.667C157.01 183.111 157.01 183.555 157.01 184C157.01 184.323 156.759 184.483 156.51 184.483Z" fill="white"/>
</mask>
<g mask="url(#mask53_1638_3139)">
<rect x="155.629" y="181.854" width="1.76003" height="3.09336" fill="#FCFCFC"/>
</g>
<mask id="mask54_1638_3139" style="mask-type:luminance" maskUnits="userSpaceOnUse" x="144" y="179" width="1" height="2">
<path d="M144.509 180.5C143.864 180.5 143.865 179.5 144.509 179.5C145.153 179.5 145.152 180.5 144.509 180.5Z" fill="white"/>
</mask>
<g mask="url(#mask54_1638_3139)">
<rect x="143.494" y="179.053" width="2.16003" height="1.76003" fill="#FCFCFC"/>
</g>
<mask id="mask55_1638_3139" style="mask-type:luminance" maskUnits="userSpaceOnUse" x="80" y="192" width="1" height="2">
<path d="M80.5089 193.833C79.8636 193.833 79.8649 192.833 80.5089 192.833C81.1529 192.833 81.1516 193.833 80.5089 193.833Z" fill="white"/>
</mask>
<g mask="url(#mask55_1638_3139)">
<rect x="79.4941" y="192.52" width="2.16" height="1.76003" fill="#FCFCFC"/>
</g>
<mask id="mask56_1638_3139" style="mask-type:luminance" maskUnits="userSpaceOnUse" x="78" y="226" width="2" height="2">
<path d="M79.1758 227.975C78.9251 227.975 78.6758 227.813 78.6758 227.492C78.6758 227.217 78.6758 226.941 78.6758 226.667C78.6758 226.344 78.9251 226.184 79.1744 226.184C79.4251 226.184 79.6758 226.345 79.6758 226.667C79.6758 226.941 79.6758 227.217 79.6758 227.492C79.6758 227.815 79.4251 227.975 79.1758 227.975Z" fill="white"/>
</mask>
<g mask="url(#mask56_1638_3139)">
<rect x="78.2949" y="225.72" width="1.76" height="2.69336" fill="#FCFCFC"/>
</g>
<mask id="mask57_1638_3139" style="mask-type:luminance" maskUnits="userSpaceOnUse" x="90" y="236" width="2" height="2">
<path d="M91.1769 237.833C90.5315 237.833 90.5329 236.833 91.1769 236.833C91.8209 236.833 91.8195 237.833 91.1769 237.833Z" fill="white"/>
</mask>
<g mask="url(#mask57_1638_3139)">
<rect x="90.0293" y="236.253" width="2.16" height="2.16003" fill="#FCFCFC"/>
</g>
<mask id="mask58_1638_3139" style="mask-type:luminance" maskUnits="userSpaceOnUse" x="125" y="226" width="2" height="3">
<path d="M125.844 228.483C125.593 228.483 125.344 228.322 125.344 228C125.344 227.556 125.344 227.111 125.344 226.667C125.344 226.344 125.593 226.184 125.842 226.184C126.093 226.184 126.344 226.346 126.344 226.667C126.344 227.111 126.344 227.556 126.344 228C126.344 228.323 126.093 228.483 125.844 228.483Z" fill="white"/>
</mask>
<g mask="url(#mask58_1638_3139)">
<rect x="124.963" y="225.72" width="1.76" height="3.09336" fill="#FCFCFC"/>
</g>
<mask id="mask59_1638_3139" style="mask-type:luminance" maskUnits="userSpaceOnUse" x="97" y="210" width="3" height="2">
<path d="M99.1762 211.167C98.7309 211.167 98.2869 211.167 97.8429 211.167C97.1975 211.167 97.1989 210.167 97.8429 210.167C98.2869 210.167 98.7309 210.167 99.1762 210.167C99.8202 210.167 99.8189 211.167 99.1762 211.167Z" fill="white"/>
</mask>
<g mask="url(#mask59_1638_3139)">
<rect x="96.8281" y="209.72" width="3.35999" height="1.76003" fill="#FCFCFC"/>
</g>
<mask id="mask60_1638_3139" style="mask-type:luminance" maskUnits="userSpaceOnUse" x="101" y="236" width="2" height="2">
<path d="M101.843 237.833C101.198 237.833 101.199 236.833 101.843 236.833C102.487 236.833 102.486 237.833 101.843 237.833Z" fill="white"/>
</mask>
<g mask="url(#mask60_1638_3139)">
<rect x="100.961" y="236.253" width="2.02667" height="2.16003" fill="#FCFCFC"/>
</g>
<mask id="mask61_1638_3139" style="mask-type:luminance" maskUnits="userSpaceOnUse" x="37" y="214" width="2" height="2">
<path d="M37.8429 215.167C37.1975 215.167 37.1989 214.167 37.8429 214.167C38.4869 214.167 38.4855 215.167 37.8429 215.167Z" fill="white"/>
</mask>
<g mask="url(#mask61_1638_3139)">
<rect x="36.6953" y="213.853" width="2.29333" height="1.76003" fill="#FCFCFC"/>
</g>
<mask id="mask62_1638_3139" style="mask-type:luminance" maskUnits="userSpaceOnUse" x="54" y="194" width="2" height="2">
<path d="M55.1769 195.167C54.5315 195.167 54.5329 194.167 55.1769 194.167C55.8209 194.167 55.8195 195.167 55.1769 195.167Z" fill="white"/>
</mask>
<g mask="url(#mask62_1638_3139)">
<rect x="54.2949" y="193.72" width="2.02667" height="1.76003" fill="#FCFCFC"/>
</g>
<mask id="mask63_1638_3139" style="mask-type:luminance" maskUnits="userSpaceOnUse" x="13" y="196" width="2" height="2">
<path d="M13.8429 197.833C13.1975 197.833 13.1989 196.833 13.8429 196.833C14.4869 196.833 14.4855 197.833 13.8429 197.833Z" fill="white"/>
</mask>
<g mask="url(#mask63_1638_3139)">
<rect x="12.6953" y="196.253" width="2.02667" height="2.16003" fill="#FCFCFC"/>
</g>
<mask id="mask64_1638_3139" style="mask-type:luminance" maskUnits="userSpaceOnUse" x="34" y="186" width="2" height="2">
<path d="M35.1769 187.167C34.5315 187.167 34.5329 186.167 35.1769 186.167C35.8209 186.167 35.8195 187.167 35.1769 187.167Z" fill="white"/>
</mask>
<g mask="url(#mask64_1638_3139)">
<rect x="34.0293" y="185.72" width="2.16" height="1.76003" fill="#FCFCFC"/>
</g>
<mask id="mask65_1638_3139" style="mask-type:luminance" maskUnits="userSpaceOnUse" x="17" y="236" width="2" height="2">
<path d="M17.8429 237.833C17.1975 237.833 17.1989 236.833 17.8429 236.833C18.4869 236.833 18.4855 237.833 17.8429 237.833Z" fill="white"/>
</mask>
<g mask="url(#mask65_1638_3139)">
<rect x="16.8281" y="236.253" width="2.02667" height="2.16003" fill="#FCFCFC"/>
</g>
<mask id="mask66_1638_3139" style="mask-type:luminance" maskUnits="userSpaceOnUse" x="13" y="247" width="2" height="2">
<path d="M13.8429 248.5C13.1975 248.5 13.1989 247.5 13.8429 247.5C14.4869 247.5 14.4855 248.5 13.8429 248.5Z" fill="white"/>
</mask>
<g mask="url(#mask66_1638_3139)">
<rect x="12.6953" y="247.187" width="2.02667" height="1.76003" fill="#FCFCFC"/>
</g>
<mask id="mask67_1638_3139" style="mask-type:luminance" maskUnits="userSpaceOnUse" x="17" y="228" width="2" height="2">
<path d="M17.8429 229.833C17.1975 229.833 17.1989 228.833 17.8429 228.833C18.4869 228.833 18.4855 229.833 17.8429 229.833Z" fill="white"/>
</mask>
<g mask="url(#mask67_1638_3139)">
<rect x="16.8281" y="228.253" width="2.02667" height="2.16003" fill="#FCFCFC"/>
</g>
<mask id="mask68_1638_3139" style="mask-type:luminance" maskUnits="userSpaceOnUse" x="25" y="223" width="3" height="2">
<path d="M27.1762 224.5C26.7309 224.5 26.2869 224.5 25.8429 224.5C25.1975 224.5 25.1989 223.5 25.8429 223.5C26.2869 223.5 26.7309 223.5 27.1762 223.5C27.8202 223.5 27.8189 224.5 27.1762 224.5Z" fill="white"/>
</mask>
<g mask="url(#mask68_1638_3139)">
<rect x="24.8281" y="223.187" width="3.35999" height="1.76003" fill="#FCFCFC"/>
</g>
<mask id="mask69_1638_3139" style="mask-type:luminance" maskUnits="userSpaceOnUse" x="40" y="228" width="1" height="2">
<path d="M40.5089 229.833C39.8636 229.833 39.8649 228.833 40.5089 228.833C41.1529 228.833 41.1516 229.833 40.5089 229.833Z" fill="white"/>
</mask>
<g mask="url(#mask69_1638_3139)">
<rect x="39.4941" y="228.253" width="2.16" height="2.16003" fill="#FCFCFC"/>
</g>
<mask id="mask70_1638_3139" style="mask-type:luminance" maskUnits="userSpaceOnUse" x="50" y="235" width="2" height="2">
<path d="M51.1769 236.5C50.5315 236.5 50.5329 235.5 51.1769 235.5C51.8209 235.5 51.8195 236.5 51.1769 236.5Z" fill="white"/>
</mask>
<g mask="url(#mask70_1638_3139)">
<rect x="50.0293" y="235.053" width="2.16" height="1.76003" fill="#FCFCFC"/>
</g>
<mask id="mask71_1638_3139" style="mask-type:luminance" maskUnits="userSpaceOnUse" x="64" y="246" width="1" height="2">
<path d="M64.5089 247.167C63.8636 247.167 63.8649 246.167 64.5089 246.167C65.1529 246.167 65.1516 247.167 64.5089 247.167Z" fill="white"/>
</mask>
<g mask="url(#mask71_1638_3139)">
<rect x="63.4941" y="245.853" width="2.16" height="1.76003" fill="#FCFCFC"/>
</g>
<mask id="mask72_1638_3139" style="mask-type:luminance" maskUnits="userSpaceOnUse" x="21" y="215" width="2" height="2">
<path d="M21.8429 216.5C21.1975 216.5 21.1989 215.5 21.8429 215.5C22.4869 215.5 22.4855 216.5 21.8429 216.5Z" fill="white"/>
</mask>
<g mask="url(#mask72_1638_3139)">
<rect x="20.6953" y="215.187" width="2.02667" height="1.76003" fill="#FCFCFC"/>
</g>
<mask id="mask73_1638_3139" style="mask-type:luminance" maskUnits="userSpaceOnUse" x="24" y="199" width="3" height="3">
<path d="M24.5294 201.834C24.1454 201.834 23.8027 201.332 24.1547 200.98C24.6001 200.534 25.0441 200.09 25.4894 199.646C25.5921 199.542 25.7094 199.498 25.8214 199.498C26.2054 199.498 26.5481 200.001 26.1961 200.353C25.7508 200.798 25.3068 201.242 24.8628 201.686C24.7588 201.79 24.6428 201.834 24.5294 201.834Z" fill="white"/>
</mask>
<g mask="url(#mask73_1638_3139)">
<rect x="23.4941" y="199.187" width="3.35999" height="3.09336" fill="#FCFCFC"/>
</g>
<mask id="mask74_1638_3139" style="mask-type:luminance" maskUnits="userSpaceOnUse" x="24" y="187" width="1" height="2">
<path d="M24.5089 188.5C23.8636 188.5 23.8649 187.5 24.5089 187.5C25.1529 187.5 25.1516 188.5 24.5089 188.5Z" fill="white"/>
</mask>
<g mask="url(#mask74_1638_3139)">
<rect x="23.4941" y="187.053" width="2.16" height="1.76003" fill="#FCFCFC"/>
</g>
<mask id="mask75_1638_3139" style="mask-type:luminance" maskUnits="userSpaceOnUse" x="20" y="171" width="2" height="3">
<path d="M20.5098 173.816C20.2591 173.816 20.0098 173.655 20.0098 173.333C20.0098 172.888 20.0098 172.444 20.0098 172C20.0098 171.677 20.2591 171.517 20.5084 171.517C20.7591 171.517 21.0098 171.679 21.0098 172C21.0098 172.444 21.0098 172.888 21.0098 173.333C21.0098 173.656 20.7591 173.816 20.5098 173.816Z" fill="white"/>
</mask>
<g mask="url(#mask75_1638_3139)">
<rect x="19.6289" y="171.053" width="1.76" height="2.96003" fill="#FCFCFC"/>
</g>
<mask id="mask76_1638_3139" style="mask-type:luminance" maskUnits="userSpaceOnUse" x="18" y="159" width="2" height="2">
<path d="M19.1769 160.5C18.5315 160.5 18.5329 159.5 19.1769 159.5C19.8209 159.5 19.8195 160.5 19.1769 160.5Z" fill="white"/>
</mask>
<g mask="url(#mask76_1638_3139)">
<rect x="18.0293" y="159.187" width="2.16" height="1.76003" fill="#FCFCFC"/>
</g>
<mask id="mask77_1638_3139" style="mask-type:luminance" maskUnits="userSpaceOnUse" x="17" y="147" width="2" height="2">
<path d="M17.8429 148.5C17.1975 148.5 17.1989 147.5 17.8429 147.5C18.4869 147.5 18.4855 148.5 17.8429 148.5Z" fill="white"/>
</mask>
<g mask="url(#mask77_1638_3139)">
<rect x="16.8281" y="147.053" width="2.02667" height="1.76003" fill="#FCFCFC"/>
</g>
<mask id="mask78_1638_3139" style="mask-type:luminance" maskUnits="userSpaceOnUse" x="10" y="44" width="3" height="2">
<path d="M12.5102 45.8335C12.0649 45.8335 11.6209 45.8335 11.1769 45.8335C10.5315 45.8335 10.5329 44.8335 11.1769 44.8335C11.6209 44.8335 12.0649 44.8335 12.5102 44.8335C13.1542 44.8335 13.1529 45.8335 12.5102 45.8335Z" fill="white"/>
</mask>
<g mask="url(#mask78_1638_3139)">
<rect x="10.0293" y="44.3867" width="3.35999" height="1.76003" fill="#FCFCFC"/>
</g>
<mask id="mask79_1638_3139" style="mask-type:luminance" maskUnits="userSpaceOnUse" x="22" y="47" width="2" height="2">
<path d="M23.1769 48.5C22.5315 48.5 22.5329 47.5 23.1769 47.5C23.8209 47.5 23.8195 48.5 23.1769 48.5Z" fill="white"/>
</mask>
<g mask="url(#mask79_1638_3139)">
<rect x="22.2949" y="47.1865" width="2.02667" height="1.76003" fill="#FCFCFC"/>
</g>
<mask id="mask80_1638_3139" style="mask-type:luminance" maskUnits="userSpaceOnUse" x="32" y="63" width="1" height="2">
<path d="M32.5089 64.5C31.8636 64.5 31.8649 63.5 32.5089 63.5C33.1529 63.5 33.1516 64.5 32.5089 64.5Z" fill="white"/>
</mask>
<g mask="url(#mask80_1638_3139)">
<rect x="31.4941" y="63.1865" width="2.16" height="1.76003" fill="#FCFCFC"/>
</g>
<mask id="mask81_1638_3139" style="mask-type:luminance" maskUnits="userSpaceOnUse" x="26" y="74" width="2" height="2">
<path d="M27.1769 75.1665C26.5315 75.1665 26.5329 74.1665 27.1769 74.1665C27.8209 74.1665 27.8195 75.1665 27.1769 75.1665Z" fill="white"/>
</mask>
<g mask="url(#mask81_1638_3139)">
<rect x="26.0293" y="73.7197" width="2.16" height="1.76003" fill="#FCFCFC"/>
</g>
<mask id="mask82_1638_3139" style="mask-type:luminance" maskUnits="userSpaceOnUse" x="56" y="167" width="1" height="2">
<path d="M56.5089 168.5C55.8636 168.5 55.8649 167.5 56.5089 167.5C57.1529 167.5 57.1516 168.5 56.5089 168.5Z" fill="white"/>
</mask>
<g mask="url(#mask82_1638_3139)">
<rect x="55.4941" y="167.187" width="2.16" height="1.76003" fill="#FCFCFC"/>
</g>
<mask id="mask83_1638_3139" style="mask-type:luminance" maskUnits="userSpaceOnUse" x="77" y="146" width="2" height="2">
<path d="M77.8429 147.167C77.1975 147.167 77.1989 146.167 77.8429 146.167C78.4869 146.167 78.4855 147.167 77.8429 147.167Z" fill="white"/>
</mask>
<g mask="url(#mask83_1638_3139)">
<rect x="76.6953" y="145.72" width="2.29333" height="1.76003" fill="#FCFCFC"/>
</g>
<mask id="mask84_1638_3139" style="mask-type:luminance" maskUnits="userSpaceOnUse" x="125" y="27" width="3" height="2">
<path d="M127.176 28.5C126.731 28.5 126.287 28.5 125.843 28.5C125.198 28.5 125.199 27.5 125.843 27.5C126.287 27.5 126.731 27.5 127.176 27.5C127.82 27.5 127.819 28.5 127.176 28.5Z" fill="white"/>
</mask>
<g mask="url(#mask84_1638_3139)">
<rect x="124.961" y="27.0532" width="3.36" height="1.76003" fill="#FCFCFC"/>
</g>
<mask id="mask85_1638_3139" style="mask-type:luminance" maskUnits="userSpaceOnUse" x="152" y="28" width="3" height="2">
<path d="M153.842 29.8335C153.397 29.8335 152.953 29.8335 152.509 29.8335C151.864 29.8335 151.865 28.8335 152.509 28.8335C152.953 28.8335 153.397 28.8335 153.842 28.8335C154.486 28.8335 154.485 29.8335 153.842 29.8335Z" fill="white"/>
</mask>
<g mask="url(#mask85_1638_3139)">
<rect x="151.494" y="28.3867" width="3.36003" height="1.76003" fill="#FCFCFC"/>
</g>
<mask id="mask86_1638_3139" style="mask-type:luminance" maskUnits="userSpaceOnUse" x="244" y="11" width="2" height="3">
<path d="M244.508 13.8159C244.258 13.8159 244.008 13.6546 244.008 13.3332C244.008 12.8879 244.008 12.4452 244.008 11.9999C244.008 11.6772 244.257 11.5172 244.508 11.5172C244.757 11.5172 245.008 11.6786 245.008 11.9999C245.008 12.4452 245.008 12.8879 245.008 13.3332C245.008 13.6546 244.758 13.8159 244.508 13.8159Z" fill="white"/>
</mask>
<g mask="url(#mask86_1638_3139)">
<rect x="243.627" y="11.0532" width="1.76003" height="3.09336" fill="#FCFCFC"/>
</g>
<mask id="mask87_1638_3139" style="mask-type:luminance" maskUnits="userSpaceOnUse" x="236" y="18" width="2" height="3">
<path d="M236.508 20.4829C236.258 20.4829 236.008 20.3216 236.008 20.0002C236.008 19.5549 236.008 19.1122 236.008 18.6669C236.008 18.3442 236.257 18.1842 236.508 18.1842C236.757 18.1842 237.008 18.3456 237.008 18.6669C237.008 19.1122 237.008 19.5549 237.008 20.0002C237.008 20.3216 236.758 20.4829 236.508 20.4829Z" fill="white"/>
</mask>
<g mask="url(#mask87_1638_3139)">
<rect x="235.627" y="17.7202" width="1.76003" height="3.09336" fill="#FCFCFC"/>
</g>
<mask id="mask88_1638_3139" style="mask-type:luminance" maskUnits="userSpaceOnUse" x="228" y="30" width="1" height="2">
<path d="M228.508 31.1665C227.864 31.1665 227.865 30.1665 228.508 30.1665C229.153 30.1665 229.153 31.1665 228.508 31.1665Z" fill="white"/>
</mask>
<g mask="url(#mask88_1638_3139)">
<rect x="227.361" y="29.5864" width="2.02669" height="2.16003" fill="#FCFCFC"/>
</g>
<mask id="mask89_1638_3139" style="mask-type:luminance" maskUnits="userSpaceOnUse" x="218" y="12" width="2" height="4">
<path d="M219.176 15.1494C218.926 15.1494 218.676 14.9881 218.676 14.6667C218.676 14.2214 218.676 13.7787 218.676 13.3334C218.676 13.0107 218.925 12.8507 219.176 12.8507C219.425 12.8507 219.676 13.0121 219.676 13.3334C219.676 13.7787 219.676 14.2214 219.676 14.6667C219.676 14.9881 219.426 15.1494 219.176 15.1494Z" fill="white"/>
</mask>
<g mask="url(#mask89_1638_3139)">
<rect x="218.43" y="12.3867" width="1.76003" height="3.36003" fill="#FCFCFC"/>
</g>
<mask id="mask90_1638_3139" style="mask-type:luminance" maskUnits="userSpaceOnUse" x="245" y="83" width="2" height="2">
<path d="M245.94 84.1216C245.296 84.1216 245.297 83.1216 245.94 83.1216C246.585 83.1216 246.584 84.1216 245.94 84.1216Z" fill="white"/>
</mask>
<g mask="url(#mask90_1638_3139)">
<rect x="244.961" y="82.7871" width="2.02669" height="1.76003" fill="#FCFCFC"/>
</g>
<mask id="mask91_1638_3139" style="mask-type:luminance" maskUnits="userSpaceOnUse" x="277" y="85" width="2" height="2">
<path d="M277.94 86.1216C277.296 86.1216 277.297 85.1216 277.94 85.1216C278.585 85.1216 278.584 86.1216 277.94 86.1216Z" fill="white"/>
</mask>
<g mask="url(#mask91_1638_3139)">
<rect x="276.963" y="84.6533" width="2.02669" height="1.76003" fill="#FCFCFC"/>
</g>
<mask id="mask92_1638_3139" style="mask-type:luminance" maskUnits="userSpaceOnUse" x="271" y="51" width="2" height="2">
<path d="M271.94 52.1226C271.296 52.1226 271.297 51.1226 271.94 51.1226C272.585 51.1226 272.584 52.1226 271.94 52.1226Z" fill="white"/>
</mask>
<g mask="url(#mask92_1638_3139)">
<rect x="270.828" y="50.7866" width="2.16003" height="1.76003" fill="#FCFCFC"/>
</g>
<mask id="mask93_1638_3139" style="mask-type:luminance" maskUnits="userSpaceOnUse" x="353" y="57" width="2" height="2">
<path d="M353.936 58.1226C353.292 58.1226 353.293 57.1226 353.936 57.1226C354.581 57.1226 354.58 58.1226 353.936 58.1226Z" fill="white"/>
</mask>
<g mask="url(#mask93_1638_3139)">
<rect x="352.695" y="56.7866" width="2.16003" height="1.76003" fill="#FCFCFC"/>
</g>
<mask id="mask94_1638_3139" style="mask-type:luminance" maskUnits="userSpaceOnUse" x="325" y="27" width="2" height="2">
<path d="M325.936 28.124C325.292 28.124 325.293 27.124 325.936 27.124C326.581 27.124 326.58 28.124 325.936 28.124Z" fill="white"/>
</mask>
<g mask="url(#mask94_1638_3139)">
<rect x="324.961" y="26.7871" width="2.02669" height="1.76003" fill="#FCFCFC"/>
</g>
<mask id="mask95_1638_3139" style="mask-type:luminance" maskUnits="userSpaceOnUse" x="331" y="79" width="2" height="2">
<path d="M331.936 80.1216C331.292 80.1216 331.293 79.1216 331.936 79.1216C332.581 79.1216 332.58 80.1216 331.936 80.1216Z" fill="white"/>
</mask>
<g mask="url(#mask95_1638_3139)">
<rect x="330.961" y="78.52" width="2.16003" height="2.16003" fill="#FCFCFC"/>
</g>
<mask id="mask96_1638_3139" style="mask-type:luminance" maskUnits="userSpaceOnUse" x="337" y="127" width="2" height="2">
<path d="M337.936 128.119C337.292 128.119 337.292 127.119 337.936 127.119C338.581 127.119 338.58 128.119 337.936 128.119Z" fill="white"/>
</mask>
<g mask="url(#mask96_1638_3139)">
<rect x="336.695" y="126.92" width="2.16003" height="1.76003" fill="#FCFCFC"/>
</g>
<mask id="mask97_1638_3139" style="mask-type:luminance" maskUnits="userSpaceOnUse" x="267" y="135" width="4" height="2">
<path d="M269.94 136.119C269.273 136.119 268.606 136.119 267.94 136.119C267.296 136.119 267.297 135.119 267.94 135.119C268.606 135.119 269.273 135.119 269.94 135.119C270.585 135.119 270.584 136.119 269.94 136.119Z" fill="white"/>
</mask>
<g mask="url(#mask97_1638_3139)">
<rect x="266.963" y="134.92" width="4.02669" height="1.76003" fill="#FCFCFC"/>
</g>
<mask id="mask98_1638_3139" style="mask-type:luminance" maskUnits="userSpaceOnUse" x="303" y="108" width="2" height="3">
<path d="M303.939 110.899C303.688 110.899 303.438 110.738 303.438 110.416C303.438 109.848 303.438 109.28 303.438 108.714C303.438 108.391 303.688 108.231 303.938 108.231C304.188 108.231 304.438 108.391 304.438 108.714C304.438 109.28 304.438 109.848 304.438 110.416C304.438 110.739 304.188 110.899 303.939 110.899Z" fill="white"/>
</mask>
<g mask="url(#mask98_1638_3139)">
<rect x="303.229" y="107.72" width="1.76003" height="3.62669" fill="#FCFCFC"/>
</g>
<mask id="mask99_1638_3139" style="mask-type:luminance" maskUnits="userSpaceOnUse" x="219" y="111" width="2" height="2">
<path d="M219.941 112.12C219.297 112.12 219.299 111.12 219.941 111.12C220.587 111.12 220.585 112.12 219.941 112.12Z" fill="white"/>
</mask>
<g mask="url(#mask99_1638_3139)">
<rect x="218.961" y="110.92" width="2.16003" height="1.76003" fill="#FCFCFC"/>
</g>
<mask id="mask100_1638_3139" style="mask-type:luminance" maskUnits="userSpaceOnUse" x="213" y="37" width="2" height="4">
<path d="M213.943 40.1064C213.692 40.1064 213.441 39.9452 213.441 39.6238C213.441 38.9572 213.441 38.2905 213.441 37.6238C213.441 37.3012 213.692 37.1398 213.941 37.1398C214.192 37.1398 214.441 37.3025 214.441 37.6238C214.441 38.2905 214.441 38.9572 214.441 39.6238C214.441 39.9452 214.192 40.1064 213.943 40.1064Z" fill="white"/>
</mask>
<g mask="url(#mask100_1638_3139)">
<rect x="212.961" y="36.6528" width="1.76003" height="4.02669" fill="#FCFCFC"/>
</g>
<mask id="mask101_1638_3139" style="mask-type:luminance" maskUnits="userSpaceOnUse" x="233" y="55" width="2" height="4">
<path d="M233.943 58.1055C233.692 58.1055 233.441 57.9455 233.441 57.6228C233.441 56.9561 233.441 56.2895 233.441 55.6228C233.441 55.3001 233.692 55.1401 233.941 55.1401C234.192 55.1401 234.441 55.3015 234.441 55.6228C234.441 56.2895 234.441 56.9561 234.441 57.6228C234.441 57.9455 234.192 58.1055 233.943 58.1055Z" fill="white"/>
</mask>
<g mask="url(#mask101_1638_3139)">
<rect x="233.094" y="54.9204" width="1.76003" height="3.62669" fill="#FCFCFC"/>
</g>
<mask id="mask102_1638_3139" style="mask-type:luminance" maskUnits="userSpaceOnUse" x="243" y="33" width="4" height="2">
<path d="M245.94 34.124C245.273 34.124 244.606 34.124 243.94 34.124C243.296 34.124 243.297 33.124 243.94 33.124C244.606 33.124 245.273 33.124 245.94 33.124C246.585 33.124 246.584 34.124 245.94 34.124Z" fill="white"/>
</mask>
<g mask="url(#mask102_1638_3139)">
<rect x="242.961" y="32.7871" width="4.02669" height="1.76003" fill="#FCFCFC"/>
</g>
<mask id="mask103_1638_3139" style="mask-type:luminance" maskUnits="userSpaceOnUse" x="229" y="25" width="2" height="2">
<path d="M229.942 26.124C229.298 26.124 229.298 25.124 229.942 25.124C230.587 25.124 230.586 26.124 229.942 26.124Z" fill="white"/>
</mask>
<g mask="url(#mask103_1638_3139)">
<rect x="228.963" y="24.7871" width="2.02669" height="1.76003" fill="#FCFCFC"/>
</g>
<mask id="mask104_1638_3139" style="mask-type:luminance" maskUnits="userSpaceOnUse" x="233" y="37" width="2" height="2">
<path d="M233.942 38.124C233.298 38.124 233.298 37.124 233.942 37.124C234.587 37.124 234.586 38.124 233.942 38.124Z" fill="white"/>
</mask>
<g mask="url(#mask104_1638_3139)">
<rect x="232.828" y="36.6528" width="2.02669" height="1.76003" fill="#FCFCFC"/>
</g>
<mask id="mask105_1638_3139" style="mask-type:luminance" maskUnits="userSpaceOnUse" x="243" y="23" width="2" height="2">
<path d="M243.94 24.124C243.296 24.124 243.297 23.124 243.94 23.124C244.585 23.124 244.584 24.124 243.94 24.124Z" fill="white"/>
</mask>
<g mask="url(#mask105_1638_3139)">
<rect x="242.961" y="22.52" width="2.16003" height="2.16003" fill="#FCFCFC"/>
</g>
<mask id="mask106_1638_3139" style="mask-type:luminance" maskUnits="userSpaceOnUse" x="269" y="31" width="2" height="2">
<path d="M269.94 32.124C269.296 32.124 269.297 31.124 269.94 31.124C270.585 31.124 270.584 32.124 269.94 32.124Z" fill="white"/>
</mask>
<g mask="url(#mask106_1638_3139)">
<rect x="268.963" y="30.52" width="2.02669" height="2.16003" fill="#FCFCFC"/>
</g>
<mask id="mask107_1638_3139" style="mask-type:luminance" maskUnits="userSpaceOnUse" x="327" y="9" width="2" height="2">
<path d="M327.936 10.1255C327.292 10.1255 327.293 9.12549 327.936 9.12549C328.581 9.12549 328.58 10.1255 327.936 10.1255Z" fill="white"/>
</mask>
<g mask="url(#mask107_1638_3139)">
<rect x="326.828" y="8.78711" width="2.02669" height="1.76003" fill="#FCFCFC"/>
</g>
<mask id="mask108_1638_3139" style="mask-type:luminance" maskUnits="userSpaceOnUse" x="343" y="7" width="2" height="4">
<path d="M343.937 10.1079C343.686 10.1079 343.436 9.94656 343.436 9.62523C343.436 8.95856 343.436 8.29189 343.436 7.62523C343.436 7.30389 343.686 7.14255 343.936 7.14255C344.186 7.14255 344.437 7.30389 344.437 7.62523C344.437 8.29189 344.437 8.95856 344.437 9.62523C344.437 9.94789 344.186 10.1079 343.937 10.1079Z" fill="white"/>
</mask>
<g mask="url(#mask108_1638_3139)">
<rect x="343.096" y="6.91992" width="1.76003" height="3.62669" fill="#FCFCFC"/>
</g>
<mask id="mask109_1638_3139" style="mask-type:luminance" maskUnits="userSpaceOnUse" x="347" y="27" width="2" height="2">
<path d="M347.936 28.124C347.292 28.124 347.293 27.124 347.936 27.124C348.581 27.124 348.58 28.124 347.936 28.124Z" fill="white"/>
</mask>
<g mask="url(#mask109_1638_3139)">
<rect x="346.963" y="26.7871" width="2.16003" height="1.76003" fill="#FCFCFC"/>
</g>
<mask id="mask110_1638_3139" style="mask-type:luminance" maskUnits="userSpaceOnUse" x="366" y="15" width="3" height="2">
<path d="M368.45 16.1255C368.07 16.1255 367.69 16.1255 367.31 16.1255C366.665 16.1255 366.665 15.1255 367.31 15.1255C367.69 15.1255 368.07 15.1255 368.45 15.1255C369.096 15.1255 369.094 16.1255 368.45 16.1255Z" fill="white"/>
</mask>
<g mask="url(#mask110_1638_3139)">
<rect x="366.162" y="14.52" width="3.36003" height="2.16003" fill="#FCFCFC"/>
</g>
<mask id="mask111_1638_3139" style="mask-type:luminance" maskUnits="userSpaceOnUse" x="383" y="39" width="2" height="2">
<path d="M383.934 40.124C383.29 40.124 383.291 39.124 383.934 39.124C384.579 39.124 384.578 40.124 383.934 40.124Z" fill="white"/>
</mask>
<g mask="url(#mask111_1638_3139)">
<rect x="382.828" y="38.52" width="2.02669" height="2.16003" fill="#FCFCFC"/>
</g>
<mask id="mask112_1638_3139" style="mask-type:luminance" maskUnits="userSpaceOnUse" x="381" y="75" width="4" height="2">
<path d="M383.934 76.1216C383.267 76.1216 382.6 76.1216 381.934 76.1216C381.29 76.1216 381.291 75.1216 381.934 75.1216C382.6 75.1216 383.267 75.1216 383.934 75.1216C384.579 75.1216 384.578 76.1216 383.934 76.1216Z" fill="white"/>
</mask>
<g mask="url(#mask112_1638_3139)">
<rect x="380.961" y="74.7871" width="3.89336" height="1.76003" fill="#FCFCFC"/>
</g>
<mask id="mask113_1638_3139" style="mask-type:luminance" maskUnits="userSpaceOnUse" x="359" y="73" width="2" height="4">
<path d="M359.937 76.1055C359.686 76.1055 359.436 75.9441 359.436 75.6215C359.436 74.9548 359.436 74.2881 359.436 73.6215C359.436 73.3001 359.686 73.1388 359.936 73.1388C360.186 73.1388 360.436 73.3001 360.436 73.6215C360.436 74.2881 360.436 74.9548 360.436 75.6215C360.436 75.9441 360.186 76.1055 359.937 76.1055Z" fill="white"/>
</mask>
<g mask="url(#mask113_1638_3139)">
<rect x="359.096" y="72.7871" width="1.76003" height="3.76003" fill="#FCFCFC"/>
</g>
<mask id="mask114_1638_3139" style="mask-type:luminance" maskUnits="userSpaceOnUse" x="350" y="112" width="3" height="2">
<path d="M352.45 113.676C352.07 113.676 351.69 113.676 351.31 113.676C350.664 113.676 350.666 112.676 351.31 112.676C351.69 112.676 352.07 112.676 352.45 112.676C353.095 112.676 353.094 113.676 352.45 113.676Z" fill="white"/>
</mask>
<g mask="url(#mask114_1638_3139)">
<rect x="350.162" y="112.121" width="3.36003" height="1.76003" fill="#FCFCFC"/>
</g>
<mask id="mask115_1638_3139" style="mask-type:luminance" maskUnits="userSpaceOnUse" x="349" y="131" width="2" height="2">
<path d="M349.936 132.119C349.292 132.119 349.293 131.119 349.936 131.119C350.581 131.119 350.58 132.119 349.936 132.119Z" fill="white"/>
</mask>
<g mask="url(#mask115_1638_3139)">
<rect x="348.963" y="130.653" width="2.02669" height="1.76003" fill="#FCFCFC"/>
</g>
<mask id="mask116_1638_3139" style="mask-type:luminance" maskUnits="userSpaceOnUse" x="327" y="111" width="2" height="2">
<path d="M327.936 112.12C327.292 112.12 327.293 111.12 327.936 111.12C328.581 111.12 328.58 112.12 327.936 112.12Z" fill="white"/>
</mask>
<g mask="url(#mask116_1638_3139)">
<rect x="326.828" y="110.92" width="2.02669" height="1.76003" fill="#FCFCFC"/>
</g>
<mask id="mask117_1638_3139" style="mask-type:luminance" maskUnits="userSpaceOnUse" x="301" y="155" width="2" height="4">
<path d="M301.939 158.102C301.688 158.102 301.438 157.94 301.438 157.618C301.438 156.951 301.438 156.284 301.438 155.618C301.438 155.296 301.688 155.135 301.938 155.135C302.188 155.135 302.438 155.296 302.438 155.618C302.438 156.284 302.438 156.951 302.438 157.618C302.438 157.94 302.188 158.102 301.939 158.102Z" fill="white"/>
</mask>
<g mask="url(#mask117_1638_3139)">
<rect x="300.961" y="154.654" width="1.76003" height="3.76003" fill="#FCFCFC"/>
</g>
<mask id="mask118_1638_3139" style="mask-type:luminance" maskUnits="userSpaceOnUse" x="281" y="151" width="2" height="2">
<path d="M281.94 152.117C281.296 152.117 281.297 151.117 281.94 151.117C282.585 151.117 282.584 152.117 281.94 152.117Z" fill="white"/>
</mask>
<g mask="url(#mask118_1638_3139)">
<rect x="280.828" y="150.919" width="2.02669" height="1.76003" fill="#FCFCFC"/>
</g>
<mask id="mask119_1638_3139" style="mask-type:luminance" maskUnits="userSpaceOnUse" x="273" y="175" width="2" height="2">
<path d="M273.94 176.117C273.296 176.117 273.297 175.117 273.94 175.117C274.585 175.117 274.584 176.117 273.94 176.117Z" fill="white"/>
</mask>
<g mask="url(#mask119_1638_3139)">
<rect x="272.828" y="174.919" width="2.02669" height="1.76003" fill="#FCFCFC"/>
</g>
<mask id="mask120_1638_3139" style="mask-type:luminance" maskUnits="userSpaceOnUse" x="241" y="165" width="2" height="2">
<path d="M241.94 166.117C241.296 166.117 241.297 165.117 241.94 165.117C242.585 165.117 242.584 166.117 241.94 166.117Z" fill="white"/>
</mask>
<g mask="url(#mask120_1638_3139)">
<rect x="240.828" y="164.653" width="2.02669" height="1.76003" fill="#FCFCFC"/>
</g>
<mask id="mask121_1638_3139" style="mask-type:luminance" maskUnits="userSpaceOnUse" x="241" y="137" width="4" height="2">
<path d="M243.94 138.119C243.273 138.119 242.606 138.119 241.94 138.119C241.296 138.119 241.297 137.119 241.94 137.119C242.606 137.119 243.273 137.119 243.94 137.119C244.585 137.119 244.584 138.119 243.94 138.119Z" fill="white"/>
</mask>
<g mask="url(#mask121_1638_3139)">
<rect x="240.828" y="136.787" width="4.29336" height="1.76003" fill="#FCFCFC"/>
</g>
<mask id="mask122_1638_3139" style="mask-type:luminance" maskUnits="userSpaceOnUse" x="195" y="145" width="2" height="2">
<path d="M195.943 146.119C195.299 146.119 195.301 145.119 195.943 145.119C196.589 145.119 196.587 146.119 195.943 146.119Z" fill="white"/>
</mask>
<g mask="url(#mask122_1638_3139)">
<rect x="194.963" y="144.787" width="2.16003" height="1.76003" fill="#FCFCFC"/>
</g>
<mask id="mask123_1638_3139" style="mask-type:luminance" maskUnits="userSpaceOnUse" x="241" y="115" width="2" height="2">
<path d="M241.94 116.12C241.296 116.12 241.297 115.12 241.94 115.12C242.585 115.12 242.584 116.12 241.94 116.12Z" fill="white"/>
</mask>
<g mask="url(#mask123_1638_3139)">
<rect x="240.828" y="114.654" width="2.02669" height="1.76003" fill="#FCFCFC"/>
</g>
<mask id="mask124_1638_3139" style="mask-type:luminance" maskUnits="userSpaceOnUse" x="221" y="137" width="2" height="3">
<path d="M221.941 139.34C221.692 139.34 221.441 139.178 221.441 138.857C221.441 138.444 221.441 138.03 221.441 137.618C221.441 137.296 221.692 137.136 221.941 137.136C222.192 137.136 222.441 137.297 222.441 137.618C222.441 138.03 222.441 138.444 222.441 138.857C222.441 139.178 222.192 139.34 221.941 139.34Z" fill="white"/>
</mask>
<g mask="url(#mask124_1638_3139)">
<rect x="220.961" y="136.787" width="1.76003" height="3.09336" fill="#FCFCFC"/>
</g>
<mask id="mask125_1638_3139" style="mask-type:luminance" maskUnits="userSpaceOnUse" x="209" y="91" width="2" height="2">
<path d="M209.941 92.1216C209.297 92.1216 209.299 91.1216 209.941 91.1216C210.587 91.1216 210.587 92.1216 209.941 92.1216Z" fill="white"/>
</mask>
<g mask="url(#mask125_1638_3139)">
<rect x="208.828" y="90.7871" width="2.02669" height="1.76003" fill="#FCFCFC"/>
</g>
<mask id="mask126_1638_3139" style="mask-type:luminance" maskUnits="userSpaceOnUse" x="205" y="61" width="2" height="2">
<path d="M205.944 62.1226C205.3 62.1226 205.3 61.1226 205.944 61.1226C206.589 61.1226 206.588 62.1226 205.944 62.1226Z" fill="white"/>
</mask>
<g mask="url(#mask126_1638_3139)">
<rect x="204.963" y="60.6528" width="2.02669" height="1.76003" fill="#FCFCFC"/>
</g>
<mask id="mask127_1638_3139" style="mask-type:luminance" maskUnits="userSpaceOnUse" x="271" y="109" width="2" height="2">
<path d="M271.94 110.12C271.296 110.12 271.297 109.12 271.94 109.12C272.585 109.12 272.584 110.12 271.94 110.12Z" fill="white"/>
</mask>
<g mask="url(#mask127_1638_3139)">
<rect x="270.828" y="108.654" width="2.16003" height="1.76003" fill="#FCFCFC"/>
</g>
<mask id="mask128_1638_3139" style="mask-type:luminance" maskUnits="userSpaceOnUse" x="193" y="119" width="2" height="2">
<path d="M193.943 120.12C193.299 120.12 193.301 119.12 193.943 119.12C194.589 119.12 194.587 120.12 193.943 120.12Z" fill="white"/>
</mask>
<g mask="url(#mask128_1638_3139)">
<rect x="192.828" y="118.92" width="2.02669" height="1.76003" fill="#FCFCFC"/>
</g>
<mask id="mask129_1638_3139" style="mask-type:luminance" maskUnits="userSpaceOnUse" x="189" y="89" width="2" height="2">
<path d="M189.943 90.1216C189.299 90.1216 189.301 89.1216 189.943 89.1216C190.589 89.1216 190.587 90.1216 189.943 90.1216Z" fill="white"/>
</mask>
<g mask="url(#mask129_1638_3139)">
<rect x="188.963" y="88.7871" width="2.02669" height="1.76003" fill="#FCFCFC"/>
</g>
<mask id="mask130_1638_3139" style="mask-type:luminance" maskUnits="userSpaceOnUse" x="185" y="59" width="2" height="2">
<path d="M185.944 60.1226C185.299 60.1226 185.3 59.1226 185.944 59.1226C186.588 59.1226 186.587 60.1226 185.944 60.1226Z" fill="white"/>
</mask>
<g mask="url(#mask130_1638_3139)">
<rect x="184.828" y="58.7866" width="2.02669" height="1.76003" fill="#FCFCFC"/>
</g>
<mask id="mask131_1638_3139" style="mask-type:luminance" maskUnits="userSpaceOnUse" x="169" y="79" width="2" height="2">
<path d="M169.943 80.1216C169.299 80.1216 169.301 79.1216 169.943 79.1216C170.589 79.1216 170.587 80.1216 169.943 80.1216Z" fill="white"/>
</mask>
<g mask="url(#mask131_1638_3139)">
<rect x="168.828" y="78.52" width="2.02669" height="2.16003" fill="#FCFCFC"/>
</g>
<mask id="mask132_1638_3139" style="mask-type:luminance" maskUnits="userSpaceOnUse" x="279" y="63" width="2" height="2">
<path d="M279.94 64.1226C279.296 64.1226 279.297 63.1226 279.94 63.1226C280.585 63.1226 280.584 64.1226 279.94 64.1226Z" fill="white"/>
</mask>
<g mask="url(#mask132_1638_3139)">
<rect x="278.828" y="62.5195" width="2.16003" height="2.16003" fill="#FCFCFC"/>
</g>
<mask id="mask133_1638_3139" style="mask-type:luminance" maskUnits="userSpaceOnUse" x="301" y="24" width="2" height="4">
<path d="M301.939 27.0679C301.688 27.0679 301.438 26.9066 301.438 26.5853C301.438 26.0239 301.438 25.4612 301.438 24.8999C301.438 24.5772 301.688 24.4159 301.938 24.4159C302.188 24.4159 302.438 24.5786 302.438 24.8999C302.438 25.4612 302.438 26.0239 302.438 26.5853C302.438 26.9066 302.188 27.0679 301.939 27.0679Z" fill="white"/>
</mask>
<g mask="url(#mask133_1638_3139)">
<rect x="300.961" y="24.1201" width="1.76003" height="3.36003" fill="#FCFCFC"/>
</g>
<mask id="mask134_1638_3139" style="mask-type:luminance" maskUnits="userSpaceOnUse" x="261" y="18" width="2" height="3">
<path d="M261.624 20.2495C261.24 20.2495 260.899 19.7482 261.251 19.3962C261.547 19.1002 261.844 18.8028 262.14 18.5068C262.243 18.4041 262.36 18.3602 262.473 18.3602C262.857 18.3602 263.199 18.8615 262.847 19.2148C262.551 19.5108 262.255 19.8068 261.957 20.1028C261.853 20.2068 261.737 20.2495 261.624 20.2495Z" fill="white"/>
</mask>
<g mask="url(#mask134_1638_3139)">
<rect x="260.561" y="18.1201" width="3.09336" height="2.42669" fill="#FCFCFC"/>
</g>
<mask id="mask135_1638_3139" style="mask-type:luminance" maskUnits="userSpaceOnUse" x="272" y="13" width="2" height="2">
<path d="M273.161 14.0269C272.517 14.0269 272.517 13.0269 273.161 13.0269C273.806 13.0269 273.805 14.0269 273.161 14.0269Z" fill="white"/>
</mask>
<g mask="url(#mask135_1638_3139)">
<rect x="272.162" y="12.6533" width="2.02669" height="1.76003" fill="#FCFCFC"/>
</g>
<mask id="mask136_1638_3139" style="mask-type:luminance" maskUnits="userSpaceOnUse" x="262" y="6" width="3" height="2">
<path d="M264.27 7.80518C263.974 7.80518 263.678 7.80518 263.381 7.80518C262.737 7.80518 262.738 6.80518 263.381 6.80518C263.678 6.80518 263.974 6.80518 264.27 6.80518C264.916 6.80518 264.914 7.80518 264.27 7.80518Z" fill="white"/>
</mask>
<g mask="url(#mask136_1638_3139)">
<rect x="262.16" y="6.25293" width="3.09336" height="2.02669" fill="#FCFCFC"/>
</g>
<mask id="mask137_1638_3139" style="mask-type:luminance" maskUnits="userSpaceOnUse" x="295" y="168" width="3" height="2">
<path d="M297.161 169.583C296.865 169.583 296.568 169.583 296.272 169.583C295.628 169.583 295.629 168.583 296.272 168.583C296.568 168.583 296.865 168.583 297.161 168.583C297.806 168.583 297.805 169.583 297.161 169.583Z" fill="white"/>
</mask>
<g mask="url(#mask137_1638_3139)">
<rect x="295.229" y="168.12" width="2.96003" height="1.76003" fill="#FCFCFC"/>
</g>
<mask id="mask138_1638_3139" style="mask-type:luminance" maskUnits="userSpaceOnUse" x="307" y="174" width="2" height="2">
<path d="M307.827 175.805C307.183 175.805 307.183 174.805 307.827 174.805C308.472 174.805 308.471 175.805 307.827 175.805Z" fill="white"/>
</mask>
<g mask="url(#mask138_1638_3139)">
<rect x="306.695" y="174.52" width="2.02669" height="1.76003" fill="#FCFCFC"/>
</g>
<mask id="mask139_1638_3139" style="mask-type:luminance" maskUnits="userSpaceOnUse" x="311" y="163" width="2" height="2">
<path d="M312.272 164.25C311.628 164.25 311.629 163.25 312.272 163.25C312.917 163.25 312.916 164.25 312.272 164.25Z" fill="white"/>
</mask>
<g mask="url(#mask139_1638_3139)">
<rect x="311.229" y="162.653" width="2.02669" height="2.16003" fill="#FCFCFC"/>
</g>
<mask id="mask140_1638_3139" style="mask-type:luminance" maskUnits="userSpaceOnUse" x="331" y="170" width="2" height="2">
<path d="M331.827 171.36C331.183 171.36 331.183 170.36 331.827 170.36C332.472 170.36 332.471 171.36 331.827 171.36Z" fill="white"/>
</mask>
<g mask="url(#mask140_1638_3139)">
<rect x="330.695" y="170.12" width="2.02669" height="1.76003" fill="#FCFCFC"/>
</g>
<mask id="mask141_1638_3139" style="mask-type:luminance" maskUnits="userSpaceOnUse" x="331" y="188" width="2" height="2">
<path d="M331.827 189.139C331.183 189.139 331.183 188.139 331.827 188.139C332.472 188.139 332.471 189.139 331.827 189.139Z" fill="white"/>
</mask>
<g mask="url(#mask141_1638_3139)">
<rect x="330.695" y="187.72" width="2.02669" height="1.76003" fill="#FCFCFC"/>
</g>
<mask id="mask142_1638_3139" style="mask-type:luminance" maskUnits="userSpaceOnUse" x="322" y="175" width="2" height="2">
<path d="M322.938 176.693C322.294 176.693 322.295 175.693 322.938 175.693C323.583 175.693 323.582 176.693 322.938 176.693Z" fill="white"/>
</mask>
<g mask="url(#mask142_1638_3139)">
<rect x="322.027" y="175.187" width="2.02669" height="1.76003" fill="#FCFCFC"/>
</g>
<mask id="mask143_1638_3139" style="mask-type:luminance" maskUnits="userSpaceOnUse" x="339" y="181" width="2" height="2">
<path d="M339.827 182.027C339.183 182.027 339.183 181.027 339.827 181.027C340.472 181.027 340.471 182.027 339.827 182.027Z" fill="white"/>
</mask>
<g mask="url(#mask143_1638_3139)">
<rect x="338.695" y="180.654" width="2.02669" height="1.76003" fill="#FCFCFC"/>
</g>
<mask id="mask144_1638_3139" style="mask-type:luminance" maskUnits="userSpaceOnUse" x="330" y="154" width="2" height="2">
<path d="M330.938 155.361C330.294 155.361 330.295 154.36 330.938 154.36C331.583 154.36 331.582 155.361 330.938 155.361Z" fill="white"/>
</mask>
<g mask="url(#mask144_1638_3139)">
<rect x="330.027" y="154.12" width="2.02669" height="1.76003" fill="#FCFCFC"/>
</g>
<mask id="mask145_1638_3139" style="mask-type:luminance" maskUnits="userSpaceOnUse" x="319" y="141" width="2" height="2">
<path d="M320.272 142.916C319.628 142.916 319.629 141.916 320.272 141.916C320.917 141.916 320.916 142.916 320.272 142.916Z" fill="white"/>
</mask>
<g mask="url(#mask145_1638_3139)">
<rect x="319.096" y="141.587" width="2.16003" height="1.76003" fill="#FCFCFC"/>
</g>
<mask id="mask146_1638_3139" style="mask-type:luminance" maskUnits="userSpaceOnUse" x="303" y="193" width="3" height="2">
<path d="M305.161 194.472C304.865 194.472 304.568 194.472 304.272 194.472C303.628 194.472 303.629 193.472 304.272 193.472C304.568 193.472 304.865 193.472 305.161 193.472C305.806 193.472 305.805 194.472 305.161 194.472Z" fill="white"/>
</mask>
<g mask="url(#mask146_1638_3139)">
<rect x="303.229" y="193.053" width="2.96003" height="1.76003" fill="#FCFCFC"/>
</g>
<mask id="mask147_1638_3139" style="mask-type:luminance" maskUnits="userSpaceOnUse" x="358" y="168" width="2" height="3">
<path d="M359.382 170.455C359.132 170.455 358.881 170.293 358.881 169.972C358.881 169.676 358.881 169.38 358.881 169.083C358.881 168.76 359.132 168.6 359.381 168.6C359.632 168.6 359.881 168.761 359.881 169.083C359.881 169.38 359.881 169.676 359.881 169.972C359.881 170.295 359.632 170.455 359.382 170.455Z" fill="white"/>
</mask>
<g mask="url(#mask147_1638_3139)">
<rect x="358.561" y="168.12" width="1.76003" height="2.69336" fill="#FCFCFC"/>
</g>
<mask id="mask148_1638_3139" style="mask-type:luminance" maskUnits="userSpaceOnUse" x="406" y="108" width="2" height="3">
<path d="M407.382 110.011C407.132 110.011 406.881 109.849 406.881 109.527C406.881 109.231 406.881 108.935 406.881 108.639C406.881 108.316 407.132 108.156 407.381 108.156C407.632 108.156 407.881 108.316 407.881 108.639C407.881 108.935 407.881 109.231 407.881 109.527C407.881 109.849 407.632 110.011 407.382 110.011Z" fill="white"/>
</mask>
<g mask="url(#mask148_1638_3139)">
<rect x="406.561" y="107.72" width="1.76003" height="2.69336" fill="#FCFCFC"/>
</g>
<mask id="mask149_1638_3139" style="mask-type:luminance" maskUnits="userSpaceOnUse" x="373" y="129" width="2" height="2">
<path d="M374.493 130.472C374.197 130.472 373.9 130.472 373.604 130.472C372.96 130.472 372.961 129.472 373.604 129.472C373.9 129.472 374.197 129.472 374.493 129.472C375.138 129.472 375.137 130.472 374.493 130.472Z" fill="white"/>
</mask>
<g mask="url(#mask149_1638_3139)">
<rect x="372.561" y="129.053" width="3.09336" height="1.76003" fill="#FCFCFC"/>
</g>
<mask id="mask150_1638_3139" style="mask-type:luminance" maskUnits="userSpaceOnUse" x="401" y="162" width="2" height="3">
<path d="M402.05 164.232C401.799 164.232 401.549 164.071 401.549 163.749C401.549 163.453 401.549 163.157 401.549 162.861C401.549 162.539 401.799 162.377 402.049 162.377C402.299 162.377 402.549 162.539 402.549 162.861C402.549 163.157 402.549 163.453 402.549 163.749C402.549 164.072 402.299 164.232 402.05 164.232Z" fill="white"/>
</mask>
<g mask="url(#mask150_1638_3139)">
<rect x="401.096" y="162.12" width="1.76003" height="2.69336" fill="#FCFCFC"/>
</g>
<mask id="mask151_1638_3139" style="mask-type:luminance" maskUnits="userSpaceOnUse" x="371" y="203" width="2" height="2">
<path d="M371.827 204.25C371.183 204.25 371.183 203.25 371.827 203.25C372.472 203.25 372.471 204.25 371.827 204.25Z" fill="white"/>
</mask>
<g mask="url(#mask151_1638_3139)">
<rect x="370.695" y="202.653" width="2.02669" height="2.16003" fill="#FCFCFC"/>
</g>
<mask id="mask152_1638_3139" style="mask-type:luminance" maskUnits="userSpaceOnUse" x="420" y="5" width="2" height="3">
<path d="M420.716 7.78809C420.466 7.78809 420.215 7.62674 420.215 7.3054C420.215 6.7134 420.215 6.12009 420.215 5.52676C420.215 5.20542 420.466 5.04408 420.715 5.04408C420.966 5.04408 421.215 5.20542 421.215 5.52676C421.215 6.12009 421.215 6.7134 421.215 7.3054C421.215 7.62807 420.966 7.78809 420.716 7.78809Z" fill="white"/>
</mask>
<g mask="url(#mask152_1638_3139)">
<rect x="419.895" y="4.65332" width="1.76003" height="3.62669" fill="#FCFCFC"/>
</g>
<mask id="mask153_1638_3139" style="mask-type:luminance" maskUnits="userSpaceOnUse" x="420" y="46" width="2" height="3">
<path d="M420.716 48.3389C420.466 48.3389 420.215 48.1775 420.215 47.8562C420.215 47.6722 420.215 47.4895 420.215 47.3055C420.215 46.9829 420.466 46.8215 420.715 46.8215C420.966 46.8215 421.215 46.9829 421.215 47.3055C421.215 47.4895 421.215 47.6722 421.215 47.8562C421.215 48.1775 420.966 48.3389 420.716 48.3389Z" fill="white"/>
</mask>
<g mask="url(#mask153_1638_3139)">
<rect x="419.895" y="46.52" width="1.76003" height="2.16003" fill="#FCFCFC"/>
</g>
<mask id="mask154_1638_3139" style="mask-type:luminance" maskUnits="userSpaceOnUse" x="205" y="14" width="2" height="3">
<path d="M205.563 16.8105C205.313 16.8105 205.062 16.6492 205.062 16.3266C205.062 15.8826 205.062 15.4385 205.062 14.9945C205.062 14.6719 205.312 14.5105 205.563 14.5105C205.813 14.5105 206.063 14.6719 206.063 14.9945C206.063 15.4385 206.063 15.8826 206.063 16.3266C206.063 16.6492 205.813 16.8105 205.563 16.8105Z" fill="white"/>
</mask>
<g mask="url(#mask154_1638_3139)">
<rect x="204.561" y="14.2534" width="1.76003" height="3.09336" fill="#FCFCFC"/>
</g>
<mask id="mask155_1638_3139" style="mask-type:luminance" maskUnits="userSpaceOnUse" x="173" y="21" width="3" height="3">
<path d="M173.583 23.4946C173.199 23.4946 172.858 22.9933 173.21 22.6399C173.654 22.1959 174.099 21.7519 174.543 21.3066C174.647 21.2039 174.763 21.16 174.876 21.16C175.26 21.16 175.602 21.6613 175.25 22.0146C174.806 22.4586 174.36 22.9026 173.916 23.3479C173.814 23.4506 173.696 23.4946 173.583 23.4946Z" fill="white"/>
</mask>
<g mask="url(#mask155_1638_3139)">
<rect x="172.295" y="20.6533" width="3.62669" height="3.36003" fill="#FCFCFC"/>
</g>
<mask id="mask156_1638_3139" style="mask-type:luminance" maskUnits="userSpaceOnUse" x="159" y="43" width="2" height="2">
<path d="M160.229 44.8281C159.585 44.8281 159.585 43.8281 160.229 43.8281C160.874 43.8281 160.873 44.8281 160.229 44.8281Z" fill="white"/>
</mask>
<g mask="url(#mask156_1638_3139)">
<rect x="159.229" y="43.3203" width="2.02669" height="1.76003" fill="#FCFCFC"/>
</g>
<mask id="mask157_1638_3139" style="mask-type:luminance" maskUnits="userSpaceOnUse" x="170" y="47" width="2" height="2">
<path d="M170.897 48.8267C170.253 48.8267 170.253 47.828 170.897 47.828C171.542 47.828 171.541 48.8267 170.897 48.8267Z" fill="white"/>
</mask>
<g mask="url(#mask157_1638_3139)">
<rect x="169.762" y="47.5864" width="2.02669" height="1.76003" fill="#FCFCFC"/>
</g>
<mask id="mask158_1638_3139" style="mask-type:luminance" maskUnits="userSpaceOnUse" x="162" y="26" width="2" height="2">
<path d="M162.897 27.4946C162.253 27.4946 162.253 26.4946 162.897 26.4946C163.542 26.4946 163.541 27.4946 162.897 27.4946Z" fill="white"/>
</mask>
<g mask="url(#mask158_1638_3139)">
<rect x="161.762" y="26.1196" width="2.02669" height="1.76003" fill="#FCFCFC"/>
</g>
<mask id="mask159_1638_3139" style="mask-type:luminance" maskUnits="userSpaceOnUse" x="158" y="63" width="2" height="2">
<path d="M158.897 64.8281C158.253 64.8281 158.253 63.8281 158.897 63.8281C159.542 63.8281 159.541 64.8281 158.897 64.8281Z" fill="white"/>
</mask>
<g mask="url(#mask159_1638_3139)">
<rect x="157.896" y="63.5864" width="2.02669" height="1.76003" fill="#FCFCFC"/>
</g>
<mask id="mask160_1638_3139" style="mask-type:luminance" maskUnits="userSpaceOnUse" x="186" y="35" width="2" height="2">
<path d="M186.897 36.8281C186.253 36.8281 186.253 35.8268 186.897 35.8268C187.542 35.8268 187.541 36.8281 186.897 36.8281Z" fill="white"/>
</mask>
<g mask="url(#mask160_1638_3139)">
<rect x="185.762" y="35.3203" width="2.02669" height="1.76003" fill="#FCFCFC"/>
</g>
<mask id="mask161_1638_3139" style="mask-type:luminance" maskUnits="userSpaceOnUse" x="166" y="178" width="3" height="2">
<path d="M168.23 179.495C167.786 179.495 167.341 179.495 166.897 179.495C166.253 179.495 166.253 178.495 166.897 178.495C167.341 178.495 167.786 178.495 168.23 178.495C168.876 178.495 168.874 179.495 168.23 179.495Z" fill="white"/>
</mask>
<g mask="url(#mask161_1638_3139)">
<rect x="165.896" y="178.12" width="3.36003" height="1.76003" fill="#FCFCFC"/>
</g>
<mask id="mask162_1638_3139" style="mask-type:luminance" maskUnits="userSpaceOnUse" x="166" y="150" width="2" height="2">
<path d="M166.897 151.495C166.253 151.495 166.253 150.495 166.897 150.495C167.542 150.495 167.541 151.495 166.897 151.495Z" fill="white"/>
</mask>
<g mask="url(#mask162_1638_3139)">
<rect x="165.896" y="150.253" width="2.02669" height="1.76003" fill="#FCFCFC"/>
</g>
<mask id="mask163_1638_3139" style="mask-type:luminance" maskUnits="userSpaceOnUse" x="185" y="186" width="2" height="2">
<path d="M185.563 187.495C184.919 187.495 184.919 186.495 185.563 186.495C186.208 186.495 186.207 187.495 185.563 187.495Z" fill="white"/>
</mask>
<g mask="url(#mask163_1638_3139)">
<rect x="184.428" y="186.12" width="2.16003" height="1.76003" fill="#FCFCFC"/>
</g>
<mask id="mask164_1638_3139" style="mask-type:luminance" maskUnits="userSpaceOnUse" x="182" y="225" width="2" height="2">
<path d="M182.897 226.161C182.253 226.161 182.253 225.161 182.897 225.161C183.542 225.161 183.541 226.161 182.897 226.161Z" fill="white"/>
</mask>
<g mask="url(#mask164_1638_3139)">
<rect x="181.896" y="224.787" width="2.02669" height="1.76003" fill="#FCFCFC"/>
</g>
<mask id="mask165_1638_3139" style="mask-type:luminance" maskUnits="userSpaceOnUse" x="161" y="233" width="2" height="2">
<path d="M161.563 234.161C160.919 234.161 160.919 233.161 161.563 233.161C162.208 233.161 162.207 234.161 161.563 234.161Z" fill="white"/>
</mask>
<g mask="url(#mask165_1638_3139)">
<rect x="160.428" y="232.787" width="2.16003" height="1.76003" fill="#FCFCFC"/>
</g>
<mask id="mask166_1638_3139" style="mask-type:luminance" maskUnits="userSpaceOnUse" x="169" y="206" width="2" height="2">
<path d="M169.563 207.495C168.919 207.495 168.919 206.495 169.563 206.495C170.208 206.495 170.207 207.495 169.563 207.495Z" fill="white"/>
</mask>
<g mask="url(#mask166_1638_3139)">
<rect x="168.428" y="206.253" width="2.16003" height="1.76003" fill="#FCFCFC"/>
</g>
<mask id="mask167_1638_3139" style="mask-type:luminance" maskUnits="userSpaceOnUse" x="239" y="217" width="4" height="2">
<path d="M241.562 218.161C241.117 218.161 240.673 218.161 240.229 218.161C239.585 218.161 239.586 217.161 240.229 217.161C240.673 217.161 241.117 217.161 241.562 217.161C242.207 217.161 242.206 218.161 241.562 218.161Z" fill="white"/>
</mask>
<g mask="url(#mask167_1638_3139)">
<rect x="239.227" y="216.787" width="3.36003" height="1.76003" fill="#FCFCFC"/>
</g>
<mask id="mask168_1638_3139" style="mask-type:luminance" maskUnits="userSpaceOnUse" x="222" y="191" width="2" height="4">
<path d="M222.896 194.144C222.647 194.144 222.396 193.983 222.396 193.661C222.396 193.216 222.396 192.772 222.396 192.328C222.396 192.005 222.646 191.844 222.896 191.844C223.146 191.844 223.396 192.005 223.396 192.328C223.396 192.772 223.396 193.216 223.396 193.661C223.396 193.983 223.147 194.144 222.896 194.144Z" fill="white"/>
</mask>
<g mask="url(#mask168_1638_3139)">
<rect x="221.895" y="191.454" width="1.76003" height="3.09336" fill="#FCFCFC"/>
</g>
<mask id="mask169_1638_3139" style="mask-type:luminance" maskUnits="userSpaceOnUse" x="211" y="207" width="2" height="2">
<path d="M212.229 208.828C211.585 208.828 211.586 207.828 212.229 207.828C212.874 207.828 212.873 208.828 212.229 208.828Z" fill="white"/>
</mask>
<g mask="url(#mask169_1638_3139)">
<rect x="211.361" y="207.453" width="2.02669" height="1.76003" fill="#FCFCFC"/>
</g>
<mask id="mask170_1638_3139" style="mask-type:luminance" maskUnits="userSpaceOnUse" x="197" y="185" width="2" height="3">
<path d="M197.563 187.478C197.313 187.478 197.062 187.316 197.062 186.995C197.062 186.55 197.062 186.106 197.062 185.662C197.062 185.339 197.313 185.178 197.563 185.178C197.812 185.178 198.063 185.339 198.063 185.662C198.063 186.106 198.063 186.55 198.063 186.995C198.063 187.316 197.813 187.478 197.563 187.478Z" fill="white"/>
</mask>
<g mask="url(#mask170_1638_3139)">
<rect x="196.561" y="184.787" width="1.76003" height="3.09336" fill="#FCFCFC"/>
</g>
<mask id="mask171_1638_3139" style="mask-type:luminance" maskUnits="userSpaceOnUse" x="217" y="174" width="2" height="3">
<path d="M217.563 176.811C217.313 176.811 217.062 176.649 217.062 176.328C217.062 175.883 217.062 175.439 217.062 174.995C217.062 174.672 217.312 174.511 217.563 174.511C217.812 174.511 218.063 174.672 218.063 174.995C218.063 175.439 218.063 175.883 218.063 176.328C218.063 176.649 217.813 176.811 217.563 176.811Z" fill="white"/>
</mask>
<g mask="url(#mask171_1638_3139)">
<rect x="216.828" y="174.253" width="1.76003" height="2.96003" fill="#FCFCFC"/>
</g>
<mask id="mask172_1638_3139" style="mask-type:luminance" maskUnits="userSpaceOnUse" x="239" y="181" width="2" height="2">
<path d="M240.229 182.161C239.585 182.161 239.586 181.161 240.229 181.161C240.874 181.161 240.873 182.161 240.229 182.161Z" fill="white"/>
</mask>
<g mask="url(#mask172_1638_3139)">
<rect x="239.227" y="180.653" width="2.02669" height="2.02669" fill="#FCFCFC"/>
</g>
<mask id="mask173_1638_3139" style="mask-type:luminance" maskUnits="userSpaceOnUse" x="259" y="201" width="2" height="2">
<path d="M260.229 202.161C259.585 202.161 259.586 201.161 260.229 201.161C260.874 201.161 260.873 202.161 260.229 202.161Z" fill="white"/>
</mask>
<g mask="url(#mask173_1638_3139)">
<rect x="259.361" y="200.787" width="2.02669" height="1.76003" fill="#FCFCFC"/>
</g>
<mask id="mask174_1638_3139" style="mask-type:luminance" maskUnits="userSpaceOnUse" x="162" y="110" width="2" height="2">
<path d="M162.897 111.495C162.253 111.495 162.253 110.495 162.897 110.495C163.542 110.495 163.541 111.495 162.897 111.495Z" fill="white"/>
</mask>
<g mask="url(#mask174_1638_3139)">
<rect x="161.762" y="110.253" width="2.02669" height="1.76003" fill="#FCFCFC"/>
</g>
<mask id="mask175_1638_3139" style="mask-type:luminance" maskUnits="userSpaceOnUse" x="177" y="127" width="2" height="2">
<path d="M177.563 128.828C176.988 128.828 176.927 128.032 177.376 127.86C177.431 127.839 177.494 127.828 177.563 127.828C177.946 127.828 178.102 128.181 178.028 128.467C177.979 128.663 177.824 128.828 177.563 128.828Z" fill="white"/>
</mask>
<g mask="url(#mask175_1638_3139)">
<rect x="176.428" y="127.453" width="2.16003" height="1.76003" fill="#FCFCFC"/>
</g>
<mask id="mask176_1638_3139" style="mask-type:luminance" maskUnits="userSpaceOnUse" x="154" y="90" width="2" height="2">
<path d="M154.897 91.4946C154.253 91.4946 154.253 90.4946 154.897 90.4946C155.542 90.4946 155.541 91.4946 154.897 91.4946Z" fill="white"/>
</mask>
<g mask="url(#mask176_1638_3139)">
<rect x="153.762" y="90.1196" width="2.02669" height="1.76003" fill="#FCFCFC"/>
</g>
<mask id="mask177_1638_3139" style="mask-type:luminance" maskUnits="userSpaceOnUse" x="154" y="141" width="2" height="2">
<path d="M154.897 142.161C154.253 142.161 154.253 141.161 154.897 141.161C155.542 141.161 155.541 142.161 154.897 142.161Z" fill="white"/>
</mask>
<g mask="url(#mask177_1638_3139)">
<rect x="153.762" y="140.653" width="2.02669" height="2.02669" fill="#FCFCFC"/>
</g>
<mask id="mask178_1638_3139" style="mask-type:luminance" maskUnits="userSpaceOnUse" x="153" y="177" width="2" height="2">
<path d="M153.563 178.161C152.919 178.161 152.919 177.161 153.563 177.161C154.208 177.161 154.207 178.161 153.563 178.161Z" fill="white"/>
</mask>
<g mask="url(#mask178_1638_3139)">
<rect x="152.428" y="176.787" width="2.16003" height="1.76003" fill="#FCFCFC"/>
</g>
<mask id="mask179_1638_3139" style="mask-type:luminance" maskUnits="userSpaceOnUse" x="150" y="206" width="3" height="3">
<path d="M150.917 208.828C150.533 208.828 150.192 208.327 150.544 207.973C150.988 207.529 151.433 207.085 151.877 206.64C151.981 206.537 152.097 206.493 152.21 206.493C152.594 206.493 152.936 206.996 152.584 207.348C152.14 207.792 151.694 208.236 151.25 208.681C151.148 208.784 151.03 208.828 150.917 208.828Z" fill="white"/>
</mask>
<g mask="url(#mask179_1638_3139)">
<rect x="149.896" y="206.253" width="3.36003" height="2.96003" fill="#FCFCFC"/>
</g>
<mask id="mask180_1638_3139" style="mask-type:luminance" maskUnits="userSpaceOnUse" x="158" y="195" width="2" height="4">
<path d="M158.896 198.144C158.647 198.144 158.396 197.983 158.396 197.661C158.396 197.216 158.396 196.772 158.396 196.328C158.396 196.005 158.646 195.844 158.896 195.844C159.147 195.844 159.396 196.005 159.396 196.328C159.396 196.772 159.396 197.216 159.396 197.661C159.396 197.983 159.147 198.144 158.896 198.144Z" fill="white"/>
</mask>
<g mask="url(#mask180_1638_3139)">
<rect x="157.895" y="195.32" width="1.76003" height="3.09336" fill="#FCFCFC"/>
</g>
<mask id="mask181_1638_3139" style="mask-type:luminance" maskUnits="userSpaceOnUse" x="170" y="227" width="2" height="2">
<path d="M170.897 228.828C170.253 228.828 170.253 227.828 170.897 227.828C171.542 227.828 171.541 228.828 170.897 228.828Z" fill="white"/>
</mask>
<g mask="url(#mask181_1638_3139)">
<rect x="169.762" y="227.32" width="2.02669" height="1.76003" fill="#FCFCFC"/>
</g>
<mask id="mask182_1638_3139" style="mask-type:luminance" maskUnits="userSpaceOnUse" x="177" y="250" width="3" height="2">
<path d="M178.896 251.495C178.452 251.495 178.007 251.495 177.563 251.495C176.919 251.495 176.919 250.495 177.563 250.495C178.007 250.495 178.452 250.495 178.896 250.495C179.542 250.495 179.54 251.495 178.896 251.495Z" fill="white"/>
</mask>
<g mask="url(#mask182_1638_3139)">
<rect x="176.428" y="250.12" width="3.36003" height="1.76003" fill="#FCFCFC"/>
</g>
<mask id="mask183_1638_3139" style="mask-type:luminance" maskUnits="userSpaceOnUse" x="154" y="242" width="2" height="2">
<path d="M154.897 243.495C154.253 243.495 154.253 242.495 154.897 242.495C155.542 242.495 155.541 243.495 154.897 243.495Z" fill="white"/>
</mask>
<g mask="url(#mask183_1638_3139)">
<rect x="153.762" y="242.12" width="2.02669" height="1.76003" fill="#FCFCFC"/>
</g>
<mask id="mask184_1638_3139" style="mask-type:luminance" maskUnits="userSpaceOnUse" x="222" y="241" width="2" height="3">
<path d="M222.896 243.478C222.647 243.478 222.396 243.316 222.396 242.995C222.396 242.55 222.396 242.106 222.396 241.662C222.396 241.339 222.646 241.178 222.896 241.178C223.146 241.178 223.396 241.339 223.396 241.662C223.396 242.106 223.396 242.55 223.396 242.995C223.396 243.316 223.147 243.478 222.896 243.478Z" fill="white"/>
</mask>
<g mask="url(#mask184_1638_3139)">
<rect x="221.895" y="240.787" width="1.76003" height="3.09336" fill="#FCFCFC"/>
</g>
<mask id="mask185_1638_3139" style="mask-type:luminance" maskUnits="userSpaceOnUse" x="267" y="231" width="2" height="2">
<path d="M268.229 232.828C267.585 232.828 267.586 231.828 268.229 231.828C268.874 231.828 268.873 232.828 268.229 232.828Z" fill="white"/>
</mask>
<g mask="url(#mask185_1638_3139)">
<rect x="267.361" y="231.453" width="2.02669" height="1.76003" fill="#FCFCFC"/>
</g>
<mask id="mask186_1638_3139" style="mask-type:luminance" maskUnits="userSpaceOnUse" x="220" y="16" width="3" height="2">
<path d="M222.271 17.8335C221.827 17.8335 221.383 17.8335 220.938 17.8335C220.294 17.8335 220.295 16.8335 220.938 16.8335C221.383 16.8335 221.827 16.8335 222.271 16.8335C222.916 16.8335 222.915 17.8335 222.271 17.8335Z" fill="white"/>
</mask>
<g mask="url(#mask186_1638_3139)">
<rect x="220.027" y="16.52" width="3.36003" height="1.76003" fill="#FCFCFC"/>
</g>
<mask id="mask187_1638_3139" style="mask-type:luminance" maskUnits="userSpaceOnUse" x="401" y="31" width="2" height="2">
<path d="M402.272 32.5C401.628 32.5 401.629 31.5 402.272 31.5C402.917 31.5 402.916 32.5 402.272 32.5Z" fill="white"/>
</mask>
<g mask="url(#mask187_1638_3139)">
<rect x="401.096" y="31.1865" width="2.42669" height="1.76003" fill="#FCFCFC"/>
</g>
<mask id="mask188_1638_3139" style="mask-type:luminance" maskUnits="userSpaceOnUse" x="319" y="50" width="3" height="3">
<path d="M319.626 52.5C319.242 52.5 318.901 51.9987 319.253 51.6467C319.697 51.2013 320.141 50.7573 320.586 50.3133C320.689 50.2093 320.806 50.1667 320.919 50.1667C321.303 50.1667 321.645 50.668 321.293 51.02C320.847 51.4653 320.403 51.9093 319.959 52.3533C319.855 52.4573 319.739 52.5 319.626 52.5Z" fill="white"/>
</mask>
<g mask="url(#mask188_1638_3139)">
<rect x="318.562" y="49.7202" width="3.62669" height="3.09336" fill="#FCFCFC"/>
</g>
<mask id="mask189_1638_3139" style="mask-type:luminance" maskUnits="userSpaceOnUse" x="395" y="216" width="2" height="4">
<path d="M395.605 219.149C395.354 219.149 395.104 218.988 395.104 218.667C395.104 218.223 395.104 217.777 395.104 217.333C395.104 217.011 395.354 216.851 395.604 216.851C395.854 216.851 396.104 217.012 396.104 217.333C396.104 217.777 396.104 218.223 396.104 218.667C396.104 218.989 395.854 219.149 395.605 219.149Z" fill="white"/>
</mask>
<g mask="url(#mask189_1638_3139)">
<rect x="394.693" y="216.52" width="1.76003" height="2.96003" fill="#FCFCFC"/>
</g>
<mask id="mask190_1638_3139" style="mask-type:luminance" maskUnits="userSpaceOnUse" x="312" y="216" width="2" height="4">
<path d="M313.105 219.24C312.854 219.24 312.604 219.079 312.604 218.758C312.604 218.091 312.604 217.424 312.604 216.758C312.604 216.435 312.854 216.275 313.104 216.275C313.354 216.275 313.604 216.436 313.604 216.758C313.604 217.424 313.604 218.091 313.604 218.758C313.604 219.079 313.354 219.24 313.105 219.24Z" fill="white"/>
</mask>
<g mask="url(#mask190_1638_3139)">
<rect x="312.162" y="215.854" width="1.76003" height="3.62669" fill="#FCFCFC"/>
</g>
<mask id="mask191_1638_3139" style="mask-type:luminance" maskUnits="userSpaceOnUse" x="292" y="212" width="2" height="2">
<path d="M293.104 213.257C292.46 213.257 292.461 212.257 293.104 212.257C293.749 212.257 293.748 213.257 293.104 213.257Z" fill="white"/>
</mask>
<g mask="url(#mask191_1638_3139)">
<rect x="292.027" y="211.986" width="2.02669" height="1.76003" fill="#FCFCFC"/>
</g>
<mask id="mask192_1638_3139" style="mask-type:luminance" maskUnits="userSpaceOnUse" x="306" y="229" width="3" height="2">
<path d="M308.326 230.721C308.031 230.721 307.734 230.721 307.438 230.721C306.794 230.721 306.794 229.721 307.438 229.721C307.734 229.721 308.031 229.721 308.326 229.721C308.971 229.721 308.97 230.721 308.326 230.721Z" fill="white"/>
</mask>
<g mask="url(#mask192_1638_3139)">
<rect x="306.43" y="229.32" width="2.96003" height="1.76003" fill="#FCFCFC"/>
</g>
<mask id="mask193_1638_3139" style="mask-type:luminance" maskUnits="userSpaceOnUse" x="318" y="235" width="2" height="2">
<path d="M318.992 236.945C318.348 236.945 318.35 235.945 318.992 235.945C319.638 235.945 319.636 236.945 318.992 236.945Z" fill="white"/>
</mask>
<g mask="url(#mask193_1638_3139)">
<rect x="317.895" y="235.72" width="2.02669" height="1.76003" fill="#FCFCFC"/>
</g>
<mask id="mask194_1638_3139" style="mask-type:luminance" maskUnits="userSpaceOnUse" x="322" y="224" width="2" height="2">
<path d="M323.438 225.389C322.794 225.389 322.794 224.388 323.438 224.388C324.083 224.388 324.082 225.389 323.438 225.389Z" fill="white"/>
</mask>
<g mask="url(#mask194_1638_3139)">
<rect x="322.295" y="224.12" width="2.16003" height="1.76003" fill="#FCFCFC"/>
</g>
<mask id="mask195_1638_3139" style="mask-type:luminance" maskUnits="userSpaceOnUse" x="342" y="231" width="2" height="2">
<path d="M342.992 232.5C342.348 232.5 342.35 231.5 342.992 231.5C343.638 231.5 343.636 232.5 342.992 232.5Z" fill="white"/>
</mask>
<g mask="url(#mask195_1638_3139)">
<rect x="341.895" y="231.187" width="2.02669" height="1.76003" fill="#FCFCFC"/>
</g>
<mask id="mask196_1638_3139" style="mask-type:luminance" maskUnits="userSpaceOnUse" x="342" y="249" width="2" height="2">
<path d="M342.992 250.277C342.348 250.277 342.35 249.277 342.992 249.277C343.638 249.277 343.636 250.277 342.992 250.277Z" fill="white"/>
</mask>
<g mask="url(#mask196_1638_3139)">
<rect x="341.895" y="248.787" width="2.02669" height="1.76003" fill="#FCFCFC"/>
</g>
<mask id="mask197_1638_3139" style="mask-type:luminance" maskUnits="userSpaceOnUse" x="333" y="236" width="2" height="2">
<path d="M334.104 237.833C333.46 237.833 333.46 236.833 334.104 236.833C334.749 236.833 334.748 237.833 334.104 237.833Z" fill="white"/>
</mask>
<g mask="url(#mask197_1638_3139)">
<rect x="332.961" y="236.253" width="2.02669" height="2.16003" fill="#FCFCFC"/>
</g>
<mask id="mask198_1638_3139" style="mask-type:luminance" maskUnits="userSpaceOnUse" x="341" y="215" width="2" height="2">
<path d="M342.104 216.5C341.46 216.5 341.46 215.5 342.104 215.5C342.749 215.5 342.748 216.5 342.104 216.5Z" fill="white"/>
</mask>
<g mask="url(#mask198_1638_3139)">
<rect x="340.961" y="215.187" width="2.02669" height="1.76003" fill="#FCFCFC"/>
</g>
<mask id="mask199_1638_3139" style="mask-type:luminance" maskUnits="userSpaceOnUse" x="330" y="203" width="2" height="2">
<path d="M331.438 204.056C330.794 204.056 330.794 203.055 331.438 203.055C332.083 203.055 332.082 204.056 331.438 204.056Z" fill="white"/>
</mask>
<g mask="url(#mask199_1638_3139)">
<rect x="330.295" y="202.654" width="2.16003" height="1.76003" fill="#FCFCFC"/>
</g>
<mask id="mask200_1638_3139" style="mask-type:luminance" maskUnits="userSpaceOnUse" x="277" y="251" width="2" height="2">
<path d="M278.272 252.5C277.628 252.5 277.629 251.5 278.272 251.5C278.917 251.5 278.916 252.5 278.272 252.5Z" fill="white"/>
</mask>
<g mask="url(#mask200_1638_3139)">
<rect x="277.229" y="251.053" width="2.16003" height="1.76003" fill="#FCFCFC"/>
</g>
<mask id="mask201_1638_3139" style="mask-type:luminance" maskUnits="userSpaceOnUse" x="280" y="242" width="2" height="2">
<path d="M280.938 243.167C280.294 243.167 280.295 242.167 280.938 242.167C281.583 242.167 281.582 243.167 280.938 243.167Z" fill="white"/>
</mask>
<g mask="url(#mask201_1638_3139)">
<rect x="279.762" y="241.72" width="2.16003" height="1.76003" fill="#FCFCFC"/>
</g>
<mask id="mask202_1638_3139" style="mask-type:luminance" maskUnits="userSpaceOnUse" x="277" y="226" width="4" height="3">
<path d="M279.585 228.5C279.472 228.5 279.355 228.457 279.252 228.353C278.807 227.909 278.363 227.465 277.919 227.02C277.567 226.668 277.908 226.167 278.292 226.167C278.405 226.167 278.521 226.209 278.625 226.313C279.069 226.757 279.513 227.201 279.959 227.647C280.311 227.999 279.969 228.5 279.585 228.5Z" fill="white"/>
</mask>
<g mask="url(#mask202_1638_3139)">
<rect x="277.229" y="225.72" width="3.36003" height="3.09336" fill="#FCFCFC"/>
</g>
<mask id="mask203_1638_3139" style="mask-type:luminance" maskUnits="userSpaceOnUse" x="420" y="78" width="2" height="2">
<path d="M420.938 79.1665C420.294 79.1665 420.295 78.1665 420.938 78.1665C421.583 78.1665 421.582 79.1665 420.938 79.1665Z" fill="white"/>
</mask>
<g mask="url(#mask203_1638_3139)">
<rect x="419.895" y="77.9863" width="2.16003" height="1.76003" fill="#FCFCFC"/>
</g>
<mask id="mask204_1638_3139" style="mask-type:luminance" maskUnits="userSpaceOnUse" x="403" y="84" width="3" height="4">
<path d="M403.626 87.168C403.242 87.168 402.901 86.6653 403.253 86.3133C403.697 85.868 404.141 85.424 404.586 84.98C404.689 84.876 404.806 84.832 404.919 84.832C405.303 84.832 405.645 85.3346 405.293 85.6866C404.847 86.132 404.403 86.576 403.959 87.02C403.855 87.124 403.739 87.168 403.626 87.168Z" fill="white"/>
</mask>
<g mask="url(#mask204_1638_3139)">
<rect x="402.295" y="84.3867" width="3.76003" height="3.36003" fill="#FCFCFC"/>
</g>
<mask id="mask205_1638_3139" style="mask-type:luminance" maskUnits="userSpaceOnUse" x="389" y="90" width="4" height="3">
<path d="M390.292 92.5015C389.908 92.5015 389.567 91.9988 389.919 91.6468C390.363 91.2015 390.807 90.7575 391.252 90.3135C391.356 90.2095 391.472 90.1655 391.585 90.1655C391.969 90.1655 392.311 90.6681 391.959 91.0201C391.513 91.4655 391.069 91.9095 390.625 92.3535C390.521 92.4575 390.405 92.5015 390.292 92.5015Z" fill="white"/>
</mask>
<g mask="url(#mask205_1638_3139)">
<rect x="389.229" y="89.7202" width="3.36003" height="3.09336" fill="#FCFCFC"/>
</g>
<mask id="mask206_1638_3139" style="mask-type:luminance" maskUnits="userSpaceOnUse" x="376" y="94" width="2" height="2">
<path d="M376.938 95.1665C376.294 95.1665 376.295 94.1665 376.938 94.1665C377.583 94.1665 377.582 95.1665 376.938 95.1665Z" fill="white"/>
</mask>
<g mask="url(#mask206_1638_3139)">
<rect x="375.762" y="93.9863" width="2.16003" height="1.76003" fill="#FCFCFC"/>
</g>
<mask id="mask207_1638_3139" style="mask-type:luminance" maskUnits="userSpaceOnUse" x="364" y="99" width="2" height="2">
<path d="M364.938 100.5C364.294 100.5 364.295 99.5 364.938 99.5C365.583 99.5 365.582 100.5 364.938 100.5Z" fill="white"/>
</mask>
<g mask="url(#mask207_1638_3139)">
<rect x="363.895" y="99.0532" width="2.16003" height="1.76003" fill="#FCFCFC"/>
</g>
<mask id="mask208_1638_3139" style="mask-type:luminance" maskUnits="userSpaceOnUse" x="204" y="242" width="2" height="2">
<path d="M204.938 243.167C204.294 243.167 204.295 242.167 204.938 242.167C205.583 242.167 205.582 243.167 204.938 243.167Z" fill="white"/>
</mask>
<g mask="url(#mask208_1638_3139)">
<rect x="204.027" y="241.72" width="2.02669" height="1.76003" fill="#FCFCFC"/>
</g>
<mask id="mask209_1638_3139" style="mask-type:luminance" maskUnits="userSpaceOnUse" x="228" y="236" width="2" height="2">
<path d="M228.938 237.833C228.294 237.833 228.295 236.833 228.938 236.833C229.583 236.833 229.582 237.833 228.938 237.833Z" fill="white"/>
</mask>
<g mask="url(#mask209_1638_3139)">
<rect x="228.027" y="236.253" width="2.02669" height="2.16003" fill="#FCFCFC"/>
</g>
<mask id="mask210_1638_3139" style="mask-type:luminance" maskUnits="userSpaceOnUse" x="216" y="219" width="2" height="3">
<path d="M216.939 221.816C216.688 221.816 216.438 221.655 216.438 221.333C216.438 220.888 216.438 220.445 216.438 220C216.438 219.677 216.688 219.517 216.938 219.517C217.188 219.517 217.438 219.679 217.438 220C217.438 220.445 217.438 220.888 217.438 221.333C217.438 221.656 217.188 221.816 216.939 221.816Z" fill="white"/>
</mask>
<g mask="url(#mask210_1638_3139)">
<rect x="216.162" y="219.053" width="1.76003" height="2.96003" fill="#FCFCFC"/>
</g>
<mask id="mask211_1638_3139" style="mask-type:luminance" maskUnits="userSpaceOnUse" x="427" y="239" width="2" height="2">
<path d="M427.604 240.5C426.96 240.5 426.961 239.5 427.604 239.5C428.249 239.5 428.248 240.5 427.604 240.5Z" fill="white"/>
</mask>
<g mask="url(#mask211_1638_3139)">
<rect x="426.693" y="239.187" width="2.02669" height="1.76003" fill="#FCFCFC"/>
</g>
<mask id="mask212_1638_3139" style="mask-type:luminance" maskUnits="userSpaceOnUse" x="396" y="244" width="2" height="2">
<path d="M396.938 245.833C396.294 245.833 396.295 244.833 396.938 244.833C397.583 244.833 397.582 245.833 396.938 245.833Z" fill="white"/>
</mask>
<g mask="url(#mask212_1638_3139)">
<rect x="395.895" y="244.253" width="2.16003" height="2.16003" fill="#FCFCFC"/>
</g>
<mask id="mask213_1638_3139" style="mask-type:luminance" maskUnits="userSpaceOnUse" x="421" y="20" width="5" height="4">
<path d="M422.363 23.3042C421.905 23.3042 421.602 22.6322 422.094 22.3815C422.981 21.9295 423.866 21.4789 424.751 21.0269C424.831 20.9856 424.911 20.9682 424.987 20.9682C425.445 20.9682 425.749 21.6403 425.255 21.8909C424.37 22.3429 423.485 22.7935 422.599 23.2455C422.518 23.2855 422.438 23.3042 422.363 23.3042Z" fill="white"/>
</mask>
<g mask="url(#mask213_1638_3139)">
<rect x="421.229" y="20.6538" width="4.96003" height="3.09336" fill="#FCFCFC"/>
</g>
<mask id="mask214_1638_3139" style="mask-type:luminance" maskUnits="userSpaceOnUse" x="396" y="58" width="2" height="2">
<path d="M396.938 59.1665C396.294 59.1665 396.295 58.1665 396.938 58.1665C397.583 58.1665 397.582 59.1665 396.938 59.1665Z" fill="white"/>
</mask>
<g mask="url(#mask214_1638_3139)">
<rect x="395.895" y="57.7197" width="2.16003" height="1.76003" fill="#FCFCFC"/>
</g>
<mask id="mask215_1638_3139" style="mask-type:luminance" maskUnits="userSpaceOnUse" x="296" y="79" width="2" height="2">
<path d="M296.938 80.5C296.294 80.5 296.295 79.5 296.938 79.5C297.583 79.5 297.582 80.5 296.938 80.5Z" fill="white"/>
</mask>
<g mask="url(#mask215_1638_3139)">
<rect x="295.762" y="79.1865" width="2.16003" height="1.76003" fill="#FCFCFC"/>
</g>
<mask id="mask216_1638_3139" style="mask-type:luminance" maskUnits="userSpaceOnUse" x="312" y="82" width="3" height="2">
<path d="M314.271 83.1665C313.827 83.1665 313.383 83.1665 312.938 83.1665C312.294 83.1665 312.295 82.1665 312.938 82.1665C313.383 82.1665 313.827 82.1665 314.271 82.1665C314.916 82.1665 314.915 83.1665 314.271 83.1665Z" fill="white"/>
</mask>
<g mask="url(#mask216_1638_3139)">
<rect x="311.762" y="81.7197" width="3.36003" height="1.76003" fill="#FCFCFC"/>
</g>
<mask id="mask217_1638_3139" style="mask-type:luminance" maskUnits="userSpaceOnUse" x="261" y="80" width="2" height="2">
<path d="M262.272 81.8335C261.628 81.8335 261.629 80.8335 262.272 80.8335C262.917 80.8335 262.916 81.8335 262.272 81.8335Z" fill="white"/>
</mask>
<g mask="url(#mask217_1638_3139)">
<rect x="261.229" y="80.52" width="2.16003" height="1.76003" fill="#FCFCFC"/>
</g>
<mask id="mask218_1638_3139" style="mask-type:luminance" maskUnits="userSpaceOnUse" x="412" y="168" width="1" height="2">
<path d="M412.506 169.833C411.862 169.833 411.862 168.833 412.506 168.833C413.152 168.833 413.15 169.833 412.506 169.833Z" fill="white"/>
</mask>
<g mask="url(#mask218_1638_3139)">
<rect x="411.361" y="168.52" width="2.29336" height="1.76003" fill="#FCFCFC"/>
</g>
<mask id="mask219_1638_3139" style="mask-type:luminance" maskUnits="userSpaceOnUse" x="402" y="139" width="2" height="2">
<path d="M403.174 140.5C402.53 140.5 402.53 139.5 403.174 139.5C403.82 139.5 403.818 140.5 403.174 140.5Z" fill="white"/>
</mask>
<g mask="url(#mask219_1638_3139)">
<rect x="402.029" y="139.053" width="2.02669" height="1.76003" fill="#FCFCFC"/>
</g>
<mask id="mask220_1638_3139" style="mask-type:luminance" maskUnits="userSpaceOnUse" x="381" y="172" width="2" height="2">
<path d="M381.84 173.833C381.196 173.833 381.196 172.833 381.84 172.833C382.486 172.833 382.484 173.833 381.84 173.833Z" fill="white"/>
</mask>
<g mask="url(#mask220_1638_3139)">
<rect x="380.961" y="172.253" width="2.02669" height="2.16003" fill="#FCFCFC"/>
</g>
<mask id="mask221_1638_3139" style="mask-type:luminance" maskUnits="userSpaceOnUse" x="374" y="232" width="2" height="2">
<path d="M375.174 233.833C374.53 233.833 374.53 232.833 375.174 232.833C375.82 232.833 375.818 233.833 375.174 233.833Z" fill="white"/>
</mask>
<g mask="url(#mask221_1638_3139)">
<rect x="374.162" y="232.52" width="2.16003" height="1.76003" fill="#FCFCFC"/>
</g>
<mask id="mask222_1638_3139" style="mask-type:luminance" maskUnits="userSpaceOnUse" x="386" y="202" width="3" height="2">
<path d="M388.508 203.167C388.062 203.167 387.618 203.167 387.174 203.167C386.53 203.167 386.53 202.167 387.174 202.167C387.618 202.167 388.062 202.167 388.508 202.167C389.153 202.167 389.152 203.167 388.508 203.167Z" fill="white"/>
</mask>
<g mask="url(#mask222_1638_3139)">
<rect x="386.029" y="201.72" width="3.62669" height="1.76003" fill="#FCFCFC"/>
</g>
<mask id="mask223_1638_3139" style="mask-type:luminance" maskUnits="userSpaceOnUse" x="54" y="8" width="2" height="2">
<path d="M55.173 9.8335C54.5276 9.8335 54.529 8.8335 55.173 8.8335C55.817 8.8335 55.817 9.8335 55.173 9.8335Z" fill="white"/>
</mask>
<g mask="url(#mask223_1638_3139)">
<rect x="54.2949" y="8.52002" width="2.02667" height="1.76003" fill="#FCFCFC"/>
</g>
<mask id="mask224_1638_3139" style="mask-type:luminance" maskUnits="userSpaceOnUse" x="60" y="14" width="2" height="3">
<path d="M60.5078 16.4829C60.2571 16.4829 60.0078 16.3216 60.0078 16.0002C60.0078 15.5549 60.0078 15.1122 60.0078 14.6669C60.0078 14.3442 60.2571 14.1842 60.5065 14.1842C60.7571 14.1842 61.0078 14.3456 61.0078 14.6669C61.0078 15.1122 61.0078 15.5549 61.0078 16.0002C61.0078 16.3216 60.7571 16.4829 60.5078 16.4829Z" fill="white"/>
</mask>
<g mask="url(#mask224_1638_3139)">
<rect x="59.6289" y="13.9868" width="1.76" height="2.96003" fill="#FCFCFC"/>
</g>
<mask id="mask225_1638_3139" style="mask-type:luminance" maskUnits="userSpaceOnUse" x="68" y="20" width="2" height="4">
<path d="M68.5078 23.1494C68.2571 23.1494 68.0078 22.9881 68.0078 22.6667C68.0078 22.2214 68.0078 21.7787 68.0078 21.3334C68.0078 21.0107 68.2571 20.8507 68.5065 20.8507C68.7571 20.8507 69.0078 21.0121 69.0078 21.3334C69.0078 21.7787 69.0078 22.2214 69.0078 22.6667C69.0078 22.9881 68.7571 23.1494 68.5078 23.1494Z" fill="white"/>
</mask>
<g mask="url(#mask225_1638_3139)">
<rect x="67.6289" y="20.3867" width="1.76" height="3.36003" fill="#FCFCFC"/>
</g>
<mask id="mask226_1638_3139" style="mask-type:luminance" maskUnits="userSpaceOnUse" x="76" y="30" width="1" height="2">
<path d="M76.5069 31.1665C75.8616 31.1665 75.8629 30.1665 76.5069 30.1665C77.1509 30.1665 77.1509 31.1665 76.5069 31.1665Z" fill="white"/>
</mask>
<g mask="url(#mask226_1638_3139)">
<rect x="75.3613" y="29.5864" width="2.02667" height="2.16003" fill="#FCFCFC"/>
</g>
<mask id="mask227_1638_3139" style="mask-type:luminance" maskUnits="userSpaceOnUse" x="271" y="30" width="14" height="14">
<path d="M278.043 43.1987L277.144 38.3747L275.348 39.6067L276.58 37.8107L271.756 36.9134L276.58 36.016L275.348 34.2187L277.144 35.4521L278.043 30.628L278.939 35.4521L280.735 34.2187L279.503 36.016L284.326 36.9134L279.503 37.8107L280.735 39.6067L278.939 38.3747L278.043 43.1987Z" fill="white"/>
</mask>
<g mask="url(#mask227_1638_3139)">
<rect x="271.494" y="30.2534" width="13.2267" height="13.2267" fill="#FCFCFC"/>
</g>
</svg>
