<svg width="428" height="253" viewBox="0 0 428 253" fill="none" xmlns="http://www.w3.org/2000/svg">
<mask id="mask0_1647_9974" style="mask-type:luminance" maskUnits="userSpaceOnUse" x="-1" y="42" width="2" height="2">
<path d="M0.396863 43.3599C-0.247404 43.3599 -0.246337 42.3599 0.396863 42.3599C1.04113 42.3599 1.04006 43.3599 0.396863 43.3599Z" fill="white"/>
</mask>
<g mask="url(#mask0_1647_9974)">
<rect x="-0.707031" y="42.1196" width="2.02667" height="1.76003" fill="#FCFCFC"/>
</g>
<mask id="mask1_1647_9974" style="mask-type:luminance" maskUnits="userSpaceOnUse" x="35" y="12" width="2" height="2">
<path d="M35.9542 13.1387C35.3089 13.1387 35.3102 12.1387 35.9542 12.1387C36.5982 12.1387 36.5969 13.1387 35.9542 13.1387Z" fill="white"/>
</mask>
<g mask="url(#mask1_1647_9974)">
<rect x="34.7617" y="11.7197" width="2.02667" height="1.76003" fill="#FCFCFC"/>
</g>
<mask id="mask2_1647_9974" style="mask-type:luminance" maskUnits="userSpaceOnUse" x="7" y="18" width="1" height="2">
<path d="M7.50789 19.3599C6.86389 19.3599 6.86522 18.3599 7.50789 18.3599C8.15322 18.3599 8.15189 19.3599 7.50789 19.3599Z" fill="white"/>
</mask>
<g mask="url(#mask2_1647_9974)">
<rect x="6.62695" y="18.1196" width="2.02667" height="1.76003" fill="#FCFCFC"/>
</g>
<mask id="mask3_1647_9974" style="mask-type:luminance" maskUnits="userSpaceOnUse" x="55" y="66" width="2" height="3">
<path d="M56.1758 68.4829C55.9251 68.4829 55.6758 68.3216 55.6758 68.0002C55.6758 67.5549 55.6758 67.1122 55.6758 66.6669C55.6758 66.3442 55.9251 66.1842 56.1744 66.1842C56.4251 66.1842 56.6758 66.3456 56.6758 66.6669C56.6758 67.1122 56.6758 67.5549 56.6758 68.0002C56.6758 68.3216 56.4251 68.4829 56.1758 68.4829Z" fill="white"/>
</mask>
<g mask="url(#mask3_1647_9974)">
<rect x="55.2949" y="65.7202" width="1.76" height="3.09336" fill="#FCFCFC"/>
</g>
<mask id="mask4_1647_9974" style="mask-type:luminance" maskUnits="userSpaceOnUse" x="26" y="86" width="2" height="2">
<path d="M26.8429 87.1665C26.1975 87.1665 26.1989 86.1665 26.8429 86.1665C27.4869 86.1665 27.4855 87.1665 26.8429 87.1665Z" fill="white"/>
</mask>
<g mask="url(#mask4_1647_9974)">
<rect x="25.8281" y="85.9863" width="2.02667" height="1.76003" fill="#FCFCFC"/>
</g>
<mask id="mask5_1647_9974" style="mask-type:luminance" maskUnits="userSpaceOnUse" x="75" y="56" width="2" height="2">
<path d="M76.1769 57.8335C75.5315 57.8335 75.5329 56.8335 76.1769 56.8335C76.8209 56.8335 76.8195 57.8335 76.1769 57.8335Z" fill="white"/>
</mask>
<g mask="url(#mask5_1647_9974)">
<rect x="75.0293" y="56.52" width="2.16" height="1.76003" fill="#FCFCFC"/>
</g>
<mask id="mask6_1647_9974" style="mask-type:luminance" maskUnits="userSpaceOnUse" x="58" y="139" width="2" height="2">
<path d="M58.8429 140.5C58.1975 140.5 58.1989 139.5 58.8429 139.5C59.4869 139.5 59.4855 140.5 58.8429 140.5Z" fill="white"/>
</mask>
<g mask="url(#mask6_1647_9974)">
<rect x="57.8281" y="139.053" width="2.02667" height="1.76003" fill="#FCFCFC"/>
</g>
<mask id="mask7_1647_9974" style="mask-type:luminance" maskUnits="userSpaceOnUse" x="19" y="118" width="2" height="2">
<path d="M20.1769 119.167C19.5315 119.167 19.5329 118.167 20.1769 118.167C20.8209 118.167 20.8195 119.167 20.1769 119.167Z" fill="white"/>
</mask>
<g mask="url(#mask7_1647_9974)">
<rect x="19.0293" y="117.853" width="2.16" height="1.76003" fill="#FCFCFC"/>
</g>
<mask id="mask8_1647_9974" style="mask-type:luminance" maskUnits="userSpaceOnUse" x="6" y="163" width="2" height="3">
<path d="M6.84375 165.816C6.59308 165.816 6.34375 165.655 6.34375 165.333C6.34375 164.889 6.34375 164.445 6.34375 164C6.34375 163.677 6.59308 163.517 6.84242 163.517C7.09308 163.517 7.34375 163.679 7.34375 164C7.34375 164.445 7.34375 164.889 7.34375 165.333C7.34375 165.656 7.09308 165.816 6.84375 165.816Z" fill="white"/>
</mask>
<g mask="url(#mask8_1647_9974)">
<rect x="5.96289" y="163.053" width="1.76" height="2.96003" fill="#FCFCFC"/>
</g>
<mask id="mask9_1647_9974" style="mask-type:luminance" maskUnits="userSpaceOnUse" x="30" y="170" width="2" height="2">
<path d="M30.8429 171.167C30.1975 171.167 30.1989 170.167 30.8429 170.167C31.4869 170.167 31.4855 171.167 30.8429 171.167Z" fill="white"/>
</mask>
<g mask="url(#mask9_1647_9974)">
<rect x="29.6953" y="169.72" width="2.02667" height="1.76003" fill="#FCFCFC"/>
</g>
<mask id="mask10_1647_9974" style="mask-type:luminance" maskUnits="userSpaceOnUse" x="110" y="135" width="2" height="3">
<path d="M110.844 137.816C110.593 137.816 110.344 137.655 110.344 137.333C110.344 136.888 110.344 136.444 110.344 136C110.344 135.677 110.593 135.517 110.842 135.517C111.093 135.517 111.344 135.679 111.344 136C111.344 136.444 111.344 136.888 111.344 137.333C111.344 137.656 111.093 137.816 110.844 137.816Z" fill="white"/>
</mask>
<g mask="url(#mask10_1647_9974)">
<rect x="109.963" y="135.187" width="1.76" height="3.09336" fill="#FCFCFC"/>
</g>
<mask id="mask11_1647_9974" style="mask-type:luminance" maskUnits="userSpaceOnUse" x="127" y="83" width="2" height="2">
<path d="M128.177 84.5C127.532 84.5 127.533 83.5 128.177 83.5C128.821 83.5 128.82 84.5 128.177 84.5Z" fill="white"/>
</mask>
<g mask="url(#mask11_1647_9974)">
<rect x="127.295" y="83.0532" width="2.02667" height="1.76003" fill="#FCFCFC"/>
</g>
<mask id="mask12_1647_9974" style="mask-type:luminance" maskUnits="userSpaceOnUse" x="101" y="43" width="1" height="2">
<path d="M101.509 44.5C100.864 44.5 100.865 43.5 101.509 43.5C102.153 43.5 102.152 44.5 101.509 44.5Z" fill="white"/>
</mask>
<g mask="url(#mask12_1647_9974)">
<rect x="100.361" y="43.0532" width="2.02667" height="1.76003" fill="#FCFCFC"/>
</g>
<mask id="mask13_1647_9974" style="mask-type:luminance" maskUnits="userSpaceOnUse" x="59" y="36" width="4" height="4">
<path d="M60.1963 39.1665C59.8123 39.1665 59.471 38.6652 59.823 38.3132C60.267 37.8692 60.711 37.4239 61.155 36.9799C61.259 36.8759 61.3763 36.8332 61.4883 36.8332C61.8723 36.8332 62.215 37.3345 61.863 37.6865C61.4177 38.1305 60.9737 38.5758 60.5297 39.0198C60.4257 39.1238 60.3097 39.1665 60.1963 39.1665Z" fill="white"/>
</mask>
<g mask="url(#mask13_1647_9974)">
<rect x="59.0293" y="36.3867" width="3.75999" height="3.36003" fill="#FCFCFC"/>
</g>
<mask id="mask14_1647_9974" style="mask-type:luminance" maskUnits="userSpaceOnUse" x="31" y="48" width="2" height="2">
<path d="M32.1769 49.8335C31.5315 49.8335 31.5329 48.8335 32.1769 48.8335C32.8209 48.8335 32.8195 49.8335 32.1769 49.8335Z" fill="white"/>
</mask>
<g mask="url(#mask14_1647_9974)">
<rect x="31.2949" y="48.52" width="2.02667" height="1.76003" fill="#FCFCFC"/>
</g>
<mask id="mask15_1647_9974" style="mask-type:luminance" maskUnits="userSpaceOnUse" x="13" y="80" width="1" height="2">
<path d="M13.5089 81.8335C12.8636 81.8335 12.8649 80.8335 13.5089 80.8335C14.1529 80.8335 14.1516 81.8335 13.5089 81.8335Z" fill="white"/>
</mask>
<g mask="url(#mask15_1647_9974)">
<rect x="12.3613" y="80.52" width="2.02667" height="1.76003" fill="#FCFCFC"/>
</g>
<mask id="mask16_1647_9974" style="mask-type:luminance" maskUnits="userSpaceOnUse" x="145" y="76" width="1" height="2">
<path d="M145.509 77.8335C144.864 77.8335 144.865 76.8335 145.509 76.8335C146.153 76.8335 146.152 77.8335 145.509 77.8335Z" fill="white"/>
</mask>
<g mask="url(#mask16_1647_9974)">
<rect x="144.494" y="76.3867" width="2.16003" height="1.76003" fill="#FCFCFC"/>
</g>
<mask id="mask17_1647_9974" style="mask-type:luminance" maskUnits="userSpaceOnUse" x="103" y="74" width="2" height="2">
<path d="M104.177 75.1665C103.532 75.1665 103.533 74.1665 104.177 74.1665C104.821 74.1665 104.82 75.1665 104.177 75.1665Z" fill="white"/>
</mask>
<g mask="url(#mask17_1647_9974)">
<rect x="103.295" y="73.7197" width="2.02667" height="1.76003" fill="#FCFCFC"/>
</g>
<mask id="mask18_1647_9974" style="mask-type:luminance" maskUnits="userSpaceOnUse" x="139" y="46" width="2" height="2">
<path d="M140.177 47.1665C139.532 47.1665 139.533 46.1665 140.177 46.1665C140.821 46.1665 140.82 47.1665 140.177 47.1665Z" fill="white"/>
</mask>
<g mask="url(#mask18_1647_9974)">
<rect x="139.029" y="45.5864" width="2.16" height="2.16003" fill="#FCFCFC"/>
</g>
<mask id="mask19_1647_9974" style="mask-type:luminance" maskUnits="userSpaceOnUse" x="146" y="10" width="2" height="2">
<path d="M146.843 11.1665C146.198 11.1665 146.199 10.1665 146.843 10.1665C147.487 10.1665 147.486 11.1665 146.843 11.1665Z" fill="white"/>
</mask>
<g mask="url(#mask19_1647_9974)">
<rect x="145.828" y="9.71973" width="2.02669" height="1.76003" fill="#FCFCFC"/>
</g>
<mask id="mask20_1647_9974" style="mask-type:luminance" maskUnits="userSpaceOnUse" x="177" y="24" width="1" height="2">
<path d="M177.509 25.8335C176.864 25.8335 176.865 24.8335 177.509 24.8335C178.153 24.8335 178.152 25.8335 177.509 25.8335Z" fill="white"/>
</mask>
<g mask="url(#mask20_1647_9974)">
<rect x="176.494" y="24.52" width="2.02669" height="1.76003" fill="#FCFCFC"/>
</g>
<mask id="mask21_1647_9974" style="mask-type:luminance" maskUnits="userSpaceOnUse" x="165" y="47" width="1" height="2">
<path d="M165.509 48.5C164.864 48.5 164.865 47.5 165.509 47.5C166.153 47.5 166.152 48.5 165.509 48.5Z" fill="white"/>
</mask>
<g mask="url(#mask21_1647_9974)">
<rect x="164.361" y="47.1865" width="2.02669" height="1.76003" fill="#FCFCFC"/>
</g>
<mask id="mask22_1647_9974" style="mask-type:luminance" maskUnits="userSpaceOnUse" x="105" y="14" width="1" height="2">
<path d="M105.509 15.1665C104.864 15.1665 104.865 14.1665 105.509 14.1665C106.153 14.1665 106.152 15.1665 105.509 15.1665Z" fill="white"/>
</mask>
<g mask="url(#mask22_1647_9974)">
<rect x="104.494" y="13.5864" width="2.16" height="2.16003" fill="#FCFCFC"/>
</g>
<mask id="mask23_1647_9974" style="mask-type:luminance" maskUnits="userSpaceOnUse" x="85" y="10" width="1" height="2">
<path d="M85.5089 11.1665C84.8636 11.1665 84.8649 10.1665 85.5089 10.1665C86.1529 10.1665 86.1516 11.1665 85.5089 11.1665Z" fill="white"/>
</mask>
<g mask="url(#mask23_1647_9974)">
<rect x="84.3613" y="9.71973" width="2.02667" height="1.76003" fill="#FCFCFC"/>
</g>
<mask id="mask24_1647_9974" style="mask-type:luminance" maskUnits="userSpaceOnUse" x="193" y="22" width="1" height="2">
<path d="M193.509 23.1665C192.864 23.1665 192.865 22.1665 193.509 22.1665C194.153 22.1665 194.152 23.1665 193.509 23.1665Z" fill="white"/>
</mask>
<g mask="url(#mask24_1647_9974)">
<rect x="192.494" y="21.5864" width="2.02669" height="2.16003" fill="#FCFCFC"/>
</g>
<mask id="mask25_1647_9974" style="mask-type:luminance" maskUnits="userSpaceOnUse" x="206" y="52" width="2" height="2">
<path d="M206.842 53.8335C206.198 53.8335 206.199 52.8335 206.842 52.8335C207.487 52.8335 207.487 53.8335 206.842 53.8335Z" fill="white"/>
</mask>
<g mask="url(#mask25_1647_9974)">
<rect x="205.961" y="52.3867" width="2.02669" height="1.76003" fill="#FCFCFC"/>
</g>
<mask id="mask26_1647_9974" style="mask-type:luminance" maskUnits="userSpaceOnUse" x="246" y="108" width="2" height="2">
<path d="M246.842 109.833C246.198 109.833 246.199 108.833 246.842 108.833C247.486 108.833 247.486 109.833 246.842 109.833Z" fill="white"/>
</mask>
<g mask="url(#mask26_1647_9974)">
<rect x="245.961" y="108.387" width="2.02669" height="1.62669" fill="#FCFCFC"/>
</g>
<mask id="mask27_1647_9974" style="mask-type:luminance" maskUnits="userSpaceOnUse" x="237" y="76" width="1" height="2">
<path d="M237.508 77.8335C236.864 77.8335 236.865 76.8335 237.508 76.8335C238.153 76.8335 238.153 77.8335 237.508 77.8335Z" fill="white"/>
</mask>
<g mask="url(#mask27_1647_9974)">
<rect x="236.361" y="76.3867" width="2.02669" height="1.76003" fill="#FCFCFC"/>
</g>
<mask id="mask28_1647_9974" style="mask-type:luminance" maskUnits="userSpaceOnUse" x="219" y="96" width="2" height="2">
<path d="M220.174 97.8335C219.53 97.8335 219.531 96.8335 220.174 96.8335C220.818 96.8335 220.818 97.8335 220.174 97.8335Z" fill="white"/>
</mask>
<g mask="url(#mask28_1647_9974)">
<rect x="219.027" y="96.52" width="2.16003" height="1.76003" fill="#FCFCFC"/>
</g>
<mask id="mask29_1647_9974" style="mask-type:luminance" maskUnits="userSpaceOnUse" x="158" y="148" width="3" height="4">
<path d="M160.155 151.167C160.043 151.167 159.926 151.124 159.822 151.02C159.378 150.576 158.934 150.132 158.489 149.686C158.137 149.334 158.479 148.833 158.863 148.833C158.977 148.833 159.093 148.876 159.197 148.98C159.641 149.424 160.085 149.868 160.53 150.313C160.882 150.665 160.539 151.167 160.155 151.167Z" fill="white"/>
</mask>
<g mask="url(#mask29_1647_9974)">
<rect x="157.562" y="148.253" width="3.76003" height="3.36003" fill="#FCFCFC"/>
</g>
<mask id="mask30_1647_9974" style="mask-type:luminance" maskUnits="userSpaceOnUse" x="177" y="110" width="1" height="2">
<path d="M177.509 111.167C176.864 111.167 176.865 110.167 177.509 110.167C178.153 110.167 178.152 111.167 177.509 111.167Z" fill="white"/>
</mask>
<g mask="url(#mask30_1647_9974)">
<rect x="176.494" y="109.853" width="2.02669" height="1.76003" fill="#FCFCFC"/>
</g>
<mask id="mask31_1647_9974" style="mask-type:luminance" maskUnits="userSpaceOnUse" x="210" y="127" width="2" height="3">
<path d="M210.842 129.816C210.592 129.816 210.342 129.655 210.342 129.333C210.342 128.889 210.342 128.445 210.342 128C210.342 127.677 210.591 127.517 210.842 127.517C211.091 127.517 211.342 127.679 211.342 128C211.342 128.445 211.342 128.889 211.342 129.333C211.342 129.656 211.092 129.816 210.842 129.816Z" fill="white"/>
</mask>
<g mask="url(#mask31_1647_9974)">
<rect x="210.096" y="127.187" width="1.76003" height="3.09336" fill="#FCFCFC"/>
</g>
<mask id="mask32_1647_9974" style="mask-type:luminance" maskUnits="userSpaceOnUse" x="194" y="147" width="2" height="2">
<path d="M194.843 148.5C194.198 148.5 194.199 147.5 194.843 147.5C195.487 147.5 195.486 148.5 194.843 148.5Z" fill="white"/>
</mask>
<g mask="url(#mask32_1647_9974)">
<rect x="193.828" y="147.053" width="2.02669" height="1.76003" fill="#FCFCFC"/>
</g>
<mask id="mask33_1647_9974" style="mask-type:luminance" maskUnits="userSpaceOnUse" x="178" y="127" width="2" height="2">
<path d="M179.029 128.467C179.102 128.181 178.946 127.828 178.564 127.828C178.494 127.828 178.432 127.839 178.377 127.86C178.426 127.664 178.582 127.5 178.844 127.5C179.418 127.5 179.48 128.295 179.029 128.467Z" fill="white"/>
</mask>
<g mask="url(#mask33_1647_9974)">
<rect x="178.096" y="127.187" width="1.76003" height="1.76003" fill="#FCFCFC"/>
</g>
<mask id="mask34_1647_9974" style="mask-type:luminance" maskUnits="userSpaceOnUse" x="195" y="87" width="2" height="2">
<path d="M196.177 88.5C195.532 88.5 195.533 87.5 196.177 87.5C196.821 87.5 196.82 88.5 196.177 88.5Z" fill="white"/>
</mask>
<g mask="url(#mask34_1647_9974)">
<rect x="195.029" y="87.1865" width="2.16003" height="1.76003" fill="#FCFCFC"/>
</g>
<mask id="mask35_1647_9974" style="mask-type:luminance" maskUnits="userSpaceOnUse" x="155" y="98" width="2" height="2">
<path d="M156.177 99.1665C155.532 99.1665 155.533 98.1665 156.177 98.1665C156.821 98.1665 156.82 99.1665 156.177 99.1665Z" fill="white"/>
</mask>
<g mask="url(#mask35_1647_9974)">
<rect x="155.029" y="97.7197" width="2.16003" height="1.76003" fill="#FCFCFC"/>
</g>
<mask id="mask36_1647_9974" style="mask-type:luminance" maskUnits="userSpaceOnUse" x="178" y="68" width="2" height="2">
<path d="M178.843 69.8335C178.198 69.8335 178.199 68.8335 178.843 68.8335C179.487 68.8335 179.486 69.8335 178.843 69.8335Z" fill="white"/>
</mask>
<g mask="url(#mask36_1647_9974)">
<rect x="177.828" y="68.3867" width="2.02669" height="1.76003" fill="#FCFCFC"/>
</g>
<mask id="mask37_1647_9974" style="mask-type:luminance" maskUnits="userSpaceOnUse" x="150" y="111" width="2" height="2">
<path d="M150.843 112.5C150.198 112.5 150.199 111.5 150.843 111.5C151.487 111.5 151.486 112.5 150.843 112.5Z" fill="white"/>
</mask>
<g mask="url(#mask37_1647_9974)">
<rect x="149.961" y="111.187" width="2.02669" height="1.76003" fill="#FCFCFC"/>
</g>
<mask id="mask38_1647_9974" style="mask-type:luminance" maskUnits="userSpaceOnUse" x="121" y="115" width="1" height="2">
<path d="M121.509 116.5C120.864 116.5 120.865 115.5 121.509 115.5C122.153 115.5 122.152 116.5 121.509 116.5Z" fill="white"/>
</mask>
<g mask="url(#mask38_1647_9974)">
<rect x="120.494" y="115.053" width="2.16" height="1.76003" fill="#FCFCFC"/>
</g>
<mask id="mask39_1647_9974" style="mask-type:luminance" maskUnits="userSpaceOnUse" x="134" y="170" width="2" height="2">
<path d="M134.843 171.167C134.198 171.167 134.199 170.167 134.843 170.167C135.487 170.167 135.486 171.167 134.843 171.167Z" fill="white"/>
</mask>
<g mask="url(#mask39_1647_9974)">
<rect x="133.961" y="169.72" width="2.02667" height="1.76003" fill="#FCFCFC"/>
</g>
<mask id="mask40_1647_9974" style="mask-type:luminance" maskUnits="userSpaceOnUse" x="111" y="190" width="2" height="2">
<path d="M112.177 191.167C111.532 191.167 111.533 190.167 112.177 190.167C112.821 190.167 112.82 191.167 112.177 191.167Z" fill="white"/>
</mask>
<g mask="url(#mask40_1647_9974)">
<rect x="111.295" y="189.853" width="2.02667" height="1.76003" fill="#FCFCFC"/>
</g>
<mask id="mask41_1647_9974" style="mask-type:luminance" maskUnits="userSpaceOnUse" x="98" y="162" width="2" height="2">
<path d="M98.8429 163.167C98.1975 163.167 98.1989 162.167 98.8429 162.167C99.4869 162.167 99.4855 163.167 98.8429 163.167Z" fill="white"/>
</mask>
<g mask="url(#mask41_1647_9974)">
<rect x="97.8281" y="161.72" width="2.02667" height="1.76003" fill="#FCFCFC"/>
</g>
<mask id="mask42_1647_9974" style="mask-type:luminance" maskUnits="userSpaceOnUse" x="118" y="191" width="2" height="2">
<path d="M118.843 192.5C118.198 192.5 118.199 191.5 118.843 191.5C119.487 191.5 119.486 192.5 118.843 192.5Z" fill="white"/>
</mask>
<g mask="url(#mask42_1647_9974)">
<rect x="117.961" y="191.187" width="2.02667" height="1.76003" fill="#FCFCFC"/>
</g>
<mask id="mask43_1647_9974" style="mask-type:luminance" maskUnits="userSpaceOnUse" x="125" y="202" width="1" height="2">
<path d="M125.509 203.167C124.864 203.167 124.865 202.167 125.509 202.167C126.153 202.167 126.152 203.167 125.509 203.167Z" fill="white"/>
</mask>
<g mask="url(#mask43_1647_9974)">
<rect x="124.361" y="201.72" width="2.02667" height="1.76003" fill="#FCFCFC"/>
</g>
<mask id="mask44_1647_9974" style="mask-type:luminance" maskUnits="userSpaceOnUse" x="125" y="194" width="1" height="2">
<path d="M125.509 195.167C124.864 195.167 124.865 194.167 125.509 194.167C126.153 194.167 126.152 195.167 125.509 195.167Z" fill="white"/>
</mask>
<g mask="url(#mask44_1647_9974)">
<rect x="124.361" y="193.72" width="2.02667" height="1.76003" fill="#FCFCFC"/>
</g>
<mask id="mask45_1647_9974" style="mask-type:luminance" maskUnits="userSpaceOnUse" x="137" y="203" width="1" height="2">
<path d="M137.509 204.5C136.864 204.5 136.865 203.5 137.509 203.5C138.153 203.5 138.152 204.5 137.509 204.5Z" fill="white"/>
</mask>
<g mask="url(#mask45_1647_9974)">
<rect x="136.494" y="203.053" width="2.16" height="1.76003" fill="#FCFCFC"/>
</g>
<mask id="mask46_1647_9974" style="mask-type:luminance" maskUnits="userSpaceOnUse" x="151" y="216" width="4" height="4">
<path d="M153.49 219.167C153.377 219.167 153.26 219.124 153.157 219.02C152.712 218.576 152.268 218.132 151.824 217.686C151.47 217.334 151.813 216.833 152.197 216.833C152.31 216.833 152.426 216.876 152.53 216.98C152.974 217.424 153.418 217.868 153.864 218.313C154.216 218.665 153.873 219.168 153.49 219.167Z" fill="white"/>
</mask>
<g mask="url(#mask46_1647_9974)">
<rect x="151.295" y="216.52" width="3.22669" height="2.96003" fill="#FCFCFC"/>
</g>
<mask id="mask47_1647_9974" style="mask-type:luminance" maskUnits="userSpaceOnUse" x="169" y="226" width="1" height="2">
<path d="M169.509 227.167C168.864 227.167 168.865 226.167 169.509 226.167C170.153 226.167 170.152 227.167 169.509 227.167Z" fill="white"/>
</mask>
<g mask="url(#mask47_1647_9974)">
<rect x="168.494" y="225.72" width="2.02669" height="1.76003" fill="#FCFCFC"/>
</g>
<mask id="mask48_1647_9974" style="mask-type:luminance" maskUnits="userSpaceOnUse" x="183" y="208" width="2" height="2">
<path d="M184.177 209.833C183.532 209.833 183.533 208.833 184.177 208.833C184.821 208.833 184.82 209.833 184.177 209.833Z" fill="white"/>
</mask>
<g mask="url(#mask48_1647_9974)">
<rect x="183.162" y="208.52" width="2.16003" height="1.76003" fill="#FCFCFC"/>
</g>
<mask id="mask49_1647_9974" style="mask-type:luminance" maskUnits="userSpaceOnUse" x="211" y="192" width="2" height="2">
<path d="M212.174 193.833C211.53 193.833 211.531 192.833 212.174 192.833C212.819 192.833 212.819 193.833 212.174 193.833Z" fill="white"/>
</mask>
<g mask="url(#mask49_1647_9974)">
<rect x="211.027" y="192.52" width="2.16003" height="1.76003" fill="#FCFCFC"/>
</g>
<mask id="mask50_1647_9974" style="mask-type:luminance" maskUnits="userSpaceOnUse" x="174" y="186" width="2" height="2">
<path d="M174.843 187.167C174.198 187.167 174.199 186.167 174.843 186.167C175.487 186.167 175.486 187.167 174.843 187.167Z" fill="white"/>
</mask>
<g mask="url(#mask50_1647_9974)">
<rect x="173.961" y="185.72" width="2.02669" height="1.76003" fill="#FCFCFC"/>
</g>
<mask id="mask51_1647_9974" style="mask-type:luminance" maskUnits="userSpaceOnUse" x="174" y="168" width="2" height="2">
<path d="M174.843 169.833C174.198 169.833 174.199 168.833 174.843 168.833C175.487 168.833 175.486 169.833 174.843 169.833Z" fill="white"/>
</mask>
<g mask="url(#mask51_1647_9974)">
<rect x="173.961" y="168.52" width="2.02669" height="1.76003" fill="#FCFCFC"/>
</g>
<mask id="mask52_1647_9974" style="mask-type:luminance" maskUnits="userSpaceOnUse" x="194" y="171" width="2" height="3">
<path d="M194.844 173.816C194.593 173.816 194.344 173.655 194.344 173.333C194.344 172.888 194.344 172.444 194.344 172C194.344 171.677 194.593 171.517 194.842 171.517C195.093 171.517 195.344 171.679 195.344 172C195.344 172.444 195.344 172.888 195.344 173.333C195.344 173.656 195.093 173.816 194.844 173.816Z" fill="white"/>
</mask>
<g mask="url(#mask52_1647_9974)">
<rect x="194.096" y="171.053" width="1.76003" height="2.96003" fill="#FCFCFC"/>
</g>
<mask id="mask53_1647_9974" style="mask-type:luminance" maskUnits="userSpaceOnUse" x="157" y="182" width="2" height="3">
<path d="M157.51 184.483C157.259 184.483 157.01 184.322 157.01 184C157.01 183.555 157.01 183.111 157.01 182.667C157.01 182.344 157.259 182.184 157.508 182.184C157.759 182.184 158.01 182.346 158.01 182.667C158.01 183.111 158.01 183.555 158.01 184C158.01 184.323 157.759 184.483 157.51 184.483Z" fill="white"/>
</mask>
<g mask="url(#mask53_1647_9974)">
<rect x="156.629" y="181.854" width="1.76003" height="3.09336" fill="#FCFCFC"/>
</g>
<mask id="mask54_1647_9974" style="mask-type:luminance" maskUnits="userSpaceOnUse" x="145" y="179" width="1" height="2">
<path d="M145.509 180.5C144.864 180.5 144.865 179.5 145.509 179.5C146.153 179.5 146.152 180.5 145.509 180.5Z" fill="white"/>
</mask>
<g mask="url(#mask54_1647_9974)">
<rect x="144.494" y="179.053" width="2.16003" height="1.76003" fill="#FCFCFC"/>
</g>
<mask id="mask55_1647_9974" style="mask-type:luminance" maskUnits="userSpaceOnUse" x="81" y="192" width="1" height="2">
<path d="M81.5089 193.833C80.8636 193.833 80.8649 192.833 81.5089 192.833C82.1529 192.833 82.1516 193.833 81.5089 193.833Z" fill="white"/>
</mask>
<g mask="url(#mask55_1647_9974)">
<rect x="80.4941" y="192.52" width="2.16" height="1.76003" fill="#FCFCFC"/>
</g>
<mask id="mask56_1647_9974" style="mask-type:luminance" maskUnits="userSpaceOnUse" x="79" y="226" width="2" height="2">
<path d="M80.1758 227.975C79.9251 227.975 79.6758 227.813 79.6758 227.492C79.6758 227.217 79.6758 226.941 79.6758 226.667C79.6758 226.344 79.9251 226.184 80.1744 226.184C80.4251 226.184 80.6758 226.345 80.6758 226.667C80.6758 226.941 80.6758 227.217 80.6758 227.492C80.6758 227.815 80.4251 227.975 80.1758 227.975Z" fill="white"/>
</mask>
<g mask="url(#mask56_1647_9974)">
<rect x="79.2949" y="225.72" width="1.76" height="2.69336" fill="#FCFCFC"/>
</g>
<mask id="mask57_1647_9974" style="mask-type:luminance" maskUnits="userSpaceOnUse" x="91" y="236" width="2" height="2">
<path d="M92.1769 237.833C91.5315 237.833 91.5329 236.833 92.1769 236.833C92.8209 236.833 92.8195 237.833 92.1769 237.833Z" fill="white"/>
</mask>
<g mask="url(#mask57_1647_9974)">
<rect x="91.0293" y="236.253" width="2.16" height="2.16003" fill="#FCFCFC"/>
</g>
<mask id="mask58_1647_9974" style="mask-type:luminance" maskUnits="userSpaceOnUse" x="126" y="226" width="2" height="3">
<path d="M126.844 228.483C126.593 228.483 126.344 228.322 126.344 228C126.344 227.556 126.344 227.111 126.344 226.667C126.344 226.344 126.593 226.184 126.842 226.184C127.093 226.184 127.344 226.346 127.344 226.667C127.344 227.111 127.344 227.556 127.344 228C127.344 228.323 127.093 228.483 126.844 228.483Z" fill="white"/>
</mask>
<g mask="url(#mask58_1647_9974)">
<rect x="125.963" y="225.72" width="1.76" height="3.09336" fill="#FCFCFC"/>
</g>
<mask id="mask59_1647_9974" style="mask-type:luminance" maskUnits="userSpaceOnUse" x="98" y="210" width="3" height="2">
<path d="M100.176 211.167C99.7309 211.167 99.2869 211.167 98.8429 211.167C98.1975 211.167 98.1989 210.167 98.8429 210.167C99.2869 210.167 99.7309 210.167 100.176 210.167C100.82 210.167 100.819 211.167 100.176 211.167Z" fill="white"/>
</mask>
<g mask="url(#mask59_1647_9974)">
<rect x="97.8281" y="209.72" width="3.35999" height="1.76003" fill="#FCFCFC"/>
</g>
<mask id="mask60_1647_9974" style="mask-type:luminance" maskUnits="userSpaceOnUse" x="102" y="236" width="2" height="2">
<path d="M102.843 237.833C102.198 237.833 102.199 236.833 102.843 236.833C103.487 236.833 103.486 237.833 102.843 237.833Z" fill="white"/>
</mask>
<g mask="url(#mask60_1647_9974)">
<rect x="101.961" y="236.253" width="2.02667" height="2.16003" fill="#FCFCFC"/>
</g>
<mask id="mask61_1647_9974" style="mask-type:luminance" maskUnits="userSpaceOnUse" x="38" y="214" width="2" height="2">
<path d="M38.8429 215.167C38.1975 215.167 38.1989 214.167 38.8429 214.167C39.4869 214.167 39.4855 215.167 38.8429 215.167Z" fill="white"/>
</mask>
<g mask="url(#mask61_1647_9974)">
<rect x="37.6953" y="213.853" width="2.29333" height="1.76003" fill="#FCFCFC"/>
</g>
<mask id="mask62_1647_9974" style="mask-type:luminance" maskUnits="userSpaceOnUse" x="55" y="194" width="2" height="2">
<path d="M56.1769 195.167C55.5315 195.167 55.5329 194.167 56.1769 194.167C56.8209 194.167 56.8195 195.167 56.1769 195.167Z" fill="white"/>
</mask>
<g mask="url(#mask62_1647_9974)">
<rect x="55.2949" y="193.72" width="2.02667" height="1.76003" fill="#FCFCFC"/>
</g>
<mask id="mask63_1647_9974" style="mask-type:luminance" maskUnits="userSpaceOnUse" x="14" y="196" width="2" height="2">
<path d="M14.8429 197.833C14.1975 197.833 14.1989 196.833 14.8429 196.833C15.4869 196.833 15.4855 197.833 14.8429 197.833Z" fill="white"/>
</mask>
<g mask="url(#mask63_1647_9974)">
<rect x="13.6953" y="196.253" width="2.02667" height="2.16003" fill="#FCFCFC"/>
</g>
<mask id="mask64_1647_9974" style="mask-type:luminance" maskUnits="userSpaceOnUse" x="35" y="186" width="2" height="2">
<path d="M36.1769 187.167C35.5315 187.167 35.5329 186.167 36.1769 186.167C36.8209 186.167 36.8195 187.167 36.1769 187.167Z" fill="white"/>
</mask>
<g mask="url(#mask64_1647_9974)">
<rect x="35.0293" y="185.72" width="2.16" height="1.76003" fill="#FCFCFC"/>
</g>
<mask id="mask65_1647_9974" style="mask-type:luminance" maskUnits="userSpaceOnUse" x="18" y="236" width="2" height="2">
<path d="M18.8429 237.833C18.1975 237.833 18.1989 236.833 18.8429 236.833C19.4869 236.833 19.4855 237.833 18.8429 237.833Z" fill="white"/>
</mask>
<g mask="url(#mask65_1647_9974)">
<rect x="17.8281" y="236.253" width="2.02667" height="2.16003" fill="#FCFCFC"/>
</g>
<mask id="mask66_1647_9974" style="mask-type:luminance" maskUnits="userSpaceOnUse" x="14" y="247" width="2" height="2">
<path d="M14.8429 248.5C14.1975 248.5 14.1989 247.5 14.8429 247.5C15.4869 247.5 15.4855 248.5 14.8429 248.5Z" fill="white"/>
</mask>
<g mask="url(#mask66_1647_9974)">
<rect x="13.6953" y="247.187" width="2.02667" height="1.76003" fill="#FCFCFC"/>
</g>
<mask id="mask67_1647_9974" style="mask-type:luminance" maskUnits="userSpaceOnUse" x="18" y="228" width="2" height="2">
<path d="M18.8429 229.833C18.1975 229.833 18.1989 228.833 18.8429 228.833C19.4869 228.833 19.4855 229.833 18.8429 229.833Z" fill="white"/>
</mask>
<g mask="url(#mask67_1647_9974)">
<rect x="17.8281" y="228.253" width="2.02667" height="2.16003" fill="#FCFCFC"/>
</g>
<mask id="mask68_1647_9974" style="mask-type:luminance" maskUnits="userSpaceOnUse" x="26" y="223" width="3" height="2">
<path d="M28.1762 224.5C27.7309 224.5 27.2869 224.5 26.8429 224.5C26.1975 224.5 26.1989 223.5 26.8429 223.5C27.2869 223.5 27.7309 223.5 28.1762 223.5C28.8202 223.5 28.8189 224.5 28.1762 224.5Z" fill="white"/>
</mask>
<g mask="url(#mask68_1647_9974)">
<rect x="25.8281" y="223.187" width="3.35999" height="1.76003" fill="#FCFCFC"/>
</g>
<mask id="mask69_1647_9974" style="mask-type:luminance" maskUnits="userSpaceOnUse" x="41" y="228" width="1" height="2">
<path d="M41.5089 229.833C40.8636 229.833 40.8649 228.833 41.5089 228.833C42.1529 228.833 42.1516 229.833 41.5089 229.833Z" fill="white"/>
</mask>
<g mask="url(#mask69_1647_9974)">
<rect x="40.4941" y="228.253" width="2.16" height="2.16003" fill="#FCFCFC"/>
</g>
<mask id="mask70_1647_9974" style="mask-type:luminance" maskUnits="userSpaceOnUse" x="51" y="235" width="2" height="2">
<path d="M52.1769 236.5C51.5315 236.5 51.5329 235.5 52.1769 235.5C52.8209 235.5 52.8195 236.5 52.1769 236.5Z" fill="white"/>
</mask>
<g mask="url(#mask70_1647_9974)">
<rect x="51.0293" y="235.053" width="2.16" height="1.76003" fill="#FCFCFC"/>
</g>
<mask id="mask71_1647_9974" style="mask-type:luminance" maskUnits="userSpaceOnUse" x="65" y="246" width="1" height="2">
<path d="M65.5089 247.167C64.8636 247.167 64.8649 246.167 65.5089 246.167C66.1529 246.167 66.1516 247.167 65.5089 247.167Z" fill="white"/>
</mask>
<g mask="url(#mask71_1647_9974)">
<rect x="64.4941" y="245.853" width="2.16" height="1.76003" fill="#FCFCFC"/>
</g>
<mask id="mask72_1647_9974" style="mask-type:luminance" maskUnits="userSpaceOnUse" x="22" y="215" width="2" height="2">
<path d="M22.8429 216.5C22.1975 216.5 22.1989 215.5 22.8429 215.5C23.4869 215.5 23.4855 216.5 22.8429 216.5Z" fill="white"/>
</mask>
<g mask="url(#mask72_1647_9974)">
<rect x="21.6953" y="215.187" width="2.02667" height="1.76003" fill="#FCFCFC"/>
</g>
<mask id="mask73_1647_9974" style="mask-type:luminance" maskUnits="userSpaceOnUse" x="25" y="199" width="3" height="3">
<path d="M25.5294 201.834C25.1454 201.834 24.8027 201.332 25.1547 200.98C25.6001 200.534 26.0441 200.09 26.4894 199.646C26.5921 199.542 26.7094 199.498 26.8214 199.498C27.2054 199.498 27.5481 200.001 27.1961 200.353C26.7508 200.798 26.3068 201.242 25.8628 201.686C25.7588 201.79 25.6428 201.834 25.5294 201.834Z" fill="white"/>
</mask>
<g mask="url(#mask73_1647_9974)">
<rect x="24.4941" y="199.187" width="3.35999" height="3.09336" fill="#FCFCFC"/>
</g>
<mask id="mask74_1647_9974" style="mask-type:luminance" maskUnits="userSpaceOnUse" x="25" y="187" width="1" height="2">
<path d="M25.5089 188.5C24.8636 188.5 24.8649 187.5 25.5089 187.5C26.1529 187.5 26.1516 188.5 25.5089 188.5Z" fill="white"/>
</mask>
<g mask="url(#mask74_1647_9974)">
<rect x="24.4941" y="187.053" width="2.16" height="1.76003" fill="#FCFCFC"/>
</g>
<mask id="mask75_1647_9974" style="mask-type:luminance" maskUnits="userSpaceOnUse" x="21" y="171" width="2" height="3">
<path d="M21.5098 173.816C21.2591 173.816 21.0098 173.655 21.0098 173.333C21.0098 172.888 21.0098 172.444 21.0098 172C21.0098 171.677 21.2591 171.517 21.5084 171.517C21.7591 171.517 22.0098 171.679 22.0098 172C22.0098 172.444 22.0098 172.888 22.0098 173.333C22.0098 173.656 21.7591 173.816 21.5098 173.816Z" fill="white"/>
</mask>
<g mask="url(#mask75_1647_9974)">
<rect x="20.6289" y="171.053" width="1.76" height="2.96003" fill="#FCFCFC"/>
</g>
<mask id="mask76_1647_9974" style="mask-type:luminance" maskUnits="userSpaceOnUse" x="19" y="159" width="2" height="2">
<path d="M20.1769 160.5C19.5315 160.5 19.5329 159.5 20.1769 159.5C20.8209 159.5 20.8195 160.5 20.1769 160.5Z" fill="white"/>
</mask>
<g mask="url(#mask76_1647_9974)">
<rect x="19.0293" y="159.187" width="2.16" height="1.76003" fill="#FCFCFC"/>
</g>
<mask id="mask77_1647_9974" style="mask-type:luminance" maskUnits="userSpaceOnUse" x="18" y="147" width="2" height="2">
<path d="M18.8429 148.5C18.1975 148.5 18.1989 147.5 18.8429 147.5C19.4869 147.5 19.4855 148.5 18.8429 148.5Z" fill="white"/>
</mask>
<g mask="url(#mask77_1647_9974)">
<rect x="17.8281" y="147.053" width="2.02667" height="1.76003" fill="#FCFCFC"/>
</g>
<mask id="mask78_1647_9974" style="mask-type:luminance" maskUnits="userSpaceOnUse" x="11" y="44" width="3" height="2">
<path d="M13.5102 45.8335C13.0649 45.8335 12.6209 45.8335 12.1769 45.8335C11.5315 45.8335 11.5329 44.8335 12.1769 44.8335C12.6209 44.8335 13.0649 44.8335 13.5102 44.8335C14.1542 44.8335 14.1529 45.8335 13.5102 45.8335Z" fill="white"/>
</mask>
<g mask="url(#mask78_1647_9974)">
<rect x="11.0293" y="44.3867" width="3.35999" height="1.76003" fill="#FCFCFC"/>
</g>
<mask id="mask79_1647_9974" style="mask-type:luminance" maskUnits="userSpaceOnUse" x="23" y="47" width="2" height="2">
<path d="M24.1769 48.5C23.5315 48.5 23.5329 47.5 24.1769 47.5C24.8209 47.5 24.8195 48.5 24.1769 48.5Z" fill="white"/>
</mask>
<g mask="url(#mask79_1647_9974)">
<rect x="23.2949" y="47.1865" width="2.02667" height="1.76003" fill="#FCFCFC"/>
</g>
<mask id="mask80_1647_9974" style="mask-type:luminance" maskUnits="userSpaceOnUse" x="33" y="63" width="1" height="2">
<path d="M33.5089 64.5C32.8636 64.5 32.8649 63.5 33.5089 63.5C34.1529 63.5 34.1516 64.5 33.5089 64.5Z" fill="white"/>
</mask>
<g mask="url(#mask80_1647_9974)">
<rect x="32.4941" y="63.1865" width="2.16" height="1.76003" fill="#FCFCFC"/>
</g>
<mask id="mask81_1647_9974" style="mask-type:luminance" maskUnits="userSpaceOnUse" x="27" y="74" width="2" height="2">
<path d="M28.1769 75.1665C27.5315 75.1665 27.5329 74.1665 28.1769 74.1665C28.8209 74.1665 28.8195 75.1665 28.1769 75.1665Z" fill="white"/>
</mask>
<g mask="url(#mask81_1647_9974)">
<rect x="27.0293" y="73.7197" width="2.16" height="1.76003" fill="#FCFCFC"/>
</g>
<mask id="mask82_1647_9974" style="mask-type:luminance" maskUnits="userSpaceOnUse" x="57" y="167" width="1" height="2">
<path d="M57.5089 168.5C56.8636 168.5 56.8649 167.5 57.5089 167.5C58.1529 167.5 58.1516 168.5 57.5089 168.5Z" fill="white"/>
</mask>
<g mask="url(#mask82_1647_9974)">
<rect x="56.4941" y="167.187" width="2.16" height="1.76003" fill="#FCFCFC"/>
</g>
<mask id="mask83_1647_9974" style="mask-type:luminance" maskUnits="userSpaceOnUse" x="78" y="146" width="2" height="2">
<path d="M78.8429 147.167C78.1975 147.167 78.1989 146.167 78.8429 146.167C79.4869 146.167 79.4855 147.167 78.8429 147.167Z" fill="white"/>
</mask>
<g mask="url(#mask83_1647_9974)">
<rect x="77.6953" y="145.72" width="2.29333" height="1.76003" fill="#FCFCFC"/>
</g>
<mask id="mask84_1647_9974" style="mask-type:luminance" maskUnits="userSpaceOnUse" x="126" y="27" width="3" height="2">
<path d="M128.176 28.5C127.731 28.5 127.287 28.5 126.843 28.5C126.198 28.5 126.199 27.5 126.843 27.5C127.287 27.5 127.731 27.5 128.176 27.5C128.82 27.5 128.819 28.5 128.176 28.5Z" fill="white"/>
</mask>
<g mask="url(#mask84_1647_9974)">
<rect x="125.961" y="27.0532" width="3.36" height="1.76003" fill="#FCFCFC"/>
</g>
<mask id="mask85_1647_9974" style="mask-type:luminance" maskUnits="userSpaceOnUse" x="153" y="28" width="3" height="2">
<path d="M154.842 29.8335C154.397 29.8335 153.953 29.8335 153.509 29.8335C152.864 29.8335 152.865 28.8335 153.509 28.8335C153.953 28.8335 154.397 28.8335 154.842 28.8335C155.486 28.8335 155.485 29.8335 154.842 29.8335Z" fill="white"/>
</mask>
<g mask="url(#mask85_1647_9974)">
<rect x="152.494" y="28.3867" width="3.36003" height="1.76003" fill="#FCFCFC"/>
</g>
<mask id="mask86_1647_9974" style="mask-type:luminance" maskUnits="userSpaceOnUse" x="245" y="11" width="2" height="3">
<path d="M245.508 13.8159C245.258 13.8159 245.008 13.6546 245.008 13.3332C245.008 12.8879 245.008 12.4452 245.008 11.9999C245.008 11.6772 245.257 11.5172 245.508 11.5172C245.757 11.5172 246.008 11.6786 246.008 11.9999C246.008 12.4452 246.008 12.8879 246.008 13.3332C246.008 13.6546 245.758 13.8159 245.508 13.8159Z" fill="white"/>
</mask>
<g mask="url(#mask86_1647_9974)">
<rect x="244.627" y="11.0532" width="1.76003" height="3.09336" fill="#FCFCFC"/>
</g>
<mask id="mask87_1647_9974" style="mask-type:luminance" maskUnits="userSpaceOnUse" x="237" y="18" width="2" height="3">
<path d="M237.508 20.4829C237.258 20.4829 237.008 20.3216 237.008 20.0002C237.008 19.5549 237.008 19.1122 237.008 18.6669C237.008 18.3442 237.257 18.1842 237.508 18.1842C237.757 18.1842 238.008 18.3456 238.008 18.6669C238.008 19.1122 238.008 19.5549 238.008 20.0002C238.008 20.3216 237.758 20.4829 237.508 20.4829Z" fill="white"/>
</mask>
<g mask="url(#mask87_1647_9974)">
<rect x="236.627" y="17.7202" width="1.76003" height="3.09336" fill="#FCFCFC"/>
</g>
<mask id="mask88_1647_9974" style="mask-type:luminance" maskUnits="userSpaceOnUse" x="229" y="30" width="1" height="2">
<path d="M229.508 31.1665C228.864 31.1665 228.865 30.1665 229.508 30.1665C230.153 30.1665 230.153 31.1665 229.508 31.1665Z" fill="white"/>
</mask>
<g mask="url(#mask88_1647_9974)">
<rect x="228.361" y="29.5864" width="2.02669" height="2.16003" fill="#FCFCFC"/>
</g>
<mask id="mask89_1647_9974" style="mask-type:luminance" maskUnits="userSpaceOnUse" x="219" y="12" width="2" height="4">
<path d="M220.176 15.1494C219.926 15.1494 219.676 14.9881 219.676 14.6667C219.676 14.2214 219.676 13.7787 219.676 13.3334C219.676 13.0107 219.925 12.8507 220.176 12.8507C220.425 12.8507 220.676 13.0121 220.676 13.3334C220.676 13.7787 220.676 14.2214 220.676 14.6667C220.676 14.9881 220.426 15.1494 220.176 15.1494Z" fill="white"/>
</mask>
<g mask="url(#mask89_1647_9974)">
<rect x="219.43" y="12.3867" width="1.76003" height="3.36003" fill="#FCFCFC"/>
</g>
<mask id="mask90_1647_9974" style="mask-type:luminance" maskUnits="userSpaceOnUse" x="246" y="83" width="2" height="2">
<path d="M246.94 84.1216C246.296 84.1216 246.297 83.1216 246.94 83.1216C247.585 83.1216 247.584 84.1216 246.94 84.1216Z" fill="white"/>
</mask>
<g mask="url(#mask90_1647_9974)">
<rect x="245.961" y="82.7871" width="2.02669" height="1.76003" fill="#FCFCFC"/>
</g>
<mask id="mask91_1647_9974" style="mask-type:luminance" maskUnits="userSpaceOnUse" x="278" y="85" width="2" height="2">
<path d="M278.94 86.1216C278.296 86.1216 278.297 85.1216 278.94 85.1216C279.585 85.1216 279.584 86.1216 278.94 86.1216Z" fill="white"/>
</mask>
<g mask="url(#mask91_1647_9974)">
<rect x="277.963" y="84.6533" width="2.02669" height="1.76003" fill="#FCFCFC"/>
</g>
<mask id="mask92_1647_9974" style="mask-type:luminance" maskUnits="userSpaceOnUse" x="272" y="51" width="2" height="2">
<path d="M272.94 52.1226C272.296 52.1226 272.297 51.1226 272.94 51.1226C273.585 51.1226 273.584 52.1226 272.94 52.1226Z" fill="white"/>
</mask>
<g mask="url(#mask92_1647_9974)">
<rect x="271.828" y="50.7866" width="2.16003" height="1.76003" fill="#FCFCFC"/>
</g>
<mask id="mask93_1647_9974" style="mask-type:luminance" maskUnits="userSpaceOnUse" x="354" y="57" width="2" height="2">
<path d="M354.936 58.1226C354.292 58.1226 354.293 57.1226 354.936 57.1226C355.581 57.1226 355.58 58.1226 354.936 58.1226Z" fill="white"/>
</mask>
<g mask="url(#mask93_1647_9974)">
<rect x="353.695" y="56.7866" width="2.16003" height="1.76003" fill="#FCFCFC"/>
</g>
<mask id="mask94_1647_9974" style="mask-type:luminance" maskUnits="userSpaceOnUse" x="326" y="27" width="2" height="2">
<path d="M326.936 28.124C326.292 28.124 326.293 27.124 326.936 27.124C327.581 27.124 327.58 28.124 326.936 28.124Z" fill="white"/>
</mask>
<g mask="url(#mask94_1647_9974)">
<rect x="325.961" y="26.7871" width="2.02669" height="1.76003" fill="#FCFCFC"/>
</g>
<mask id="mask95_1647_9974" style="mask-type:luminance" maskUnits="userSpaceOnUse" x="332" y="79" width="2" height="2">
<path d="M332.936 80.1216C332.292 80.1216 332.293 79.1216 332.936 79.1216C333.581 79.1216 333.58 80.1216 332.936 80.1216Z" fill="white"/>
</mask>
<g mask="url(#mask95_1647_9974)">
<rect x="331.961" y="78.52" width="2.16003" height="2.16003" fill="#FCFCFC"/>
</g>
<mask id="mask96_1647_9974" style="mask-type:luminance" maskUnits="userSpaceOnUse" x="338" y="127" width="2" height="2">
<path d="M338.936 128.119C338.292 128.119 338.292 127.119 338.936 127.119C339.581 127.119 339.58 128.119 338.936 128.119Z" fill="white"/>
</mask>
<g mask="url(#mask96_1647_9974)">
<rect x="337.695" y="126.92" width="2.16003" height="1.76003" fill="#FCFCFC"/>
</g>
<mask id="mask97_1647_9974" style="mask-type:luminance" maskUnits="userSpaceOnUse" x="268" y="135" width="4" height="2">
<path d="M270.94 136.119C270.273 136.119 269.606 136.119 268.94 136.119C268.296 136.119 268.297 135.119 268.94 135.119C269.606 135.119 270.273 135.119 270.94 135.119C271.585 135.119 271.584 136.119 270.94 136.119Z" fill="white"/>
</mask>
<g mask="url(#mask97_1647_9974)">
<rect x="267.963" y="134.92" width="4.02669" height="1.76003" fill="#FCFCFC"/>
</g>
<mask id="mask98_1647_9974" style="mask-type:luminance" maskUnits="userSpaceOnUse" x="304" y="108" width="2" height="3">
<path d="M304.939 110.899C304.688 110.899 304.438 110.738 304.438 110.416C304.438 109.848 304.438 109.28 304.438 108.714C304.438 108.391 304.688 108.231 304.938 108.231C305.188 108.231 305.438 108.391 305.438 108.714C305.438 109.28 305.438 109.848 305.438 110.416C305.438 110.739 305.188 110.899 304.939 110.899Z" fill="white"/>
</mask>
<g mask="url(#mask98_1647_9974)">
<rect x="304.229" y="107.72" width="1.76003" height="3.62669" fill="#FCFCFC"/>
</g>
<mask id="mask99_1647_9974" style="mask-type:luminance" maskUnits="userSpaceOnUse" x="220" y="111" width="2" height="2">
<path d="M220.941 112.12C220.297 112.12 220.299 111.12 220.941 111.12C221.587 111.12 221.585 112.12 220.941 112.12Z" fill="white"/>
</mask>
<g mask="url(#mask99_1647_9974)">
<rect x="219.961" y="110.92" width="2.16003" height="1.76003" fill="#FCFCFC"/>
</g>
<mask id="mask100_1647_9974" style="mask-type:luminance" maskUnits="userSpaceOnUse" x="214" y="37" width="2" height="4">
<path d="M214.943 40.1064C214.692 40.1064 214.441 39.9452 214.441 39.6238C214.441 38.9572 214.441 38.2905 214.441 37.6238C214.441 37.3012 214.692 37.1398 214.941 37.1398C215.192 37.1398 215.441 37.3025 215.441 37.6238C215.441 38.2905 215.441 38.9572 215.441 39.6238C215.441 39.9452 215.192 40.1064 214.943 40.1064Z" fill="white"/>
</mask>
<g mask="url(#mask100_1647_9974)">
<rect x="213.961" y="36.6528" width="1.76003" height="4.02669" fill="#FCFCFC"/>
</g>
<mask id="mask101_1647_9974" style="mask-type:luminance" maskUnits="userSpaceOnUse" x="234" y="55" width="2" height="4">
<path d="M234.943 58.1055C234.692 58.1055 234.441 57.9455 234.441 57.6228C234.441 56.9561 234.441 56.2895 234.441 55.6228C234.441 55.3001 234.692 55.1401 234.941 55.1401C235.192 55.1401 235.441 55.3015 235.441 55.6228C235.441 56.2895 235.441 56.9561 235.441 57.6228C235.441 57.9455 235.192 58.1055 234.943 58.1055Z" fill="white"/>
</mask>
<g mask="url(#mask101_1647_9974)">
<rect x="234.094" y="54.9204" width="1.76003" height="3.62669" fill="#FCFCFC"/>
</g>
<mask id="mask102_1647_9974" style="mask-type:luminance" maskUnits="userSpaceOnUse" x="244" y="33" width="4" height="2">
<path d="M246.94 34.124C246.273 34.124 245.606 34.124 244.94 34.124C244.296 34.124 244.297 33.124 244.94 33.124C245.606 33.124 246.273 33.124 246.94 33.124C247.585 33.124 247.584 34.124 246.94 34.124Z" fill="white"/>
</mask>
<g mask="url(#mask102_1647_9974)">
<rect x="243.961" y="32.7871" width="4.02669" height="1.76003" fill="#FCFCFC"/>
</g>
<mask id="mask103_1647_9974" style="mask-type:luminance" maskUnits="userSpaceOnUse" x="230" y="25" width="2" height="2">
<path d="M230.942 26.124C230.298 26.124 230.298 25.124 230.942 25.124C231.587 25.124 231.586 26.124 230.942 26.124Z" fill="white"/>
</mask>
<g mask="url(#mask103_1647_9974)">
<rect x="229.963" y="24.7871" width="2.02669" height="1.76003" fill="#FCFCFC"/>
</g>
<mask id="mask104_1647_9974" style="mask-type:luminance" maskUnits="userSpaceOnUse" x="234" y="37" width="2" height="2">
<path d="M234.942 38.124C234.298 38.124 234.298 37.124 234.942 37.124C235.587 37.124 235.586 38.124 234.942 38.124Z" fill="white"/>
</mask>
<g mask="url(#mask104_1647_9974)">
<rect x="233.828" y="36.6528" width="2.02669" height="1.76003" fill="#FCFCFC"/>
</g>
<mask id="mask105_1647_9974" style="mask-type:luminance" maskUnits="userSpaceOnUse" x="244" y="23" width="2" height="2">
<path d="M244.94 24.124C244.296 24.124 244.297 23.124 244.94 23.124C245.585 23.124 245.584 24.124 244.94 24.124Z" fill="white"/>
</mask>
<g mask="url(#mask105_1647_9974)">
<rect x="243.961" y="22.52" width="2.16003" height="2.16003" fill="#FCFCFC"/>
</g>
<mask id="mask106_1647_9974" style="mask-type:luminance" maskUnits="userSpaceOnUse" x="270" y="31" width="2" height="2">
<path d="M270.94 32.124C270.296 32.124 270.297 31.124 270.94 31.124C271.585 31.124 271.584 32.124 270.94 32.124Z" fill="white"/>
</mask>
<g mask="url(#mask106_1647_9974)">
<rect x="269.963" y="30.52" width="2.02669" height="2.16003" fill="#FCFCFC"/>
</g>
<mask id="mask107_1647_9974" style="mask-type:luminance" maskUnits="userSpaceOnUse" x="328" y="9" width="2" height="2">
<path d="M328.936 10.1255C328.292 10.1255 328.293 9.12549 328.936 9.12549C329.581 9.12549 329.58 10.1255 328.936 10.1255Z" fill="white"/>
</mask>
<g mask="url(#mask107_1647_9974)">
<rect x="327.828" y="8.78711" width="2.02669" height="1.76003" fill="#FCFCFC"/>
</g>
<mask id="mask108_1647_9974" style="mask-type:luminance" maskUnits="userSpaceOnUse" x="344" y="7" width="2" height="4">
<path d="M344.937 10.1079C344.686 10.1079 344.436 9.94656 344.436 9.62523C344.436 8.95856 344.436 8.29189 344.436 7.62523C344.436 7.30389 344.686 7.14255 344.936 7.14255C345.186 7.14255 345.437 7.30389 345.437 7.62523C345.437 8.29189 345.437 8.95856 345.437 9.62523C345.437 9.94789 345.186 10.1079 344.937 10.1079Z" fill="white"/>
</mask>
<g mask="url(#mask108_1647_9974)">
<rect x="344.096" y="6.91992" width="1.76003" height="3.62669" fill="#FCFCFC"/>
</g>
<mask id="mask109_1647_9974" style="mask-type:luminance" maskUnits="userSpaceOnUse" x="348" y="27" width="2" height="2">
<path d="M348.936 28.124C348.292 28.124 348.293 27.124 348.936 27.124C349.581 27.124 349.58 28.124 348.936 28.124Z" fill="white"/>
</mask>
<g mask="url(#mask109_1647_9974)">
<rect x="347.963" y="26.7871" width="2.16003" height="1.76003" fill="#FCFCFC"/>
</g>
<mask id="mask110_1647_9974" style="mask-type:luminance" maskUnits="userSpaceOnUse" x="367" y="15" width="3" height="2">
<path d="M369.45 16.1255C369.07 16.1255 368.69 16.1255 368.31 16.1255C367.665 16.1255 367.665 15.1255 368.31 15.1255C368.69 15.1255 369.07 15.1255 369.45 15.1255C370.096 15.1255 370.094 16.1255 369.45 16.1255Z" fill="white"/>
</mask>
<g mask="url(#mask110_1647_9974)">
<rect x="367.162" y="14.52" width="3.36003" height="2.16003" fill="#FCFCFC"/>
</g>
<mask id="mask111_1647_9974" style="mask-type:luminance" maskUnits="userSpaceOnUse" x="384" y="39" width="2" height="2">
<path d="M384.934 40.124C384.29 40.124 384.291 39.124 384.934 39.124C385.579 39.124 385.578 40.124 384.934 40.124Z" fill="white"/>
</mask>
<g mask="url(#mask111_1647_9974)">
<rect x="383.828" y="38.52" width="2.02669" height="2.16003" fill="#FCFCFC"/>
</g>
<mask id="mask112_1647_9974" style="mask-type:luminance" maskUnits="userSpaceOnUse" x="382" y="75" width="4" height="2">
<path d="M384.934 76.1216C384.267 76.1216 383.6 76.1216 382.934 76.1216C382.29 76.1216 382.291 75.1216 382.934 75.1216C383.6 75.1216 384.267 75.1216 384.934 75.1216C385.579 75.1216 385.578 76.1216 384.934 76.1216Z" fill="white"/>
</mask>
<g mask="url(#mask112_1647_9974)">
<rect x="381.961" y="74.7871" width="3.89336" height="1.76003" fill="#FCFCFC"/>
</g>
<mask id="mask113_1647_9974" style="mask-type:luminance" maskUnits="userSpaceOnUse" x="360" y="73" width="2" height="4">
<path d="M360.937 76.1055C360.686 76.1055 360.436 75.9441 360.436 75.6215C360.436 74.9548 360.436 74.2881 360.436 73.6215C360.436 73.3001 360.686 73.1388 360.936 73.1388C361.186 73.1388 361.436 73.3001 361.436 73.6215C361.436 74.2881 361.436 74.9548 361.436 75.6215C361.436 75.9441 361.186 76.1055 360.937 76.1055Z" fill="white"/>
</mask>
<g mask="url(#mask113_1647_9974)">
<rect x="360.096" y="72.7871" width="1.76003" height="3.76003" fill="#FCFCFC"/>
</g>
<mask id="mask114_1647_9974" style="mask-type:luminance" maskUnits="userSpaceOnUse" x="351" y="112" width="3" height="2">
<path d="M353.45 113.676C353.07 113.676 352.69 113.676 352.31 113.676C351.664 113.676 351.666 112.676 352.31 112.676C352.69 112.676 353.07 112.676 353.45 112.676C354.095 112.676 354.094 113.676 353.45 113.676Z" fill="white"/>
</mask>
<g mask="url(#mask114_1647_9974)">
<rect x="351.162" y="112.121" width="3.36003" height="1.76003" fill="#FCFCFC"/>
</g>
<mask id="mask115_1647_9974" style="mask-type:luminance" maskUnits="userSpaceOnUse" x="350" y="131" width="2" height="2">
<path d="M350.936 132.119C350.292 132.119 350.293 131.119 350.936 131.119C351.581 131.119 351.58 132.119 350.936 132.119Z" fill="white"/>
</mask>
<g mask="url(#mask115_1647_9974)">
<rect x="349.963" y="130.653" width="2.02669" height="1.76003" fill="#FCFCFC"/>
</g>
<mask id="mask116_1647_9974" style="mask-type:luminance" maskUnits="userSpaceOnUse" x="328" y="111" width="2" height="2">
<path d="M328.936 112.12C328.292 112.12 328.293 111.12 328.936 111.12C329.581 111.12 329.58 112.12 328.936 112.12Z" fill="white"/>
</mask>
<g mask="url(#mask116_1647_9974)">
<rect x="327.828" y="110.92" width="2.02669" height="1.76003" fill="#FCFCFC"/>
</g>
<mask id="mask117_1647_9974" style="mask-type:luminance" maskUnits="userSpaceOnUse" x="302" y="155" width="2" height="4">
<path d="M302.939 158.102C302.688 158.102 302.438 157.94 302.438 157.618C302.438 156.951 302.438 156.284 302.438 155.618C302.438 155.296 302.688 155.135 302.938 155.135C303.188 155.135 303.438 155.296 303.438 155.618C303.438 156.284 303.438 156.951 303.438 157.618C303.438 157.94 303.188 158.102 302.939 158.102Z" fill="white"/>
</mask>
<g mask="url(#mask117_1647_9974)">
<rect x="301.961" y="154.654" width="1.76003" height="3.76003" fill="#FCFCFC"/>
</g>
<mask id="mask118_1647_9974" style="mask-type:luminance" maskUnits="userSpaceOnUse" x="282" y="151" width="2" height="2">
<path d="M282.94 152.117C282.296 152.117 282.297 151.117 282.94 151.117C283.585 151.117 283.584 152.117 282.94 152.117Z" fill="white"/>
</mask>
<g mask="url(#mask118_1647_9974)">
<rect x="281.828" y="150.919" width="2.02669" height="1.76003" fill="#FCFCFC"/>
</g>
<mask id="mask119_1647_9974" style="mask-type:luminance" maskUnits="userSpaceOnUse" x="274" y="175" width="2" height="2">
<path d="M274.94 176.117C274.296 176.117 274.297 175.117 274.94 175.117C275.585 175.117 275.584 176.117 274.94 176.117Z" fill="white"/>
</mask>
<g mask="url(#mask119_1647_9974)">
<rect x="273.828" y="174.919" width="2.02669" height="1.76003" fill="#FCFCFC"/>
</g>
<mask id="mask120_1647_9974" style="mask-type:luminance" maskUnits="userSpaceOnUse" x="242" y="165" width="2" height="2">
<path d="M242.94 166.117C242.296 166.117 242.297 165.117 242.94 165.117C243.585 165.117 243.584 166.117 242.94 166.117Z" fill="white"/>
</mask>
<g mask="url(#mask120_1647_9974)">
<rect x="241.828" y="164.653" width="2.02669" height="1.76003" fill="#FCFCFC"/>
</g>
<mask id="mask121_1647_9974" style="mask-type:luminance" maskUnits="userSpaceOnUse" x="242" y="137" width="4" height="2">
<path d="M244.94 138.119C244.273 138.119 243.606 138.119 242.94 138.119C242.296 138.119 242.297 137.119 242.94 137.119C243.606 137.119 244.273 137.119 244.94 137.119C245.585 137.119 245.584 138.119 244.94 138.119Z" fill="white"/>
</mask>
<g mask="url(#mask121_1647_9974)">
<rect x="241.828" y="136.787" width="4.29336" height="1.76003" fill="#FCFCFC"/>
</g>
<mask id="mask122_1647_9974" style="mask-type:luminance" maskUnits="userSpaceOnUse" x="196" y="145" width="2" height="2">
<path d="M196.943 146.119C196.299 146.119 196.301 145.119 196.943 145.119C197.589 145.119 197.587 146.119 196.943 146.119Z" fill="white"/>
</mask>
<g mask="url(#mask122_1647_9974)">
<rect x="195.963" y="144.787" width="2.16003" height="1.76003" fill="#FCFCFC"/>
</g>
<mask id="mask123_1647_9974" style="mask-type:luminance" maskUnits="userSpaceOnUse" x="242" y="115" width="2" height="2">
<path d="M242.94 116.12C242.296 116.12 242.297 115.12 242.94 115.12C243.585 115.12 243.584 116.12 242.94 116.12Z" fill="white"/>
</mask>
<g mask="url(#mask123_1647_9974)">
<rect x="241.828" y="114.654" width="2.02669" height="1.76003" fill="#FCFCFC"/>
</g>
<mask id="mask124_1647_9974" style="mask-type:luminance" maskUnits="userSpaceOnUse" x="222" y="137" width="2" height="3">
<path d="M222.941 139.34C222.692 139.34 222.441 139.178 222.441 138.857C222.441 138.444 222.441 138.03 222.441 137.618C222.441 137.296 222.692 137.136 222.941 137.136C223.192 137.136 223.441 137.297 223.441 137.618C223.441 138.03 223.441 138.444 223.441 138.857C223.441 139.178 223.192 139.34 222.941 139.34Z" fill="white"/>
</mask>
<g mask="url(#mask124_1647_9974)">
<rect x="221.961" y="136.787" width="1.76003" height="3.09336" fill="#FCFCFC"/>
</g>
<mask id="mask125_1647_9974" style="mask-type:luminance" maskUnits="userSpaceOnUse" x="210" y="91" width="2" height="2">
<path d="M210.941 92.1216C210.297 92.1216 210.299 91.1216 210.941 91.1216C211.587 91.1216 211.587 92.1216 210.941 92.1216Z" fill="white"/>
</mask>
<g mask="url(#mask125_1647_9974)">
<rect x="209.828" y="90.7871" width="2.02669" height="1.76003" fill="#FCFCFC"/>
</g>
<mask id="mask126_1647_9974" style="mask-type:luminance" maskUnits="userSpaceOnUse" x="206" y="61" width="2" height="2">
<path d="M206.944 62.1226C206.3 62.1226 206.3 61.1226 206.944 61.1226C207.589 61.1226 207.588 62.1226 206.944 62.1226Z" fill="white"/>
</mask>
<g mask="url(#mask126_1647_9974)">
<rect x="205.963" y="60.6528" width="2.02669" height="1.76003" fill="#FCFCFC"/>
</g>
<mask id="mask127_1647_9974" style="mask-type:luminance" maskUnits="userSpaceOnUse" x="272" y="109" width="2" height="2">
<path d="M272.94 110.12C272.296 110.12 272.297 109.12 272.94 109.12C273.585 109.12 273.584 110.12 272.94 110.12Z" fill="white"/>
</mask>
<g mask="url(#mask127_1647_9974)">
<rect x="271.828" y="108.654" width="2.16003" height="1.76003" fill="#FCFCFC"/>
</g>
<mask id="mask128_1647_9974" style="mask-type:luminance" maskUnits="userSpaceOnUse" x="194" y="119" width="2" height="2">
<path d="M194.943 120.12C194.299 120.12 194.301 119.12 194.943 119.12C195.589 119.12 195.587 120.12 194.943 120.12Z" fill="white"/>
</mask>
<g mask="url(#mask128_1647_9974)">
<rect x="193.828" y="118.92" width="2.02669" height="1.76003" fill="#FCFCFC"/>
</g>
<mask id="mask129_1647_9974" style="mask-type:luminance" maskUnits="userSpaceOnUse" x="190" y="89" width="2" height="2">
<path d="M190.943 90.1216C190.299 90.1216 190.301 89.1216 190.943 89.1216C191.589 89.1216 191.587 90.1216 190.943 90.1216Z" fill="white"/>
</mask>
<g mask="url(#mask129_1647_9974)">
<rect x="189.963" y="88.7871" width="2.02669" height="1.76003" fill="#FCFCFC"/>
</g>
<mask id="mask130_1647_9974" style="mask-type:luminance" maskUnits="userSpaceOnUse" x="186" y="59" width="2" height="2">
<path d="M186.944 60.1226C186.299 60.1226 186.3 59.1226 186.944 59.1226C187.588 59.1226 187.587 60.1226 186.944 60.1226Z" fill="white"/>
</mask>
<g mask="url(#mask130_1647_9974)">
<rect x="185.828" y="58.7866" width="2.02669" height="1.76003" fill="#FCFCFC"/>
</g>
<mask id="mask131_1647_9974" style="mask-type:luminance" maskUnits="userSpaceOnUse" x="170" y="79" width="2" height="2">
<path d="M170.943 80.1216C170.299 80.1216 170.301 79.1216 170.943 79.1216C171.589 79.1216 171.587 80.1216 170.943 80.1216Z" fill="white"/>
</mask>
<g mask="url(#mask131_1647_9974)">
<rect x="169.828" y="78.52" width="2.02669" height="2.16003" fill="#FCFCFC"/>
</g>
<mask id="mask132_1647_9974" style="mask-type:luminance" maskUnits="userSpaceOnUse" x="280" y="63" width="2" height="2">
<path d="M280.94 64.1226C280.296 64.1226 280.297 63.1226 280.94 63.1226C281.585 63.1226 281.584 64.1226 280.94 64.1226Z" fill="white"/>
</mask>
<g mask="url(#mask132_1647_9974)">
<rect x="279.828" y="62.5195" width="2.16003" height="2.16003" fill="#FCFCFC"/>
</g>
<mask id="mask133_1647_9974" style="mask-type:luminance" maskUnits="userSpaceOnUse" x="302" y="24" width="2" height="4">
<path d="M302.939 27.0679C302.688 27.0679 302.438 26.9066 302.438 26.5853C302.438 26.0239 302.438 25.4612 302.438 24.8999C302.438 24.5772 302.688 24.4159 302.938 24.4159C303.188 24.4159 303.438 24.5786 303.438 24.8999C303.438 25.4612 303.438 26.0239 303.438 26.5853C303.438 26.9066 303.188 27.0679 302.939 27.0679Z" fill="white"/>
</mask>
<g mask="url(#mask133_1647_9974)">
<rect x="301.961" y="24.1201" width="1.76003" height="3.36003" fill="#FCFCFC"/>
</g>
<mask id="mask134_1647_9974" style="mask-type:luminance" maskUnits="userSpaceOnUse" x="262" y="18" width="2" height="3">
<path d="M262.624 20.2495C262.24 20.2495 261.899 19.7482 262.251 19.3962C262.547 19.1002 262.844 18.8028 263.14 18.5068C263.243 18.4041 263.36 18.3602 263.473 18.3602C263.857 18.3602 264.199 18.8615 263.847 19.2148C263.551 19.5108 263.255 19.8068 262.957 20.1028C262.853 20.2068 262.737 20.2495 262.624 20.2495Z" fill="white"/>
</mask>
<g mask="url(#mask134_1647_9974)">
<rect x="261.561" y="18.1201" width="3.09336" height="2.42669" fill="#FCFCFC"/>
</g>
<mask id="mask135_1647_9974" style="mask-type:luminance" maskUnits="userSpaceOnUse" x="273" y="13" width="2" height="2">
<path d="M274.161 14.0269C273.517 14.0269 273.517 13.0269 274.161 13.0269C274.806 13.0269 274.805 14.0269 274.161 14.0269Z" fill="white"/>
</mask>
<g mask="url(#mask135_1647_9974)">
<rect x="273.162" y="12.6533" width="2.02669" height="1.76003" fill="#FCFCFC"/>
</g>
<mask id="mask136_1647_9974" style="mask-type:luminance" maskUnits="userSpaceOnUse" x="263" y="6" width="3" height="2">
<path d="M265.27 7.80518C264.974 7.80518 264.678 7.80518 264.381 7.80518C263.737 7.80518 263.738 6.80518 264.381 6.80518C264.678 6.80518 264.974 6.80518 265.27 6.80518C265.916 6.80518 265.914 7.80518 265.27 7.80518Z" fill="white"/>
</mask>
<g mask="url(#mask136_1647_9974)">
<rect x="263.16" y="6.25293" width="3.09336" height="2.02669" fill="#FCFCFC"/>
</g>
<mask id="mask137_1647_9974" style="mask-type:luminance" maskUnits="userSpaceOnUse" x="296" y="168" width="3" height="2">
<path d="M298.161 169.583C297.865 169.583 297.568 169.583 297.272 169.583C296.628 169.583 296.629 168.583 297.272 168.583C297.568 168.583 297.865 168.583 298.161 168.583C298.806 168.583 298.805 169.583 298.161 169.583Z" fill="white"/>
</mask>
<g mask="url(#mask137_1647_9974)">
<rect x="296.229" y="168.12" width="2.96003" height="1.76003" fill="#FCFCFC"/>
</g>
<mask id="mask138_1647_9974" style="mask-type:luminance" maskUnits="userSpaceOnUse" x="308" y="174" width="2" height="2">
<path d="M308.827 175.805C308.183 175.805 308.183 174.805 308.827 174.805C309.472 174.805 309.471 175.805 308.827 175.805Z" fill="white"/>
</mask>
<g mask="url(#mask138_1647_9974)">
<rect x="307.695" y="174.52" width="2.02669" height="1.76003" fill="#FCFCFC"/>
</g>
<mask id="mask139_1647_9974" style="mask-type:luminance" maskUnits="userSpaceOnUse" x="312" y="163" width="2" height="2">
<path d="M313.272 164.25C312.628 164.25 312.629 163.25 313.272 163.25C313.917 163.25 313.916 164.25 313.272 164.25Z" fill="white"/>
</mask>
<g mask="url(#mask139_1647_9974)">
<rect x="312.229" y="162.653" width="2.02669" height="2.16003" fill="#FCFCFC"/>
</g>
<mask id="mask140_1647_9974" style="mask-type:luminance" maskUnits="userSpaceOnUse" x="332" y="170" width="2" height="2">
<path d="M332.827 171.36C332.183 171.36 332.183 170.36 332.827 170.36C333.472 170.36 333.471 171.36 332.827 171.36Z" fill="white"/>
</mask>
<g mask="url(#mask140_1647_9974)">
<rect x="331.695" y="170.12" width="2.02669" height="1.76003" fill="#FCFCFC"/>
</g>
<mask id="mask141_1647_9974" style="mask-type:luminance" maskUnits="userSpaceOnUse" x="332" y="188" width="2" height="2">
<path d="M332.827 189.139C332.183 189.139 332.183 188.139 332.827 188.139C333.472 188.139 333.471 189.139 332.827 189.139Z" fill="white"/>
</mask>
<g mask="url(#mask141_1647_9974)">
<rect x="331.695" y="187.72" width="2.02669" height="1.76003" fill="#FCFCFC"/>
</g>
<mask id="mask142_1647_9974" style="mask-type:luminance" maskUnits="userSpaceOnUse" x="323" y="175" width="2" height="2">
<path d="M323.938 176.693C323.294 176.693 323.295 175.693 323.938 175.693C324.583 175.693 324.582 176.693 323.938 176.693Z" fill="white"/>
</mask>
<g mask="url(#mask142_1647_9974)">
<rect x="323.027" y="175.187" width="2.02669" height="1.76003" fill="#FCFCFC"/>
</g>
<mask id="mask143_1647_9974" style="mask-type:luminance" maskUnits="userSpaceOnUse" x="340" y="181" width="2" height="2">
<path d="M340.827 182.027C340.183 182.027 340.183 181.027 340.827 181.027C341.472 181.027 341.471 182.027 340.827 182.027Z" fill="white"/>
</mask>
<g mask="url(#mask143_1647_9974)">
<rect x="339.695" y="180.654" width="2.02669" height="1.76003" fill="#FCFCFC"/>
</g>
<mask id="mask144_1647_9974" style="mask-type:luminance" maskUnits="userSpaceOnUse" x="331" y="154" width="2" height="2">
<path d="M331.938 155.361C331.294 155.361 331.295 154.36 331.938 154.36C332.583 154.36 332.582 155.361 331.938 155.361Z" fill="white"/>
</mask>
<g mask="url(#mask144_1647_9974)">
<rect x="331.027" y="154.12" width="2.02669" height="1.76003" fill="#FCFCFC"/>
</g>
<mask id="mask145_1647_9974" style="mask-type:luminance" maskUnits="userSpaceOnUse" x="320" y="141" width="2" height="2">
<path d="M321.272 142.916C320.628 142.916 320.629 141.916 321.272 141.916C321.917 141.916 321.916 142.916 321.272 142.916Z" fill="white"/>
</mask>
<g mask="url(#mask145_1647_9974)">
<rect x="320.096" y="141.587" width="2.16003" height="1.76003" fill="#FCFCFC"/>
</g>
<mask id="mask146_1647_9974" style="mask-type:luminance" maskUnits="userSpaceOnUse" x="304" y="193" width="3" height="2">
<path d="M306.161 194.472C305.865 194.472 305.568 194.472 305.272 194.472C304.628 194.472 304.629 193.472 305.272 193.472C305.568 193.472 305.865 193.472 306.161 193.472C306.806 193.472 306.805 194.472 306.161 194.472Z" fill="white"/>
</mask>
<g mask="url(#mask146_1647_9974)">
<rect x="304.229" y="193.053" width="2.96003" height="1.76003" fill="#FCFCFC"/>
</g>
<mask id="mask147_1647_9974" style="mask-type:luminance" maskUnits="userSpaceOnUse" x="359" y="168" width="2" height="3">
<path d="M360.382 170.455C360.132 170.455 359.881 170.293 359.881 169.972C359.881 169.676 359.881 169.38 359.881 169.083C359.881 168.76 360.132 168.6 360.381 168.6C360.632 168.6 360.881 168.761 360.881 169.083C360.881 169.38 360.881 169.676 360.881 169.972C360.881 170.295 360.632 170.455 360.382 170.455Z" fill="white"/>
</mask>
<g mask="url(#mask147_1647_9974)">
<rect x="359.561" y="168.12" width="1.76003" height="2.69336" fill="#FCFCFC"/>
</g>
<mask id="mask148_1647_9974" style="mask-type:luminance" maskUnits="userSpaceOnUse" x="407" y="108" width="2" height="3">
<path d="M408.382 110.011C408.132 110.011 407.881 109.849 407.881 109.527C407.881 109.231 407.881 108.935 407.881 108.639C407.881 108.316 408.132 108.156 408.381 108.156C408.632 108.156 408.881 108.316 408.881 108.639C408.881 108.935 408.881 109.231 408.881 109.527C408.881 109.849 408.632 110.011 408.382 110.011Z" fill="white"/>
</mask>
<g mask="url(#mask148_1647_9974)">
<rect x="407.561" y="107.72" width="1.76003" height="2.69336" fill="#FCFCFC"/>
</g>
<mask id="mask149_1647_9974" style="mask-type:luminance" maskUnits="userSpaceOnUse" x="374" y="129" width="2" height="2">
<path d="M375.493 130.472C375.197 130.472 374.9 130.472 374.604 130.472C373.96 130.472 373.961 129.472 374.604 129.472C374.9 129.472 375.197 129.472 375.493 129.472C376.138 129.472 376.137 130.472 375.493 130.472Z" fill="white"/>
</mask>
<g mask="url(#mask149_1647_9974)">
<rect x="373.561" y="129.053" width="3.09336" height="1.76003" fill="#FCFCFC"/>
</g>
<mask id="mask150_1647_9974" style="mask-type:luminance" maskUnits="userSpaceOnUse" x="402" y="162" width="2" height="3">
<path d="M403.05 164.232C402.799 164.232 402.549 164.071 402.549 163.749C402.549 163.453 402.549 163.157 402.549 162.861C402.549 162.539 402.799 162.377 403.049 162.377C403.299 162.377 403.549 162.539 403.549 162.861C403.549 163.157 403.549 163.453 403.549 163.749C403.549 164.072 403.299 164.232 403.05 164.232Z" fill="white"/>
</mask>
<g mask="url(#mask150_1647_9974)">
<rect x="402.096" y="162.12" width="1.76003" height="2.69336" fill="#FCFCFC"/>
</g>
<mask id="mask151_1647_9974" style="mask-type:luminance" maskUnits="userSpaceOnUse" x="372" y="203" width="2" height="2">
<path d="M372.827 204.25C372.183 204.25 372.183 203.25 372.827 203.25C373.472 203.25 373.471 204.25 372.827 204.25Z" fill="white"/>
</mask>
<g mask="url(#mask151_1647_9974)">
<rect x="371.695" y="202.653" width="2.02669" height="2.16003" fill="#FCFCFC"/>
</g>
<mask id="mask152_1647_9974" style="mask-type:luminance" maskUnits="userSpaceOnUse" x="421" y="5" width="2" height="3">
<path d="M421.716 7.78809C421.466 7.78809 421.215 7.62674 421.215 7.3054C421.215 6.7134 421.215 6.12009 421.215 5.52676C421.215 5.20542 421.466 5.04408 421.715 5.04408C421.966 5.04408 422.215 5.20542 422.215 5.52676C422.215 6.12009 422.215 6.7134 422.215 7.3054C422.215 7.62807 421.966 7.78809 421.716 7.78809Z" fill="white"/>
</mask>
<g mask="url(#mask152_1647_9974)">
<rect x="420.895" y="4.65332" width="1.76003" height="3.62669" fill="#FCFCFC"/>
</g>
<mask id="mask153_1647_9974" style="mask-type:luminance" maskUnits="userSpaceOnUse" x="421" y="46" width="2" height="3">
<path d="M421.716 48.3389C421.466 48.3389 421.215 48.1775 421.215 47.8562C421.215 47.6722 421.215 47.4895 421.215 47.3055C421.215 46.9829 421.466 46.8215 421.715 46.8215C421.966 46.8215 422.215 46.9829 422.215 47.3055C422.215 47.4895 422.215 47.6722 422.215 47.8562C422.215 48.1775 421.966 48.3389 421.716 48.3389Z" fill="white"/>
</mask>
<g mask="url(#mask153_1647_9974)">
<rect x="420.895" y="46.52" width="1.76003" height="2.16003" fill="#FCFCFC"/>
</g>
<mask id="mask154_1647_9974" style="mask-type:luminance" maskUnits="userSpaceOnUse" x="206" y="14" width="2" height="3">
<path d="M206.563 16.8105C206.313 16.8105 206.062 16.6492 206.062 16.3266C206.062 15.8826 206.062 15.4385 206.062 14.9945C206.062 14.6719 206.312 14.5105 206.563 14.5105C206.813 14.5105 207.063 14.6719 207.063 14.9945C207.063 15.4385 207.063 15.8826 207.063 16.3266C207.063 16.6492 206.813 16.8105 206.563 16.8105Z" fill="white"/>
</mask>
<g mask="url(#mask154_1647_9974)">
<rect x="205.561" y="14.2534" width="1.76003" height="3.09336" fill="#FCFCFC"/>
</g>
<mask id="mask155_1647_9974" style="mask-type:luminance" maskUnits="userSpaceOnUse" x="174" y="21" width="3" height="3">
<path d="M174.583 23.4946C174.199 23.4946 173.858 22.9933 174.21 22.6399C174.654 22.1959 175.099 21.7519 175.543 21.3066C175.647 21.2039 175.763 21.16 175.876 21.16C176.26 21.16 176.602 21.6613 176.25 22.0146C175.806 22.4586 175.36 22.9026 174.916 23.3479C174.814 23.4506 174.696 23.4946 174.583 23.4946Z" fill="white"/>
</mask>
<g mask="url(#mask155_1647_9974)">
<rect x="173.295" y="20.6533" width="3.62669" height="3.36003" fill="#FCFCFC"/>
</g>
<mask id="mask156_1647_9974" style="mask-type:luminance" maskUnits="userSpaceOnUse" x="160" y="43" width="2" height="2">
<path d="M161.229 44.8281C160.585 44.8281 160.585 43.8281 161.229 43.8281C161.874 43.8281 161.873 44.8281 161.229 44.8281Z" fill="white"/>
</mask>
<g mask="url(#mask156_1647_9974)">
<rect x="160.229" y="43.3203" width="2.02669" height="1.76003" fill="#FCFCFC"/>
</g>
<mask id="mask157_1647_9974" style="mask-type:luminance" maskUnits="userSpaceOnUse" x="171" y="47" width="2" height="2">
<path d="M171.897 48.8267C171.253 48.8267 171.253 47.828 171.897 47.828C172.542 47.828 172.541 48.8267 171.897 48.8267Z" fill="white"/>
</mask>
<g mask="url(#mask157_1647_9974)">
<rect x="170.762" y="47.5864" width="2.02669" height="1.76003" fill="#FCFCFC"/>
</g>
<mask id="mask158_1647_9974" style="mask-type:luminance" maskUnits="userSpaceOnUse" x="163" y="26" width="2" height="2">
<path d="M163.897 27.4946C163.253 27.4946 163.253 26.4946 163.897 26.4946C164.542 26.4946 164.541 27.4946 163.897 27.4946Z" fill="white"/>
</mask>
<g mask="url(#mask158_1647_9974)">
<rect x="162.762" y="26.1196" width="2.02669" height="1.76003" fill="#FCFCFC"/>
</g>
<mask id="mask159_1647_9974" style="mask-type:luminance" maskUnits="userSpaceOnUse" x="159" y="63" width="2" height="2">
<path d="M159.897 64.8281C159.253 64.8281 159.253 63.8281 159.897 63.8281C160.542 63.8281 160.541 64.8281 159.897 64.8281Z" fill="white"/>
</mask>
<g mask="url(#mask159_1647_9974)">
<rect x="158.896" y="63.5864" width="2.02669" height="1.76003" fill="#FCFCFC"/>
</g>
<mask id="mask160_1647_9974" style="mask-type:luminance" maskUnits="userSpaceOnUse" x="187" y="35" width="2" height="2">
<path d="M187.897 36.8281C187.253 36.8281 187.253 35.8268 187.897 35.8268C188.542 35.8268 188.541 36.8281 187.897 36.8281Z" fill="white"/>
</mask>
<g mask="url(#mask160_1647_9974)">
<rect x="186.762" y="35.3203" width="2.02669" height="1.76003" fill="#FCFCFC"/>
</g>
<mask id="mask161_1647_9974" style="mask-type:luminance" maskUnits="userSpaceOnUse" x="167" y="178" width="3" height="2">
<path d="M169.23 179.495C168.786 179.495 168.341 179.495 167.897 179.495C167.253 179.495 167.253 178.495 167.897 178.495C168.341 178.495 168.786 178.495 169.23 178.495C169.876 178.495 169.874 179.495 169.23 179.495Z" fill="white"/>
</mask>
<g mask="url(#mask161_1647_9974)">
<rect x="166.896" y="178.12" width="3.36003" height="1.76003" fill="#FCFCFC"/>
</g>
<mask id="mask162_1647_9974" style="mask-type:luminance" maskUnits="userSpaceOnUse" x="167" y="150" width="2" height="2">
<path d="M167.897 151.495C167.253 151.495 167.253 150.495 167.897 150.495C168.542 150.495 168.541 151.495 167.897 151.495Z" fill="white"/>
</mask>
<g mask="url(#mask162_1647_9974)">
<rect x="166.896" y="150.253" width="2.02669" height="1.76003" fill="#FCFCFC"/>
</g>
<mask id="mask163_1647_9974" style="mask-type:luminance" maskUnits="userSpaceOnUse" x="186" y="186" width="2" height="2">
<path d="M186.563 187.495C185.919 187.495 185.919 186.495 186.563 186.495C187.208 186.495 187.207 187.495 186.563 187.495Z" fill="white"/>
</mask>
<g mask="url(#mask163_1647_9974)">
<rect x="185.428" y="186.12" width="2.16003" height="1.76003" fill="#FCFCFC"/>
</g>
<mask id="mask164_1647_9974" style="mask-type:luminance" maskUnits="userSpaceOnUse" x="183" y="225" width="2" height="2">
<path d="M183.897 226.161C183.253 226.161 183.253 225.161 183.897 225.161C184.542 225.161 184.541 226.161 183.897 226.161Z" fill="white"/>
</mask>
<g mask="url(#mask164_1647_9974)">
<rect x="182.896" y="224.787" width="2.02669" height="1.76003" fill="#FCFCFC"/>
</g>
<mask id="mask165_1647_9974" style="mask-type:luminance" maskUnits="userSpaceOnUse" x="162" y="233" width="2" height="2">
<path d="M162.563 234.161C161.919 234.161 161.919 233.161 162.563 233.161C163.208 233.161 163.207 234.161 162.563 234.161Z" fill="white"/>
</mask>
<g mask="url(#mask165_1647_9974)">
<rect x="161.428" y="232.787" width="2.16003" height="1.76003" fill="#FCFCFC"/>
</g>
<mask id="mask166_1647_9974" style="mask-type:luminance" maskUnits="userSpaceOnUse" x="170" y="206" width="2" height="2">
<path d="M170.563 207.495C169.919 207.495 169.919 206.495 170.563 206.495C171.208 206.495 171.207 207.495 170.563 207.495Z" fill="white"/>
</mask>
<g mask="url(#mask166_1647_9974)">
<rect x="169.428" y="206.253" width="2.16003" height="1.76003" fill="#FCFCFC"/>
</g>
<mask id="mask167_1647_9974" style="mask-type:luminance" maskUnits="userSpaceOnUse" x="240" y="217" width="4" height="2">
<path d="M242.562 218.161C242.117 218.161 241.673 218.161 241.229 218.161C240.585 218.161 240.586 217.161 241.229 217.161C241.673 217.161 242.117 217.161 242.562 217.161C243.207 217.161 243.206 218.161 242.562 218.161Z" fill="white"/>
</mask>
<g mask="url(#mask167_1647_9974)">
<rect x="240.227" y="216.787" width="3.36003" height="1.76003" fill="#FCFCFC"/>
</g>
<mask id="mask168_1647_9974" style="mask-type:luminance" maskUnits="userSpaceOnUse" x="223" y="191" width="2" height="4">
<path d="M223.896 194.144C223.647 194.144 223.396 193.983 223.396 193.661C223.396 193.216 223.396 192.772 223.396 192.328C223.396 192.005 223.646 191.844 223.896 191.844C224.146 191.844 224.396 192.005 224.396 192.328C224.396 192.772 224.396 193.216 224.396 193.661C224.396 193.983 224.147 194.144 223.896 194.144Z" fill="white"/>
</mask>
<g mask="url(#mask168_1647_9974)">
<rect x="222.895" y="191.454" width="1.76003" height="3.09336" fill="#FCFCFC"/>
</g>
<mask id="mask169_1647_9974" style="mask-type:luminance" maskUnits="userSpaceOnUse" x="212" y="207" width="2" height="2">
<path d="M213.229 208.828C212.585 208.828 212.586 207.828 213.229 207.828C213.874 207.828 213.873 208.828 213.229 208.828Z" fill="white"/>
</mask>
<g mask="url(#mask169_1647_9974)">
<rect x="212.361" y="207.453" width="2.02669" height="1.76003" fill="#FCFCFC"/>
</g>
<mask id="mask170_1647_9974" style="mask-type:luminance" maskUnits="userSpaceOnUse" x="198" y="185" width="2" height="3">
<path d="M198.563 187.478C198.313 187.478 198.062 187.316 198.062 186.995C198.062 186.55 198.062 186.106 198.062 185.662C198.062 185.339 198.313 185.178 198.563 185.178C198.812 185.178 199.063 185.339 199.063 185.662C199.063 186.106 199.063 186.55 199.063 186.995C199.063 187.316 198.813 187.478 198.563 187.478Z" fill="white"/>
</mask>
<g mask="url(#mask170_1647_9974)">
<rect x="197.561" y="184.787" width="1.76003" height="3.09336" fill="#FCFCFC"/>
</g>
<mask id="mask171_1647_9974" style="mask-type:luminance" maskUnits="userSpaceOnUse" x="218" y="174" width="2" height="3">
<path d="M218.563 176.811C218.313 176.811 218.062 176.649 218.062 176.328C218.062 175.883 218.062 175.439 218.062 174.995C218.062 174.672 218.312 174.511 218.563 174.511C218.812 174.511 219.063 174.672 219.063 174.995C219.063 175.439 219.063 175.883 219.063 176.328C219.063 176.649 218.813 176.811 218.563 176.811Z" fill="white"/>
</mask>
<g mask="url(#mask171_1647_9974)">
<rect x="217.828" y="174.253" width="1.76003" height="2.96003" fill="#FCFCFC"/>
</g>
<mask id="mask172_1647_9974" style="mask-type:luminance" maskUnits="userSpaceOnUse" x="240" y="181" width="2" height="2">
<path d="M241.229 182.161C240.585 182.161 240.586 181.161 241.229 181.161C241.874 181.161 241.873 182.161 241.229 182.161Z" fill="white"/>
</mask>
<g mask="url(#mask172_1647_9974)">
<rect x="240.227" y="180.653" width="2.02669" height="2.02669" fill="#FCFCFC"/>
</g>
<mask id="mask173_1647_9974" style="mask-type:luminance" maskUnits="userSpaceOnUse" x="260" y="201" width="2" height="2">
<path d="M261.229 202.161C260.585 202.161 260.586 201.161 261.229 201.161C261.874 201.161 261.873 202.161 261.229 202.161Z" fill="white"/>
</mask>
<g mask="url(#mask173_1647_9974)">
<rect x="260.361" y="200.787" width="2.02669" height="1.76003" fill="#FCFCFC"/>
</g>
<mask id="mask174_1647_9974" style="mask-type:luminance" maskUnits="userSpaceOnUse" x="163" y="110" width="2" height="2">
<path d="M163.897 111.495C163.253 111.495 163.253 110.495 163.897 110.495C164.542 110.495 164.541 111.495 163.897 111.495Z" fill="white"/>
</mask>
<g mask="url(#mask174_1647_9974)">
<rect x="162.762" y="110.253" width="2.02669" height="1.76003" fill="#FCFCFC"/>
</g>
<mask id="mask175_1647_9974" style="mask-type:luminance" maskUnits="userSpaceOnUse" x="178" y="127" width="2" height="2">
<path d="M178.563 128.828C177.988 128.828 177.927 128.032 178.376 127.86C178.431 127.839 178.494 127.828 178.563 127.828C178.946 127.828 179.102 128.181 179.028 128.467C178.979 128.663 178.824 128.828 178.563 128.828Z" fill="white"/>
</mask>
<g mask="url(#mask175_1647_9974)">
<rect x="177.428" y="127.453" width="2.16003" height="1.76003" fill="#FCFCFC"/>
</g>
<mask id="mask176_1647_9974" style="mask-type:luminance" maskUnits="userSpaceOnUse" x="155" y="90" width="2" height="2">
<path d="M155.897 91.4946C155.253 91.4946 155.253 90.4946 155.897 90.4946C156.542 90.4946 156.541 91.4946 155.897 91.4946Z" fill="white"/>
</mask>
<g mask="url(#mask176_1647_9974)">
<rect x="154.762" y="90.1196" width="2.02669" height="1.76003" fill="#FCFCFC"/>
</g>
<mask id="mask177_1647_9974" style="mask-type:luminance" maskUnits="userSpaceOnUse" x="155" y="141" width="2" height="2">
<path d="M155.897 142.161C155.253 142.161 155.253 141.161 155.897 141.161C156.542 141.161 156.541 142.161 155.897 142.161Z" fill="white"/>
</mask>
<g mask="url(#mask177_1647_9974)">
<rect x="154.762" y="140.653" width="2.02669" height="2.02669" fill="#FCFCFC"/>
</g>
<mask id="mask178_1647_9974" style="mask-type:luminance" maskUnits="userSpaceOnUse" x="154" y="177" width="2" height="2">
<path d="M154.563 178.161C153.919 178.161 153.919 177.161 154.563 177.161C155.208 177.161 155.207 178.161 154.563 178.161Z" fill="white"/>
</mask>
<g mask="url(#mask178_1647_9974)">
<rect x="153.428" y="176.787" width="2.16003" height="1.76003" fill="#FCFCFC"/>
</g>
<mask id="mask179_1647_9974" style="mask-type:luminance" maskUnits="userSpaceOnUse" x="151" y="206" width="3" height="3">
<path d="M151.917 208.828C151.533 208.828 151.192 208.327 151.544 207.973C151.988 207.529 152.433 207.085 152.877 206.64C152.981 206.537 153.097 206.493 153.21 206.493C153.594 206.493 153.936 206.996 153.584 207.348C153.14 207.792 152.694 208.236 152.25 208.681C152.148 208.784 152.03 208.828 151.917 208.828Z" fill="white"/>
</mask>
<g mask="url(#mask179_1647_9974)">
<rect x="150.896" y="206.253" width="3.36003" height="2.96003" fill="#FCFCFC"/>
</g>
<mask id="mask180_1647_9974" style="mask-type:luminance" maskUnits="userSpaceOnUse" x="159" y="195" width="2" height="4">
<path d="M159.896 198.144C159.647 198.144 159.396 197.983 159.396 197.661C159.396 197.216 159.396 196.772 159.396 196.328C159.396 196.005 159.646 195.844 159.896 195.844C160.147 195.844 160.396 196.005 160.396 196.328C160.396 196.772 160.396 197.216 160.396 197.661C160.396 197.983 160.147 198.144 159.896 198.144Z" fill="white"/>
</mask>
<g mask="url(#mask180_1647_9974)">
<rect x="158.895" y="195.32" width="1.76003" height="3.09336" fill="#FCFCFC"/>
</g>
<mask id="mask181_1647_9974" style="mask-type:luminance" maskUnits="userSpaceOnUse" x="171" y="227" width="2" height="2">
<path d="M171.897 228.828C171.253 228.828 171.253 227.828 171.897 227.828C172.542 227.828 172.541 228.828 171.897 228.828Z" fill="white"/>
</mask>
<g mask="url(#mask181_1647_9974)">
<rect x="170.762" y="227.32" width="2.02669" height="1.76003" fill="#FCFCFC"/>
</g>
<mask id="mask182_1647_9974" style="mask-type:luminance" maskUnits="userSpaceOnUse" x="178" y="250" width="3" height="2">
<path d="M179.896 251.495C179.452 251.495 179.007 251.495 178.563 251.495C177.919 251.495 177.919 250.495 178.563 250.495C179.007 250.495 179.452 250.495 179.896 250.495C180.542 250.495 180.54 251.495 179.896 251.495Z" fill="white"/>
</mask>
<g mask="url(#mask182_1647_9974)">
<rect x="177.428" y="250.12" width="3.36003" height="1.76003" fill="#FCFCFC"/>
</g>
<mask id="mask183_1647_9974" style="mask-type:luminance" maskUnits="userSpaceOnUse" x="155" y="242" width="2" height="2">
<path d="M155.897 243.495C155.253 243.495 155.253 242.495 155.897 242.495C156.542 242.495 156.541 243.495 155.897 243.495Z" fill="white"/>
</mask>
<g mask="url(#mask183_1647_9974)">
<rect x="154.762" y="242.12" width="2.02669" height="1.76003" fill="#FCFCFC"/>
</g>
<mask id="mask184_1647_9974" style="mask-type:luminance" maskUnits="userSpaceOnUse" x="223" y="241" width="2" height="3">
<path d="M223.896 243.478C223.647 243.478 223.396 243.316 223.396 242.995C223.396 242.55 223.396 242.106 223.396 241.662C223.396 241.339 223.646 241.178 223.896 241.178C224.146 241.178 224.396 241.339 224.396 241.662C224.396 242.106 224.396 242.55 224.396 242.995C224.396 243.316 224.147 243.478 223.896 243.478Z" fill="white"/>
</mask>
<g mask="url(#mask184_1647_9974)">
<rect x="222.895" y="240.787" width="1.76003" height="3.09336" fill="#FCFCFC"/>
</g>
<mask id="mask185_1647_9974" style="mask-type:luminance" maskUnits="userSpaceOnUse" x="268" y="231" width="2" height="2">
<path d="M269.229 232.828C268.585 232.828 268.586 231.828 269.229 231.828C269.874 231.828 269.873 232.828 269.229 232.828Z" fill="white"/>
</mask>
<g mask="url(#mask185_1647_9974)">
<rect x="268.361" y="231.453" width="2.02669" height="1.76003" fill="#FCFCFC"/>
</g>
<mask id="mask186_1647_9974" style="mask-type:luminance" maskUnits="userSpaceOnUse" x="221" y="16" width="3" height="2">
<path d="M223.271 17.8335C222.827 17.8335 222.383 17.8335 221.938 17.8335C221.294 17.8335 221.295 16.8335 221.938 16.8335C222.383 16.8335 222.827 16.8335 223.271 16.8335C223.916 16.8335 223.915 17.8335 223.271 17.8335Z" fill="white"/>
</mask>
<g mask="url(#mask186_1647_9974)">
<rect x="221.027" y="16.52" width="3.36003" height="1.76003" fill="#FCFCFC"/>
</g>
<mask id="mask187_1647_9974" style="mask-type:luminance" maskUnits="userSpaceOnUse" x="402" y="31" width="2" height="2">
<path d="M403.272 32.5C402.628 32.5 402.629 31.5 403.272 31.5C403.917 31.5 403.916 32.5 403.272 32.5Z" fill="white"/>
</mask>
<g mask="url(#mask187_1647_9974)">
<rect x="402.096" y="31.1865" width="2.42669" height="1.76003" fill="#FCFCFC"/>
</g>
<mask id="mask188_1647_9974" style="mask-type:luminance" maskUnits="userSpaceOnUse" x="320" y="50" width="3" height="3">
<path d="M320.626 52.5C320.242 52.5 319.901 51.9987 320.253 51.6467C320.697 51.2013 321.141 50.7573 321.586 50.3133C321.689 50.2093 321.806 50.1667 321.919 50.1667C322.303 50.1667 322.645 50.668 322.293 51.02C321.847 51.4653 321.403 51.9093 320.959 52.3533C320.855 52.4573 320.739 52.5 320.626 52.5Z" fill="white"/>
</mask>
<g mask="url(#mask188_1647_9974)">
<rect x="319.562" y="49.7202" width="3.62669" height="3.09336" fill="#FCFCFC"/>
</g>
<mask id="mask189_1647_9974" style="mask-type:luminance" maskUnits="userSpaceOnUse" x="396" y="216" width="2" height="4">
<path d="M396.605 219.149C396.354 219.149 396.104 218.988 396.104 218.667C396.104 218.223 396.104 217.777 396.104 217.333C396.104 217.011 396.354 216.851 396.604 216.851C396.854 216.851 397.104 217.012 397.104 217.333C397.104 217.777 397.104 218.223 397.104 218.667C397.104 218.989 396.854 219.149 396.605 219.149Z" fill="white"/>
</mask>
<g mask="url(#mask189_1647_9974)">
<rect x="395.693" y="216.52" width="1.76003" height="2.96003" fill="#FCFCFC"/>
</g>
<mask id="mask190_1647_9974" style="mask-type:luminance" maskUnits="userSpaceOnUse" x="313" y="216" width="2" height="4">
<path d="M314.105 219.24C313.854 219.24 313.604 219.079 313.604 218.758C313.604 218.091 313.604 217.424 313.604 216.758C313.604 216.435 313.854 216.275 314.104 216.275C314.354 216.275 314.604 216.436 314.604 216.758C314.604 217.424 314.604 218.091 314.604 218.758C314.604 219.079 314.354 219.24 314.105 219.24Z" fill="white"/>
</mask>
<g mask="url(#mask190_1647_9974)">
<rect x="313.162" y="215.854" width="1.76003" height="3.62669" fill="#FCFCFC"/>
</g>
<mask id="mask191_1647_9974" style="mask-type:luminance" maskUnits="userSpaceOnUse" x="293" y="212" width="2" height="2">
<path d="M294.104 213.257C293.46 213.257 293.461 212.257 294.104 212.257C294.749 212.257 294.748 213.257 294.104 213.257Z" fill="white"/>
</mask>
<g mask="url(#mask191_1647_9974)">
<rect x="293.027" y="211.986" width="2.02669" height="1.76003" fill="#FCFCFC"/>
</g>
<mask id="mask192_1647_9974" style="mask-type:luminance" maskUnits="userSpaceOnUse" x="307" y="229" width="3" height="2">
<path d="M309.326 230.721C309.031 230.721 308.734 230.721 308.438 230.721C307.794 230.721 307.794 229.721 308.438 229.721C308.734 229.721 309.031 229.721 309.326 229.721C309.971 229.721 309.97 230.721 309.326 230.721Z" fill="white"/>
</mask>
<g mask="url(#mask192_1647_9974)">
<rect x="307.43" y="229.32" width="2.96003" height="1.76003" fill="#FCFCFC"/>
</g>
<mask id="mask193_1647_9974" style="mask-type:luminance" maskUnits="userSpaceOnUse" x="319" y="235" width="2" height="2">
<path d="M319.992 236.945C319.348 236.945 319.35 235.945 319.992 235.945C320.638 235.945 320.636 236.945 319.992 236.945Z" fill="white"/>
</mask>
<g mask="url(#mask193_1647_9974)">
<rect x="318.895" y="235.72" width="2.02669" height="1.76003" fill="#FCFCFC"/>
</g>
<mask id="mask194_1647_9974" style="mask-type:luminance" maskUnits="userSpaceOnUse" x="323" y="224" width="2" height="2">
<path d="M324.438 225.389C323.794 225.389 323.794 224.388 324.438 224.388C325.083 224.388 325.082 225.389 324.438 225.389Z" fill="white"/>
</mask>
<g mask="url(#mask194_1647_9974)">
<rect x="323.295" y="224.12" width="2.16003" height="1.76003" fill="#FCFCFC"/>
</g>
<mask id="mask195_1647_9974" style="mask-type:luminance" maskUnits="userSpaceOnUse" x="343" y="231" width="2" height="2">
<path d="M343.992 232.5C343.348 232.5 343.35 231.5 343.992 231.5C344.638 231.5 344.636 232.5 343.992 232.5Z" fill="white"/>
</mask>
<g mask="url(#mask195_1647_9974)">
<rect x="342.895" y="231.187" width="2.02669" height="1.76003" fill="#FCFCFC"/>
</g>
<mask id="mask196_1647_9974" style="mask-type:luminance" maskUnits="userSpaceOnUse" x="343" y="249" width="2" height="2">
<path d="M343.992 250.277C343.348 250.277 343.35 249.277 343.992 249.277C344.638 249.277 344.636 250.277 343.992 250.277Z" fill="white"/>
</mask>
<g mask="url(#mask196_1647_9974)">
<rect x="342.895" y="248.787" width="2.02669" height="1.76003" fill="#FCFCFC"/>
</g>
<mask id="mask197_1647_9974" style="mask-type:luminance" maskUnits="userSpaceOnUse" x="334" y="236" width="2" height="2">
<path d="M335.104 237.833C334.46 237.833 334.46 236.833 335.104 236.833C335.749 236.833 335.748 237.833 335.104 237.833Z" fill="white"/>
</mask>
<g mask="url(#mask197_1647_9974)">
<rect x="333.961" y="236.253" width="2.02669" height="2.16003" fill="#FCFCFC"/>
</g>
<mask id="mask198_1647_9974" style="mask-type:luminance" maskUnits="userSpaceOnUse" x="342" y="215" width="2" height="2">
<path d="M343.104 216.5C342.46 216.5 342.46 215.5 343.104 215.5C343.749 215.5 343.748 216.5 343.104 216.5Z" fill="white"/>
</mask>
<g mask="url(#mask198_1647_9974)">
<rect x="341.961" y="215.187" width="2.02669" height="1.76003" fill="#FCFCFC"/>
</g>
<mask id="mask199_1647_9974" style="mask-type:luminance" maskUnits="userSpaceOnUse" x="331" y="203" width="2" height="2">
<path d="M332.438 204.056C331.794 204.056 331.794 203.055 332.438 203.055C333.083 203.055 333.082 204.056 332.438 204.056Z" fill="white"/>
</mask>
<g mask="url(#mask199_1647_9974)">
<rect x="331.295" y="202.654" width="2.16003" height="1.76003" fill="#FCFCFC"/>
</g>
<mask id="mask200_1647_9974" style="mask-type:luminance" maskUnits="userSpaceOnUse" x="278" y="251" width="2" height="2">
<path d="M279.272 252.5C278.628 252.5 278.629 251.5 279.272 251.5C279.917 251.5 279.916 252.5 279.272 252.5Z" fill="white"/>
</mask>
<g mask="url(#mask200_1647_9974)">
<rect x="278.229" y="251.053" width="2.16003" height="1.76003" fill="#FCFCFC"/>
</g>
<mask id="mask201_1647_9974" style="mask-type:luminance" maskUnits="userSpaceOnUse" x="281" y="242" width="2" height="2">
<path d="M281.938 243.167C281.294 243.167 281.295 242.167 281.938 242.167C282.583 242.167 282.582 243.167 281.938 243.167Z" fill="white"/>
</mask>
<g mask="url(#mask201_1647_9974)">
<rect x="280.762" y="241.72" width="2.16003" height="1.76003" fill="#FCFCFC"/>
</g>
<mask id="mask202_1647_9974" style="mask-type:luminance" maskUnits="userSpaceOnUse" x="278" y="226" width="4" height="3">
<path d="M280.585 228.5C280.472 228.5 280.355 228.457 280.252 228.353C279.807 227.909 279.363 227.465 278.919 227.02C278.567 226.668 278.908 226.167 279.292 226.167C279.405 226.167 279.521 226.209 279.625 226.313C280.069 226.757 280.513 227.201 280.959 227.647C281.311 227.999 280.969 228.5 280.585 228.5Z" fill="white"/>
</mask>
<g mask="url(#mask202_1647_9974)">
<rect x="278.229" y="225.72" width="3.36003" height="3.09336" fill="#FCFCFC"/>
</g>
<mask id="mask203_1647_9974" style="mask-type:luminance" maskUnits="userSpaceOnUse" x="421" y="78" width="2" height="2">
<path d="M421.938 79.1665C421.294 79.1665 421.295 78.1665 421.938 78.1665C422.583 78.1665 422.582 79.1665 421.938 79.1665Z" fill="white"/>
</mask>
<g mask="url(#mask203_1647_9974)">
<rect x="420.895" y="77.9863" width="2.16003" height="1.76003" fill="#FCFCFC"/>
</g>
<mask id="mask204_1647_9974" style="mask-type:luminance" maskUnits="userSpaceOnUse" x="404" y="84" width="3" height="4">
<path d="M404.626 87.168C404.242 87.168 403.901 86.6653 404.253 86.3133C404.697 85.868 405.141 85.424 405.586 84.98C405.689 84.876 405.806 84.832 405.919 84.832C406.303 84.832 406.645 85.3346 406.293 85.6866C405.847 86.132 405.403 86.576 404.959 87.02C404.855 87.124 404.739 87.168 404.626 87.168Z" fill="white"/>
</mask>
<g mask="url(#mask204_1647_9974)">
<rect x="403.295" y="84.3867" width="3.76003" height="3.36003" fill="#FCFCFC"/>
</g>
<mask id="mask205_1647_9974" style="mask-type:luminance" maskUnits="userSpaceOnUse" x="390" y="90" width="4" height="3">
<path d="M391.292 92.5015C390.908 92.5015 390.567 91.9988 390.919 91.6468C391.363 91.2015 391.807 90.7575 392.252 90.3135C392.356 90.2095 392.472 90.1655 392.585 90.1655C392.969 90.1655 393.311 90.6681 392.959 91.0201C392.513 91.4655 392.069 91.9095 391.625 92.3535C391.521 92.4575 391.405 92.5015 391.292 92.5015Z" fill="white"/>
</mask>
<g mask="url(#mask205_1647_9974)">
<rect x="390.229" y="89.7202" width="3.36003" height="3.09336" fill="#FCFCFC"/>
</g>
<mask id="mask206_1647_9974" style="mask-type:luminance" maskUnits="userSpaceOnUse" x="377" y="94" width="2" height="2">
<path d="M377.938 95.1665C377.294 95.1665 377.295 94.1665 377.938 94.1665C378.583 94.1665 378.582 95.1665 377.938 95.1665Z" fill="white"/>
</mask>
<g mask="url(#mask206_1647_9974)">
<rect x="376.762" y="93.9863" width="2.16003" height="1.76003" fill="#FCFCFC"/>
</g>
<mask id="mask207_1647_9974" style="mask-type:luminance" maskUnits="userSpaceOnUse" x="365" y="99" width="2" height="2">
<path d="M365.938 100.5C365.294 100.5 365.295 99.5 365.938 99.5C366.583 99.5 366.582 100.5 365.938 100.5Z" fill="white"/>
</mask>
<g mask="url(#mask207_1647_9974)">
<rect x="364.895" y="99.0532" width="2.16003" height="1.76003" fill="#FCFCFC"/>
</g>
<mask id="mask208_1647_9974" style="mask-type:luminance" maskUnits="userSpaceOnUse" x="205" y="242" width="2" height="2">
<path d="M205.938 243.167C205.294 243.167 205.295 242.167 205.938 242.167C206.583 242.167 206.582 243.167 205.938 243.167Z" fill="white"/>
</mask>
<g mask="url(#mask208_1647_9974)">
<rect x="205.027" y="241.72" width="2.02669" height="1.76003" fill="#FCFCFC"/>
</g>
<mask id="mask209_1647_9974" style="mask-type:luminance" maskUnits="userSpaceOnUse" x="229" y="236" width="2" height="2">
<path d="M229.938 237.833C229.294 237.833 229.295 236.833 229.938 236.833C230.583 236.833 230.582 237.833 229.938 237.833Z" fill="white"/>
</mask>
<g mask="url(#mask209_1647_9974)">
<rect x="229.027" y="236.253" width="2.02669" height="2.16003" fill="#FCFCFC"/>
</g>
<mask id="mask210_1647_9974" style="mask-type:luminance" maskUnits="userSpaceOnUse" x="217" y="219" width="2" height="3">
<path d="M217.939 221.816C217.688 221.816 217.438 221.655 217.438 221.333C217.438 220.888 217.438 220.445 217.438 220C217.438 219.677 217.688 219.517 217.938 219.517C218.188 219.517 218.438 219.679 218.438 220C218.438 220.445 218.438 220.888 218.438 221.333C218.438 221.656 218.188 221.816 217.939 221.816Z" fill="white"/>
</mask>
<g mask="url(#mask210_1647_9974)">
<rect x="217.162" y="219.053" width="1.76003" height="2.96003" fill="#FCFCFC"/>
</g>
<mask id="mask211_1647_9974" style="mask-type:luminance" maskUnits="userSpaceOnUse" x="428" y="239" width="2" height="2">
<path d="M428.604 240.5C427.96 240.5 427.961 239.5 428.604 239.5C429.249 239.5 429.248 240.5 428.604 240.5Z" fill="white"/>
</mask>
<g mask="url(#mask211_1647_9974)">
</g>
<mask id="mask212_1647_9974" style="mask-type:luminance" maskUnits="userSpaceOnUse" x="397" y="244" width="2" height="2">
<path d="M397.938 245.833C397.294 245.833 397.295 244.833 397.938 244.833C398.583 244.833 398.582 245.833 397.938 245.833Z" fill="white"/>
</mask>
<g mask="url(#mask212_1647_9974)">
<rect x="396.895" y="244.253" width="2.16003" height="2.16003" fill="#FCFCFC"/>
</g>
<mask id="mask213_1647_9974" style="mask-type:luminance" maskUnits="userSpaceOnUse" x="422" y="20" width="5" height="4">
<path d="M423.363 23.3042C422.905 23.3042 422.602 22.6322 423.094 22.3815C423.981 21.9295 424.866 21.4789 425.751 21.0269C425.831 20.9856 425.911 20.9682 425.987 20.9682C426.445 20.9682 426.749 21.6403 426.255 21.8909C425.37 22.3429 424.485 22.7935 423.599 23.2455C423.518 23.2855 423.438 23.3042 423.363 23.3042Z" fill="white"/>
</mask>
<g mask="url(#mask213_1647_9974)">
<rect x="422.229" y="20.6538" width="4.96003" height="3.09336" fill="#FCFCFC"/>
</g>
<mask id="mask214_1647_9974" style="mask-type:luminance" maskUnits="userSpaceOnUse" x="397" y="58" width="2" height="2">
<path d="M397.938 59.1665C397.294 59.1665 397.295 58.1665 397.938 58.1665C398.583 58.1665 398.582 59.1665 397.938 59.1665Z" fill="white"/>
</mask>
<g mask="url(#mask214_1647_9974)">
<rect x="396.895" y="57.7197" width="2.16003" height="1.76003" fill="#FCFCFC"/>
</g>
<mask id="mask215_1647_9974" style="mask-type:luminance" maskUnits="userSpaceOnUse" x="297" y="79" width="2" height="2">
<path d="M297.938 80.5C297.294 80.5 297.295 79.5 297.938 79.5C298.583 79.5 298.582 80.5 297.938 80.5Z" fill="white"/>
</mask>
<g mask="url(#mask215_1647_9974)">
<rect x="296.762" y="79.1865" width="2.16003" height="1.76003" fill="#FCFCFC"/>
</g>
<mask id="mask216_1647_9974" style="mask-type:luminance" maskUnits="userSpaceOnUse" x="313" y="82" width="3" height="2">
<path d="M315.271 83.1665C314.827 83.1665 314.383 83.1665 313.938 83.1665C313.294 83.1665 313.295 82.1665 313.938 82.1665C314.383 82.1665 314.827 82.1665 315.271 82.1665C315.916 82.1665 315.915 83.1665 315.271 83.1665Z" fill="white"/>
</mask>
<g mask="url(#mask216_1647_9974)">
<rect x="312.762" y="81.7197" width="3.36003" height="1.76003" fill="#FCFCFC"/>
</g>
<mask id="mask217_1647_9974" style="mask-type:luminance" maskUnits="userSpaceOnUse" x="262" y="80" width="2" height="2">
<path d="M263.272 81.8335C262.628 81.8335 262.629 80.8335 263.272 80.8335C263.917 80.8335 263.916 81.8335 263.272 81.8335Z" fill="white"/>
</mask>
<g mask="url(#mask217_1647_9974)">
<rect x="262.229" y="80.52" width="2.16003" height="1.76003" fill="#FCFCFC"/>
</g>
<mask id="mask218_1647_9974" style="mask-type:luminance" maskUnits="userSpaceOnUse" x="413" y="168" width="1" height="2">
<path d="M413.506 169.833C412.862 169.833 412.862 168.833 413.506 168.833C414.152 168.833 414.15 169.833 413.506 169.833Z" fill="white"/>
</mask>
<g mask="url(#mask218_1647_9974)">
<rect x="412.361" y="168.52" width="2.29336" height="1.76003" fill="#FCFCFC"/>
</g>
<mask id="mask219_1647_9974" style="mask-type:luminance" maskUnits="userSpaceOnUse" x="403" y="139" width="2" height="2">
<path d="M404.174 140.5C403.53 140.5 403.53 139.5 404.174 139.5C404.82 139.5 404.818 140.5 404.174 140.5Z" fill="white"/>
</mask>
<g mask="url(#mask219_1647_9974)">
<rect x="403.029" y="139.053" width="2.02669" height="1.76003" fill="#FCFCFC"/>
</g>
<mask id="mask220_1647_9974" style="mask-type:luminance" maskUnits="userSpaceOnUse" x="382" y="172" width="2" height="2">
<path d="M382.84 173.833C382.196 173.833 382.196 172.833 382.84 172.833C383.486 172.833 383.484 173.833 382.84 173.833Z" fill="white"/>
</mask>
<g mask="url(#mask220_1647_9974)">
<rect x="381.961" y="172.253" width="2.02669" height="2.16003" fill="#FCFCFC"/>
</g>
<mask id="mask221_1647_9974" style="mask-type:luminance" maskUnits="userSpaceOnUse" x="375" y="232" width="2" height="2">
<path d="M376.174 233.833C375.53 233.833 375.53 232.833 376.174 232.833C376.82 232.833 376.818 233.833 376.174 233.833Z" fill="white"/>
</mask>
<g mask="url(#mask221_1647_9974)">
<rect x="375.162" y="232.52" width="2.16003" height="1.76003" fill="#FCFCFC"/>
</g>
<mask id="mask222_1647_9974" style="mask-type:luminance" maskUnits="userSpaceOnUse" x="387" y="202" width="3" height="2">
<path d="M389.508 203.167C389.062 203.167 388.618 203.167 388.174 203.167C387.53 203.167 387.53 202.167 388.174 202.167C388.618 202.167 389.062 202.167 389.508 202.167C390.153 202.167 390.152 203.167 389.508 203.167Z" fill="white"/>
</mask>
<g mask="url(#mask222_1647_9974)">
<rect x="387.029" y="201.72" width="3.62669" height="1.76003" fill="#FCFCFC"/>
</g>
<mask id="mask223_1647_9974" style="mask-type:luminance" maskUnits="userSpaceOnUse" x="55" y="8" width="2" height="2">
<path d="M56.173 9.8335C55.5276 9.8335 55.529 8.8335 56.173 8.8335C56.817 8.8335 56.817 9.8335 56.173 9.8335Z" fill="white"/>
</mask>
<g mask="url(#mask223_1647_9974)">
<rect x="55.2949" y="8.52002" width="2.02667" height="1.76003" fill="#FCFCFC"/>
</g>
<mask id="mask224_1647_9974" style="mask-type:luminance" maskUnits="userSpaceOnUse" x="61" y="14" width="2" height="3">
<path d="M61.5078 16.4829C61.2571 16.4829 61.0078 16.3216 61.0078 16.0002C61.0078 15.5549 61.0078 15.1122 61.0078 14.6669C61.0078 14.3442 61.2571 14.1842 61.5065 14.1842C61.7571 14.1842 62.0078 14.3456 62.0078 14.6669C62.0078 15.1122 62.0078 15.5549 62.0078 16.0002C62.0078 16.3216 61.7571 16.4829 61.5078 16.4829Z" fill="white"/>
</mask>
<g mask="url(#mask224_1647_9974)">
<rect x="60.6289" y="13.9868" width="1.76" height="2.96003" fill="#FCFCFC"/>
</g>
<mask id="mask225_1647_9974" style="mask-type:luminance" maskUnits="userSpaceOnUse" x="69" y="20" width="2" height="4">
<path d="M69.5078 23.1494C69.2571 23.1494 69.0078 22.9881 69.0078 22.6667C69.0078 22.2214 69.0078 21.7787 69.0078 21.3334C69.0078 21.0107 69.2571 20.8507 69.5065 20.8507C69.7571 20.8507 70.0078 21.0121 70.0078 21.3334C70.0078 21.7787 70.0078 22.2214 70.0078 22.6667C70.0078 22.9881 69.7571 23.1494 69.5078 23.1494Z" fill="white"/>
</mask>
<g mask="url(#mask225_1647_9974)">
<rect x="68.6289" y="20.3867" width="1.76" height="3.36003" fill="#FCFCFC"/>
</g>
<mask id="mask226_1647_9974" style="mask-type:luminance" maskUnits="userSpaceOnUse" x="77" y="30" width="1" height="2">
<path d="M77.5069 31.1665C76.8616 31.1665 76.8629 30.1665 77.5069 30.1665C78.1509 30.1665 78.1509 31.1665 77.5069 31.1665Z" fill="white"/>
</mask>
<g mask="url(#mask226_1647_9974)">
<rect x="76.3613" y="29.5864" width="2.02667" height="2.16003" fill="#FCFCFC"/>
</g>
<mask id="mask227_1647_9974" style="mask-type:luminance" maskUnits="userSpaceOnUse" x="272" y="30" width="14" height="14">
<path d="M279.043 43.1987L278.144 38.3747L276.348 39.6067L277.58 37.8107L272.756 36.9134L277.58 36.016L276.348 34.2187L278.144 35.4521L279.043 30.628L279.939 35.4521L281.735 34.2187L280.503 36.016L285.326 36.9134L280.503 37.8107L281.735 39.6067L279.939 38.3747L279.043 43.1987Z" fill="white"/>
</mask>
<g mask="url(#mask227_1647_9974)">
<rect x="272.494" y="30.2534" width="13.2267" height="13.2267" fill="#FCFCFC"/>
</g>
</svg>
