<svg width="138" height="114" viewBox="0 0 138 114" fill="none" xmlns="http://www.w3.org/2000/svg">
<path d="M13.183 53.071C11.6424 49.0449 12.7307 45.5676 12.7307 45.5676C9.74312 47.7639 6.36347 46.667 6.36347 46.667C1.81161 45.294 3.21905 39.1644 3.21905 39.1644C3.49072 36.4176 2.40326 37.4265 2.40326 37.4265C-2.12642 42.9153 1.13758 49.2737 1.13758 49.2737C5.21184 56.1818 13.183 53.071 13.183 53.071Z" fill="url(#paint0_linear_1768_3013)"/>
<path d="M32.2924 59.439C32.2924 59.439 30.9713 58.2661 32.6354 55.3217C32.6354 55.3217 33.0765 54.444 33.924 51.4796C33.924 51.4796 38.7934 55.7649 35.3726 59.439C35.3726 59.439 33.4686 60.812 32.2924 59.439ZM40.8092 71.4614C42.5113 70.0388 42.9786 64.8741 42.9786 64.8741C43.0024 60.7408 46.3867 55.3001 46.3867 55.3001C49.41 45.4764 41.4373 42.6864 41.4373 42.6864C37.8185 47.6719 34.9212 47.2166 34.9212 47.2166C28.9436 46.7597 30.6608 41.2678 30.6608 41.2678C25.3177 41.5438 23.7771 37.4265 23.7771 37.4265C10.2839 39.8956 14.4485 53.255 14.4485 53.255C15.8092 57.9204 17.8923 55.7649 17.8923 55.7649C18.617 55.0721 20.2446 55.0833 20.2446 55.0833C21.1523 56.5483 22.7831 54.444 22.7831 54.444C23.1451 53.4366 25.5878 53.4366 25.5878 53.4366C26.8606 54.1687 28.3076 50.7843 28.3076 50.7843C30.0279 54.0759 26.0416 54.9912 26.0416 54.9912C24.5027 54.3503 23.5966 55.7649 23.5966 55.7649C22.3301 57.5428 21.0628 56.7314 21.0628 56.7314C19.1603 55.7241 17.8923 57.5548 17.8923 57.5548C18.5259 59.7487 25.1347 63.5916 25.1347 63.5916C27.1306 64.2325 29.3927 71.4614 29.3927 71.4614C34.6455 67.068 40.8092 71.4614 40.8092 71.4614Z" fill="url(#paint1_linear_1768_3013)"/>
<path d="M37.8642 72.4689C35.8754 76.4023 34.3349 74.6644 34.3349 74.6644C34.2066 72.1241 37.8642 72.4689 37.8642 72.4689ZM34.5574 77.2464C37.9767 76.7543 40.0154 72.1321 40.0154 72.1321C34.1946 68.8069 30.0293 72.649 30.0293 72.649C30.2851 78.4617 34.5574 77.2464 34.5574 77.2464Z" fill="url(#paint2_linear_1768_3013)"/>
<path d="M40.5358 75.0292C40.5358 75.0292 40.8336 73.093 40.3814 72.4521C40.3814 72.4521 39.5616 76.9943 35.6339 78.1897C35.6339 78.1897 34.4719 78.6833 33.291 78.136C33.291 78.136 33.5619 79.3858 35.599 79.7362C35.599 79.7362 39.5616 79.9835 40.5358 75.0292Z" fill="url(#paint3_linear_1768_3013)"/>
<path d="M24.8672 36.6025C24.8672 36.6025 26.4093 40.1694 31.3873 39.7125C31.3873 39.7125 36.5514 36.2353 35.0988 27.5461C35.0988 27.5461 33.7389 20.5908 26.4093 19.4018C26.4093 19.4018 25.409 20.0419 27.4041 21.0468C27.4041 21.0468 31.9306 25.2578 30.0289 30.4721C30.0289 30.4721 28.1692 35.2295 24.8672 36.6025Z" fill="url(#paint4_linear_1768_3013)"/>
<path d="M11.8497 60.5227C11.8497 60.5227 10.1801 61.3308 9.99871 63.1951C9.99871 63.1951 8.82886 62.8214 9.99871 60.8939C9.99871 60.8939 10.7068 59.6506 12.0144 59.1553C12.0144 59.1553 12.4136 59.637 13.8449 58.16L14.5474 57.7871C14.5474 57.7871 13.3926 60.0858 11.8497 60.5227ZM13.1835 54.4443C7.56872 56.3661 8.38295 63.2254 8.38295 63.2254C8.74492 65.3329 10.5587 64.1416 10.5587 64.1416C10.1951 63.5015 11.7325 61.7637 11.7325 61.7637C14.6321 60.5747 15.3545 57.5551 15.3545 57.5551C14.1767 57.0966 13.1835 54.4443 13.1835 54.4443Z" fill="url(#paint5_linear_1768_3013)"/>
<path d="M36.5904 41.9417C38.6331 40.7631 42.7588 35.2343 42.7588 35.2343L42.8879 36.0145C39.5043 43.8467 36.5904 43.8651 36.5904 43.8651C31.7954 45.1693 36.5904 41.9417 36.5904 41.9417ZM32.5637 44.5612C32.5637 44.5612 35.358 48.4065 40.7169 41.452C40.7169 41.452 45.2443 35.5944 43.2523 33.8574C43.2523 33.8574 39.0845 34.3158 35.5061 37.4266C35.5061 37.4266 30.8053 41.976 32.5637 44.5612Z" fill="url(#paint6_linear_1768_3013)"/>
<path d="M116.432 70.547C116.432 70.547 113.263 75.5804 116.16 82.2573C116.16 82.2573 115.526 74.7539 118.336 71.4615C118.336 71.4615 122.685 65.0566 118.789 59.9615C118.789 59.9615 120.872 64.0501 116.432 70.547Z" fill="url(#paint7_linear_1768_3013)"/>
<path d="M118.336 71.4616C115.526 74.7541 116.159 82.2575 116.159 82.2575C113.263 75.5806 116.432 70.5471 116.432 70.5471C120.871 64.0503 118.788 59.9617 118.788 59.9617C122.685 65.0568 118.336 71.4616 118.336 71.4616ZM59.556 50.1428C56.9312 52.2487 54.7554 56.8229 54.7554 56.8229C55.3883 51.3333 59.2827 47.3072 59.2827 47.3072C64.3557 40.7191 63.3586 34.956 63.3586 34.956C61.3658 26.0812 51.2221 32.394 51.2221 32.394C66.8895 19.4019 67.2538 34.2239 67.2538 34.2239C67.1635 43.922 59.556 50.1428 59.556 50.1428ZM113.444 37.4267C113.444 37.4267 96.5974 30.2905 92.7956 23.1528C92.7956 23.1528 81.5644 5.40483 60.2783 13.1803C60.2783 13.1803 44.2078 20.9565 36.6383 30.2905C36.6383 30.2905 37.005 33.0341 36.0957 34.4991C36.0957 34.4991 38.4655 32.6676 43.7571 32.394C43.7571 32.394 47.3277 33.0341 42.6182 41.0856C42.6182 41.0856 53.306 46.4519 46.5134 59.4592C46.5134 59.4592 49.5913 63.3181 50.4071 67.6187C50.4071 67.6187 51.4011 76.1599 57.1094 75.0453C57.1094 75.0453 60.0961 73.6571 58.8289 69.8142C58.8289 69.8142 56.8409 56.9149 65.5327 56.458C65.5327 56.458 59.2827 62.0364 61.3658 69.6318C61.3658 69.6318 62.0913 73.7491 57.1094 78.689C57.1094 78.689 53.5753 83.6305 52.4886 83.5393C52.4886 83.5393 50.3168 85.0034 51.2213 87.4718C51.2213 87.4718 52.3104 90.217 53.485 90.6746L58.8289 97.0786C58.8289 97.0786 61.1828 100.006 61.8181 101.653C61.8181 101.653 64.4468 105.862 67.0725 101.653C67.0725 101.653 68.3405 98.9101 64.808 97.3531C64.808 97.3531 60.7306 95.1576 60.1872 93.9678L57.2012 89.3936C57.2012 89.3936 57.9244 86.6484 57.3842 85.2771L61.9979 80.6109C61.9979 80.6109 64.4468 78.2746 69.9682 77.2464C69.9682 77.2464 77.1242 77.1344 81.8361 62.222C81.8361 62.222 84.7366 54.1689 79.0252 44.7453C79.0252 44.7453 84.0095 34.3159 76.8534 22.3295C76.8534 22.3295 85.5492 31.2027 81.1122 44.3788C81.1122 44.3788 87.42 53.8033 82.6519 65.6976C82.6519 65.6976 80.1126 72.4521 75.7667 76.1142C75.7667 76.1142 85.1856 78.7794 90.4416 75.6694C90.4416 75.6694 98.408 70.8879 103.301 76.1142C103.301 76.1142 96.8722 57.2797 106.286 49.7787C106.286 49.7787 95.7816 64.4167 110.365 88.0215C110.365 88.0215 111.723 89.8529 110.365 92.8717C110.365 92.8717 107.738 99.4582 104.205 102.753C104.205 102.753 99.2214 105.589 102.123 108.059C102.123 108.059 105.11 111.078 107.282 104.125C107.282 104.125 112.539 95.6153 116.159 92.23C116.159 92.23 117.701 91.2251 117.065 87.5638C117.065 87.5638 116.432 83.3552 122.23 80.5204C122.23 80.5204 130.654 77.0424 128.028 56.274C128.028 56.274 126.94 44.654 113.444 37.4267Z" fill="url(#paint8_linear_1768_3013)"/>
<path d="M47.0731 98.4533C44.4602 98.5437 41.8013 87.5639 41.8013 87.5639C42.7074 87.1078 43.0693 86.0093 43.0693 86.0093C42.9791 83.9962 44.4285 83.6306 44.4285 83.6306C51.6733 80.8862 53.575 76.1143 53.575 76.1143C50.68 76.0127 48.9574 71.4617 48.9574 71.4617C49.4104 66.7947 46.1536 62.3117 46.1536 62.3117C44.6154 63.9735 43.7568 73.7492 43.7568 73.7492C42.2749 79.238 39.0846 81.435 39.0846 81.435C37.0047 82.8968 37.2739 84.6371 37.2739 84.6371C36.9381 86.6501 39.0846 90.5835 39.0846 90.5835C41.6223 93.8783 43.7568 100.465 43.7568 100.465C45.8027 106.41 49.5015 103.576 49.5015 103.576C51.5838 100.098 47.0731 98.4533 47.0731 98.4533Z" fill="url(#paint9_linear_1768_3013)"/>
<path d="M54.9363 101.562C54.9363 101.562 54.1221 99.7343 55.661 99.3686C55.661 99.3686 52.1277 98.3605 50.4082 99.3686C50.4082 99.3686 52.9435 102.203 50.4082 104.673C50.4082 104.673 53.7704 107.784 56.2162 105.223C56.2162 105.223 57.474 103.301 54.9363 101.562Z" fill="url(#paint10_linear_1768_3013)"/>
<path d="M72.6252 98.9193C72.6252 98.9193 68.6618 97.4383 67.7953 98.2688C67.7953 98.2688 70.2404 101.085 66.5312 104.25C66.5312 104.25 69.2472 107.419 71.8728 106.32C71.8728 106.32 74.1055 104.95 72.6252 101.837C72.6252 101.837 71.2954 99.7538 72.6252 98.9193Z" fill="url(#paint11_linear_1768_3013)"/>
<path d="M100.581 92.4125C103.845 89.3944 101.038 87.1062 101.038 87.1062C99.2216 83.264 101.038 76.4935 101.038 76.4935C98.862 74.39 94.0622 75.7622 94.0622 75.7622C91.3709 77.8297 87.9952 78.0489 87.9952 78.0489C88.8989 80.8861 92.6144 83.2816 92.6144 83.2816C96.0542 85.2211 97.0498 87.4718 97.0498 87.4718C97.8648 88.9376 96.8668 90.8587 96.8668 90.8587C94.2412 95.7977 89.9856 98.5437 89.9856 98.5437C85.7291 100.555 87.9952 102.576 87.9952 102.576C91.7091 104.873 92.7047 101.103 92.7047 101.103C94.2412 98.5437 100.581 92.4125 100.581 92.4125Z" fill="url(#paint12_linear_1768_3013)"/>
<path d="M86.3639 101.471C80.3856 105.041 82.3142 107.419 82.3142 107.419C83.7898 109.612 86.7259 107.784 86.7259 107.784C87.9947 106.594 89.5337 107.784 89.5337 107.784C91.4361 105.954 91.0718 104.25 91.0718 104.25C86.7259 105.202 86.3639 101.471 86.3639 101.471Z" fill="url(#paint13_linear_1768_3013)"/>
<path d="M99.9784 106.728C94.0009 110.295 95.9295 112.675 95.9295 112.675C97.4058 114.87 100.343 113.041 100.343 113.041C101.607 111.85 103.149 113.041 103.149 113.041C105.052 111.21 104.688 109.506 104.688 109.506C100.343 110.458 99.9784 106.728 99.9784 106.728Z" fill="url(#paint14_linear_1768_3013)"/>
<path d="M137.168 40.9526C137.168 40.9526 135.594 28.1525 114.939 25.0033C114.939 25.0033 105.387 23.6111 105.49 18.248C105.49 18.248 116.718 9.58761 104.675 -7.72044e-05C104.675 -7.72044e-05 108.462 3.25155 102.936 11.2086C102.936 11.2086 98.6797 16.1093 103.21 19.0361C103.21 19.0361 103.99 25.0177 113.407 26.9403C113.407 26.9403 131.107 28.8702 134.171 41.9416C134.171 41.9416 136.567 49.9138 129.384 57.7373C129.384 57.7373 130.437 60.216 129.477 62.6787C129.477 62.6787 140.077 54.444 137.168 40.9526Z" fill="url(#paint15_linear_1768_3013)"/>
<defs>
<linearGradient id="paint0_linear_1768_3013" x1="0" y1="45.5076" x2="13.183" y2="45.5076" gradientUnits="userSpaceOnUse">
<stop stop-color="#0C0098"/>
<stop offset="1" stop-color="#BC87FF"/>
</linearGradient>
<linearGradient id="paint1_linear_1768_3013" x1="13.8418" y1="54.444" x2="47.0711" y2="54.444" gradientUnits="userSpaceOnUse">
<stop stop-color="#0C0098"/>
<stop offset="1" stop-color="#BC87FF"/>
</linearGradient>
<linearGradient id="paint2_linear_1768_3013" x1="30.0293" y1="74.0647" x2="40.0154" y2="74.0647" gradientUnits="userSpaceOnUse">
<stop stop-color="#0C0098"/>
<stop offset="1" stop-color="#BC87FF"/>
</linearGradient>
<linearGradient id="paint3_linear_1768_3013" x1="33.291" y1="76.0952" x2="40.632" y2="76.0952" gradientUnits="userSpaceOnUse">
<stop stop-color="#0C0098"/>
<stop offset="1" stop-color="#BC87FF"/>
</linearGradient>
<linearGradient id="paint4_linear_1768_3013" x1="24.8672" y1="29.5774" x2="35.3564" y2="29.5774" gradientUnits="userSpaceOnUse">
<stop stop-color="#0C0098"/>
<stop offset="1" stop-color="#BC87FF"/>
</linearGradient>
<linearGradient id="paint5_linear_1768_3013" x1="8.3418" y1="59.4607" x2="15.3545" y2="59.4607" gradientUnits="userSpaceOnUse">
<stop stop-color="#0C0098"/>
<stop offset="1" stop-color="#BC87FF"/>
</linearGradient>
<linearGradient id="paint6_linear_1768_3013" x1="32.1699" y1="39.7395" x2="43.7587" y2="39.7395" gradientUnits="userSpaceOnUse">
<stop stop-color="#0C0098"/>
<stop offset="1" stop-color="#BC87FF"/>
</linearGradient>
<linearGradient id="paint7_linear_1768_3013" x1="114.939" y1="71.1094" x2="120.41" y2="71.1094" gradientUnits="userSpaceOnUse">
<stop stop-color="#0C0098"/>
<stop offset="1" stop-color="#BC87FF"/>
</linearGradient>
<linearGradient id="paint8_linear_1768_3013" x1="36.0957" y1="59.9607" x2="128.535" y2="59.9607" gradientUnits="userSpaceOnUse">
<stop stop-color="#0C0098"/>
<stop offset="1" stop-color="#BC87FF"/>
</linearGradient>
<linearGradient id="paint9_linear_1768_3013" x1="37.2383" y1="83.2816" x2="53.575" y2="83.2816" gradientUnits="userSpaceOnUse">
<stop stop-color="#0C0098"/>
<stop offset="1" stop-color="#BC87FF"/>
</linearGradient>
<linearGradient id="paint10_linear_1768_3013" x1="50.4082" y1="102.577" x2="56.5279" y2="102.577" gradientUnits="userSpaceOnUse">
<stop stop-color="#0C0098"/>
<stop offset="1" stop-color="#BC87FF"/>
</linearGradient>
<linearGradient id="paint11_linear_1768_3013" x1="66.5312" y1="102.284" x2="73.1322" y2="102.284" gradientUnits="userSpaceOnUse">
<stop stop-color="#0C0098"/>
<stop offset="1" stop-color="#BC87FF"/>
</linearGradient>
<linearGradient id="paint12_linear_1768_3013" x1="87.3926" y1="89.3202" x2="102.16" y2="89.3202" gradientUnits="userSpaceOnUse">
<stop stop-color="#0C0098"/>
<stop offset="1" stop-color="#BC87FF"/>
</linearGradient>
<linearGradient id="paint13_linear_1768_3013" x1="82.0176" y1="104.984" x2="91.0998" y2="104.984" gradientUnits="userSpaceOnUse">
<stop stop-color="#0C0098"/>
<stop offset="1" stop-color="#BC87FF"/>
</linearGradient>
<linearGradient id="paint14_linear_1768_3013" x1="95.6328" y1="110.242" x2="104.716" y2="110.242" gradientUnits="userSpaceOnUse">
<stop stop-color="#0C0098"/>
<stop offset="1" stop-color="#BC87FF"/>
</linearGradient>
<linearGradient id="paint15_linear_1768_3013" x1="101.123" y1="31.3393" x2="137.673" y2="31.3393" gradientUnits="userSpaceOnUse">
<stop stop-color="#0C0098"/>
<stop offset="1" stop-color="#BC87FF"/>
</linearGradient>
</defs>
</svg>
