<svg width="97" height="135" viewBox="0 0 97 135" fill="none" xmlns="http://www.w3.org/2000/svg">
<path d="M47.1602 10.5311C47.1602 10.5311 47.1602 13.3384 49.272 14.3895C49.272 14.3895 50.8553 14.9727 49.9678 19.0655C49.9678 19.0655 50.1529 20.3482 51.3146 19.748C51.3146 19.748 52.2647 19.1194 52.5001 20.3482C52.5001 20.3482 52.3796 21.1658 53.847 21.3416C53.847 21.3416 54.2618 23.6773 56.9584 22.335C56.9584 22.335 57.6589 21.6913 58.5397 20.8728C58.5397 20.8728 60.0697 19.8179 61.4166 20.4663C61.4166 20.4663 60.9467 19.1789 58.4837 17.659C58.4837 17.659 56.2531 15.6126 56.3718 13.6863C56.3718 13.6863 56.0766 11.5841 53.6724 10.5311C53.6724 10.5311 49.6261 13.1598 47.1602 10.5311Z" fill="url(#paint0_linear_1768_3005)"/>
<path d="M57.7803 7.1434C57.7803 7.1434 53.2024 6.5583 53.4359 9.83255C53.4359 9.83255 49.4466 12.9868 46.5137 8.95445C46.5137 8.95445 47.16 -1.26908 59.3615 0.131743C59.3615 0.131743 63.4097 0.550478 66.5182 5.56866C66.5182 5.56866 67.6335 8.31169 69.3363 8.48845C69.3363 8.48845 64.8781 14.329 62.2394 19.8179C62.2394 19.8179 60.8888 17.8915 59.8314 17.3669C59.8314 17.3669 57.2516 16.0842 57.3683 13.8601C57.3683 13.8601 57.3085 11.584 54.2873 9.97717C54.2873 9.97717 52.9092 8.19354 57.7803 7.1434Z" fill="url(#paint1_linear_1768_3005)"/>
<path d="M72.9146 12.8685C69.6267 11.5839 64.3503 24.9011 64.3503 24.9011C63.8226 26.1621 65.9914 23.385 65.9914 23.385C70.8028 14.8544 71.8582 15.206 71.8582 15.206C73.3237 14.7995 72.3879 20.987 72.3879 20.987C70.6262 33.2578 72.5625 34.9517 72.5625 34.9517C72.1515 31.858 72.9146 26.8908 72.9146 26.8908C75.6131 12.169 72.9146 12.8685 72.9146 12.8685Z" fill="url(#paint2_linear_1768_3005)"/>
<path d="M72.9142 26.8914C72.9142 26.8914 72.1511 31.8585 72.5621 34.9522C72.5621 34.9522 70.6258 33.2584 72.3874 20.9875C72.3874 20.9875 73.3233 14.8001 71.8578 15.2066C71.8578 15.2066 70.8023 14.855 65.991 23.3856C65.991 23.3856 63.8222 26.1626 64.3499 24.9017C64.3499 24.9017 69.6263 11.5845 72.9142 12.869C72.9142 12.869 75.6127 12.1696 72.9142 26.8914ZM60.7098 30.9814C60.7098 30.9814 60.1223 29.4586 60.7098 28.3527C60.7098 28.3527 63.937 28.5824 65.4623 34.076C65.4623 34.076 62.0624 28.9936 60.7098 30.9814ZM84.3545 91.2128C84.3545 91.2128 80.5417 83.9685 79.3666 76.8387C79.3666 76.8387 75.4371 57.5043 75.6127 46.1096C75.6127 46.1096 75.6127 27.8272 77.4882 17.718C77.4882 17.718 78.8977 8.48888 74.263 6.73644C74.263 6.73644 71.1554 4.39797 60.8883 25.0227C60.8883 25.0227 60.3416 23.1417 61.416 21.2239C61.416 21.2239 59.5367 21.1057 57.3081 23.6776C57.3081 23.6776 55.5483 24.6125 53.9063 25.0227C53.9063 25.0227 51.6776 25.6078 50.4446 28.9936C50.4446 28.9936 44.8721 34.5411 41.8794 40.271C41.8794 40.271 38.0068 40.5593 29.5611 45.1748C29.5611 45.1748 21.3452 48.4491 18.883 46.517C18.883 46.517 14.8928 46.9868 14.4827 46.345C14.4827 46.345 13.6636 46.0973 13.3086 47.2741V49.9104C13.3086 49.9104 13.7594 51.5324 16.5794 51.8197C16.643 51.8245 16.7075 51.8348 16.7711 51.8367C16.7711 51.8367 18.1807 51.8925 20.0591 50.9019C20.0591 50.9019 23.9867 50.3178 27.0354 50.0852C27.0354 50.0852 34.138 50.1391 43.3477 45.293C43.3477 45.293 45.5764 44.534 46.5132 42.7834C46.5132 42.7834 52.6154 35.7699 53.6718 33.6649C53.6718 33.6649 56.0172 30.9199 56.7803 32.3255C56.7803 32.3255 55.3737 32.8501 54.2869 34.0193C54.2869 34.0193 51.6283 38.3182 49.6255 40.3296C49.6255 40.3296 50.681 44.9423 55.4913 41.0886C55.4913 41.0886 53.9651 43.481 51.8542 43.8336C51.8542 43.8336 50.7351 51.0163 48.1552 53.5315C48.1552 53.5315 46.9251 54.7594 46.6878 56.1025C46.6878 56.1025 55.9574 52.3613 64.1734 58.0875C64.1734 58.0875 64.9346 56.6867 62.8227 54.2905C62.8227 54.2905 61.6514 52.4767 62.7041 46.9868C62.7041 46.9868 63.5849 38.5762 60.595 34.9522C60.595 34.9522 65.0504 38.0479 63.7643 47.2222C63.7643 47.2222 62.6471 55.2244 66.2815 55.869C66.2815 55.869 67.9283 55.5174 66.8111 45.9962C66.8111 45.9962 69.8873 53.4228 66.6668 56.94C66.6194 56.992 66.57 57.0449 66.5178 57.0978C66.5178 57.0978 69.1574 67.6125 68.922 70.587C68.922 70.587 69.1574 74.5647 72.3277 73.3953C72.3277 73.3953 74.0883 71.7013 72.6228 65.0396C72.6228 65.0396 75.085 70.9415 72.5621 74.0939C72.5621 74.0939 75.8462 81.4588 76.0806 83.9685C76.0806 83.9685 76.727 86.9489 78.8977 86.4811C78.8977 86.4811 80.5417 86.0709 78.2542 81.1044C78.2542 81.1044 81.1862 84.3181 79.9551 87.413C79.9551 87.413 80.8929 91.5048 84.3545 92.3223C84.3545 92.3223 85.5258 92.3223 84.3545 91.2128Z" fill="url(#paint3_linear_1768_3005)"/>
<path d="M15.6244 52.4562C15.353 54.2909 15.2059 56.6823 16.9827 56.4451C18.6276 56.2305 18.097 53.616 18.1103 52.5356L15.6244 52.4562Z" fill="url(#paint4_linear_1768_3005)"/>
<path d="M46.3374 57.4915C46.3374 57.4915 58.352 54.0991 64.2149 60.4085C64.2149 60.4085 67.5285 63.8954 66.1057 72.3768C66.1057 72.3768 70.5544 82.8374 71.0299 87.8227C71.0299 87.8227 73.3003 96.0233 80.9601 101.578C80.9601 101.578 90.4175 109.396 94.2987 121.925C94.2987 121.925 94.1108 126.074 91.0829 127.389C91.0829 127.389 85.218 118.44 83.612 113.637C83.612 113.637 78.5967 104.784 75.0971 102.331C75.0971 102.331 66.958 93.099 64.4048 78.3092C64.4048 78.3092 64.3108 93.7607 74.3397 103.748C74.3397 103.748 81.6008 112.413 84.8763 121.27C84.8763 121.27 87.6773 127.202 89.8518 129.462C89.8518 129.462 88.15 134.171 81.9074 132.947C81.9074 132.947 77.8411 130.777 68.8516 107.136C68.8516 107.136 60.9061 90.5584 60.8103 66.5231C60.8103 66.5231 56.9329 86.0353 67.3377 108.174C67.3377 108.174 74.6235 128.427 78.5027 132.475C78.5027 132.475 70.0808 137.121 65.6368 133.152C65.6368 133.152 53.906 96.6823 56.5561 63.6127C56.5561 63.6127 49.5541 89.7113 61.9455 133.608C61.9455 133.608 58.9176 136.34 46.3374 132.572C46.3374 132.572 45.7688 114.11 48.7018 97.9044C48.7018 97.9044 52.487 74.1661 51.7287 68.6527C51.7287 68.6527 48.1389 93.8589 46.2919 101.674C46.2919 101.674 43.5023 118.156 43.3105 121.925C43.3105 121.925 42.7439 130.028 41.7036 132.1C41.7036 132.1 32.3363 136.249 27.9881 132.666C27.9881 132.666 31.203 128.894 33.5664 119.664C33.5664 119.664 37.5415 107.892 40.8522 100.073C40.8522 100.073 48.2291 79.7204 48.7018 63.9918C48.7018 63.9918 42.7439 89.8985 38.1072 100.733C38.1072 100.733 32.528 113.072 31.5807 118.913C31.5807 118.913 28.8386 128.615 25.3381 131.723C25.3381 131.723 17.8634 132.861 17.7676 126.166C17.7676 126.166 23.3496 119.664 25.4302 115.145C25.4302 115.145 31.109 101.959 33.0007 98.8467C33.0007 98.8467 39.3382 86.0353 43.0267 65.2158C43.0267 65.2158 43.4055 58.5284 46.3374 57.4915Z" fill="url(#paint5_linear_1768_3005)"/>
<path d="M81.9283 15.2036C84.2632 12.1599 86.452 7.67108 90.6976 7.33364C91.5471 7.1635 92.3957 7.67108 92.9073 8.3488C93.0772 8.85261 93.2471 9.191 93.417 9.53033C94.2674 12.9152 93.7539 16.2972 93.417 19.682C92.7374 24.5868 91.7189 29.1531 91.2073 34.0588C91.0374 36.4266 91.0374 38.7925 90.8665 41.1631C90.6976 49.6209 90.5296 58.0788 91.8869 66.702C92.9073 72.4595 93.7539 77.8698 95.2821 83.4514C95.4539 84.4701 95.6247 85.4799 95.9654 86.3277C96.3043 87.0033 96.4742 87.9242 96.8368 88.5393L96.6906 88.6313C96.0224 88.9621 95.8421 88.7786 95.3922 88.5423C93.1626 87.3977 92.501 84.4826 91.6543 82.288C91.8242 81.1005 92.334 79.9182 92.1631 78.5654C91.9961 77.2092 91.4835 76.0277 90.4261 74.9972C90.9757 76.7041 91.9562 79.8965 90.8049 80.4274C89.2729 81.1913 87.9166 79.7481 87.5796 78.3944C86.8972 75.1814 87.0689 71.9659 85.0301 69.4309C85.8198 68.3874 86.2498 67.583 86.4994 66.2871C86.693 65.2748 86.7292 64.0186 86.5593 63.0024C86.3875 61.6508 85.8796 60.4683 85.1943 59.3756C85.2095 59.4512 85.2266 59.524 85.2437 59.5968C85.7088 61.9844 86.4862 64.8248 85.1991 67.0659C84.8375 67.6898 84.1825 68.4148 83.1612 68.2475C81.9729 68.0773 81.354 67.2276 81.2914 66.2162C80.9924 61.1385 80.4438 56.7432 79.4234 52.1749C83.5029 50.3176 82.4816 44.9024 81.2449 41.407C81.4632 43.5488 81.6331 45.7512 81.4632 47.947C81.2914 48.7929 81.2914 49.6408 80.4438 50.1465C79.7623 50.4839 79.0219 50.5728 78.3613 50.1134C77.6684 49.6276 77.6295 48.6398 77.7273 47.947C78.3793 43.2341 78.7248 39.2235 77.862 34.7328C77.6504 33.6297 77.3096 33.244 76.7363 32.7355C76.7363 32.7355 76.9148 25.9224 77.415 24.6038C77.415 24.6038 79.898 23.9922 80.9715 30.4953C80.9715 30.4953 81.4869 33.5758 83.8143 34.0068C83.8143 34.0068 85.0709 34.3906 86.9721 33.5919C86.9721 33.5919 85.8768 31.9538 86.8079 27.3411C86.8079 27.3411 87.9251 22.5082 85.3405 18.4097C85.3405 18.4097 87.4553 14.6676 88.8904 15.1695C88.8904 15.1695 91.0773 15.265 88.5563 23.6482C88.5563 23.6482 87.1525 29.6333 88.0883 36.6582C88.0883 36.6582 88.5563 27.1474 90.2278 22.0224C90.2278 22.0224 92.9661 13.5097 89.1799 13.2394C89.1799 13.2394 86.6646 12.8622 84.6695 17.6725C84.6695 17.6725 83.2172 15.8236 81.9235 15.1043" fill="url(#paint6_linear_1768_3005)"/>
<path d="M78.6524 13.9453C78.6524 13.9453 87.884 17.1373 86.2116 27.1595C86.2116 27.1595 85.4522 30.2201 86.2116 33.2534C86.2116 33.2534 82.7386 35.0342 81.46 30.3723C81.46 30.3723 81.0348 24.5413 77.5723 23.8853L78.6524 13.9453Z" fill="url(#paint7_linear_1768_3005)"/>
<path d="M18.0299 32.8165L17.8894 17.347C18.0603 13.9329 17.4433 14.0908 17.4433 14.0908C16.6346 14.0369 16.7703 16.8243 16.7599 17.314L16.3651 32.67C16.2806 35.7174 16.1097 39.2261 15.9787 42.2697L16.0053 42.7518C16.0053 42.7518 5.51424 31.2446 5.40034 31.0603C5.38515 31.0376 5.36806 31.0253 5.34148 31.0112C5.19341 30.9469 4.89443 31.169 4.89443 31.169C4.82229 31.3836 4.82227 31.3836 4.82227 31.3836L14.5721 43.2338C15.6712 44.2235 15.4653 45.595 15.4653 45.595C16.0405 46.1886 18.4086 45.6848 18.4086 45.6848C18.3612 44.3104 19.2135 43.1658 19.2135 43.1658L29.0734 31.8392C29.2803 31.5622 29.1665 31.498 29.1665 31.498C28.8893 31.1955 28.7289 31.3836 28.7289 31.3836L18.0565 42.8482C18.0356 39.9577 17.9843 36.2515 17.9245 33.3666" fill="url(#paint8_linear_1768_3005)"/>
<path d="M17.2109 31.2476C17.2109 31.2476 18.387 32.1503 18.8549 29.8127C18.8549 29.8127 19.9256 27.5915 22.9012 29.5207C22.9012 29.5207 20.497 30.6871 20.5539 32.3837C20.5539 32.3837 19.7632 35.1882 17.2109 32.794V31.2476Z" fill="url(#paint9_linear_1768_3005)"/>
<path d="M17.4746 17.7506C17.4746 17.7506 18.6487 18.6533 19.1166 16.3158C19.1166 16.3158 20.1892 14.0964 23.1667 16.0227C23.1667 16.0227 20.7606 17.1891 20.8194 18.8896C20.8194 18.8896 20.0317 21.6874 17.4746 19.297V17.7506Z" fill="url(#paint10_linear_1768_3005)"/>
<path d="M17.4746 24.2162C17.4746 24.2162 18.6487 25.1218 19.1166 22.7842C19.1166 22.7842 20.1892 20.563 23.1667 22.4931C23.1667 22.4931 20.7606 23.6604 20.8194 25.3515C20.8194 25.3515 20.0317 28.155 17.4746 25.7588V24.2162Z" fill="url(#paint11_linear_1768_3005)"/>
<path d="M22.4974 38.6118C22.4974 38.6118 21.2331 38.4813 22.337 36.7563C22.337 36.7563 22.9957 34.7581 20.0087 34.19C20.0087 34.19 20.8003 36.3309 19.7553 37.3414C19.7553 37.3414 18.5764 39.5447 21.5805 39.5674L22.4974 38.6118Z" fill="url(#paint12_linear_1768_3005)"/>
<path d="M26.4755 34.1958C26.4755 34.1958 25.2131 34.0587 26.3161 32.3422C26.3161 32.3422 26.9729 30.3346 23.984 29.7703C23.984 29.7703 24.7794 31.9102 23.7325 32.9254C23.7325 32.9254 22.5517 35.1268 25.5577 35.1523L26.4755 34.1958Z" fill="url(#paint13_linear_1768_3005)"/>
<path d="M26.7304 34.3255C26.7304 34.3255 26.8776 35.5826 28.5937 34.4626C28.5937 34.4626 30.5983 33.7773 31.2058 36.7443C31.2058 36.7443 29.0436 35.9853 28.0403 37.0364C28.0403 37.0364 25.8486 38.2444 25.7812 35.2509L26.7304 34.3255Z" fill="url(#paint14_linear_1768_3005)"/>
<path d="M22.7783 38.674C22.7783 38.674 22.9263 39.9283 24.6386 38.8083C24.6386 38.8083 26.648 38.1258 27.2498 41.0938C27.2498 41.0938 25.0914 40.332 24.0881 41.3859C24.0881 41.3859 21.8927 42.591 21.8281 39.6013L22.7783 38.674Z" fill="url(#paint15_linear_1768_3005)"/>
<path d="M16.8748 31.1689C16.8748 31.1689 15.6978 32.0754 15.2289 29.7369C15.2289 29.7369 14.1573 27.5137 11.1836 29.4448C11.1836 29.4448 13.5869 30.6131 13.5299 32.3079C13.5299 32.3079 14.3234 35.1124 16.8748 32.7143V31.1689Z" fill="url(#paint16_linear_1768_3005)"/>
<path d="M16.8748 24.2162C16.8748 24.2162 15.6978 25.1218 15.2289 22.7842C15.2289 22.7842 14.1573 20.563 11.1836 22.4931C11.1836 22.4931 13.5869 23.6604 13.5299 25.3515C13.5299 25.3515 14.3234 28.155 16.8748 25.7588V24.2162Z" fill="url(#paint17_linear_1768_3005)"/>
<path d="M16.8748 17.7506C16.8748 17.7506 15.6978 18.6533 15.2289 16.3158C15.2289 16.3158 14.1573 14.0964 11.1836 16.0227C11.1836 16.0227 13.5869 17.1891 13.5299 18.8896C13.5299 18.8896 14.3234 21.6874 16.8748 19.297V17.7506Z" fill="url(#paint18_linear_1768_3005)"/>
<path d="M17.1843 7.30041C17.1843 7.30041 18.2293 10.085 19.355 11.155C19.355 11.155 20.8889 12.8555 19.4357 14.5635C19.4357 14.5635 18.5131 15.6004 17.3181 14.52C17.3181 14.52 16.2589 15.3121 15.3894 14.71C15.3894 14.71 13.5035 13.3026 15.6638 10.8573C15.6638 10.8573 16.9935 9.00464 17.1843 7.30041Z" fill="url(#paint19_linear_1768_3005)"/>
<path d="M33.948 26.1465C33.948 26.1465 32.7891 28.8914 32.8792 30.4387C32.8792 30.4387 32.8214 32.7252 30.5908 32.9747C30.5908 32.9747 29.2012 33.1005 29.075 31.4983C29.075 31.4983 27.7595 31.3527 27.5393 30.3196C27.5393 30.3196 27.1368 28.0104 30.3906 27.6985C30.3906 27.6985 32.6363 27.2599 33.948 26.1465Z" fill="url(#paint20_linear_1768_3005)"/>
<path d="M11.4453 38.1723C11.4453 38.1723 12.7096 38.0371 11.6058 36.3168C11.6058 36.3168 10.9508 34.312 13.9359 33.743C13.9359 33.743 13.1453 35.8877 14.1903 36.8991C14.1903 36.8991 15.3673 39.0967 12.367 39.1279L11.4453 38.1723Z" fill="url(#paint21_linear_1768_3005)"/>
<path d="M7.46875 33.7523C7.46875 33.7523 8.73301 33.619 7.63008 31.8959C7.63008 31.8959 6.96949 29.8911 9.95841 29.3268C9.95841 29.3268 9.1668 31.4668 10.2118 32.4781C10.2118 32.4781 11.3926 34.6824 8.38751 34.7051L7.46875 33.7523Z" fill="url(#paint22_linear_1768_3005)"/>
<path d="M7.21656 33.8812C7.21656 33.8812 7.06658 35.1355 5.35239 34.0192C5.35239 34.0192 3.34586 33.333 2.74219 36.3C2.74219 36.3 4.90152 35.5439 5.90479 36.5968C5.90479 36.5968 8.09928 37.7973 8.16573 34.8075L7.21656 33.8812Z" fill="url(#paint23_linear_1768_3005)"/>
<path d="M11.1716 38.2279C11.1716 38.2279 11.0197 39.485 9.30269 38.3697C9.30269 38.3697 7.30088 37.6787 6.69531 40.6505C6.69531 40.6505 8.85464 39.8934 9.85601 40.9463C9.85601 40.9463 12.0543 42.1439 12.1169 39.158L11.1716 38.2279Z" fill="url(#paint24_linear_1768_3005)"/>
<path d="M0 25.7067C0 25.7067 1.15513 28.444 1.06971 29.9942C1.06971 29.9942 1.12377 32.2788 3.35526 32.5302C3.35526 32.5302 4.74295 32.6597 4.86729 31.0547C4.86729 31.0547 6.18663 30.9063 6.40398 29.8779C6.40398 29.8779 6.8093 27.564 3.55557 27.2559C3.55557 27.2559 1.30795 26.8182 0 25.7067Z" fill="url(#paint25_linear_1768_3005)"/>
<defs>
<linearGradient id="paint0_linear_1768_3005" x1="47.1602" y1="16.641" x2="61.4166" y2="16.641" gradientUnits="userSpaceOnUse">
<stop stop-color="#0C0098"/>
<stop offset="1" stop-color="#BC87FF"/>
</linearGradient>
<linearGradient id="paint1_linear_1768_3005" x1="46.5137" y1="9.90889" x2="69.3363" y2="9.90889" gradientUnits="userSpaceOnUse">
<stop stop-color="#0C0098"/>
<stop offset="1" stop-color="#BC87FF"/>
</linearGradient>
<linearGradient id="paint2_linear_1768_3005" x1="64.2676" y1="23.8664" x2="74.114" y2="23.8664" gradientUnits="userSpaceOnUse">
<stop stop-color="#0C0098"/>
<stop offset="1" stop-color="#BC87FF"/>
</linearGradient>
<linearGradient id="paint3_linear_1768_3005" x1="13.3086" y1="49.4894" x2="84.8751" y2="49.4894" gradientUnits="userSpaceOnUse">
<stop stop-color="#0C0098"/>
<stop offset="1" stop-color="#BC87FF"/>
</linearGradient>
<linearGradient id="paint4_linear_1768_3005" x1="15.4609" y1="54.4588" x2="18.1816" y2="54.4588" gradientUnits="userSpaceOnUse">
<stop stop-color="#0C0098"/>
<stop offset="1" stop-color="#BC87FF"/>
</linearGradient>
<linearGradient id="paint5_linear_1768_3005" x1="17.7676" y1="95.6683" x2="94.2987" y2="95.6683" gradientUnits="userSpaceOnUse">
<stop stop-color="#0C0098"/>
<stop offset="1" stop-color="#BC87FF"/>
</linearGradient>
<linearGradient id="paint6_linear_1768_3005" x1="76.7363" y1="48.0558" x2="96.8368" y2="48.0558" gradientUnits="userSpaceOnUse">
<stop stop-color="#0C0098"/>
<stop offset="1" stop-color="#BC87FF"/>
</linearGradient>
<linearGradient id="paint7_linear_1768_3005" x1="77.5723" y1="23.7664" x2="86.4142" y2="23.7664" gradientUnits="userSpaceOnUse">
<stop stop-color="#0C0098"/>
<stop offset="1" stop-color="#BC87FF"/>
</linearGradient>
<linearGradient id="paint8_linear_1768_3005" x1="4.82227" y1="29.987" x2="29.1977" y2="29.987" gradientUnits="userSpaceOnUse">
<stop stop-color="#0C0098"/>
<stop offset="1" stop-color="#BC87FF"/>
</linearGradient>
<linearGradient id="paint9_linear_1768_3005" x1="17.2109" y1="31.2471" x2="22.9012" y2="31.2471" gradientUnits="userSpaceOnUse">
<stop stop-color="#0C0098"/>
<stop offset="1" stop-color="#BC87FF"/>
</linearGradient>
<linearGradient id="paint10_linear_1768_3005" x1="17.4746" y1="17.7498" x2="23.1667" y2="17.7498" gradientUnits="userSpaceOnUse">
<stop stop-color="#0C0098"/>
<stop offset="1" stop-color="#BC87FF"/>
</linearGradient>
<linearGradient id="paint11_linear_1768_3005" x1="17.4746" y1="24.2161" x2="23.1667" y2="24.2161" gradientUnits="userSpaceOnUse">
<stop stop-color="#0C0098"/>
<stop offset="1" stop-color="#BC87FF"/>
</linearGradient>
<linearGradient id="paint12_linear_1768_3005" x1="19.5273" y1="36.8787" x2="22.4974" y2="36.8787" gradientUnits="userSpaceOnUse">
<stop stop-color="#0C0098"/>
<stop offset="1" stop-color="#BC87FF"/>
</linearGradient>
<linearGradient id="paint13_linear_1768_3005" x1="23.5039" y1="32.4613" x2="26.4755" y2="32.4613" gradientUnits="userSpaceOnUse">
<stop stop-color="#0C0098"/>
<stop offset="1" stop-color="#BC87FF"/>
</linearGradient>
<linearGradient id="paint14_linear_1768_3005" x1="25.7812" y1="35.8014" x2="31.2058" y2="35.8014" gradientUnits="userSpaceOnUse">
<stop stop-color="#0C0098"/>
<stop offset="1" stop-color="#BC87FF"/>
</linearGradient>
<linearGradient id="paint15_linear_1768_3005" x1="21.8281" y1="40.15" x2="27.2498" y2="40.15" gradientUnits="userSpaceOnUse">
<stop stop-color="#0C0098"/>
<stop offset="1" stop-color="#BC87FF"/>
</linearGradient>
<linearGradient id="paint16_linear_1768_3005" x1="11.1836" y1="31.1702" x2="16.8748" y2="31.1702" gradientUnits="userSpaceOnUse">
<stop stop-color="#0C0098"/>
<stop offset="1" stop-color="#BC87FF"/>
</linearGradient>
<linearGradient id="paint17_linear_1768_3005" x1="11.1836" y1="24.2161" x2="16.8748" y2="24.2161" gradientUnits="userSpaceOnUse">
<stop stop-color="#0C0098"/>
<stop offset="1" stop-color="#BC87FF"/>
</linearGradient>
<linearGradient id="paint18_linear_1768_3005" x1="11.1836" y1="17.7498" x2="16.8748" y2="17.7498" gradientUnits="userSpaceOnUse">
<stop stop-color="#0C0098"/>
<stop offset="1" stop-color="#BC87FF"/>
</linearGradient>
<linearGradient id="paint19_linear_1768_3005" x1="14.627" y1="11.1561" x2="20.0613" y2="11.1561" gradientUnits="userSpaceOnUse">
<stop stop-color="#0C0098"/>
<stop offset="1" stop-color="#BC87FF"/>
</linearGradient>
<linearGradient id="paint20_linear_1768_3005" x1="27.5234" y1="29.5618" x2="33.948" y2="29.5618" gradientUnits="userSpaceOnUse">
<stop stop-color="#0C0098"/>
<stop offset="1" stop-color="#BC87FF"/>
</linearGradient>
<linearGradient id="paint21_linear_1768_3005" x1="11.4453" y1="36.4355" x2="14.4178" y2="36.4355" gradientUnits="userSpaceOnUse">
<stop stop-color="#0C0098"/>
<stop offset="1" stop-color="#BC87FF"/>
</linearGradient>
<linearGradient id="paint22_linear_1768_3005" x1="7.46875" y1="32.0159" x2="10.4405" y2="32.0159" gradientUnits="userSpaceOnUse">
<stop stop-color="#0C0098"/>
<stop offset="1" stop-color="#BC87FF"/>
</linearGradient>
<linearGradient id="paint23_linear_1768_3005" x1="2.74219" y1="35.3581" x2="8.16573" y2="35.3581" gradientUnits="userSpaceOnUse">
<stop stop-color="#0C0098"/>
<stop offset="1" stop-color="#BC87FF"/>
</linearGradient>
<linearGradient id="paint24_linear_1768_3005" x1="6.69531" y1="39.7057" x2="12.1169" y2="39.7057" gradientUnits="userSpaceOnUse">
<stop stop-color="#0C0098"/>
<stop offset="1" stop-color="#BC87FF"/>
</linearGradient>
<linearGradient id="paint25_linear_1768_3005" x1="0" y1="29.1197" x2="6.42011" y2="29.1197" gradientUnits="userSpaceOnUse">
<stop stop-color="#0C0098"/>
<stop offset="1" stop-color="#BC87FF"/>
</linearGradient>
</defs>
</svg>
